<?xml version="1.0" standalone="no"?>
<!DOCTYPE svg PUBLIC "-//W3C//DTD SVG 1.1//EN" "http://www.w3.org/Graphics/SVG/1.1/DTD/svg11.dtd" >
<svg xmlns="http://www.w3.org/2000/svg" xmlns:xlink="http://www.w3.org/1999/xlink" version="1.1">
<metadata>
Created by FontForge 20190801 at Tue Sep 30 12:30:50 2014
 By root
Copyright (c) 2013 by Mariya Pigoulevskaya. All rights reserved.
</metadata>
<defs>
<font id="Merel-Thin" horiz-adv-x="511" >
  <font-face 
    font-family="Merel-Thin"
    font-weight="400"
    font-stretch="normal"
    units-per-em="1000"
    panose-1="0 0 3 0 0 0 0 0 0 0"
    ascent="789"
    descent="-211"
    x-height="400"
    cap-height="650"
    bbox="-46 -250 1161 999"
    underline-thickness="50"
    underline-position="-100"
    unicode-range="U+0020-25CA"
  />
<missing-glyph horiz-adv-x="500" 
d="M0 0v700h500v-700h-500zM250 395l170 255h-340zM280 350l170 -255v510zM80 50h340l-170 255zM50 605v-510l170 255z" />
    <glyph glyph-name=".notdef" horiz-adv-x="500" 
d="M0 0v700h500v-700h-500zM250 395l170 255h-340zM280 350l170 -255v510zM80 50h340l-170 255zM50 605v-510l170 255z" />
    <glyph glyph-name=".null" horiz-adv-x="0" 
 />
    <glyph glyph-name="nonmarkingreturn" horiz-adv-x="333" 
 />
    <glyph glyph-name="space" unicode=" " horiz-adv-x="200" 
 />
    <glyph glyph-name="exclam" unicode="!" horiz-adv-x="141" 
d="M80 537l-3 -330q-7 -7 -14 0l-3 330v113q3 3 10 3t10 -3v-113zM71 26q8 0 14 -6t6 -14q0 -9 -6 -15t-14 -6q-9 0 -15 6t-6 15q0 8 6 14t15 6z" />
    <glyph glyph-name="quotedbl" unicode="&#x22;" horiz-adv-x="228" 
d="M70 650l-5 -197q-7 -7 -15 0v197q3 3 10 3t10 -3zM178 650l-5 -197q-7 -7 -15 0v197q3 3 10 3t10 -3z" />
    <glyph glyph-name="numbersign" unicode="#" horiz-adv-x="497" 
d="M312 268h97q3 -11 -6 -18h-96l-72 -250q-3 -3 -10 -3t-10 3l72 250h-120l-72 -250q-3 -3 -10 -3t-10 3l72 250h-96q-3 11 6 18h95l33 114h-97q-3 11 6 18h96l72 250q3 3 10 3t10 -3l-72 -250h120l72 250q3 3 10 3t10 -3l-72 -250h97q3 -10 -5 -18h-97zM205 382l-33 -114
h120l33 114h-120z" />
    <glyph glyph-name="dollar" unicode="$" horiz-adv-x="573" 
d="M498 157q0 -73 -57 -122t-147 -50v-93q-3 -3 -10 -3t-10 3v93q-108 5 -190 70q-3 3 -3 12t3 12q40 -36 95.5 -56t108.5 -20q83 0 136.5 43.5t53.5 110.5q0 39 -13 66t-44.5 47t-60 31t-83.5 28q-52 16 -83 29t-61.5 33t-44 47.5t-13.5 65.5q0 66 54 113t145 48v93
q3 3 10 3t10 -3v-93q107 -6 174 -67q3 -3 3 -12t-3 -12q-71 73 -191 73q-84 0 -133 -42t-49 -101q0 -63 42 -93t160 -68q40 -13 64 -22t53.5 -25t45.5 -33.5t27 -44.5t11 -61z" />
    <glyph glyph-name="percent" unicode="%" horiz-adv-x="769" 
d="M182 665q61 0 96.5 -47t35.5 -123t-35.5 -123t-96.5 -47t-96.5 47t-35.5 123t35.5 123t96.5 47zM549 650l-308 -650q-3 -3 -10.5 -3t-10.5 3l308 650q3 3 10.5 3t10.5 -3zM182 647q-51 0 -81.5 -41.5t-30.5 -110.5t30.5 -110.5t81.5 -41.5t81.5 41.5t30.5 110.5
t-30.5 110.5t-81.5 41.5zM587 325q61 0 96.5 -47t35.5 -123t-35.5 -123t-96.5 -47t-96.5 47t-35.5 123t35.5 123t96.5 47zM587 307q-51 0 -81.5 -41.5t-30.5 -110.5t30.5 -110.5t81.5 -41.5t81.5 41.5t30.5 110.5t-30.5 110.5t-81.5 41.5z" />
    <glyph glyph-name="ampersand" unicode="&#x26;" horiz-adv-x="614" 
d="M269 665q74 0 114 -41.5t40 -103.5q0 -68 -77 -120q-24 -17 -108 -62l213 -216q73 97 73 230q3 3 10 3t10 -3q0 -141 -79 -244l109 -108q-3 -3 -13.5 -3t-13.5 3l-95 92q-92 -107 -224 -107q-77 0 -132.5 42.5t-55.5 113.5q0 70 41.5 113t126.5 90q-93 111 -93 183
q0 58 42 98t112 40zM269 647q-62 0 -98 -34.5t-36 -85.5q0 -66 90 -174q110 60 137 83q41 35 41 84q0 55 -34 91t-100 36zM439 106l-218 223q-85 -47 -123 -86.5t-38 -101.5q0 -64 50 -101t118 -37q124 0 211 103z" />
    <glyph glyph-name="quotesingle" unicode="'" horiz-adv-x="120" 
d="M70 650l-5 -197q-7 -7 -15 0v197q3 3 10 3t10 -3z" />
    <glyph glyph-name="parenleft" unicode="(" horiz-adv-x="212" 
d="M162 650q-42 -81 -67 -185t-25 -196t25 -196t67 -185q-3 -3 -10 -3t-10 3q-41 75 -66.5 181t-25.5 200t25.5 200t66.5 181q3 3 10 3t10 -3z" />
    <glyph glyph-name="parenright" unicode=")" horiz-adv-x="212" 
d="M70 650q41 -75 66.5 -181t25.5 -200t-25.5 -200t-66.5 -181q-3 -3 -10 -3t-10 3q42 81 67 185t25 196t-25 196t-67 185q3 3 10 3t10 -3z" />
    <glyph glyph-name="asterisk" unicode="*" horiz-adv-x="402" 
d="M208 504l136 53q4 -2 6.5 -8.5t0.5 -10.5l-138 -47l96 -110q-1 -4 -6 -8.5t-9 -4.5l-93 117l-93 -117q-4 0 -9 4.5t-6 8.5l96 110l-138 47q-2 4 0.5 10.5t6.5 8.5l136 -53l-4 146q3 3 10 3t10 -3z" />
    <glyph glyph-name="plus" unicode="+" horiz-adv-x="450" 
d="M234 297h163q3 -3 3 -9t-3 -9h-163v-163q-3 -3 -9 -3t-9 3v163h-163q-3 3 -3 9t3 9h163v163q3 3 9 3t9 -3v-163z" />
    <glyph glyph-name="comma" unicode="," horiz-adv-x="148" 
d="M73 26q18 0 23 -24q5 -27 -3 -74.5t-23 -63.5q-3 -3 -10 -3t-10 3q13 17 22.5 56.5t5.5 65.5q-4 -1 -7 -1q-8 0 -13.5 5.5t-5.5 14.5q0 21 21 21z" />
    <glyph glyph-name="hyphen" unicode="-" horiz-adv-x="381" 
d="M53 297h275q3 -3 3 -9t-3 -9h-275q-3 3 -3 9t3 9z" />
    <glyph glyph-name="period" unicode="." horiz-adv-x="141" 
d="M71 -15q-9 0 -15 6t-6 15q0 8 6 14t15 6q8 0 14 -6t6 -14q0 -9 -6 -15t-14 -6z" />
    <glyph glyph-name="slash" unicode="/" horiz-adv-x="291" 
d="M241 650l-171 -650q-3 -3 -10 -3t-10 3l171 650q3 3 10 3t10 -3z" />
    <glyph glyph-name="zero" unicode="0" horiz-adv-x="662" 
d="M331 665q117 0 186.5 -93.5t69.5 -246.5t-69.5 -246.5t-186.5 -93.5t-186.5 93.5t-69.5 246.5t69.5 246.5t186.5 93.5zM331 647q-108 0 -172 -88t-64 -234t64 -234t172 -88t172 88t64 234t-64 234t-172 88z" />
    <glyph glyph-name="one" unicode="1" horiz-adv-x="325" 
d="M43 534l162 116q3 3 10 3t10 -3v-650q-3 -3 -10 -3t-10 3v629l-162 -116q-3 3 -3 10.5t3 10.5z" />
    <glyph glyph-name="two" unicode="2" horiz-adv-x="526" 
d="M88 18h375q3 -3 3 -9t-3 -9h-413v9q169 156 250 244t106.5 136.5t25.5 100.5q0 62 -47 109.5t-132 47.5q-110 0 -181 -73q-3 3 -3 12t3 12q75 67 181 67q93 0 146 -52.5t53 -122.5q0 -83 -70 -173t-294 -299z" />
    <glyph glyph-name="three" unicode="3" horiz-adv-x="560" 
d="M284 665q94 0 146.5 -50.5t52.5 -119.5q0 -54 -30 -96t-82 -60q68 -16 103.5 -62.5t35.5 -105.5q0 -83 -61 -134.5t-160 -51.5q-52 0 -104 18t-87 49q-3 3 -3 12t3 12q33 -34 85.5 -53.5t105.5 -19.5q90 0 145.5 46t55.5 122q0 66 -47 111.5t-139 45.5h-90q-3 3 -3 9t3 9
h91q70 0 114 43t44 106q0 62 -47 107t-132 45q-110 0 -181 -73q-3 3 -3 12t3 12q75 67 181 67z" />
    <glyph glyph-name="four" unicode="4" horiz-adv-x="570" 
d="M423 174h104q3 -3 3 -9t-3 -9h-104v-156q-3 -3 -10 -3t-10 3v156h-360q-3 3 -3 9t3 9l360 476q3 3 10 3t10 -3v-476zM403 617l-336 -443h336v443z" />
    <glyph glyph-name="five" unicode="5" horiz-adv-x="525" 
d="M156 650h288q3 -3 3 -9t-3 -9h-271l-43 -283q58 30 121 30q102 0 163 -54.5t61 -139.5q0 -86 -61.5 -143t-159.5 -57q-116 0 -191 67q-3 3 -3 12t3 12q33 -34 84.5 -53.5t106.5 -19.5q89 0 145 51.5t56 130.5q0 78 -55.5 127t-148.5 49q-73 0 -146 -44z" />
    <glyph glyph-name="six" unicode="6" horiz-adv-x="584" 
d="M295 415q99 0 156.5 -60.5t57.5 -154.5q0 -92 -61 -153.5t-156 -61.5q-96 0 -156.5 62t-60.5 167q0 72 24 139t58.5 114t78.5 87t77.5 62t61.5 34q3 3 22 3t22 -3q-30 -10 -68.5 -33.5t-84.5 -60t-87 -92t-62 -118.5q73 69 178 69zM292 3q86 0 141.5 56t55.5 141
q0 87 -51.5 142t-142.5 55q-64 0 -114 -27.5t-74 -57.5q-12 -45 -12 -98q0 -97 54.5 -154t142.5 -57z" />
    <glyph glyph-name="seven" unicode="7" horiz-adv-x="519" 
d="M479 641l-339 -641q-3 -3 -11 -3t-11 3l334 632h-394q-3 3 -3 9t3 9h421v-9z" />
    <glyph glyph-name="eight" unicode="8" horiz-adv-x="542" 
d="M271 665q90 0 142 -50.5t52 -119.5q0 -52 -31 -95t-83 -62q66 -17 103.5 -65t37.5 -106q0 -82 -62.5 -132t-158.5 -50t-158.5 50t-62.5 132q0 58 37.5 106t103.5 65q-52 19 -83 62t-31 95q0 69 52 119.5t142 50.5zM271 647q-82 0 -128 -45t-46 -107q0 -61 44.5 -105
t111.5 -44h36q67 0 111.5 44t44.5 105q0 62 -46 107t-128 45zM288 328h-34q-85 0 -134.5 -48t-49.5 -113q0 -74 56.5 -119t144.5 -45t144.5 45t56.5 119q0 65 -49.5 113t-134.5 48z" />
    <glyph glyph-name="nine" unicode="9" horiz-adv-x="584" 
d="M292 665q96 0 156.5 -62t60.5 -167q0 -72 -24 -139t-58.5 -114t-78.5 -87t-77.5 -62t-61.5 -34q-3 -3 -22 -3t-22 3q30 10 68.5 33.5t84.5 60t87 92t62 118.5q-73 -69 -178 -69q-99 0 -156.5 60.5t-57.5 154.5q0 92 61 153.5t156 61.5zM292 647q-86 0 -141.5 -56
t-55.5 -141q0 -87 51.5 -142t142.5 -55q64 0 114 27.5t74 57.5q12 45 12 98q0 97 -54.5 154t-142.5 57z" />
    <glyph glyph-name="colon" unicode=":" horiz-adv-x="141" 
d="M71 374q-9 0 -15 6t-6 15q0 8 6 14t15 6q8 0 14 -6t6 -14q0 -9 -6 -15t-14 -6zM71 -15q-9 0 -15 6t-6 15q0 8 6 14t15 6q8 0 14 -6t6 -14q0 -9 -6 -15t-14 -6z" />
    <glyph glyph-name="semicolon" unicode=";" horiz-adv-x="148" 
d="M73 415q8 0 14 -6t6 -14q0 -9 -6 -15t-14 -6q-9 0 -15 6t-6 15q0 8 6 14t15 6zM73 26q18 0 23 -24q5 -27 -3 -74.5t-23 -63.5q-3 -3 -10 -3t-10 3q13 17 22.5 56.5t5.5 65.5q-4 -1 -7 -1q-8 0 -13.5 5.5t-5.5 14.5q0 21 21 21z" />
    <glyph glyph-name="less" unicode="&#x3c;" horiz-adv-x="463" 
d="M53 290l357 178q3 -3 3 -11t-3 -11l-335 -167l335 -167q3 -3 3 -11t-3 -11l-357 178q-3 3 -3 11t3 11z" />
    <glyph glyph-name="equal" unicode="=" horiz-adv-x="450" 
d="M53 345h344q3 -3 3 -9t-3 -9h-344q-3 3 -3 9t3 9zM53 226h344q3 -3 3 -9t-3 -9h-344q-3 3 -3 9t3 9z" />
    <glyph glyph-name="greater" unicode="&#x3e;" horiz-adv-x="463" 
d="M53 468l357 -178q3 -3 3 -11t-3 -11l-357 -178q-3 3 -3 11t3 11l335 167l-335 167q-3 3 -3 11t3 11z" />
    <glyph glyph-name="question" unicode="?" horiz-adv-x="496" 
d="M227 207q-3 -3 -10 -3t-10 3q0 58 20 84.5t65 51.5q75 43 104.5 74.5t29.5 86.5q0 59 -49 101t-133 42q-120 0 -191 -73q-3 3 -3 12t3 12q75 67 191 67q93 0 147.5 -47.5t54.5 -113.5q0 -62 -32 -97t-102 -75q-32 -18 -46.5 -29t-26.5 -35.5t-12 -60.5zM217 -15
q-9 0 -15 6t-6 15q0 8 6 14t15 6q8 0 14 -6t6 -14q0 -9 -6 -15t-14 -6z" />
    <glyph glyph-name="at" unicode="@" horiz-adv-x="954" 
d="M480 613q182 0 290.5 -112t108.5 -287q0 -66 -17 -114.5t-44 -71.5t-50.5 -33t-44.5 -10q-77 2 -84 76q-69 -76 -169 -76q-93 0 -150 61t-57 154t57 154t150 61q100 0 169 -76v61q3 3 10 3t10 -3v-327q0 -69 60 -69q59 0 99.5 54.5t40.5 155.5q0 168 -103 274.5
t-276 106.5q-161 0 -273 -110.5t-112 -274.5q0 -140 83 -240t215 -126q3 -3 3 -9.5t-3 -9.5q-140 26 -229 131.5t-89 253.5q0 171 118 287t287 116zM470 397q-85 0 -136 -55.5t-51 -141.5t51 -141.5t136 -55.5q56 0 101 27t68 56v228q-23 29 -68 56t-101 27z" />
    <glyph glyph-name="A" unicode="A" horiz-adv-x="657" 
d="M339 650l278 -650q-3 -3 -10.5 -3t-10.5 3l-94 219h-347l-94 -219q-3 -3 -10.5 -3t-10.5 3l278 650q3 3 10.5 3t10.5 -3zM162 237h333l-167 388z" />
    <glyph glyph-name="B" unicode="B" horiz-adv-x="611" 
d="M100 650h240q84 0 139 -44.5t55 -117.5q0 -54 -28 -93.5t-79 -55.5q67 -16 100.5 -59.5t33.5 -103.5q0 -77 -57.5 -126.5t-161.5 -49.5h-242v650zM120 632v-286h236q73 0 115.5 39t42.5 103q0 66 -49 105t-125 39h-220zM120 328v-310h222q95 0 147 44t52 114
q0 68 -45.5 110t-140.5 42h-235z" />
    <glyph glyph-name="C" unicode="C" horiz-adv-x="737" 
d="M413 3q137 0 226 73q3 -3 3 -12t-3 -12q-92 -67 -226 -67q-147 0 -242.5 98.5t-95.5 241.5t95.5 241.5t242.5 98.5q134 0 226 -67q3 -3 3 -12t-3 -12q-89 73 -226 73q-138 0 -228 -93t-90 -229t90 -229t228 -93z" />
    <glyph glyph-name="D" unicode="D" horiz-adv-x="715" 
d="M100 650h197q167 0 255 -93t88 -232t-88 -232t-255 -93h-197v650zM120 18h177q158 0 240.5 87.5t82.5 219.5t-82.5 219.5t-240.5 87.5h-177v-614z" />
    <glyph glyph-name="E" unicode="E" horiz-adv-x="580" 
d="M120 18h407q3 -3 3 -9t-3 -9h-427v650h427q3 -3 3 -9t-3 -9h-407v-288h379q3 -3 3 -9t-3 -9h-379v-308z" />
    <glyph glyph-name="F" unicode="F" horiz-adv-x="580" 
d="M120 339h379q3 -3 3 -9t-3 -9h-379v-321q-3 -3 -10 -3t-10 3v650h427q3 -3 3 -9t-3 -9h-407v-293z" />
    <glyph glyph-name="G" unicode="G" horiz-adv-x="744" 
d="M630 62v245q3 3 9.5 3t9.5 -3v-255q-93 -67 -236 -67q-147 0 -242.5 98.5t-95.5 241.5t95.5 241.5t242.5 98.5q134 0 226 -67q3 -3 3 -12t-3 -12q-89 73 -226 73q-138 0 -228 -93t-90 -229t90 -229t228 -93q126 0 217 59z" />
    <glyph glyph-name="H" unicode="H" horiz-adv-x="721" 
d="M601 344v306q3 3 10 3t10 -3v-650q-3 -3 -10 -3t-10 3v326h-481v-326q-3 -3 -10 -3t-10 3v650q3 3 10 3t10 -3v-306h481z" />
    <glyph glyph-name="I" unicode="I" horiz-adv-x="220" 
d="M120 650v-650q-3 -3 -10 -3t-10 3v650q3 3 10 3t10 -3z" />
    <glyph glyph-name="J" unicode="J" horiz-adv-x="413" 
d="M313 650v-471q0 -99 -42.5 -146.5t-116.5 -47.5q-58 0 -111 34q-3 3 -3 12t3 12q52 -40 111 -40q139 0 139 176v471q3 3 10 3t10 -3z" />
    <glyph glyph-name="K" unicode="K" horiz-adv-x="593" 
d="M140 335l413 -335q-3 -3 -15.5 -3t-15.5 3l-402 326v-326q-3 -3 -10 -3t-10 3v650q3 3 10 3t10 -3v-306l379 306q3 3 15.5 3t15.5 -3z" />
    <glyph glyph-name="L" unicode="L" horiz-adv-x="559" 
d="M120 18h396q3 -3 3 -9t-3 -9h-416v650q3 3 10 3t10 -3v-632z" />
    <glyph glyph-name="M" unicode="M" horiz-adv-x="862" 
d="M673 650l149 -650q-3 -3 -10 -3t-10 3l-141 616l-220 -616q-3 -3 -10 -3t-10 3l-220 616l-141 -616q-3 -3 -10 -3t-10 3l149 650q3 3 10 3t10 -3l222 -622l222 622q3 3 10 3t10 -3z" />
    <glyph glyph-name="N" unicode="N" horiz-adv-x="711" 
d="M616 650v-650q-3 -3 -10 -3t-10 3l-481 618v-618q-3 -3 -10 -3t-10 3v650q3 3 10 3t10 -3l481 -618v618q3 3 10 3t10 -3z" />
    <glyph glyph-name="O" unicode="O" horiz-adv-x="826" 
d="M413 665q147 0 242.5 -98.5t95.5 -241.5t-95.5 -241.5t-242.5 -98.5t-242.5 98.5t-95.5 241.5t95.5 241.5t242.5 98.5zM413 647q-138 0 -228 -93t-90 -229t90 -229t228 -93t228 93t90 229t-90 229t-228 93z" />
    <glyph glyph-name="P" unicode="P" horiz-adv-x="626" 
d="M100 650h217q116 0 175 -60t59 -145t-59 -145t-175 -60h-197v-240q-3 -3 -10 -3t-10 3v650zM120 258h197q107 0 160.5 54.5t53.5 132.5t-53.5 132.5t-160.5 54.5h-197v-374z" />
    <glyph glyph-name="Q" unicode="Q" horiz-adv-x="826" 
d="M413 665q147 0 242.5 -98.5t95.5 -241.5q0 -126 -76.5 -220t-200.5 -115l119 -153q-3 -3 -12 -3t-12 3l-117 150q-24 -2 -39 -2q-147 0 -242.5 98.5t-95.5 241.5t95.5 241.5t242.5 98.5zM413 647q-138 0 -228 -93t-90 -229t90 -229t228 -93t228 93t90 229t-90 229
t-228 93z" />
    <glyph glyph-name="R" unicode="R" horiz-adv-x="620" 
d="M100 650h227q116 0 175 -57.5t59 -142.5q0 -76 -48 -131.5t-143 -66.5l200 -252q-3 -3 -12.5 -3t-12.5 3l-198 250h-227v-250q-3 -3 -10 -3t-10 3v650zM120 632v-364h207q108 0 161 52t53 130t-53 130t-161 52h-207z" />
    <glyph glyph-name="S" unicode="S" horiz-adv-x="573" 
d="M277 665q116 0 191 -67q3 -3 3 -12t-3 -12q-71 73 -191 73q-84 0 -133 -42t-49 -101q0 -63 42 -93t160 -68q40 -13 64 -22t53.5 -25t45.5 -33.5t27 -44.5t11 -61q0 -75 -59 -123.5t-151 -48.5q-116 0 -204 70q-3 3 -3 12t3 12q40 -36 95.5 -56t108.5 -20q83 0 136.5 43.5
t53.5 110.5q0 39 -13 66t-44.5 47t-60 31t-83.5 28q-52 16 -83 29t-61.5 33t-44 47.5t-13.5 65.5q0 66 54.5 113.5t147.5 47.5z" />
    <glyph glyph-name="T" unicode="T" horiz-adv-x="584" 
d="M43 650h498q3 -3 3 -9t-3 -9h-239v-632q-3 -3 -10 -3t-10 3v632h-239q-3 3 -3 9t3 9z" />
    <glyph glyph-name="U" unicode="U" horiz-adv-x="699" 
d="M584 237v413q3 3 10 3t10 -3v-413q0 -116 -68.5 -184t-183.5 -68t-183.5 68t-68.5 184v413q3 3 10 3t10 -3v-413q0 -109 63 -171.5t169 -62.5t169 62.5t63 171.5z" />
    <glyph glyph-name="V" unicode="V" horiz-adv-x="647" 
d="M324 25l262 625q3 3 10.5 3t10.5 -3l-273 -650q-3 -3 -10.5 -3t-10.5 3l-273 650q3 3 10.5 3t10.5 -3z" />
    <glyph glyph-name="W" unicode="W" horiz-adv-x="996" 
d="M956 650l-224 -650q-3 -3 -10 -3t-10 3l-214 621l-214 -621q-3 -3 -10 -3t-10 3l-224 650q3 3 10 3t10 -3l214 -621l214 621q3 3 10 3t10 -3l214 -621l214 621q3 3 10 3t10 -3z" />
    <glyph glyph-name="X" unicode="X" horiz-adv-x="584" 
d="M306 335l238 -335q-3 -3 -12 -3t-12 3l-228 321l-228 -321q-3 -3 -12 -3t-12 3l238 335l-225 315q3 3 12 3t12 -3l215 -301l215 301q3 3 12 3t12 -3z" />
    <glyph glyph-name="Y" unicode="Y" horiz-adv-x="609" 
d="M315 257v-257q-3 -3 -10 -3t-10 3v256l-255 394q3 3 11.5 3t11.5 -3l242 -373l241 373q3 3 11.5 3t11.5 -3z" />
    <glyph glyph-name="Z" unicode="Z" horiz-adv-x="543" 
d="M80 18h410q3 -3 3 -9t-3 -9h-440v9l413 623h-402q-3 3 -3 9t3 9h432v-9z" />
    <glyph glyph-name="bracketleft" unicode="[" horiz-adv-x="234" 
d="M70 -94h111q3 -3 3 -9t-3 -9h-131v762h131q3 -3 3 -9t-3 -9h-111v-726z" />
    <glyph glyph-name="backslash" unicode="\" horiz-adv-x="291" 
d="M221 0l-171 650q3 3 10 3t10 -3l171 -650q-3 -3 -10 -3t-10 3z" />
    <glyph glyph-name="bracketright" unicode="]" horiz-adv-x="234" 
d="M184 -112h-131q-3 3 -3 9t3 9h111v726h-111q-3 3 -3 9t3 9h131v-762z" />
    <glyph glyph-name="asciicircum" unicode="^" horiz-adv-x="436" 
d="M218 650l165 -166q3 -3 3 -13.5t-3 -13.5l-165 167l-165 -167q-3 3 -3 13.5t3 13.5z" />
    <glyph glyph-name="underscore" unicode="_" horiz-adv-x="499" 
d="M53 -82h393q3 -3 3 -9t-3 -9h-393q-3 3 -3 9t3 9z" />
    <glyph glyph-name="grave" unicode="`" horiz-adv-x="232" 
d="M64 841l118 -121q0 -11 -11 -11l-121 118q0 4 5 9t9 5z" />
    <glyph glyph-name="a" unicode="a" horiz-adv-x="492" 
d="M244 415q83 0 127 -46t44 -123v-246q-3 -3 -10 -3t-10 3v55q-29 -26 -78.5 -48t-105.5 -22q-71 0 -112.5 36.5t-41.5 93.5t41.5 93.5t112.5 36.5q56 0 105.5 -22t78.5 -48v71q0 70 -38.5 110.5t-112.5 40.5q-76 0 -145 -51q-3 3 -3 11t3 11q57 47 145 47zM211 227
q-62 0 -98 -31.5t-36 -80.5t36 -80.5t98 -31.5q57 0 109.5 26t74.5 51v70q-22 25 -74.5 51t-109.5 26z" />
    <glyph glyph-name="b" unicode="b" horiz-adv-x="536" 
d="M269 415q93 0 150 -61t57 -154t-57 -154t-150 -61q-100 0 -169 76v-61q-3 -3 -10 -3t-10 3v650q3 3 10 3t10 -3v-311q69 76 169 76zM269 3q85 0 136 55.5t51 141.5t-51 141.5t-136 55.5q-56 0 -101 -27t-68 -56v-228q23 -29 68 -56t101 -27z" />
    <glyph glyph-name="c" unicode="c" 
d="M283 3q79 0 148 51q3 -3 3 -11t-3 -11q-57 -47 -148 -47q-98 0 -160.5 61.5t-62.5 153.5t62.5 153.5t160.5 61.5q91 0 148 -47q3 -3 3 -11t-3 -11q-69 51 -148 51q-89 0 -146 -56t-57 -141t57 -141t146 -56z" />
    <glyph glyph-name="d" unicode="d" horiz-adv-x="536" 
d="M436 339v311q3 3 10 3t10 -3v-650q-3 -3 -10 -3t-10 3v61q-69 -76 -169 -76q-93 0 -150 61t-57 154t57 154t150 61q100 0 169 -76zM436 86v228q-23 29 -68 56t-101 27q-85 0 -136 -55.5t-51 -141.5t51 -141.5t136 -55.5q56 0 101 27t68 56z" />
    <glyph glyph-name="e" unicode="e" horiz-adv-x="522" 
d="M270 415q92 0 148 -63t45 -152h-383q0 -90 55.5 -143.5t144.5 -53.5q79 0 148 51q3 -3 3 -11t-3 -11q-57 -47 -148 -47q-97 0 -158.5 59t-61.5 156q0 92 58 153.5t152 61.5zM270 397q-80 0 -132 -50t-57 -129h364q3 76 -47 127.5t-128 51.5z" />
    <glyph glyph-name="f" unicode="f" horiz-adv-x="374" 
d="M225 647q-41 0 -67 -25t-26 -80v-142h168q3 -3 3 -9t-3 -9h-168v-382q-3 -3 -10 -3t-10 3v382h-69q-3 3 -3 9t3 9h69v142q0 62 31.5 92.5t81.5 30.5q53 0 106 -34q3 -3 3 -12t-3 -12q-50 40 -106 40z" />
    <glyph glyph-name="g" unicode="g" horiz-adv-x="533" 
d="M267 415q100 0 169 -76v61q3 3 10 3t10 -3v-400q0 -79 -47 -128.5t-136 -49.5q-91 0 -148 47q-3 3 -3 11t3 11q69 -51 148 -51q80 0 121.5 44t41.5 116v61q-69 -76 -169 -76q-93 0 -150 61t-57 154t57 154t150 61zM267 397q-85 0 -136 -55.5t-51 -141.5t51 -141.5
t136 -55.5q56 0 101 27t68 56v228q-23 29 -68 56t-101 27z" />
    <glyph glyph-name="h" unicode="h" horiz-adv-x="516" 
d="M275 415q81 0 122.5 -45.5t41.5 -121.5v-248q-3 -3 -10 -3t-10 3v248q0 69 -35.5 109t-108.5 40q-52 0 -99.5 -31t-73.5 -62v-304q-3 -3 -10 -3t-10 3v650q3 3 10 3t10 -3v-321q80 86 173 86z" />
    <glyph glyph-name="i" unicode="i" horiz-adv-x="203" 
d="M103 553q8 0 14 -6t6 -14q0 -9 -6 -15t-14 -6q-9 0 -15 6t-6 15q0 8 6 14t15 6zM112 400v-400q-3 -3 -10 -3t-10 3v400q3 3 10 3t10 -3z" />
    <glyph glyph-name="j" unicode="j" horiz-adv-x="264" 
d="M167 547q7 0 12 -5t5 -12t-5 -12.5t-12 -5.5t-12.5 5t-5.5 13q0 7 5.5 12t12.5 5zM176 400v-489q0 -44 -24 -66.5t-61 -22.5q-42 0 -83 26q-3 3 -3 12t3 12q41 -32 83 -32q29 0 47 17t18 54v489q3 3 10 3t10 -3z" />
    <glyph glyph-name="k" unicode="k" horiz-adv-x="440" 
d="M119 205l281 -205q-3 -3 -16.5 -3t-16.5 3l-265 193v-193q-3 -3 -10 -3t-10 3v650q3 3 10 3t10 -3v-433l255 183q3 3 16.5 3t16.5 -3z" />
    <glyph glyph-name="l" unicode="l" horiz-adv-x="179" 
d="M102 650v-650q-3 -3 -10 -3t-10 3v650q3 3 10 3t10 -3z" />
    <glyph glyph-name="m" unicode="m" horiz-adv-x="825" 
d="M594 415q76 0 115 -45.5t39 -121.5v-248q-3 -3 -10 -3t-10 3v248q0 69 -33 109t-101 40q-51 0 -97 -31t-73 -62v-304q-3 -3 -10 -3t-10 3v248q0 69 -33 109t-101 40q-51 0 -97 -31t-73 -62v-304q-3 -3 -10 -3t-10 3v400q3 3 10 3t10 -3v-71q80 86 170 86q113 0 144 -97
q91 97 180 97z" />
    <glyph glyph-name="n" unicode="n" horiz-adv-x="514" 
d="M273 415q81 0 122.5 -45.5t41.5 -121.5v-248q-3 -3 -10 -3t-10 3v248q0 69 -35.5 109t-108.5 40q-52 0 -99.5 -31t-73.5 -62v-304q-3 -3 -10 -3t-10 3v400q3 3 10 3t10 -3v-71q80 86 173 86z" />
    <glyph glyph-name="o" unicode="o" horiz-adv-x="546" 
d="M273 415q92 0 152.5 -62t60.5 -153t-60.5 -153t-152.5 -62t-152.5 62t-60.5 153t60.5 153t152.5 62zM273 397q-83 0 -138 -56.5t-55 -140.5t55 -140.5t138 -56.5t138 56.5t55 140.5t-55 140.5t-138 56.5z" />
    <glyph glyph-name="p" unicode="p" horiz-adv-x="538" 
d="M271 415q93 0 150 -61t57 -154t-57 -154t-150 -61q-100 0 -169 76v-224q-3 -3 -10 -3t-10 3v563q3 3 10 3t10 -3v-61q69 76 169 76zM271 3q85 0 136 55.5t51 141.5t-51 141.5t-136 55.5q-56 0 -101 -27t-68 -56v-228q23 -29 68 -56t101 -27z" />
    <glyph glyph-name="q" unicode="q" horiz-adv-x="536" 
d="M436 339v61q3 3 10 3t10 -3v-563q-3 -3 -10 -3t-10 3v224q-69 -76 -169 -76q-93 0 -150 61t-57 154t57 154t150 61q100 0 169 -76zM436 86v228q-23 29 -68 56t-101 27q-85 0 -136 -55.5t-51 -141.5t51 -141.5t136 -55.5q56 0 101 27t68 56z" />
    <glyph glyph-name="r" unicode="r" horiz-adv-x="391" 
d="M348 396q3 -3 3 -10.5t-3 -10.5q-35 22 -87 22q-14 0 -29 -4t-26.5 -9t-24.5 -14.5t-21.5 -16.5t-20 -19t-16 -17t-13.5 -16t-10 -12v-289q-3 -3 -10 -3t-10 3v400q3 3 10 3t10 -3v-86q75 101 161 101q51 0 87 -19z" />
    <glyph glyph-name="s" unicode="s" horiz-adv-x="403" 
d="M206 213q40 -13 61.5 -22.5t44 -23.5t32 -31.5t9.5 -41.5q0 -54 -44.5 -81.5t-103.5 -27.5q-41 0 -81.5 13.5t-64.5 33.5q-3 3 -3 11t3 11q67 -51 145 -51q51 0 90 22t39 67q0 38 -29.5 57.5t-103.5 44.5q-33 11 -50 17.5t-40 17.5t-33.5 21.5t-18.5 25.5t-8 34
q0 49 43 77t100 28q40 0 80.5 -13.5t64.5 -33.5q3 -3 3 -11t-3 -11q-67 51 -143 51q-50 0 -87.5 -22t-37.5 -63q0 -36 30.5 -55t105.5 -44z" />
    <glyph glyph-name="t" unicode="t" horiz-adv-x="348" 
d="M295 46q3 -3 3 -12t-3 -12q-49 -37 -99 -37q-37 0 -60.5 22.5t-23.5 66.5v308h-69q-3 3 -3 9t3 9h69v130q3 3 10 3t10 -3v-130h151q3 -3 3 -9t-3 -9h-151v-308q0 -37 18 -54t46 -17q43 0 99 43z" />
    <glyph glyph-name="u" unicode="u" 
d="M414 96v304q3 3 10 3t10 -3v-400q-3 -3 -10 -3t-10 3v71q-80 -86 -173 -86q-81 0 -122.5 45.5t-41.5 121.5v248q3 3 10 3t10 -3v-248q0 -69 35.5 -109t108.5 -40q52 0 99.5 31t73.5 62z" />
    <glyph glyph-name="v" unicode="v" horiz-adv-x="486" 
d="M243 23l181 377q3 3 11 3t11 -3l-192 -400q-3 -3 -11 -3t-11 3l-192 400q3 3 11 3t11 -3z" />
    <glyph glyph-name="w" unicode="w" horiz-adv-x="669" 
d="M182 0l-142 400q3 3 10.5 3t10.5 -3l132 -370l131 370q3 3 10.5 3t10.5 -3l132 -370l131 370q3 3 10.5 3t10.5 -3l-142 -400q-3 -3 -10.5 -3t-10.5 3l-131 370l-132 -370q-3 -3 -10.5 -3t-10.5 3z" />
    <glyph glyph-name="x" unicode="x" horiz-adv-x="465" 
d="M247 205l178 -205q-3 -3 -13 -3t-13 3l-166 192l-167 -192q-3 -3 -13 -3t-13 3l178 205l-169 195q3 3 13 3t13 -3l158 -182l157 182q3 3 13 3t13 -3z" />
    <glyph glyph-name="y" unicode="y" horiz-adv-x="486" 
d="M244 52l180 348q3 3 11 3t11 -3l-292 -563q-3 -3 -11 -3t-11 3l101 194l-193 369q3 3 11 3t11 -3z" />
    <glyph glyph-name="z" unicode="z" horiz-adv-x="415" 
d="M77 18h290q3 -3 3 -9t-3 -9h-322v8l293 374h-281q-3 3 -3 9t3 9h313v-8z" />
    <glyph glyph-name="braceleft" unicode="{" horiz-adv-x="272" 
d="M76 269q29 -10 41 -25.5t16 -42.5q9 -67 16 -102.5t25 -92t48 -118.5q-3 -3 -10 -3t-10 3q-29 56 -48 117t-25.5 96.5t-14.5 94.5q-3 25 -15.5 39.5t-48.5 25.5v16q36 11 48.5 25.5t15.5 39.5q8 59 14.5 94.5t25.5 96.5t48 117q3 3 10 3t10 -3q-30 -62 -48 -118.5
t-25 -92t-16 -102.5q-4 -27 -16 -42.5t-41 -25.5z" />
    <glyph glyph-name="bar" unicode="|" horiz-adv-x="120" 
d="M70 650v-710q-3 -3 -10 -3t-10 3v710q3 3 10 3t10 -3z" />
    <glyph glyph-name="braceright" unicode="}" horiz-adv-x="272" 
d="M158 342q3 -25 15.5 -39.5t48.5 -25.5v-16q-36 -11 -48.5 -25.5t-15.5 -39.5q-8 -59 -14.5 -94.5t-25.5 -96.5t-48 -117q-3 -3 -10 -3t-10 3q30 62 48 118.5t25 92t16 102.5q4 27 16 42.5t41 25.5q-29 10 -41 25.5t-16 42.5q-9 67 -16 102.5t-25 92t-48 118.5q3 3 10 3
t10 -3q29 -56 48 -117t25.5 -96.5t14.5 -94.5z" />
    <glyph glyph-name="asciitilde" unicode="~" horiz-adv-x="488" 
d="M167 296q34 0 80 -24.5t75 -24.5q13 0 25.5 2.5t26.5 8.5t21.5 9.5t22.5 11.5t17 9q3 -3 3 -9t-3 -9q-2 -1 -22 -12t-29 -15t-27.5 -9t-35.5 -5q-34 0 -80 24.5t-75 24.5q-13 0 -25.5 -2.5t-26.5 -8.5t-21.5 -9.5t-22.5 -11.5t-17 -9q-3 3 -3 9t3 9q2 1 22 12t29 15
t27.5 9t35.5 5z" />
    <glyph glyph-name="exclamdown" unicode="&#xa1;" horiz-adv-x="141" 
d="M71 494q8 0 14 -6t6 -15q0 -8 -6 -14t-14 -6q-9 0 -15 6t-6 14q0 9 6 15t15 6zM80 -58v-113q-3 -3 -10 -3t-10 3v113l3 330q7 7 14 0z" />
    <glyph glyph-name="cent" unicode="&#xa2;" horiz-adv-x="504" 
d="M283 3q79 0 148 51q3 -3 3 -11t-3 -11q-52 -44 -138 -47v-93q-3 -3 -10 -3t-10 3v93q-94 4 -153.5 65t-59.5 150t59.5 150t153.5 65v93q3 3 10 3t10 -3v-93q86 -3 138 -47q3 -3 3 -11t-3 -11q-69 51 -148 51q-89 0 -146 -56t-57 -141t57 -141t146 -56z" />
    <glyph glyph-name="sterling" unicode="&#xa3;" horiz-adv-x="599" 
d="M114 18h387q3 -3 3 -9t-3 -9h-415v9q39 45 47.5 125.5t-2.5 165.5h-88q-3 3 -3 9t3 9h87q-9 124 -9 172q0 70 53 122.5t146 52.5q106 0 181 -67q3 -3 3 -12t-3 -12q-71 73 -181 73q-84 0 -131.5 -47.5t-47.5 -109.5q0 -44 9 -172h245q3 -3 3 -9t-3 -9h-243
q10 -81 2.5 -160.5t-40.5 -121.5z" />
    <glyph glyph-name="currency" unicode="&#xa4;" horiz-adv-x="430" 
d="M380 458l-64 -64q32 -38 32 -87t-32 -87l64 -63q0 -5 -5 -10t-10 -5l-63 64q-38 -32 -87 -32t-87 32l-64 -64q-4 0 -9 5t-5 9l64 64q-32 38 -32 87.5t32 86.5l-64 64q0 4 5 9t9 5l64 -64q38 32 87 32.5t87 -32.5l64 64q4 0 9 -5t5 -9zM135 227q34 -34 81 -34t80 33
q32 32 32 80t-33 81t-81 33t-80 -32q-33 -33 -32.5 -80t33.5 -81z" />
    <glyph glyph-name="yen" unicode="&#xa5;" horiz-adv-x="609" 
d="M315 150h164q3 -3 3 -9t-3 -9h-164v-132q-3 -3 -10 -3t-10 3v132h-164q-3 3 -3 9t3 9h164v93h-164q-3 3 -3 9t3 9h161l-252 389q3 3 11.5 3t11.5 -3l242 -373l241 373q3 3 11.5 3t11.5 -3l-252 -389h162q3 -3 3 -9t-3 -9h-164v-93z" />
    <glyph glyph-name="brokenbar" unicode="&#xa6;" horiz-adv-x="120" 
d="M70 650v-308q-3 -3 -10 -3t-10 3v308q3 3 10 3t10 -3zM70 248v-308q-3 -3 -10 -3t-10 3v308q3 3 10 3t10 -3z" />
    <glyph glyph-name="section" unicode="&#xa7;" horiz-adv-x="403" 
d="M193 549q40 0 80.5 -13.5t64.5 -33.5q3 -3 3 -11t-3 -11q-67 51 -143 51q-50 0 -87.5 -22t-37.5 -63q0 -36 30.5 -55t105.5 -44q40 -13 61.5 -22.5t44 -23.5t32 -31.5t9.5 -41.5q0 -71 -80 -99q40 -17 60 -38.5t20 -55.5q0 -54 -44.5 -81.5t-103.5 -27.5
q-41 0 -81.5 13.5t-64.5 33.5q-3 3 -3 11t3 11q67 -51 145 -51q51 0 90 22t39 67q0 38 -29.5 57.5t-103.5 44.5q-33 11 -50 17.5t-40 17.5t-33.5 21.5t-18.5 25.5t-8 34q0 37 25.5 62.5t65.5 35.5q-45 18 -68 39.5t-23 55.5q0 49 43 77t100 28zM200 328l-26 9
q-44 -5 -74 -26.5t-30 -57.5t30.5 -55t105.5 -44l39 -13q88 17 88 85q0 38 -29.5 57.5t-103.5 44.5z" />
    <glyph glyph-name="dieresis" unicode="&#xa8;" horiz-adv-x="375" 
d="M71 803q8 0 14 -6t6 -14q0 -9 -6 -15t-14 -6q-9 0 -15 6t-6 15q0 8 6 14t15 6zM305 803q8 0 14 -6t6 -14q0 -9 -6 -15t-14 -6q-9 0 -15 6t-6 15q0 8 6 14t15 6z" />
    <glyph glyph-name="copyright" unicode="&#xa9;" horiz-adv-x="650" 
d="M325 700q120 0 197.5 -79.5t77.5 -190.5t-77.5 -190.5t-197.5 -79.5t-197.5 79.5t-77.5 190.5t77.5 190.5t197.5 79.5zM325 682q-112 0 -183.5 -73t-71.5 -179t71.5 -179t183.5 -73t183.5 73t71.5 179t-71.5 179t-183.5 73zM330 582q62 0 105 -33q2 -2 2 -10.5t-2 -10.5
q-49 36 -105 36q-59 0 -98 -38t-39 -96t39 -96t98 -38q56 0 105 36q2 -2 2 -10.5t-2 -10.5q-43 -33 -105 -33q-69 0 -113 43.5t-44 108.5t44 108.5t113 43.5z" />
    <glyph glyph-name="guillemotleft" unicode="&#xab;" horiz-adv-x="389" 
d="M77 217l128 -156q-3 -3 -9.5 -3t-9.5 3l-136 156l136 156q3 3 9.5 3t9.5 -3zM211 217l128 -156q-3 -3 -9.5 -3t-9.5 3l-136 156l136 156q3 3 9.5 3t9.5 -3z" />
    <glyph glyph-name="logicalnot" unicode="&#xac;" horiz-adv-x="447" 
d="M397 297v-120q-3 -3 -10 -3t-10 3v102h-324q-3 3 -3 9t3 9h344z" />
    <glyph glyph-name="registered" unicode="&#xae;" horiz-adv-x="650" 
d="M325 700q120 0 197.5 -79.5t77.5 -190.5t-77.5 -190.5t-197.5 -79.5t-197.5 79.5t-77.5 190.5t77.5 190.5t197.5 79.5zM325 682q-112 0 -183.5 -73t-71.5 -179t71.5 -179t183.5 -73t183.5 73t71.5 179t-71.5 179t-183.5 73zM216 574h136q44 0 71.5 -20.5t27.5 -62.5
q0 -73 -81 -82l98 -126q-2 -2 -13 -2t-12 2l-97 125h-110v-125q-2 -2 -10 -2t-10 2v291zM236 556v-130h116q33 0 56 15.5t23 49.5t-23 49.5t-56 15.5h-116z" />
    <glyph glyph-name="macron" unicode="&#xaf;" horiz-adv-x="365" 
d="M53 780h259q3 -3 3 -9t-3 -9h-259q-3 3 -3 9t3 9z" />
    <glyph glyph-name="degree" unicode="&#xb0;" horiz-adv-x="343" 
d="M171 707q51 0 86.5 -34.5t35.5 -83.5q0 -50 -35 -84t-87 -35q-51 0 -86 34.5t-35 84.5q0 49 35 83.5t86 34.5zM171 688q-43 0 -71.5 -28.5t-28.5 -70.5t28.5 -71t71.5 -29t72 29t29 71t-29 71t-72 28z" />
    <glyph glyph-name="plusminus" unicode="&#xb1;" horiz-adv-x="450" 
d="M216 335h-163q-3 3 -3 9t3 9h163v107q3 3 9 3t9 -3v-107h163q3 -3 3 -9t-3 -9h-163v-107q-3 -3 -9 -3t-9 3v107zM53 172h344q3 -3 3 -9t-3 -9h-344q-3 3 -3 9t3 9z" />
    <glyph glyph-name="acute" unicode="&#xb4;" horiz-adv-x="232" 
d="M50 720l118 121q4 0 9 -5t5 -9l-121 -118q-11 0 -11 11z" />
    <glyph glyph-name="paragraph" unicode="&#xb6;" horiz-adv-x="583" 
d="M257 650h273q3 -3 3 -9t-3 -9h-78v-795q-3 -3 -10 -3t-10 3v795h-155v-795q-3 -3 -10 -3t-10 3v421q-53 0 -97.5 17.5t-77 62.5t-32.5 112q0 99 62 149.5t145 50.5z" />
    <glyph glyph-name="periodcentered" unicode="&#xb7;" horiz-adv-x="141" 
d="M71 237q-9 0 -15 6t-6 15q0 8 6 14t15 6q8 0 14 -6t6 -14q0 -9 -6 -15t-14 -6z" />
    <glyph glyph-name="cedilla" unicode="&#xb8;" horiz-adv-x="234" 
d="M88 0v-73q33 9 64.5 -10.5t31.5 -58.5q0 -34 -23 -53.5t-56 -19.5q-28 0 -52 15q-3 4 -3 10.5t3 9.5q23 -17 51 -17q25 1 42.5 15t17.5 40q0 35 -31 47.5t-65 -2.5v97h20z" />
    <glyph glyph-name="guillemotright" unicode="&#xbb;" horiz-adv-x="389" 
d="M205 217l-136 -156q-3 -3 -9.5 -3t-9.5 3l128 156l-128 156q3 3 9.5 3t9.5 -3zM339 217l-136 -156q-3 -3 -9.5 -3t-9.5 3l128 156l-128 156q3 3 9.5 3t9.5 -3z" />
    <glyph glyph-name="onequarter" unicode="&#xbc;" horiz-adv-x="599" 
d="M167 650v-310q-3 -3 -10 -3t-10 3v289l-94 -67q-3 3 -3 10.5t3 10.5l94 67q3 3 10 3t10 -3zM455 650l-308 -650q-3 -3 -10.5 -3t-10.5 3l308 650q3 3 10.5 3t10.5 -3zM492 93h54q3 -3 3 -9t-3 -9h-54v-75q-3 -3 -10 -3t-10 3v75h-164q-3 3 -3 9t3 9l164 217q3 3 10 3
t10 -3v-217zM332 93h140v185z" />
    <glyph glyph-name="onehalf" unicode="&#xbd;" horiz-adv-x="610" 
d="M142 650v-310q-3 -3 -10 -3t-10 3v289l-94 -67q-3 3 -3 10.5t3 10.5l94 67q3 3 10 3t10 -3zM430 650l-308 -650q-3 -3 -10.5 -3t-10.5 3l308 650q3 3 10.5 3t10.5 -3zM441 325q51 0 79 -25.5t28 -59.5q0 -42 -33 -83.5t-138 -138.5h180q3 -3 3 -9t-3 -9h-218v9
q123 110 156 151t33 80q0 25 -22.5 46t-64.5 21q-52 0 -91 -37q-2 2 -2 11t2 11q38 33 91 33z" />
    <glyph glyph-name="threequarters" unicode="&#xbe;" horiz-adv-x="658" 
d="M263 420q0 -42 -32 -68.5t-82 -26.5q-58 0 -97 34q-2 1 -2 10.5t2 10.5q37 -37 98 -37q42 0 67.5 21.5t25.5 55.5q0 32 -22.5 54.5t-65.5 22.5h-45q-2 1 -2 9t2 9h46q34 0 53.5 19.5t19.5 45.5t-21 46.5t-61 20.5q-55 0 -92 -37q-1 1 -1 10.5t1 10.5q37 34 92 34
q47 0 74.5 -25.5t27.5 -60.5q0 -49 -48 -72q29 -11 45.5 -34.5t16.5 -52.5zM185 0l308 650q3 3 10.5 3t10.5 -3l-308 -650q-3 -3 -10.5 -3t-10.5 3zM551 93h54q3 -3 3 -9t-3 -9h-54v-75q-3 -3 -10 -3t-10 3v75h-164q-3 3 -3 9t3 9l164 217q3 3 10 3t10 -3v-217zM531 278
l-140 -185h140v185z" />
    <glyph glyph-name="questiondown" unicode="&#xbf;" horiz-adv-x="496" 
d="M279 496q9 0 15 -6t6 -15q0 -8 -6 -14t-15 -6q-8 0 -14 6t-6 14q0 9 6 15t14 6zM269 274q3 3 10 3t10 -3q0 -58 -20 -84.5t-65 -51.5q-75 -43 -104.5 -74.5t-29.5 -86.5q0 -59 49 -101t133 -42q120 0 191 73q3 -3 3 -12t-3 -12q-75 -67 -191 -67q-93 0 -147.5 47.5
t-54.5 113.5q0 62 32 97t102 75q32 18 46.5 29t26.5 35.5t12 60.5z" />
    <glyph glyph-name="Agrave" unicode="&#xc0;" horiz-adv-x="657" 
d="M277 841l118 -121q0 -11 -11 -11l-121 118q0 4 5 9t9 5zM339 650l278 -650q-3 -3 -10.5 -3t-10.5 3l-94 219h-347l-94 -219q-3 -3 -10.5 -3t-10.5 3l278 650q3 3 10.5 3t10.5 -3zM162 237h333l-167 388z" />
    <glyph glyph-name="Aacute" unicode="&#xc1;" horiz-adv-x="657" 
d="M263 720l118 121q4 0 9 -5t5 -9l-121 -118q-11 0 -11 11zM339 650l278 -650q-3 -3 -10.5 -3t-10.5 3l-94 219h-347l-94 -219q-3 -3 -10.5 -3t-10.5 3l278 650q3 3 10.5 3t10.5 -3zM162 237h333l-167 388z" />
    <glyph glyph-name="Acircumflex" unicode="&#xc2;" horiz-adv-x="657" 
d="M349 830l114 -115q0 -4 -5.5 -8.5t-9.5 -4.5l-119 120l-119 -120q-4 0 -9.5 4.5t-5.5 8.5l114 115q20 16 40 0zM339 650l278 -650q-3 -3 -10.5 -3t-10.5 3l-94 219h-347l-94 -219q-3 -3 -10.5 -3t-10.5 3l278 650q3 3 10.5 3t10.5 -3zM162 237h333l-167 388z" />
    <glyph glyph-name="Atilde" unicode="&#xc3;" horiz-adv-x="657" 
d="M265 799q27 0 75 -22q27 -12 52 -12q28 0 86 30q3 -3 3 -9t-3 -9q-3 -1 -13 -6.5t-14 -7.5t-13 -6t-15 -5.5t-14.5 -3t-16.5 -1.5q-27 0 -75 22q-27 12 -52 12q-28 0 -86 -30q-3 3 -3 9t3 9q3 1 13 6.5t14 7.5t13 6t15 5.5t14.5 3t16.5 1.5zM339 650l278 -650
q-3 -3 -10.5 -3t-10.5 3l-94 219h-347l-94 -219q-3 -3 -10.5 -3t-10.5 3l278 650q3 3 10.5 3t10.5 -3zM162 237h333l-167 388z" />
    <glyph glyph-name="Adieresis" unicode="&#xc4;" horiz-adv-x="657" 
d="M212 803q8 0 14 -6t6 -14q0 -9 -6 -15t-14 -6q-9 0 -15 6t-6 15q0 8 6 14t15 6zM446 803q8 0 14 -6t6 -14q0 -9 -6 -15t-14 -6q-9 0 -15 6t-6 15q0 8 6 14t15 6zM339 650l278 -650q-3 -3 -10.5 -3t-10.5 3l-94 219h-347l-94 -219q-3 -3 -10.5 -3t-10.5 3l278 650
q3 3 10.5 3t10.5 -3zM162 237h333l-167 388z" />
    <glyph glyph-name="Aring" unicode="&#xc5;" horiz-adv-x="657" 
d="M329 852q31 0 52.5 -21t21.5 -49q0 -31 -21.5 -52t-52.5 -21q-32 0 -53 21t-21 52q0 28 21 49t53 21zM329 834q-24 0 -38.5 -15.5t-14.5 -36.5q0 -23 14 -38.5t39 -15.5q24 0 39 16t15 38q0 21 -15 36.5t-39 15.5zM339 650l278 -650q-3 -3 -10.5 -3t-10.5 3l-94 219h-347
l-94 -219q-3 -3 -10.5 -3t-10.5 3l278 650q3 3 10.5 3t10.5 -3zM162 237h333l-167 388z" />
    <glyph glyph-name="AE" unicode="&#xc6;" horiz-adv-x="798" 
d="M338 18h407q3 -3 3 -9t-3 -9h-427v219h-163l-94 -219q-3 -3 -10.5 -3t-10.5 3l278 650h427q3 -3 3 -9t-3 -9h-406l-1 -288h379q3 -3 3 -9t-3 -9h-379v-308zM318 602l-156 -365h156v365z" />
    <glyph glyph-name="Ccedilla" unicode="&#xc7;" horiz-adv-x="737" 
d="M413 3q137 0 226 73q3 -3 3 -12t-3 -12q-89 -64 -216 -67v-58q33 9 64.5 -10.5t31.5 -58.5q0 -34 -23 -53.5t-56 -19.5q-28 0 -52 15q-3 4 -3 10.5t3 9.5q23 -17 51 -17q25 1 42.5 15t17.5 40q0 35 -30.5 47.5t-65.5 -2.5v82q-143 4 -235.5 102t-92.5 238
q0 143 95.5 241.5t242.5 98.5q134 0 226 -67q3 -3 3 -12t-3 -12q-89 73 -226 73q-138 0 -228 -93t-90 -229t90 -229t228 -93z" />
    <glyph glyph-name="Egrave" unicode="&#xc8;" horiz-adv-x="580" 
d="M238 841l118 -121q0 -11 -11 -11l-121 118q0 4 5 9t9 5zM120 18h407q3 -3 3 -9t-3 -9h-427v650h427q3 -3 3 -9t-3 -9h-407v-288h379q3 -3 3 -9t-3 -9h-379v-308z" />
    <glyph glyph-name="Eacute" unicode="&#xc9;" horiz-adv-x="580" 
d="M224 720l118 121q4 0 9 -5t5 -9l-121 -118q-11 0 -11 11zM120 18h407q3 -3 3 -9t-3 -9h-427v650h427q3 -3 3 -9t-3 -9h-407v-288h379q3 -3 3 -9t-3 -9h-379v-308z" />
    <glyph glyph-name="Ecircumflex" unicode="&#xca;" horiz-adv-x="580" 
d="M310 830l114 -115q0 -4 -5.5 -8.5t-9.5 -4.5l-119 120l-119 -120q-4 0 -9.5 4.5t-5.5 8.5l114 115q20 16 40 0zM120 18h407q3 -3 3 -9t-3 -9h-427v650h427q3 -3 3 -9t-3 -9h-407v-288h379q3 -3 3 -9t-3 -9h-379v-308z" />
    <glyph glyph-name="Edieresis" unicode="&#xcb;" horiz-adv-x="580" 
d="M192 803q8 0 14 -6t6 -14q0 -9 -6 -15t-14 -6q-9 0 -15 6t-6 15q0 8 6 14t15 6zM426 803q8 0 14 -6t6 -14q0 -9 -6 -15t-14 -6q-9 0 -15 6t-6 15q0 8 6 14t15 6zM120 18h407q3 -3 3 -9t-3 -9h-427v650h427q3 -3 3 -9t-3 -9h-407v-288h379q3 -3 3 -9t-3 -9h-379v-308z" />
    <glyph glyph-name="Igrave" unicode="&#xcc;" horiz-adv-x="220" 
d="M58 841l118 -121q0 -11 -11 -11l-121 118q0 4 5 9t9 5zM120 650v-650q-3 -3 -10 -3t-10 3v650q3 3 10 3t10 -3z" />
    <glyph glyph-name="Iacute" unicode="&#xcd;" horiz-adv-x="220" 
d="M44 720l118 121q4 0 9 -5t5 -9l-121 -118q-11 0 -11 11zM120 650v-650q-3 -3 -10 -3t-10 3v650q3 3 10 3t10 -3z" />
    <glyph glyph-name="Icircumflex" unicode="&#xce;" horiz-adv-x="220" 
d="M130 830l114 -115q0 -4 -5.5 -8.5t-9.5 -4.5l-119 120l-119 -120q-4 0 -9.5 4.5t-5.5 8.5l114 115q20 16 40 0zM120 650v-650q-3 -3 -10 -3t-10 3v650q3 3 10 3t10 -3z" />
    <glyph glyph-name="Idieresis" unicode="&#xcf;" horiz-adv-x="220" 
d="M-7 803q8 0 14 -6t6 -14q0 -9 -6 -15t-14 -6q-9 0 -15 6t-6 15q0 8 6 14t15 6zM227 803q8 0 14 -6t6 -14q0 -9 -6 -15t-14 -6q-9 0 -15 6t-6 15q0 8 6 14t15 6zM120 650v-650q-3 -3 -10 -3t-10 3v650q3 3 10 3t10 -3z" />
    <glyph glyph-name="Eth" unicode="&#xd0;" horiz-adv-x="715" 
d="M100 650h197q167 0 255 -93t88 -232t-88 -232t-255 -93h-197v318h-47q-3 3 -3 9t3 9h47v314zM120 18h177q158 0 240.5 87.5t82.5 219.5t-82.5 219.5t-240.5 87.5h-177v-296h208q3 -3 3 -9t-3 -9h-208v-300z" />
    <glyph glyph-name="Ntilde" unicode="&#xd1;" horiz-adv-x="711" 
d="M292 799q27 0 75 -22q27 -12 52 -12q28 0 86 30q3 -3 3 -9t-3 -9q-3 -1 -13 -6.5t-14 -7.5t-13 -6t-15 -5.5t-14.5 -3t-16.5 -1.5q-27 0 -75 22q-27 12 -52 12q-28 0 -86 -30q-3 3 -3 9t3 9q3 1 13 6.5t14 7.5t13 6t15 5.5t14.5 3t16.5 1.5zM616 650v-650q-3 -3 -10 -3
t-10 3l-481 618v-618q-3 -3 -10 -3t-10 3v650q3 3 10 3t10 -3l481 -618v618q3 3 10 3t10 -3z" />
    <glyph glyph-name="Ograve" unicode="&#xd2;" horiz-adv-x="826" 
d="M361 841l118 -121q0 -11 -11 -11l-121 118q0 4 5 9t9 5zM413 665q147 0 242.5 -98.5t95.5 -241.5t-95.5 -241.5t-242.5 -98.5t-242.5 98.5t-95.5 241.5t95.5 241.5t242.5 98.5zM413 647q-138 0 -228 -93t-90 -229t90 -229t228 -93t228 93t90 229t-90 229t-228 93z" />
    <glyph glyph-name="Oacute" unicode="&#xd3;" horiz-adv-x="826" 
d="M347 720l118 121q4 0 9 -5t5 -9l-121 -118q-11 0 -11 11zM413 665q147 0 242.5 -98.5t95.5 -241.5t-95.5 -241.5t-242.5 -98.5t-242.5 98.5t-95.5 241.5t95.5 241.5t242.5 98.5zM413 647q-138 0 -228 -93t-90 -229t90 -229t228 -93t228 93t90 229t-90 229t-228 93z" />
    <glyph glyph-name="Ocircumflex" unicode="&#xd4;" horiz-adv-x="826" 
d="M433 830l114 -115q0 -4 -5.5 -8.5t-9.5 -4.5l-119 120l-119 -120q-4 0 -9.5 4.5t-5.5 8.5l114 115q20 16 40 0zM413 665q147 0 242.5 -98.5t95.5 -241.5t-95.5 -241.5t-242.5 -98.5t-242.5 98.5t-95.5 241.5t95.5 241.5t242.5 98.5zM413 647q-138 0 -228 -93t-90 -229
t90 -229t228 -93t228 93t90 229t-90 229t-228 93z" />
    <glyph glyph-name="Otilde" unicode="&#xd5;" horiz-adv-x="826" 
d="M349 799q27 0 75 -22q27 -12 52 -12q28 0 86 30q3 -3 3 -9t-3 -9q-3 -1 -13 -6.5t-14 -7.5t-13 -6t-15 -5.5t-14.5 -3t-16.5 -1.5q-27 0 -75 22q-27 12 -52 12q-28 0 -86 -30q-3 3 -3 9t3 9q3 1 13 6.5t14 7.5t13 6t15 5.5t14.5 3t16.5 1.5zM413 665q147 0 242.5 -98.5
t95.5 -241.5t-95.5 -241.5t-242.5 -98.5t-242.5 98.5t-95.5 241.5t95.5 241.5t242.5 98.5zM413 647q-138 0 -228 -93t-90 -229t90 -229t228 -93t228 93t90 229t-90 229t-228 93z" />
    <glyph glyph-name="Odieresis" unicode="&#xd6;" horiz-adv-x="826" 
d="M296 803q8 0 14 -6t6 -14q0 -9 -6 -15t-14 -6q-9 0 -15 6t-6 15q0 8 6 14t15 6zM530 803q8 0 14 -6t6 -14q0 -9 -6 -15t-14 -6q-9 0 -15 6t-6 15q0 8 6 14t15 6zM413 665q147 0 242.5 -98.5t95.5 -241.5t-95.5 -241.5t-242.5 -98.5t-242.5 98.5t-95.5 241.5t95.5 241.5
t242.5 98.5zM413 647q-138 0 -228 -93t-90 -229t90 -229t228 -93t228 93t90 229t-90 229t-228 93z" />
    <glyph glyph-name="multiply" unicode="&#xd7;" horiz-adv-x="356" 
d="M191 288l115 -115q0 -5 -4 -9t-9 -4l-115 115l-115 -115q-5 0 -9 4t-4 9l115 115l-115 115q0 5 4 9t9 4l115 -115l115 115q5 0 9 -4t4 -9z" />
    <glyph glyph-name="Oslash" unicode="&#xd8;" horiz-adv-x="826" 
d="M751 650l-90 -90q90 -96 90 -235q0 -143 -95.5 -241.5t-242.5 -98.5q-138 0 -234 91l-76 -76q-3 -3 -14 -3t-14 3l90 90q-90 96 -90 235q0 143 95.5 241.5t242.5 98.5q138 0 234 -91l76 76q3 3 14 3t14 -3zM95 325q0 -129 83 -222l456 458q-89 86 -221 86
q-138 0 -228 -93t-90 -229zM731 325q0 131 -83 222l-456 -458q91 -86 221 -86q138 0 228 93t90 229z" />
    <glyph glyph-name="Ugrave" unicode="&#xd9;" horiz-adv-x="699" 
d="M298 841l118 -121q0 -11 -11 -11l-121 118q0 4 5 9t9 5zM584 237v413q3 3 10 3t10 -3v-413q0 -116 -68.5 -184t-183.5 -68t-183.5 68t-68.5 184v413q3 3 10 3t10 -3v-413q0 -109 63 -171.5t169 -62.5t169 62.5t63 171.5z" />
    <glyph glyph-name="Uacute" unicode="&#xda;" horiz-adv-x="699" 
d="M284 720l118 121q4 0 9 -5t5 -9l-121 -118q-11 0 -11 11zM584 237v413q3 3 10 3t10 -3v-413q0 -116 -68.5 -184t-183.5 -68t-183.5 68t-68.5 184v413q3 3 10 3t10 -3v-413q0 -109 63 -171.5t169 -62.5t169 62.5t63 171.5z" />
    <glyph glyph-name="Ucircumflex" unicode="&#xdb;" horiz-adv-x="699" 
d="M370 830l114 -115q0 -4 -5.5 -8.5t-9.5 -4.5l-119 120l-119 -120q-4 0 -9.5 4.5t-5.5 8.5l114 115q20 16 40 0zM584 237v413q3 3 10 3t10 -3v-413q0 -116 -68.5 -184t-183.5 -68t-183.5 68t-68.5 184v413q3 3 10 3t10 -3v-413q0 -109 63 -171.5t169 -62.5t169 62.5
t63 171.5z" />
    <glyph glyph-name="Udieresis" unicode="&#xdc;" horiz-adv-x="699" 
d="M233 803q8 0 14 -6t6 -14q0 -9 -6 -15t-14 -6q-9 0 -15 6t-6 15q0 8 6 14t15 6zM467 803q8 0 14 -6t6 -14q0 -9 -6 -15t-14 -6q-9 0 -15 6t-6 15q0 8 6 14t15 6zM584 237v413q3 3 10 3t10 -3v-413q0 -116 -68.5 -184t-183.5 -68t-183.5 68t-68.5 184v413q3 3 10 3t10 -3
v-413q0 -109 63 -171.5t169 -62.5t169 62.5t63 171.5z" />
    <glyph glyph-name="Yacute" unicode="&#xdd;" horiz-adv-x="609" 
d="M239 720l118 121q4 0 9 -5t5 -9l-121 -118q-11 0 -11 11zM315 257v-257q-3 -3 -10 -3t-10 3v256l-255 394q3 3 11.5 3t11.5 -3l242 -373l241 373q3 3 11.5 3t11.5 -3z" />
    <glyph glyph-name="Thorn" unicode="&#xde;" horiz-adv-x="626" 
d="M120 566h197q116 0 175 -60t59 -145t-59 -145t-175 -60h-197v-156q-3 -3 -10 -3t-10 3v650q3 3 10 3t10 -3v-84zM120 174h197q107 0 160.5 54.5t53.5 132.5t-53.5 132.5t-160.5 54.5h-197v-374z" />
    <glyph glyph-name="germandbls" unicode="&#xdf;" horiz-adv-x="592" 
d="M403 339q68 -17 103.5 -63t35.5 -106q0 -82 -61 -133.5t-157 -51.5q-119 0 -194 67q-3 3 -3 12t3 12q33 -34 85.5 -53.5t108.5 -19.5q87 0 142.5 46.5t55.5 120.5q0 67 -47 112.5t-139 45.5h-90q-3 3 -3 9t3 9h91q70 0 114 43t44 105q0 63 -47 108t-132 45
q-100 0 -159.5 -65t-59.5 -175v-407q-3 -3 -10 -3t-10 3v407q0 117 65.5 187.5t173.5 70.5q94 0 146.5 -50.5t52.5 -120.5q0 -53 -30.5 -95.5t-81.5 -59.5z" />
    <glyph glyph-name="agrave" unicode="&#xe0;" horiz-adv-x="492" 
d="M192 591l118 -121q0 -11 -11 -11l-121 118q0 4 5 9t9 5zM244 415q83 0 127 -46t44 -123v-246q-3 -3 -10 -3t-10 3v55q-29 -26 -78.5 -48t-105.5 -22q-71 0 -112.5 36.5t-41.5 93.5t41.5 93.5t112.5 36.5q56 0 105.5 -22t78.5 -48v71q0 70 -38.5 110.5t-112.5 40.5
q-76 0 -145 -51q-3 3 -3 11t3 11q57 47 145 47zM211 227q-62 0 -98 -31.5t-36 -80.5t36 -80.5t98 -31.5q57 0 109.5 26t74.5 51v70q-22 25 -74.5 51t-109.5 26z" />
    <glyph glyph-name="aacute" unicode="&#xe1;" horiz-adv-x="492" 
d="M178 470l118 121q4 0 9 -5t5 -9l-121 -118q-11 0 -11 11zM244 415q83 0 127 -46t44 -123v-246q-3 -3 -10 -3t-10 3v55q-29 -26 -78.5 -48t-105.5 -22q-71 0 -112.5 36.5t-41.5 93.5t41.5 93.5t112.5 36.5q56 0 105.5 -22t78.5 -48v71q0 70 -38.5 110.5t-112.5 40.5
q-76 0 -145 -51q-3 3 -3 11t3 11q57 47 145 47zM211 227q-62 0 -98 -31.5t-36 -80.5t36 -80.5t98 -31.5q57 0 109.5 26t74.5 51v70q-22 25 -74.5 51t-109.5 26z" />
    <glyph glyph-name="acircumflex" unicode="&#xe2;" horiz-adv-x="492" 
d="M264 580l114 -115q0 -4 -5.5 -8.5t-9.5 -4.5l-119 120l-119 -120q-4 0 -9.5 4.5t-5.5 8.5l114 115q20 16 40 0zM244 415q83 0 127 -46t44 -123v-246q-3 -3 -10 -3t-10 3v55q-29 -26 -78.5 -48t-105.5 -22q-71 0 -112.5 36.5t-41.5 93.5t41.5 93.5t112.5 36.5
q56 0 105.5 -22t78.5 -48v71q0 70 -38.5 110.5t-112.5 40.5q-76 0 -145 -51q-3 3 -3 11t3 11q57 47 145 47zM211 227q-62 0 -98 -31.5t-36 -80.5t36 -80.5t98 -31.5q57 0 109.5 26t74.5 51v70q-22 25 -74.5 51t-109.5 26z" />
    <glyph glyph-name="atilde" unicode="&#xe3;" horiz-adv-x="492" 
d="M185 549q27 0 75 -22q27 -12 52 -12q28 0 86 30q3 -3 3 -9t-3 -9q-3 -1 -13 -6.5t-14 -7.5t-13 -6t-15 -5.5t-14.5 -3t-16.5 -1.5q-27 0 -75 22q-27 12 -52 12q-28 0 -86 -30q-3 3 -3 9t3 9q3 1 13 6.5t14 7.5t13 6t15 5.5t14.5 3t16.5 1.5zM244 415q83 0 127 -46
t44 -123v-246q-3 -3 -10 -3t-10 3v55q-29 -26 -78.5 -48t-105.5 -22q-71 0 -112.5 36.5t-41.5 93.5t41.5 93.5t112.5 36.5q56 0 105.5 -22t78.5 -48v71q0 70 -38.5 110.5t-112.5 40.5q-76 0 -145 -51q-3 3 -3 11t3 11q57 47 145 47zM211 227q-62 0 -98 -31.5t-36 -80.5
t36 -80.5t98 -31.5q57 0 109.5 26t74.5 51v70q-22 25 -74.5 51t-109.5 26z" />
    <glyph glyph-name="adieresis" unicode="&#xe4;" horiz-adv-x="492" 
d="M127 553q8 0 14 -6t6 -14q0 -9 -6 -15t-14 -6q-9 0 -15 6t-6 15q0 8 6 14t15 6zM361 553q8 0 14 -6t6 -14q0 -9 -6 -15t-14 -6q-9 0 -15 6t-6 15q0 8 6 14t15 6zM244 415q83 0 127 -46t44 -123v-246q-3 -3 -10 -3t-10 3v55q-29 -26 -78.5 -48t-105.5 -22
q-71 0 -112.5 36.5t-41.5 93.5t41.5 93.5t112.5 36.5q56 0 105.5 -22t78.5 -48v71q0 70 -38.5 110.5t-112.5 40.5q-76 0 -145 -51q-3 3 -3 11t3 11q57 47 145 47zM211 227q-62 0 -98 -31.5t-36 -80.5t36 -80.5t98 -31.5q57 0 109.5 26t74.5 51v70q-22 25 -74.5 51t-109.5 26
z" />
    <glyph glyph-name="aring" unicode="&#xe5;" horiz-adv-x="492" 
d="M244 602q31 0 52.5 -21t21.5 -49q0 -31 -21.5 -52t-52.5 -21q-32 0 -53 21t-21 52q0 28 21 49t53 21zM244 584q-24 0 -38.5 -15.5t-14.5 -36.5q0 -23 14 -38.5t39 -15.5q24 0 39 16t15 38q0 21 -15 36.5t-39 15.5zM244 415q83 0 127 -46t44 -123v-246q-3 -3 -10 -3t-10 3
v55q-29 -26 -78.5 -48t-105.5 -22q-71 0 -112.5 36.5t-41.5 93.5t41.5 93.5t112.5 36.5q56 0 105.5 -22t78.5 -48v71q0 70 -38.5 110.5t-112.5 40.5q-76 0 -145 -51q-3 3 -3 11t3 11q57 47 145 47zM211 227q-62 0 -98 -31.5t-36 -80.5t36 -80.5t98 -31.5q57 0 109.5 26
t74.5 51v70q-22 25 -74.5 51t-109.5 26z" />
    <glyph glyph-name="ae" unicode="&#xe6;" horiz-adv-x="857" 
d="M605 415q92 0 148 -63t45 -152h-383q0 -90 55.5 -143.5t144.5 -53.5q79 0 148 51q3 -3 3 -11t-3 -11q-57 -47 -148 -47q-69 0 -121.5 31t-78.5 87v-103q-3 -3 -10 -3t-10 3v55q-29 -26 -78.5 -48t-105.5 -22q-71 0 -112.5 36.5t-41.5 93.5t41.5 93.5t112.5 36.5
q56 0 105.5 -22t78.5 -48v71q0 70 -38.5 110.5t-112.5 40.5q-76 0 -145 -51q-3 3 -3 11t3 11q57 47 145 47q70 0 113 -34t54 -93q23 58 74 92.5t120 34.5zM416 218h364q3 76 -47 127.5t-128 51.5q-80 0 -132 -50t-57 -129zM395 80v70q-22 25 -74.5 51t-109.5 26
q-62 0 -98 -31.5t-36 -80.5t36 -80.5t98 -31.5q57 0 109.5 26t74.5 51z" />
    <glyph glyph-name="ccedilla" unicode="&#xe7;" 
d="M283 3q79 0 148 51q3 -3 3 -11t-3 -11q-57 -47 -148 -47h-3v-58q33 9 64.5 -10.5t31.5 -58.5q0 -34 -23 -53.5t-56 -19.5q-28 0 -52 15q-3 4 -3 10.5t3 9.5q23 -17 51 -17q25 1 42.5 15t17.5 40q0 35 -31 47.5t-65 -2.5v83q-89 7 -144.5 67.5t-55.5 146.5
q0 92 62.5 153.5t160.5 61.5q91 0 148 -47q3 -3 3 -11t-3 -11q-69 51 -148 51q-89 0 -146 -56t-57 -141t57 -141t146 -56z" />
    <glyph glyph-name="egrave" unicode="&#xe8;" horiz-adv-x="522" 
d="M209 591l118 -121q0 -11 -11 -11l-121 118q0 4 5 9t9 5zM270 415q92 0 148 -63t45 -152h-383q0 -90 55.5 -143.5t144.5 -53.5q79 0 148 51q3 -3 3 -11t-3 -11q-57 -47 -148 -47q-97 0 -158.5 59t-61.5 156q0 92 58 153.5t152 61.5zM270 397q-80 0 -132 -50t-57 -129h364
q3 76 -47 127.5t-128 51.5z" />
    <glyph glyph-name="eacute" unicode="&#xe9;" horiz-adv-x="522" 
d="M195 470l118 121q4 0 9 -5t5 -9l-121 -118q-11 0 -11 11zM270 415q92 0 148 -63t45 -152h-383q0 -90 55.5 -143.5t144.5 -53.5q79 0 148 51q3 -3 3 -11t-3 -11q-57 -47 -148 -47q-97 0 -158.5 59t-61.5 156q0 92 58 153.5t152 61.5zM270 397q-80 0 -132 -50t-57 -129h364
q3 76 -47 127.5t-128 51.5z" />
    <glyph glyph-name="ecircumflex" unicode="&#xea;" horiz-adv-x="522" 
d="M281 580l114 -115q0 -4 -5.5 -8.5t-9.5 -4.5l-119 120l-119 -120q-4 0 -9.5 4.5t-5.5 8.5l114 115q20 16 40 0zM270 415q92 0 148 -63t45 -152h-383q0 -90 55.5 -143.5t144.5 -53.5q79 0 148 51q3 -3 3 -11t-3 -11q-57 -47 -148 -47q-97 0 -158.5 59t-61.5 156
q0 92 58 153.5t152 61.5zM270 397q-80 0 -132 -50t-57 -129h364q3 76 -47 127.5t-128 51.5z" />
    <glyph glyph-name="edieresis" unicode="&#xeb;" horiz-adv-x="522" 
d="M144 553q8 0 14 -6t6 -14q0 -9 -6 -15t-14 -6q-9 0 -15 6t-6 15q0 8 6 14t15 6zM378 553q8 0 14 -6t6 -14q0 -9 -6 -15t-14 -6q-9 0 -15 6t-6 15q0 8 6 14t15 6zM270 415q92 0 148 -63t45 -152h-383q0 -90 55.5 -143.5t144.5 -53.5q79 0 148 51q3 -3 3 -11t-3 -11
q-57 -47 -148 -47q-97 0 -158.5 59t-61.5 156q0 92 58 153.5t152 61.5zM270 397q-80 0 -132 -50t-57 -129h364q3 76 -47 127.5t-128 51.5z" />
    <glyph glyph-name="igrave" unicode="&#xec;" horiz-adv-x="182" 
d="M40 591l118 -121q0 -11 -11 -11l-121 118q0 4 5 9t9 5zM102 400v-400q-3 -3 -10 -3t-10 3v400q3 3 10 3t10 -3z" />
    <glyph glyph-name="iacute" unicode="&#xed;" horiz-adv-x="182" 
d="M26 470l118 121q4 0 9 -5t5 -9l-121 -118q-11 0 -11 11zM102 400v-400q-3 -3 -10 -3t-10 3v400q3 3 10 3t10 -3z" />
    <glyph glyph-name="icircumflex" unicode="&#xee;" horiz-adv-x="182" 
d="M112 580l114 -115q0 -4 -5.5 -8.5t-9.5 -4.5l-119 120l-119 -120q-4 0 -9.5 4.5t-5.5 8.5l114 115q20 16 40 0zM102 400v-400q-3 -3 -10 -3t-10 3v400q3 3 10 3t10 -3z" />
    <glyph glyph-name="idieresis" unicode="&#xef;" horiz-adv-x="182" 
d="M-25 553q8 0 14 -6t6 -14q0 -9 -6 -15t-14 -6q-9 0 -15 6t-6 15q0 8 6 14t15 6zM209 553q8 0 14 -6t6 -14q0 -9 -6 -15t-14 -6q-9 0 -15 6t-6 15q0 8 6 14t15 6zM102 400v-400q-3 -3 -10 -3t-10 3v400q3 3 10 3t10 -3z" />
    <glyph glyph-name="eth" unicode="&#xf0;" horiz-adv-x="513" 
d="M422 594l-89 -53q120 -118 120 -290v-50q0 -103 -55 -159.5t-140 -56.5q-84 0 -142.5 59.5t-58.5 155.5q0 94 53.5 154.5t146.5 60.5t164 -67q-27 105 -107 182l-110 -66q-3 3 -3 11t3 11l96 57q-78 67 -174 87q-3 3 -3 10t3 10q106 -19 192 -96l104 62q3 -3 3 -11
t-3 -11zM433 201v50q0 31 -5 66q-26 29 -72.5 54.5t-98.5 25.5q-84 0 -132 -55t-48 -142q0 -89 53 -143t128 -54q76 0 125.5 51t49.5 147z" />
    <glyph glyph-name="ntilde" unicode="&#xf1;" horiz-adv-x="514" 
d="M193 549q27 0 75 -22q27 -12 52 -12q28 0 86 30q3 -3 3 -9t-3 -9q-3 -1 -13 -6.5t-14 -7.5t-13 -6t-15 -5.5t-14.5 -3t-16.5 -1.5q-27 0 -75 22q-27 12 -52 12q-28 0 -86 -30q-3 3 -3 9t3 9q3 1 13 6.5t14 7.5t13 6t15 5.5t14.5 3t16.5 1.5zM273 415q81 0 122.5 -45.5
t41.5 -121.5v-248q-3 -3 -10 -3t-10 3v248q0 69 -35.5 109t-108.5 40q-52 0 -99.5 -31t-73.5 -62v-304q-3 -3 -10 -3t-10 3v400q3 3 10 3t10 -3v-71q80 86 173 86z" />
    <glyph glyph-name="ograve" unicode="&#xf2;" horiz-adv-x="546" 
d="M221 591l118 -121q0 -11 -11 -11l-121 118q0 4 5 9t9 5zM273 415q92 0 152.5 -62t60.5 -153t-60.5 -153t-152.5 -62t-152.5 62t-60.5 153t60.5 153t152.5 62zM273 397q-83 0 -138 -56.5t-55 -140.5t55 -140.5t138 -56.5t138 56.5t55 140.5t-55 140.5t-138 56.5z" />
    <glyph glyph-name="oacute" unicode="&#xf3;" horiz-adv-x="546" 
d="M207 470l118 121q4 0 9 -5t5 -9l-121 -118q-11 0 -11 11zM273 415q92 0 152.5 -62t60.5 -153t-60.5 -153t-152.5 -62t-152.5 62t-60.5 153t60.5 153t152.5 62zM273 397q-83 0 -138 -56.5t-55 -140.5t55 -140.5t138 -56.5t138 56.5t55 140.5t-55 140.5t-138 56.5z" />
    <glyph glyph-name="ocircumflex" unicode="&#xf4;" horiz-adv-x="546" 
d="M293 580l114 -115q0 -4 -5.5 -8.5t-9.5 -4.5l-119 120l-119 -120q-4 0 -9.5 4.5t-5.5 8.5l114 115q20 16 40 0zM273 415q92 0 152.5 -62t60.5 -153t-60.5 -153t-152.5 -62t-152.5 62t-60.5 153t60.5 153t152.5 62zM273 397q-83 0 -138 -56.5t-55 -140.5t55 -140.5
t138 -56.5t138 56.5t55 140.5t-55 140.5t-138 56.5z" />
    <glyph glyph-name="otilde" unicode="&#xf5;" horiz-adv-x="546" 
d="M209 549q27 0 75 -22q27 -12 52 -12q28 0 86 30q3 -3 3 -9t-3 -9q-3 -1 -13 -6.5t-14 -7.5t-13 -6t-15 -5.5t-14.5 -3t-16.5 -1.5q-27 0 -75 22q-27 12 -52 12q-28 0 -86 -30q-3 3 -3 9t3 9q3 1 13 6.5t14 7.5t13 6t15 5.5t14.5 3t16.5 1.5zM273 415q92 0 152.5 -62
t60.5 -153t-60.5 -153t-152.5 -62t-152.5 62t-60.5 153t60.5 153t152.5 62zM273 397q-83 0 -138 -56.5t-55 -140.5t55 -140.5t138 -56.5t138 56.5t55 140.5t-55 140.5t-138 56.5z" />
    <glyph glyph-name="odieresis" unicode="&#xf6;" horiz-adv-x="546" 
d="M156 553q8 0 14 -6t6 -14q0 -9 -6 -15t-14 -6q-9 0 -15 6t-6 15q0 8 6 14t15 6zM390 553q8 0 14 -6t6 -14q0 -9 -6 -15t-14 -6q-9 0 -15 6t-6 15q0 8 6 14t15 6zM273 415q92 0 152.5 -62t60.5 -153t-60.5 -153t-152.5 -62t-152.5 62t-60.5 153t60.5 153t152.5 62z
M273 397q-83 0 -138 -56.5t-55 -140.5t55 -140.5t138 -56.5t138 56.5t55 140.5t-55 140.5t-138 56.5z" />
    <glyph glyph-name="divide" unicode="&#xf7;" horiz-adv-x="450" 
d="M226 400q8 0 14 -6t6 -14q0 -9 -6 -15t-14 -6q-9 0 -15 6t-6 15q0 8 6 14t15 6zM53 297h344q3 -3 3 -9t-3 -9h-344q-3 3 -3 9t3 9zM226 217q8 0 14 -6t6 -14q0 -9 -6 -15t-14 -6q-9 0 -15 6t-6 15q0 8 6 14t15 6z" />
    <glyph glyph-name="oslash" unicode="&#xf8;" horiz-adv-x="546" 
d="M486 400l-54 -54q54 -60 54 -146q0 -91 -60.5 -153t-152.5 -62q-85 0 -145 55l-40 -40q-3 -3 -14 -3t-14 3l54 54q-54 60 -54 146q0 91 60.5 153t152.5 62q85 0 145 -55l40 40q3 3 14 3t14 -3zM80 200q0 -77 47 -132l278 279q-55 50 -132 50q-83 0 -138 -56.5t-55 -140.5
zM466 200q0 77 -47 132l-278 -279q55 -50 132 -50q83 0 138 56.5t55 140.5z" />
    <glyph glyph-name="ugrave" unicode="&#xf9;" 
d="M204 591l118 -121q0 -11 -11 -11l-121 118q0 4 5 9t9 5zM414 96v304q3 3 10 3t10 -3v-400q-3 -3 -10 -3t-10 3v71q-80 -86 -173 -86q-81 0 -122.5 45.5t-41.5 121.5v248q3 3 10 3t10 -3v-248q0 -69 35.5 -109t108.5 -40q52 0 99.5 31t73.5 62z" />
    <glyph glyph-name="uacute" unicode="&#xfa;" 
d="M190 470l118 121q4 0 9 -5t5 -9l-121 -118q-11 0 -11 11zM414 96v304q3 3 10 3t10 -3v-400q-3 -3 -10 -3t-10 3v71q-80 -86 -173 -86q-81 0 -122.5 45.5t-41.5 121.5v248q3 3 10 3t10 -3v-248q0 -69 35.5 -109t108.5 -40q52 0 99.5 31t73.5 62z" />
    <glyph glyph-name="ucircumflex" unicode="&#xfb;" 
d="M276 580l114 -115q0 -4 -5.5 -8.5t-9.5 -4.5l-119 120l-119 -120q-4 0 -9.5 4.5t-5.5 8.5l114 115q20 16 40 0zM414 96v304q3 3 10 3t10 -3v-400q-3 -3 -10 -3t-10 3v71q-80 -86 -173 -86q-81 0 -122.5 45.5t-41.5 121.5v248q3 3 10 3t10 -3v-248q0 -69 35.5 -109
t108.5 -40q52 0 99.5 31t73.5 62z" />
    <glyph glyph-name="udieresis" unicode="&#xfc;" 
d="M139 553q8 0 14 -6t6 -14q0 -9 -6 -15t-14 -6q-9 0 -15 6t-6 15q0 8 6 14t15 6zM373 553q8 0 14 -6t6 -14q0 -9 -6 -15t-14 -6q-9 0 -15 6t-6 15q0 8 6 14t15 6zM414 96v304q3 3 10 3t10 -3v-400q-3 -3 -10 -3t-10 3v71q-80 -86 -173 -86q-81 0 -122.5 45.5t-41.5 121.5
v248q3 3 10 3t10 -3v-248q0 -69 35.5 -109t108.5 -40q52 0 99.5 31t73.5 62z" />
    <glyph glyph-name="yacute" unicode="&#xfd;" horiz-adv-x="486" 
d="M177 470l118 121q4 0 9 -5t5 -9l-121 -118q-11 0 -11 11zM244 52l180 348q3 3 11 3t11 -3l-292 -563q-3 -3 -11 -3t-11 3l101 194l-193 369q3 3 11 3t11 -3z" />
    <glyph glyph-name="thorn" unicode="&#xfe;" horiz-adv-x="538" 
d="M271 415q93 0 150 -61t57 -154t-57 -154t-150 -61q-100 0 -169 76v-224q-3 -3 -10 -3t-10 3v813q3 3 10 3t10 -3v-311q69 76 169 76zM271 3q85 0 136 55.5t51 141.5t-51 141.5t-136 55.5q-56 0 -101 -27t-68 -56v-228q23 -29 68 -56t101 -27z" />
    <glyph glyph-name="ydieresis" unicode="&#xff;" horiz-adv-x="486" 
d="M126 553q8 0 14 -6t6 -14q0 -9 -6 -15t-14 -6q-9 0 -15 6t-6 15q0 8 6 14t15 6zM360 553q8 0 14 -6t6 -14q0 -9 -6 -15t-14 -6q-9 0 -15 6t-6 15q0 8 6 14t15 6zM244 52l180 348q3 3 11 3t11 -3l-292 -563q-3 -3 -11 -3t-11 3l101 194l-193 369q3 3 11 3t11 -3z" />
    <glyph glyph-name="Amacron" unicode="&#x100;" horiz-adv-x="657" 
d="M199 780h259q3 -3 3 -9t-3 -9h-259q-3 3 -3 9t3 9zM339 650l278 -650q-3 -3 -10.5 -3t-10.5 3l-94 219h-347l-94 -219q-3 -3 -10.5 -3t-10.5 3l278 650q3 3 10.5 3t10.5 -3zM162 237h333l-167 388z" />
    <glyph glyph-name="amacron" unicode="&#x101;" horiz-adv-x="492" 
d="M114 530h259q3 -3 3 -9t-3 -9h-259q-3 3 -3 9t3 9zM244 415q83 0 127 -46t44 -123v-246q-3 -3 -10 -3t-10 3v55q-29 -26 -78.5 -48t-105.5 -22q-71 0 -112.5 36.5t-41.5 93.5t41.5 93.5t112.5 36.5q56 0 105.5 -22t78.5 -48v71q0 70 -38.5 110.5t-112.5 40.5
q-76 0 -145 -51q-3 3 -3 11t3 11q57 47 145 47zM211 227q-62 0 -98 -31.5t-36 -80.5t36 -80.5t98 -31.5q57 0 109.5 26t74.5 51v70q-22 25 -74.5 51t-109.5 26z" />
    <glyph glyph-name="Abreve" unicode="&#x102;" horiz-adv-x="657" 
d="M477 816q3 -3 3 -11t-3 -11q-57 -47 -148 -47t-148 47q-3 3 -3 11t3 11q69 -51 148 -51t148 51zM339 650l278 -650q-3 -3 -10.5 -3t-10.5 3l-94 219h-347l-94 -219q-3 -3 -10.5 -3t-10.5 3l278 650q3 3 10.5 3t10.5 -3zM162 237h333l-167 388z" />
    <glyph glyph-name="abreve" unicode="&#x103;" horiz-adv-x="492" 
d="M392 566q3 -3 3 -11t-3 -11q-57 -47 -148 -47t-148 47q-3 3 -3 11t3 11q69 -51 148 -51t148 51zM244 415q83 0 127 -46t44 -123v-246q-3 -3 -10 -3t-10 3v55q-29 -26 -78.5 -48t-105.5 -22q-71 0 -112.5 36.5t-41.5 93.5t41.5 93.5t112.5 36.5q56 0 105.5 -22t78.5 -48
v71q0 70 -38.5 110.5t-112.5 40.5q-76 0 -145 -51q-3 3 -3 11t3 11q57 47 145 47zM211 227q-62 0 -98 -31.5t-36 -80.5t36 -80.5t98 -31.5q57 0 109.5 26t74.5 51v70q-22 25 -74.5 51t-109.5 26z" />
    <glyph glyph-name="Aogonek" unicode="&#x104;" horiz-adv-x="657" 
d="M640 -193q3 -3 3 -9t-3 -9q-12 -4 -30 -4q-45 0 -73.5 28.5t-28.5 70.5q0 40 25.5 72t62.5 44l-94 219h-347l-94 -219q-3 -3 -10.5 -3t-10.5 3l278 650q3 3 10.5 3t10.5 -3l278 -650q-1 -1 -8 -3q-38 -16 -59.5 -47.5t-21.5 -64.5q0 -35 22.5 -58.5t59.5 -23.5q18 0 30 4
zM495 237l-167 388l-166 -388h333z" />
    <glyph glyph-name="aogonek" unicode="&#x105;" horiz-adv-x="492" 
d="M438 -193q3 -3 3 -9t-3 -9q-12 -4 -30 -4q-45 0 -73.5 28.5t-28.5 70.5q0 40 26 72t63 44v55q-29 -26 -78.5 -48t-105.5 -22q-71 0 -112.5 36.5t-41.5 93.5t41.5 93.5t112.5 36.5q56 0 105.5 -22t78.5 -48v71q0 70 -38.5 110.5t-112.5 40.5q-76 0 -145 -51q-3 3 -3 11
t3 11q57 47 145 47q83 0 127 -46t44 -123v-246q-3 -3 -8 -3q-38 -16 -59.5 -47.5t-21.5 -64.5q0 -35 22.5 -58.5t59.5 -23.5q18 0 30 4zM211 3q57 0 109.5 26t74.5 51v70q-22 25 -74.5 51t-109.5 26q-62 0 -98 -31.5t-36 -80.5t36 -80.5t98 -31.5z" />
    <glyph glyph-name="Cacute" unicode="&#x106;" horiz-adv-x="737" 
d="M347 717l118 121q4 0 9 -5t5 -9l-121 -118q-11 0 -11 11zM413 3q137 0 226 73q3 -3 3 -12t-3 -12q-92 -67 -226 -67q-147 0 -242.5 98.5t-95.5 241.5t95.5 241.5t242.5 98.5q134 0 226 -67q3 -3 3 -12t-3 -12q-89 73 -226 73q-138 0 -228 -93t-90 -229t90 -229t228 -93z
" />
    <glyph glyph-name="cacute" unicode="&#x107;" 
d="M207 470l118 121q4 0 9 -5t5 -9l-121 -118q-11 0 -11 11zM283 3q79 0 148 51q3 -3 3 -11t-3 -11q-57 -47 -148 -47q-98 0 -160.5 61.5t-62.5 153.5t62.5 153.5t160.5 61.5q91 0 148 -47q3 -3 3 -11t-3 -11q-69 51 -148 51q-89 0 -146 -56t-57 -141t57 -141t146 -56z" />
    <glyph glyph-name="Cdotaccent" unicode="&#x10a;" horiz-adv-x="737" 
d="M413 759q-9 0 -15 6t-6 15q0 8 6 14t15 6q8 0 14 -6t6 -14q0 -9 -6 -15t-14 -6zM413 3q137 0 226 73q3 -3 3 -12t-3 -12q-92 -67 -226 -67q-147 0 -242.5 98.5t-95.5 241.5t95.5 241.5t242.5 98.5q134 0 226 -67q3 -3 3 -12t-3 -12q-89 73 -226 73q-138 0 -228 -93
t-90 -229t90 -229t228 -93z" />
    <glyph glyph-name="cdotaccent" unicode="&#x10b;" 
d="M273 512q-9 0 -15 6t-6 15q0 8 6 14t15 6q8 0 14 -6t6 -14q0 -9 -6 -15t-14 -6zM283 3q79 0 148 51q3 -3 3 -11t-3 -11q-57 -47 -148 -47q-98 0 -160.5 61.5t-62.5 153.5t62.5 153.5t160.5 61.5q91 0 148 -47q3 -3 3 -11t-3 -11q-69 51 -148 51q-89 0 -146 -56t-57 -141
t57 -141t146 -56z" />
    <glyph glyph-name="Ccaron" unicode="&#x10c;" horiz-adv-x="737" 
d="M413 714l119 120q4 0 9.5 -4.5t5.5 -8.5l-114 -115q-20 -16 -40 0l-114 115q0 4 5.5 8.5t9.5 4.5zM413 3q137 0 226 73q3 -3 3 -12t-3 -12q-92 -67 -226 -67q-147 0 -242.5 98.5t-95.5 241.5t95.5 241.5t242.5 98.5q134 0 226 -67q3 -3 3 -12t-3 -12q-89 73 -226 73
q-138 0 -228 -93t-90 -229t90 -229t228 -93z" />
    <glyph glyph-name="ccaron" unicode="&#x10d;" 
d="M273 467l119 120q4 0 9.5 -4.5t5.5 -8.5l-114 -115q-20 -16 -40 0l-114 115q0 4 5.5 8.5t9.5 4.5zM283 3q79 0 148 51q3 -3 3 -11t-3 -11q-57 -47 -148 -47q-98 0 -160.5 61.5t-62.5 153.5t62.5 153.5t160.5 61.5q91 0 148 -47q3 -3 3 -11t-3 -11q-69 51 -148 51
q-89 0 -146 -56t-57 -141t57 -141t146 -56z" />
    <glyph glyph-name="Dcaron" unicode="&#x10e;" horiz-adv-x="715" 
d="M297 717l119 120q4 0 9.5 -4.5t5.5 -8.5l-114 -115q-20 -16 -40 0l-114 115q0 4 5.5 8.5t9.5 4.5zM100 650h197q167 0 255 -93t88 -232t-88 -232t-255 -93h-197v650zM120 18h177q158 0 240.5 87.5t82.5 219.5t-82.5 219.5t-240.5 87.5h-177v-614z" />
    <glyph glyph-name="dcaron" unicode="&#x10f;" horiz-adv-x="557" 
d="M527 665q18 0 23 -24q5 -27 -3 -74.5t-23 -63.5q-3 -3 -10 -3t-10 3q13 17 22.5 56.5t5.5 65.5q-4 -1 -7 -1q-8 0 -13.5 5.5t-5.5 14.5q0 21 21 21zM436 339v311q3 3 10 3t10 -3v-650q-3 -3 -10 -3t-10 3v61q-69 -76 -169 -76q-93 0 -150 61t-57 154t57 154t150 61
q100 0 169 -76zM436 86v228q-23 29 -68 56t-101 27q-85 0 -136 -55.5t-51 -141.5t51 -141.5t136 -55.5q56 0 101 27t68 56z" />
    <glyph glyph-name="Dcroat" unicode="&#x110;" horiz-adv-x="715" 
d="M100 650h197q167 0 255 -93t88 -232t-88 -232t-255 -93h-197v318h-47q-3 3 -3 9t3 9h47v314zM120 18h177q158 0 240.5 87.5t82.5 219.5t-82.5 219.5t-240.5 87.5h-177v-296h208q3 -3 3 -9t-3 -9h-208v-300z" />
    <glyph glyph-name="dcroat" unicode="&#x111;" horiz-adv-x="536" 
d="M456 531h62q3 -3 3 -9t-3 -9h-62v-513q-3 -3 -10 -3t-10 3v61q-69 -76 -169 -76q-93 0 -150 61t-57 154t57 154t150 61q100 0 169 -76v174h-177q-3 3 -3 9t3 9h177v119q3 3 10 3t10 -3v-119zM436 86v228q-23 29 -68 56t-101 27q-85 0 -136 -55.5t-51 -141.5t51 -141.5
t136 -55.5q56 0 101 27t68 56z" />
    <glyph glyph-name="Emacron" unicode="&#x112;" horiz-adv-x="580" 
d="M160 780h259q3 -3 3 -9t-3 -9h-259q-3 3 -3 9t3 9zM120 18h407q3 -3 3 -9t-3 -9h-427v650h427q3 -3 3 -9t-3 -9h-407v-288h379q3 -3 3 -9t-3 -9h-379v-308z" />
    <glyph glyph-name="emacron" unicode="&#x113;" horiz-adv-x="522" 
d="M131 530h259q3 -3 3 -9t-3 -9h-259q-3 3 -3 9t3 9zM270 415q92 0 148 -63t45 -152h-383q0 -90 55.5 -143.5t144.5 -53.5q79 0 148 51q3 -3 3 -11t-3 -11q-57 -47 -148 -47q-97 0 -158.5 59t-61.5 156q0 92 58 153.5t152 61.5zM270 397q-80 0 -132 -50t-57 -129h364
q3 76 -47 127.5t-128 51.5z" />
    <glyph glyph-name="Edotaccent" unicode="&#x116;" horiz-adv-x="580" 
d="M290 762q-9 0 -15 6t-6 15q0 8 6 14t15 6q8 0 14 -6t6 -14q0 -9 -6 -15t-14 -6zM120 18h407q3 -3 3 -9t-3 -9h-427v650h427q3 -3 3 -9t-3 -9h-407v-288h379q3 -3 3 -9t-3 -9h-379v-308z" />
    <glyph glyph-name="edotaccent" unicode="&#x117;" horiz-adv-x="522" 
d="M261 512q-9 0 -15 6t-6 15q0 8 6 14t15 6q8 0 14 -6t6 -14q0 -9 -6 -15t-14 -6zM270 415q92 0 148 -63t45 -152h-383q0 -90 55.5 -143.5t144.5 -53.5q79 0 148 51q3 -3 3 -11t-3 -11q-57 -47 -148 -47q-97 0 -158.5 59t-61.5 156q0 92 58 153.5t152 61.5zM270 397
q-80 0 -132 -50t-57 -129h364q3 76 -47 127.5t-128 51.5z" />
    <glyph glyph-name="Eogonek" unicode="&#x118;" horiz-adv-x="580" 
d="M550 -193q3 -3 3 -9t-3 -9q-12 -4 -30 -4q-45 0 -73.5 28.5t-28.5 70.5q0 40 26 72t63 44h-407v650h427q3 -3 3 -9t-3 -9h-407v-288h379q3 -3 3 -9t-3 -9h-379v-308h407q3 -3 3 -9t-3 -9q-42 -14 -65.5 -47t-23.5 -68t22.5 -58.5t59.5 -23.5q18 0 30 4z" />
    <glyph glyph-name="eogonek" unicode="&#x119;" horiz-adv-x="522" 
d="M270 415q92 0 148 -63t45 -152h-383q0 -90 55.5 -143.5t144.5 -53.5q79 0 148 51q3 -3 3 -11t-3 -11q-23 -20 -66 -34q-39 -15 -61 -47.5t-22 -65.5q0 -35 22.5 -58.5t59.5 -23.5q18 0 30 4q3 -3 3 -9t-3 -9q-12 -4 -30 -4q-45 0 -73.5 28.5t-28.5 70.5q0 67 63 104
q-21 -3 -42 -3q-97 0 -158.5 59t-61.5 156q0 92 58 153.5t152 61.5zM81 218h364q3 76 -47 127.5t-128 51.5q-80 0 -132 -50t-57 -129z" />
    <glyph glyph-name="Ecaron" unicode="&#x11a;" horiz-adv-x="580" 
d="M290 717l119 120q4 0 9.5 -4.5t5.5 -8.5l-114 -115q-20 -16 -40 0l-114 115q0 4 5.5 8.5t9.5 4.5zM120 18h407q3 -3 3 -9t-3 -9h-427v650h427q3 -3 3 -9t-3 -9h-407v-288h379q3 -3 3 -9t-3 -9h-379v-308z" />
    <glyph glyph-name="ecaron" unicode="&#x11b;" horiz-adv-x="522" 
d="M261 467l119 120q4 0 9.5 -4.5t5.5 -8.5l-114 -115q-20 -16 -40 0l-114 115q0 4 5.5 8.5t9.5 4.5zM270 415q92 0 148 -63t45 -152h-383q0 -90 55.5 -143.5t144.5 -53.5q79 0 148 51q3 -3 3 -11t-3 -11q-57 -47 -148 -47q-97 0 -158.5 59t-61.5 156q0 92 58 153.5
t152 61.5zM270 397q-80 0 -132 -50t-57 -129h364q3 76 -47 127.5t-128 51.5z" />
    <glyph glyph-name="Gbreve" unicode="&#x11e;" horiz-adv-x="744" 
d="M561 816q3 -3 3 -11t-3 -11q-57 -47 -148 -47t-148 47q-3 3 -3 11t3 11q69 -51 148 -51t148 51zM630 62v245q3 3 9.5 3t9.5 -3v-255q-93 -67 -236 -67q-147 0 -242.5 98.5t-95.5 241.5t95.5 241.5t242.5 98.5q134 0 226 -67q3 -3 3 -12t-3 -12q-89 73 -226 73
q-138 0 -228 -93t-90 -229t90 -229t228 -93q126 0 217 59z" />
    <glyph glyph-name="gbreve" unicode="&#x11f;" horiz-adv-x="533" 
d="M415 566q3 -3 3 -11t-3 -11q-57 -47 -148 -47t-148 47q-3 3 -3 11t3 11q69 -51 148 -51t148 51zM267 415q100 0 169 -76v61q3 3 10 3t10 -3v-400q0 -79 -47 -128.5t-136 -49.5q-91 0 -148 47q-3 3 -3 11t3 11q69 -51 148 -51q80 0 121.5 44t41.5 116v61q-69 -76 -169 -76
q-93 0 -150 61t-57 154t57 154t150 61zM267 397q-85 0 -136 -55.5t-51 -141.5t51 -141.5t136 -55.5q56 0 101 27t68 56v228q-23 29 -68 56t-101 27z" />
    <glyph glyph-name="Gdotaccent" unicode="&#x120;" horiz-adv-x="744" 
d="M413 762q-9 0 -15 6t-6 15q0 8 6 14t15 6q8 0 14 -6t6 -14q0 -9 -6 -15t-14 -6zM630 62v245q3 3 9.5 3t9.5 -3v-255q-93 -67 -236 -67q-147 0 -242.5 98.5t-95.5 241.5t95.5 241.5t242.5 98.5q134 0 226 -67q3 -3 3 -12t-3 -12q-89 73 -226 73q-138 0 -228 -93t-90 -229
t90 -229t228 -93q126 0 217 59z" />
    <glyph glyph-name="gdotaccent" unicode="&#x121;" horiz-adv-x="533" 
d="M267 512q-9 0 -15 6t-6 15q0 8 6 14t15 6q8 0 14 -6t6 -14q0 -9 -6 -15t-14 -6zM267 415q100 0 169 -76v61q3 3 10 3t10 -3v-400q0 -79 -47 -128.5t-136 -49.5q-91 0 -148 47q-3 3 -3 11t3 11q69 -51 148 -51q80 0 121.5 44t41.5 116v61q-69 -76 -169 -76q-93 0 -150 61
t-57 154t57 154t150 61zM267 397q-85 0 -136 -55.5t-51 -141.5t51 -141.5t136 -55.5q56 0 101 27t68 56v228q-23 29 -68 56t-101 27z" />
    <glyph glyph-name="Gcommaaccent" unicode="&#x122;" horiz-adv-x="744" 
d="M630 62v245q3 3 9.5 3t9.5 -3v-255q-93 -67 -236 -67q-147 0 -242.5 98.5t-95.5 241.5t95.5 241.5t242.5 98.5q134 0 226 -67q3 -3 3 -12t-3 -12q-89 73 -226 73q-138 0 -228 -93t-90 -229t90 -229t228 -93q126 0 217 59zM413 -59q18 0 23 -24q5 -27 -3 -74.5t-23 -63.5
q-3 -3 -10 -3t-10 3q13 17 22.5 56.5t5.5 65.5q-4 -1 -7 -1q-8 0 -13.5 5.5t-5.5 14.5q0 21 21 21z" />
    <glyph glyph-name="gcommaaccent" unicode="&#x123;" horiz-adv-x="533" 
d="M292 674q-13 -17 -22.5 -56.5t-5.5 -65.5q4 1 7 1q8 0 13.5 -5.5t5.5 -14.5q0 -21 -21 -21q-18 0 -23 24q-5 27 3 74.5t23 63.5q3 3 10 3t10 -3zM267 415q100 0 169 -76v61q3 3 10 3t10 -3v-400q0 -79 -47 -128.5t-136 -49.5q-91 0 -148 47q-3 3 -3 11t3 11
q69 -51 148 -51q80 0 121.5 44t41.5 116v61q-69 -76 -169 -76q-93 0 -150 61t-57 154t57 154t150 61zM267 397q-85 0 -136 -55.5t-51 -141.5t51 -141.5t136 -55.5q56 0 101 27t68 56v228q-23 29 -68 56t-101 27z" />
    <glyph glyph-name="Hbar" unicode="&#x126;" horiz-adv-x="721" 
d="M621 488h67q3 -3 3 -9t-3 -9h-67v-470q-3 -3 -10 -3t-10 3v326h-481v-326q-3 -3 -10 -3t-10 3v470h-67q-3 3 -3 9t3 9h67v162q3 3 10 3t10 -3v-162h481v162q3 3 10 3t10 -3v-162zM601 470h-481v-126h481v126z" />
    <glyph glyph-name="hbar" unicode="&#x127;" horiz-adv-x="516" 
d="M275 415q81 0 122.5 -45.5t41.5 -121.5v-248q-3 -3 -10 -3t-10 3v248q0 69 -35.5 109t-108.5 40q-52 0 -99.5 -31t-73.5 -62v-304q-3 -3 -10 -3t-10 3v513h-61q-3 3 -3 9t3 9h61v119q3 3 10 3t10 -3v-119h178q3 -3 3 -9t-3 -9h-178v-184q80 86 173 86z" />
    <glyph glyph-name="Imacron" unicode="&#x12a;" horiz-adv-x="220" 
d="M-20 780h259q3 -3 3 -9t-3 -9h-259q-3 3 -3 9t3 9zM120 650v-650q-3 -3 -10 -3t-10 3v650q3 3 10 3t10 -3z" />
    <glyph glyph-name="imacron" unicode="&#x12b;" horiz-adv-x="182" 
d="M-38 530h259q3 -3 3 -9t-3 -9h-259q-3 3 -3 9t3 9zM102 400v-400q-3 -3 -10 -3t-10 3v400q3 3 10 3t10 -3z" />
    <glyph glyph-name="Iogonek" unicode="&#x12e;" horiz-adv-x="220" 
d="M143 -193q3 -3 3 -9t-3 -9q-12 -4 -30 -4q-45 0 -73.5 28.5t-28.5 70.5q0 40 26 72t63 44v650q3 3 10 3t10 -3v-650q-3 -3 -8 -3q-38 -16 -59.5 -47.5t-21.5 -64.5q0 -35 22.5 -58.5t59.5 -23.5q18 0 30 4z" />
    <glyph glyph-name="iogonek" unicode="&#x12f;" horiz-adv-x="182" 
d="M92 512q-9 0 -15 6t-6 15q0 8 6 14t15 6q8 0 14 -6t6 -14q0 -9 -6 -15t-14 -6zM125 -193q3 -3 3 -9t-3 -9q-12 -4 -30 -4q-45 0 -73.5 28.5t-28.5 70.5q0 40 26 72t63 44v400q3 3 10 3t10 -3v-400q-3 -3 -8 -3q-38 -16 -59.5 -47.5t-21.5 -64.5q0 -35 22.5 -58.5
t59.5 -23.5q18 0 30 4z" />
    <glyph glyph-name="Idotaccent" unicode="&#x130;" horiz-adv-x="220" 
d="M110 762q-9 0 -15 6t-6 15q0 8 6 14t15 6q8 0 14 -6t6 -14q0 -9 -6 -15t-14 -6zM120 650v-650q-3 -3 -10 -3t-10 3v650q3 3 10 3t10 -3z" />
    <glyph glyph-name="dotlessi" unicode="&#x131;" horiz-adv-x="182" 
d="M102 400v-400q-3 -3 -10 -3t-10 3v400q3 3 10 3t10 -3z" />
    <glyph glyph-name="IJ" unicode="&#x132;" horiz-adv-x="633" 
d="M120 650v-650q-3 -3 -10 -3t-10 3v650q3 3 10 3t10 -3zM533 650v-471q0 -99 -42.5 -146.5t-116.5 -47.5q-58 0 -111 34q-3 3 -3 12t3 12q52 -40 111 -40q139 0 139 176v471q3 3 10 3t10 -3z" />
    <glyph glyph-name="ij" unicode="&#x133;" horiz-adv-x="467" 
d="M103 553q8 0 14 -6t6 -14q0 -9 -6 -15t-14 -6q-9 0 -15 6t-6 15q0 8 6 14t15 6zM370 547q7 0 12 -5t5 -12t-5 -12.5t-12 -5.5q-8 0 -13 5t-5 13q0 7 5.5 12t12.5 5zM112 400v-400q-3 -3 -10 -3t-10 3v400q3 3 10 3t10 -3zM379 400v-489q0 -44 -24 -66.5t-61 -22.5
q-42 0 -83 26q-3 3 -3 12t3 12q41 -32 83 -32q29 0 47 17t18 54v489q3 3 10 3t10 -3z" />
    <glyph glyph-name="Kcommaaccent" unicode="&#x136;" horiz-adv-x="593" 
d="M140 335l413 -335q-3 -3 -15.5 -3t-15.5 3l-402 326v-326q-3 -3 -10 -3t-10 3v650q3 3 10 3t10 -3v-306l379 306q3 3 15.5 3t15.5 -3zM297 -59q18 0 23 -24q5 -27 -3 -74.5t-23 -63.5q-3 -3 -10 -3t-10 3q13 17 22.5 56.5t5.5 65.5q-4 -1 -7 -1q-8 0 -13.5 5.5t-5.5 14.5
q0 21 21 21z" />
    <glyph glyph-name="kcommaaccent" unicode="&#x137;" horiz-adv-x="440" 
d="M119 205l281 -205q-3 -3 -16.5 -3t-16.5 3l-265 193v-193q-3 -3 -10 -3t-10 3v650q3 3 10 3t10 -3v-433l255 183q3 3 16.5 3t16.5 -3zM220 -59q18 0 23 -24q5 -27 -3 -74.5t-23 -63.5q-3 -3 -10 -3t-10 3q13 17 22.5 56.5t5.5 65.5q-4 -1 -7 -1q-8 0 -13.5 5.5t-5.5 14.5
q0 21 21 21z" />
    <glyph glyph-name="Lacute" unicode="&#x139;" horiz-adv-x="559" 
d="M214 720l118 121q4 0 9 -5t5 -9l-121 -118q-11 0 -11 11zM120 18h396q3 -3 3 -9t-3 -9h-416v650q3 3 10 3t10 -3v-632z" />
    <glyph glyph-name="lacute" unicode="&#x13a;" horiz-adv-x="179" 
d="M26 720l118 121q4 0 9 -5t5 -9l-121 -118q-11 0 -11 11zM102 650v-650q-3 -3 -10 -3t-10 3v650q3 3 10 3t10 -3z" />
    <glyph glyph-name="Lcommaaccent" unicode="&#x13b;" horiz-adv-x="559" 
d="M120 18h396q3 -3 3 -9t-3 -9h-416v650q3 3 10 3t10 -3v-632zM280 -59q18 0 23 -24q5 -27 -3 -74.5t-23 -63.5q-3 -3 -10 -3t-10 3q13 17 22.5 56.5t5.5 65.5q-4 -1 -7 -1q-8 0 -13.5 5.5t-5.5 14.5q0 21 21 21z" />
    <glyph glyph-name="lcommaaccent" unicode="&#x13c;" horiz-adv-x="179" 
d="M102 650v-650q-3 -3 -10 -3t-10 3v650q3 3 10 3t10 -3zM90 -59q18 0 23 -24q5 -27 -3 -74.5t-23 -63.5q-3 -3 -10 -3t-10 3q13 17 22.5 56.5t5.5 65.5q-4 -1 -7 -1q-8 0 -13.5 5.5t-5.5 14.5q0 21 21 21z" />
    <glyph glyph-name="Lcaron" unicode="&#x13d;" horiz-adv-x="559" 
d="M493 665q18 0 23 -24q5 -27 -3 -74.5t-23 -63.5q-3 -3 -10 -3t-10 3q13 17 22.5 56.5t5.5 65.5q-4 -1 -7 -1q-8 0 -13.5 5.5t-5.5 14.5q0 21 21 21zM120 18h396q3 -3 3 -9t-3 -9h-416v650q3 3 10 3t10 -3v-632z" />
    <glyph glyph-name="lcaron" unicode="&#x13e;" horiz-adv-x="203" 
d="M173 665q18 0 23 -24q5 -27 -3 -74.5t-23 -63.5q-3 -3 -10 -3t-10 3q13 17 22.5 56.5t5.5 65.5q-4 -1 -7 -1q-8 0 -13.5 5.5t-5.5 14.5q0 21 21 21zM102 650v-650q-3 -3 -10 -3t-10 3v650q3 3 10 3t10 -3z" />
    <glyph glyph-name="Ldot" unicode="&#x13f;" horiz-adv-x="559" 
d="M120 18h396q3 -3 3 -9t-3 -9h-416v650q3 3 10 3t10 -3v-632zM496 293q-9 0 -15 6t-6 15q0 8 6 14t15 6q8 0 14 -6t6 -14q0 -9 -6 -15t-14 -6z" />
    <glyph glyph-name="ldot" unicode="&#x140;" horiz-adv-x="198" 
d="M102 650v-650q-3 -3 -10 -3t-10 3v650q3 3 10 3t10 -3zM173 284q-9 0 -15 6t-6 15q0 8 6 14t15 6q8 0 14 -6t6 -14q0 -9 -6 -15t-14 -6z" />
    <glyph glyph-name="Lslash" unicode="&#x141;" horiz-adv-x="559" 
d="M120 18h396q3 -3 3 -9t-3 -9h-416v337l-63 -21q-3 3 -3 10t3 10l63 21v293q3 3 10 3t10 -3v-286l181 60q3 -3 3 -10t-3 -10l-181 -60v-326z" />
    <glyph glyph-name="lslash" unicode="&#x142;" horiz-adv-x="179" 
d="M102 374l64 18q3 -3 3 -10t-3 -10l-64 -18v-354q-3 -3 -10 -3t-10 3v349l-64 -18q-3 3 -3 10t3 10l64 18v281q3 3 10 3t10 -3v-276z" />
    <glyph glyph-name="Nacute" unicode="&#x143;" horiz-adv-x="711" 
d="M290 720l118 121q4 0 9 -5t5 -9l-121 -118q-11 0 -11 11zM616 650v-650q-3 -3 -10 -3t-10 3l-481 618v-618q-3 -3 -10 -3t-10 3v650q3 3 10 3t10 -3l481 -618v618q3 3 10 3t10 -3z" />
    <glyph glyph-name="nacute" unicode="&#x144;" horiz-adv-x="514" 
d="M191 470l118 121q4 0 9 -5t5 -9l-121 -118q-11 0 -11 11zM273 415q81 0 122.5 -45.5t41.5 -121.5v-248q-3 -3 -10 -3t-10 3v248q0 69 -35.5 109t-108.5 40q-52 0 -99.5 -31t-73.5 -62v-304q-3 -3 -10 -3t-10 3v400q3 3 10 3t10 -3v-71q80 86 173 86z" />
    <glyph glyph-name="Ncommaaccent" unicode="&#x145;" horiz-adv-x="711" 
d="M616 650v-650q-3 -3 -10 -3t-10 3l-481 618v-618q-3 -3 -10 -3t-10 3v650q3 3 10 3t10 -3l481 -618v618q3 3 10 3t10 -3zM356 -59q18 0 23 -24q5 -27 -3 -74.5t-23 -63.5q-3 -3 -10 -3t-10 3q13 17 22.5 56.5t5.5 65.5q-4 -1 -7 -1q-8 0 -13.5 5.5t-5.5 14.5q0 21 21 21z
" />
    <glyph glyph-name="ncommaaccent" unicode="&#x146;" horiz-adv-x="514" 
d="M273 415q81 0 122.5 -45.5t41.5 -121.5v-248q-3 -3 -10 -3t-10 3v248q0 69 -35.5 109t-108.5 40q-52 0 -99.5 -31t-73.5 -62v-304q-3 -3 -10 -3t-10 3v400q3 3 10 3t10 -3v-71q80 86 173 86zM257 -59q18 0 23 -24q5 -27 -3 -74.5t-23 -63.5q-3 -3 -10 -3t-10 3
q13 17 22.5 56.5t5.5 65.5q-4 -1 -7 -1q-8 0 -13.5 5.5t-5.5 14.5q0 21 21 21z" />
    <glyph glyph-name="Ncaron" unicode="&#x147;" horiz-adv-x="711" 
d="M356 717l119 120q4 0 9.5 -4.5t5.5 -8.5l-114 -115q-20 -16 -40 0l-114 115q0 4 5.5 8.5t9.5 4.5zM616 650v-650q-3 -3 -10 -3t-10 3l-481 618v-618q-3 -3 -10 -3t-10 3v650q3 3 10 3t10 -3l481 -618v618q3 3 10 3t10 -3z" />
    <glyph glyph-name="ncaron" unicode="&#x148;" horiz-adv-x="514" 
d="M257 467l119 120q4 0 9.5 -4.5t5.5 -8.5l-114 -115q-20 -16 -40 0l-114 115q0 4 5.5 8.5t9.5 4.5zM273 415q81 0 122.5 -45.5t41.5 -121.5v-248q-3 -3 -10 -3t-10 3v248q0 69 -35.5 109t-108.5 40q-52 0 -99.5 -31t-73.5 -62v-304q-3 -3 -10 -3t-10 3v400q3 3 10 3t10 -3
v-71q80 86 173 86z" />
    <glyph glyph-name="Eng" unicode="&#x14a;" horiz-adv-x="711" 
d="M596 32v618q3 3 10 3t10 -3v-739q0 -44 -24 -66.5t-61 -22.5q-42 0 -83 26q-3 3 -3 12t3 12q41 -32 83 -32q29 0 47 17t18 54v89l-481 618v-618q-3 -3 -10 -3t-10 3v650q3 3 10 3t10 -3z" />
    <glyph glyph-name="eng" unicode="&#x14b;" horiz-adv-x="514" 
d="M273 415q81 0 122.5 -45.5t41.5 -121.5v-337q0 -44 -24 -66.5t-61 -22.5q-42 0 -83 26q-3 3 -3 12t3 12q41 -32 83 -32q29 0 47 17t18 54v337q0 69 -35.5 109t-108.5 40q-52 0 -99.5 -31t-73.5 -62v-304q-3 -3 -10 -3t-10 3v400q3 3 10 3t10 -3v-71q80 86 173 86z" />
    <glyph glyph-name="Omacron" unicode="&#x14c;" horiz-adv-x="826" 
d="M283 780h259q3 -3 3 -9t-3 -9h-259q-3 3 -3 9t3 9zM413 665q147 0 242.5 -98.5t95.5 -241.5t-95.5 -241.5t-242.5 -98.5t-242.5 98.5t-95.5 241.5t95.5 241.5t242.5 98.5zM413 647q-138 0 -228 -93t-90 -229t90 -229t228 -93t228 93t90 229t-90 229t-228 93z" />
    <glyph glyph-name="omacron" unicode="&#x14d;" horiz-adv-x="546" 
d="M143 530h259q3 -3 3 -9t-3 -9h-259q-3 3 -3 9t3 9zM273 415q92 0 152.5 -62t60.5 -153t-60.5 -153t-152.5 -62t-152.5 62t-60.5 153t60.5 153t152.5 62zM273 397q-83 0 -138 -56.5t-55 -140.5t55 -140.5t138 -56.5t138 56.5t55 140.5t-55 140.5t-138 56.5z" />
    <glyph glyph-name="Ohungarumlaut" unicode="&#x150;" horiz-adv-x="826" 
d="M307 720l118 121q4 0 9 -5t5 -9l-121 -118q-11 0 -11 11zM412 720l118 121q4 0 9 -5t5 -9l-121 -118q-11 0 -11 11zM413 665q147 0 242.5 -98.5t95.5 -241.5t-95.5 -241.5t-242.5 -98.5t-242.5 98.5t-95.5 241.5t95.5 241.5t242.5 98.5zM413 647q-138 0 -228 -93
t-90 -229t90 -229t228 -93t228 93t90 229t-90 229t-228 93z" />
    <glyph glyph-name="ohungarumlaut" unicode="&#x151;" horiz-adv-x="546" 
d="M167 470l118 121q4 0 9 -5t5 -9l-121 -118q-11 0 -11 11zM272 470l118 121q4 0 9 -5t5 -9l-121 -118q-11 0 -11 11zM273 415q92 0 152.5 -62t60.5 -153t-60.5 -153t-152.5 -62t-152.5 62t-60.5 153t60.5 153t152.5 62zM273 397q-83 0 -138 -56.5t-55 -140.5t55 -140.5
t138 -56.5t138 56.5t55 140.5t-55 140.5t-138 56.5z" />
    <glyph glyph-name="OE" unicode="&#x152;" horiz-adv-x="1211" 
d="M751 18h407q3 -3 3 -9t-3 -9h-427v207q-35 -99 -120 -160t-198 -61q-147 0 -242.5 98.5t-95.5 241.5t95.5 241.5t242.5 98.5q113 0 198 -61t120 -160v205h427q3 -3 3 -9t-3 -9h-407v-288h379q3 -3 3 -9t-3 -9h-379v-308zM413 4q138 0 228 93t90 229t-90 229t-228 93
t-228 -93t-90 -229t90 -229t228 -93z" />
    <glyph glyph-name="oe" unicode="&#x153;" horiz-adv-x="928" 
d="M676 415q92 0 148 -63t45 -152h-383q0 -90 55.5 -143.5t144.5 -53.5q79 0 148 51q3 -3 3 -11t-3 -11q-57 -47 -148 -47q-78 0 -134 39t-76 107q-21 -66 -76 -106t-127 -40q-92 0 -152.5 62t-60.5 153t60.5 153t152.5 62q73 0 127.5 -40.5t75.5 -105.5q19 66 72 106
t128 40zM273 397q-83 0 -138 -56.5t-55 -140.5t55 -140.5t138 -56.5t138 56.5t55 140.5t-55 140.5t-138 56.5zM676 397q-80 0 -132 -50t-57 -129h364q3 76 -47 127.5t-128 51.5z" />
    <glyph glyph-name="Racute" unicode="&#x154;" horiz-adv-x="620" 
d="M228 720l118 121q4 0 9 -5t5 -9l-121 -118q-11 0 -11 11zM100 650h227q116 0 175 -57.5t59 -142.5q0 -76 -48 -131.5t-143 -66.5l200 -252q-3 -3 -12.5 -3t-12.5 3l-198 250h-227v-250q-3 -3 -10 -3t-10 3v650zM120 632v-364h207q108 0 161 52t53 130t-53 130t-161 52
h-207z" />
    <glyph glyph-name="racute" unicode="&#x155;" horiz-adv-x="391" 
d="M130 470l118 121q4 0 9 -5t5 -9l-121 -118q-11 0 -11 11zM348 396q3 -3 3 -10.5t-3 -10.5q-35 22 -87 22q-14 0 -29 -4t-26.5 -9t-24.5 -14.5t-21.5 -16.5t-20 -19t-16 -17t-13.5 -16t-10 -12v-289q-3 -3 -10 -3t-10 3v400q3 3 10 3t10 -3v-86q75 101 161 101
q51 0 87 -19z" />
    <glyph glyph-name="Rcommaaccent" unicode="&#x156;" horiz-adv-x="620" 
d="M100 650h227q116 0 175 -57.5t59 -142.5q0 -76 -48 -131.5t-143 -66.5l200 -252q-3 -3 -12.5 -3t-12.5 3l-198 250h-227v-250q-3 -3 -10 -3t-10 3v650zM120 632v-364h207q108 0 161 52t53 130t-53 130t-161 52h-207zM310 -59q18 0 23 -24q5 -27 -3 -74.5t-23 -63.5
q-3 -3 -10 -3t-10 3q13 17 22.5 56.5t5.5 65.5q-4 -1 -7 -1q-8 0 -13.5 5.5t-5.5 14.5q0 21 21 21z" />
    <glyph glyph-name="rcommaaccent" unicode="&#x157;" horiz-adv-x="391" 
d="M348 396q3 -3 3 -10.5t-3 -10.5q-35 22 -87 22q-14 0 -29 -4t-26.5 -9t-24.5 -14.5t-21.5 -16.5t-20 -19t-16 -17t-13.5 -16t-10 -12v-289q-3 -3 -10 -3t-10 3v400q3 3 10 3t10 -3v-86q75 101 161 101q51 0 87 -19zM196 -59q18 0 23 -24q5 -27 -3 -74.5t-23 -63.5
q-3 -3 -10 -3t-10 3q13 17 22.5 56.5t5.5 65.5q-4 -1 -7 -1q-8 0 -13.5 5.5t-5.5 14.5q0 21 21 21z" />
    <glyph glyph-name="Rcaron" unicode="&#x158;" horiz-adv-x="620" 
d="M294 717l119 120q4 0 9.5 -4.5t5.5 -8.5l-114 -115q-20 -16 -40 0l-114 115q0 4 5.5 8.5t9.5 4.5zM100 650h227q116 0 175 -57.5t59 -142.5q0 -76 -48 -131.5t-143 -66.5l200 -252q-3 -3 -12.5 -3t-12.5 3l-198 250h-227v-250q-3 -3 -10 -3t-10 3v650zM120 632v-364h207
q108 0 161 52t53 130t-53 130t-161 52h-207z" />
    <glyph glyph-name="rcaron" unicode="&#x159;" horiz-adv-x="391" 
d="M196 467l119 120q4 0 9.5 -4.5t5.5 -8.5l-114 -115q-20 -16 -40 0l-114 115q0 4 5.5 8.5t9.5 4.5zM348 396q3 -3 3 -10.5t-3 -10.5q-35 22 -87 22q-14 0 -29 -4t-26.5 -9t-24.5 -14.5t-21.5 -16.5t-20 -19t-16 -17t-13.5 -16t-10 -12v-289q-3 -3 -10 -3t-10 3v400
q3 3 10 3t10 -3v-86q75 101 161 101q51 0 87 -19z" />
    <glyph glyph-name="Sacute" unicode="&#x15a;" horiz-adv-x="573" 
d="M221 720l118 121q4 0 9 -5t5 -9l-121 -118q-11 0 -11 11zM277 665q116 0 191 -67q3 -3 3 -12t-3 -12q-71 73 -191 73q-84 0 -133 -42t-49 -101q0 -63 42 -93t160 -68q40 -13 64 -22t53.5 -25t45.5 -33.5t27 -44.5t11 -61q0 -75 -59 -123.5t-151 -48.5q-116 0 -204 70
q-3 3 -3 12t3 12q40 -36 95.5 -56t108.5 -20q83 0 136.5 43.5t53.5 110.5q0 39 -13 66t-44.5 47t-60 31t-83.5 28q-52 16 -83 29t-61.5 33t-44 47.5t-13.5 65.5q0 66 54.5 113.5t147.5 47.5z" />
    <glyph glyph-name="sacute" unicode="&#x15b;" horiz-adv-x="403" 
d="M136 470l118 121q4 0 9 -5t5 -9l-121 -118q-11 0 -11 11zM206 213q40 -13 61.5 -22.5t44 -23.5t32 -31.5t9.5 -41.5q0 -54 -44.5 -81.5t-103.5 -27.5q-41 0 -81.5 13.5t-64.5 33.5q-3 3 -3 11t3 11q67 -51 145 -51q51 0 90 22t39 67q0 38 -29.5 57.5t-103.5 44.5
q-33 11 -50 17.5t-40 17.5t-33.5 21.5t-18.5 25.5t-8 34q0 49 43 77t100 28q40 0 80.5 -13.5t64.5 -33.5q3 -3 3 -11t-3 -11q-67 51 -143 51q-50 0 -87.5 -22t-37.5 -63q0 -36 30.5 -55t105.5 -44z" />
    <glyph glyph-name="Scedilla" unicode="&#x15e;" horiz-adv-x="573" 
d="M498 157q0 -73 -56 -121t-145 -51v-58q33 9 64.5 -10.5t31.5 -58.5q0 -34 -23 -53.5t-56 -19.5q-28 0 -52 15q-3 4 -3 10.5t3 9.5q23 -17 51 -17q25 1 42.5 15t17.5 40q0 35 -30.5 47.5t-65.5 -2.5v82q-112 5 -193 70q-3 3 -3 12t3 12q40 -36 95.5 -56t108.5 -20
q83 0 136.5 43.5t53.5 110.5q0 39 -13 66t-44.5 47t-60 31t-83.5 28q-52 16 -83 29t-61.5 33t-44 47.5t-13.5 65.5q0 66 54.5 113.5t147.5 47.5q116 0 191 -67q3 -3 3 -12t-3 -12q-71 73 -191 73q-84 0 -133 -42t-49 -101q0 -63 42 -93t160 -68q40 -13 64 -22t53.5 -25
t45.5 -33.5t27 -44.5t11 -61z" />
    <glyph glyph-name="scedilla" unicode="&#x15f;" horiz-adv-x="403" 
d="M205 -15h-2v-58q33 9 64.5 -10.5t31.5 -58.5q0 -34 -23 -53.5t-56 -19.5q-28 0 -52 15q-3 4 -3 10.5t3 9.5q23 -17 51 -17q25 1 42.5 15t17.5 40q0 35 -30.5 47.5t-65.5 -2.5v83q-80 8 -124 46q-3 3 -3 11t3 11q67 -51 145 -51q51 0 90 22t39 67q0 38 -29.5 57.5
t-103.5 44.5q-33 11 -50 17.5t-40 17.5t-33.5 21.5t-18.5 25.5t-8 34q0 49 43 77t100 28q40 0 80.5 -13.5t64.5 -33.5q3 -3 3 -11t-3 -11q-67 51 -143 51q-50 0 -87.5 -22t-37.5 -63q0 -36 30.5 -55t105.5 -44q40 -13 61.5 -22.5t44 -23.5t32 -31.5t9.5 -41.5
q0 -54 -44.5 -81.5t-103.5 -27.5z" />
    <glyph glyph-name="Scaron" unicode="&#x160;" horiz-adv-x="573" 
d="M287 717l119 120q4 0 9.5 -4.5t5.5 -8.5l-114 -115q-20 -16 -40 0l-114 115q0 4 5.5 8.5t9.5 4.5zM277 665q116 0 191 -67q3 -3 3 -12t-3 -12q-71 73 -191 73q-84 0 -133 -42t-49 -101q0 -63 42 -93t160 -68q40 -13 64 -22t53.5 -25t45.5 -33.5t27 -44.5t11 -61
q0 -75 -59 -123.5t-151 -48.5q-116 0 -204 70q-3 3 -3 12t3 12q40 -36 95.5 -56t108.5 -20q83 0 136.5 43.5t53.5 110.5q0 39 -13 66t-44.5 47t-60 31t-83.5 28q-52 16 -83 29t-61.5 33t-44 47.5t-13.5 65.5q0 66 54.5 113.5t147.5 47.5z" />
    <glyph glyph-name="scaron" unicode="&#x161;" horiz-adv-x="403" 
d="M202 467l119 120q4 0 9.5 -4.5t5.5 -8.5l-114 -115q-20 -16 -40 0l-114 115q0 4 5.5 8.5t9.5 4.5zM206 213q40 -13 61.5 -22.5t44 -23.5t32 -31.5t9.5 -41.5q0 -54 -44.5 -81.5t-103.5 -27.5q-41 0 -81.5 13.5t-64.5 33.5q-3 3 -3 11t3 11q67 -51 145 -51q51 0 90 22
t39 67q0 38 -29.5 57.5t-103.5 44.5q-33 11 -50 17.5t-40 17.5t-33.5 21.5t-18.5 25.5t-8 34q0 49 43 77t100 28q40 0 80.5 -13.5t64.5 -33.5q3 -3 3 -11t-3 -11q-67 51 -143 51q-50 0 -87.5 -22t-37.5 -63q0 -36 30.5 -55t105.5 -44z" />
    <glyph glyph-name="Tcedilla" unicode="&#x162;" horiz-adv-x="584" 
d="M302 632v-705q33 9 64.5 -10.5t31.5 -58.5q0 -34 -23 -53.5t-56 -19.5q-28 0 -52 15q-3 4 -3 10.5t3 9.5q23 -17 51 -17q25 1 42.5 15t17.5 40q0 35 -31 47.5t-65 -2.5v729h-239q-3 3 -3 9t3 9h498q3 -3 3 -9t-3 -9h-239z" />
    <glyph glyph-name="tcedilla" unicode="&#x163;" horiz-adv-x="348" 
d="M204 -15v-58q33 9 64.5 -10.5t31.5 -58.5q0 -34 -23 -53.5t-56 -19.5q-28 0 -52 15q-3 4 -3 10.5t3 9.5q23 -17 51 -17q25 1 42.5 15t17.5 40q0 35 -31 47.5t-65 -2.5v83q-32 3 -52 25.5t-20 62.5v308h-69q-3 3 -3 9t3 9h69v130q3 3 10 3t10 -3v-130h151q3 -3 3 -9t-3 -9
h-151v-308q0 -37 18 -54t46 -17q43 0 99 43q3 -3 3 -12t-3 -12q-45 -33 -91 -37z" />
    <glyph glyph-name="Tcaron" unicode="&#x164;" horiz-adv-x="584" 
d="M292 717l119 120q4 0 9.5 -4.5t5.5 -8.5l-114 -115q-20 -16 -40 0l-114 115q0 4 5.5 8.5t9.5 4.5zM43 650h498q3 -3 3 -9t-3 -9h-239v-632q-3 -3 -10 -3t-10 3v632h-239q-3 3 -3 9t3 9z" />
    <glyph glyph-name="tcaron" unicode="&#x165;" horiz-adv-x="348" 
d="M304 665q18 0 23 -24q5 -27 -3 -74.5t-23 -63.5q-3 -3 -10 -3t-10 3q13 17 22.5 56.5t5.5 65.5q-4 -1 -7 -1q-8 0 -13.5 5.5t-5.5 14.5q0 21 21 21zM295 46q3 -3 3 -12t-3 -12q-49 -37 -99 -37q-37 0 -60.5 22.5t-23.5 66.5v308h-69q-3 3 -3 9t3 9h69v130q3 3 10 3t10 -3
v-130h151q3 -3 3 -9t-3 -9h-151v-308q0 -37 18 -54t46 -17q43 0 99 43z" />
    <glyph glyph-name="Tbar" unicode="&#x166;" horiz-adv-x="584" 
d="M302 632v-232h120q3 -3 3 -9t-3 -9h-120v-382q-3 -3 -10 -3t-10 3v382h-120q-3 3 -3 9t3 9h120v232h-239q-3 3 -3 9t3 9h498q3 -3 3 -9t-3 -9h-239z" />
    <glyph glyph-name="tbar" unicode="&#x167;" horiz-adv-x="348" 
d="M295 46q3 -3 3 -12t-3 -12q-49 -37 -99 -37q-37 0 -60.5 22.5t-23.5 66.5v181h-69q-3 3 -3 9t3 9h69v109h-69q-3 3 -3 9t3 9h69v130q3 3 10 3t10 -3v-130h151q3 -3 3 -9t-3 -9h-151v-109h151q3 -3 3 -9t-3 -9h-151v-181q0 -37 18 -54t46 -17q43 0 99 43z" />
    <glyph glyph-name="Umacron" unicode="&#x16a;" horiz-adv-x="699" 
d="M220 780h259q3 -3 3 -9t-3 -9h-259q-3 3 -3 9t3 9zM584 237v413q3 3 10 3t10 -3v-413q0 -116 -68.5 -184t-183.5 -68t-183.5 68t-68.5 184v413q3 3 10 3t10 -3v-413q0 -109 63 -171.5t169 -62.5t169 62.5t63 171.5z" />
    <glyph glyph-name="umacron" unicode="&#x16b;" 
d="M126 530h259q3 -3 3 -9t-3 -9h-259q-3 3 -3 9t3 9zM414 96v304q3 3 10 3t10 -3v-400q-3 -3 -10 -3t-10 3v71q-80 -86 -173 -86q-81 0 -122.5 45.5t-41.5 121.5v248q3 3 10 3t10 -3v-248q0 -69 35.5 -109t108.5 -40q52 0 99.5 31t73.5 62z" />
    <glyph glyph-name="Uring" unicode="&#x16e;" horiz-adv-x="699" 
d="M350 852q31 0 52.5 -21t21.5 -49q0 -31 -21.5 -52t-52.5 -21q-32 0 -53 21t-21 52q0 28 21 49t53 21zM350 834q-24 0 -38.5 -15.5t-14.5 -36.5q0 -23 14 -38.5t39 -15.5q24 0 39 16t15 38q0 21 -15 36.5t-39 15.5zM584 237v413q3 3 10 3t10 -3v-413q0 -116 -68.5 -184
t-183.5 -68t-183.5 68t-68.5 184v413q3 3 10 3t10 -3v-413q0 -109 63 -171.5t169 -62.5t169 62.5t63 171.5z" />
    <glyph glyph-name="uring" unicode="&#x16f;" 
d="M256 602q31 0 52.5 -21t21.5 -49q0 -31 -21.5 -52t-52.5 -21q-32 0 -53 21t-21 52q0 28 21 49t53 21zM256 584q-24 0 -38.5 -15.5t-14.5 -36.5q0 -23 14 -38.5t39 -15.5q24 0 39 16t15 38q0 21 -15 36.5t-39 15.5zM414 96v304q3 3 10 3t10 -3v-400q-3 -3 -10 -3t-10 3v71
q-80 -86 -173 -86q-81 0 -122.5 45.5t-41.5 121.5v248q3 3 10 3t10 -3v-248q0 -69 35.5 -109t108.5 -40q52 0 99.5 31t73.5 62z" />
    <glyph glyph-name="Uhungarumlaut" unicode="&#x170;" horiz-adv-x="699" 
d="M244 720l118 121q4 0 9 -5t5 -9l-121 -118q-11 0 -11 11zM349 720l118 121q4 0 9 -5t5 -9l-121 -118q-11 0 -11 11zM584 237v413q3 3 10 3t10 -3v-413q0 -116 -68.5 -184t-183.5 -68t-183.5 68t-68.5 184v413q3 3 10 3t10 -3v-413q0 -109 63 -171.5t169 -62.5t169 62.5
t63 171.5z" />
    <glyph glyph-name="uhungarumlaut" unicode="&#x171;" 
d="M150 470l118 121q4 0 9 -5t5 -9l-121 -118q-11 0 -11 11zM255 470l118 121q4 0 9 -5t5 -9l-121 -118q-11 0 -11 11zM414 96v304q3 3 10 3t10 -3v-400q-3 -3 -10 -3t-10 3v71q-80 -86 -173 -86q-81 0 -122.5 45.5t-41.5 121.5v248q3 3 10 3t10 -3v-248q0 -69 35.5 -109
t108.5 -40q52 0 99.5 31t73.5 62z" />
    <glyph glyph-name="Uogonek" unicode="&#x172;" horiz-adv-x="699" 
d="M584 237v413q3 3 10 3t10 -3v-413q0 -91 -42.5 -153.5t-118.5 -85.5q-39 -15 -61.5 -47t-22.5 -66q0 -35 22.5 -58.5t59.5 -23.5q18 0 30 4q3 -3 3 -9t-3 -9q-12 -4 -30 -4q-45 0 -73.5 28.5t-28.5 70.5q0 33 17.5 61t46.5 44q-23 -4 -51 -4q-115 0 -183.5 68t-68.5 184
v413q3 3 10 3t10 -3v-413q0 -109 63 -171.5t169 -62.5t169 62.5t63 171.5z" />
    <glyph glyph-name="uogonek" unicode="&#x173;" 
d="M457 -193q3 -3 3 -9t-3 -9q-12 -4 -30 -4q-45 0 -73.5 28.5t-28.5 70.5q0 40 26 72t63 44v71q-80 -86 -173 -86q-81 0 -122.5 45.5t-41.5 121.5v248q3 3 10 3t10 -3v-248q0 -69 35.5 -109t108.5 -40q52 0 99.5 31t73.5 62v304q3 3 10 3t10 -3v-400q-3 -3 -8 -3
q-38 -16 -59.5 -47.5t-21.5 -64.5q0 -35 22.5 -58.5t59.5 -23.5q18 0 30 4z" />
    <glyph glyph-name="Wcircumflex" unicode="&#x174;" horiz-adv-x="996" 
d="M518 830l114 -115q0 -4 -5.5 -8.5t-9.5 -4.5l-119 120l-119 -120q-4 0 -9.5 4.5t-5.5 8.5l114 115q20 16 40 0zM956 650l-224 -650q-3 -3 -10 -3t-10 3l-214 621l-214 -621q-3 -3 -10 -3t-10 3l-224 650q3 3 10 3t10 -3l214 -621l214 621q3 3 10 3t10 -3l214 -621
l214 621q3 3 10 3t10 -3z" />
    <glyph glyph-name="wcircumflex" unicode="&#x175;" horiz-adv-x="669" 
d="M355 580l114 -115q0 -4 -5.5 -8.5t-9.5 -4.5l-119 120l-119 -120q-4 0 -9.5 4.5t-5.5 8.5l114 115q20 16 40 0zM182 0l-142 400q3 3 10.5 3t10.5 -3l132 -370l131 370q3 3 10.5 3t10.5 -3l132 -370l131 370q3 3 10.5 3t10.5 -3l-142 -400q-3 -3 -10.5 -3t-10.5 3
l-131 370l-132 -370q-3 -3 -10.5 -3t-10.5 3z" />
    <glyph glyph-name="Ycircumflex" unicode="&#x176;" horiz-adv-x="609" 
d="M325 830l114 -115q0 -4 -5.5 -8.5t-9.5 -4.5l-119 120l-119 -120q-4 0 -9.5 4.5t-5.5 8.5l114 115q20 16 40 0zM315 257v-257q-3 -3 -10 -3t-10 3v256l-255 394q3 3 11.5 3t11.5 -3l242 -373l241 373q3 3 11.5 3t11.5 -3z" />
    <glyph glyph-name="ycircumflex" unicode="&#x177;" horiz-adv-x="486" 
d="M263 580l114 -115q0 -4 -5.5 -8.5t-9.5 -4.5l-119 120l-119 -120q-4 0 -9.5 4.5t-5.5 8.5l114 115q20 16 40 0zM244 52l180 348q3 3 11 3t11 -3l-292 -563q-3 -3 -11 -3t-11 3l101 194l-193 369q3 3 11 3t11 -3z" />
    <glyph glyph-name="Ydieresis" unicode="&#x178;" horiz-adv-x="609" 
d="M188 803q8 0 14 -6t6 -14q0 -9 -6 -15t-14 -6q-9 0 -15 6t-6 15q0 8 6 14t15 6zM422 803q8 0 14 -6t6 -14q0 -9 -6 -15t-14 -6q-9 0 -15 6t-6 15q0 8 6 14t15 6zM315 257v-257q-3 -3 -10 -3t-10 3v256l-255 394q3 3 11.5 3t11.5 -3l242 -373l241 373q3 3 11.5 3t11.5 -3z
" />
    <glyph glyph-name="Zacute" unicode="&#x179;" horiz-adv-x="543" 
d="M206 720l118 121q4 0 9 -5t5 -9l-121 -118q-11 0 -11 11zM80 18h410q3 -3 3 -9t-3 -9h-440v9l413 623h-402q-3 3 -3 9t3 9h432v-9z" />
    <glyph glyph-name="zacute" unicode="&#x17a;" horiz-adv-x="415" 
d="M142 470l118 121q4 0 9 -5t5 -9l-121 -118q-11 0 -11 11zM77 18h290q3 -3 3 -9t-3 -9h-322v8l293 374h-281q-3 3 -3 9t3 9h313v-8z" />
    <glyph glyph-name="Zdotaccent" unicode="&#x17b;" horiz-adv-x="543" 
d="M272 762q-9 0 -15 6t-6 15q0 8 6 14t15 6q8 0 14 -6t6 -14q0 -9 -6 -15t-14 -6zM80 18h410q3 -3 3 -9t-3 -9h-440v9l413 623h-402q-3 3 -3 9t3 9h432v-9z" />
    <glyph glyph-name="zdotaccent" unicode="&#x17c;" horiz-adv-x="415" 
d="M208 512q-9 0 -15 6t-6 15q0 8 6 14t15 6q8 0 14 -6t6 -14q0 -9 -6 -15t-14 -6zM77 18h290q3 -3 3 -9t-3 -9h-322v8l293 374h-281q-3 3 -3 9t3 9h313v-8z" />
    <glyph glyph-name="Zcaron" unicode="&#x17d;" horiz-adv-x="543" 
d="M272 717l119 120q4 0 9.5 -4.5t5.5 -8.5l-114 -115q-20 -16 -40 0l-114 115q0 4 5.5 8.5t9.5 4.5zM80 18h410q3 -3 3 -9t-3 -9h-440v9l413 623h-402q-3 3 -3 9t3 9h432v-9z" />
    <glyph glyph-name="zcaron" unicode="&#x17e;" horiz-adv-x="415" 
d="M208 467l119 120q4 0 9.5 -4.5t5.5 -8.5l-114 -115q-20 -16 -40 0l-114 115q0 4 5.5 8.5t9.5 4.5zM77 18h290q3 -3 3 -9t-3 -9h-322v8l293 374h-281q-3 3 -3 9t3 9h313v-8z" />
    <glyph glyph-name="Acaron" unicode="&#x1cd;" horiz-adv-x="657" 
d="M329 717l119 120q4 0 9.5 -4.5t5.5 -8.5l-114 -115q-20 -16 -40 0l-114 115q0 4 5.5 8.5t9.5 4.5zM339 650l278 -650q-3 -3 -10.5 -3t-10.5 3l-94 219h-347l-94 -219q-3 -3 -10.5 -3t-10.5 3l278 650q3 3 10.5 3t10.5 -3zM162 237h333l-167 388z" />
    <glyph glyph-name="acaron" unicode="&#x1ce;" horiz-adv-x="492" 
d="M244 467l119 120q4 0 9.5 -4.5t5.5 -8.5l-114 -115q-20 -16 -40 0l-114 115q0 4 5.5 8.5t9.5 4.5zM244 415q83 0 127 -46t44 -123v-246q-3 -3 -10 -3t-10 3v55q-29 -26 -78.5 -48t-105.5 -22q-71 0 -112.5 36.5t-41.5 93.5t41.5 93.5t112.5 36.5q56 0 105.5 -22t78.5 -48
v71q0 70 -38.5 110.5t-112.5 40.5q-76 0 -145 -51q-3 3 -3 11t3 11q57 47 145 47zM211 227q-62 0 -98 -31.5t-36 -80.5t36 -80.5t98 -31.5q57 0 109.5 26t74.5 51v70q-22 25 -74.5 51t-109.5 26z" />
    <glyph glyph-name="Icaron" unicode="&#x1cf;" horiz-adv-x="220" 
d="M110 717l119 120q4 0 9.5 -4.5t5.5 -8.5l-114 -115q-20 -16 -40 0l-114 115q0 4 5.5 8.5t9.5 4.5zM120 650v-650q-3 -3 -10 -3t-10 3v650q3 3 10 3t10 -3z" />
    <glyph glyph-name="icaron" unicode="&#x1d0;" horiz-adv-x="182" 
d="M92 467l119 120q4 0 9.5 -4.5t5.5 -8.5l-114 -115q-20 -16 -40 0l-114 115q0 4 5.5 8.5t9.5 4.5zM102 400v-400q-3 -3 -10 -3t-10 3v400q3 3 10 3t10 -3z" />
    <glyph glyph-name="Ocaron" unicode="&#x1d1;" horiz-adv-x="826" 
d="M413 717l119 120q4 0 9.5 -4.5t5.5 -8.5l-114 -115q-20 -16 -40 0l-114 115q0 4 5.5 8.5t9.5 4.5zM413 665q147 0 242.5 -98.5t95.5 -241.5t-95.5 -241.5t-242.5 -98.5t-242.5 98.5t-95.5 241.5t95.5 241.5t242.5 98.5zM413 647q-138 0 -228 -93t-90 -229t90 -229
t228 -93t228 93t90 229t-90 229t-228 93z" />
    <glyph glyph-name="ocaron" unicode="&#x1d2;" horiz-adv-x="546" 
d="M273 467l119 120q4 0 9.5 -4.5t5.5 -8.5l-114 -115q-20 -16 -40 0l-114 115q0 4 5.5 8.5t9.5 4.5zM273 415q92 0 152.5 -62t60.5 -153t-60.5 -153t-152.5 -62t-152.5 62t-60.5 153t60.5 153t152.5 62zM273 397q-83 0 -138 -56.5t-55 -140.5t55 -140.5t138 -56.5t138 56.5
t55 140.5t-55 140.5t-138 56.5z" />
    <glyph glyph-name="Ucaron" unicode="&#x1d3;" horiz-adv-x="699" 
d="M350 717l119 120q4 0 9.5 -4.5t5.5 -8.5l-114 -115q-20 -16 -40 0l-114 115q0 4 5.5 8.5t9.5 4.5zM584 237v413q3 3 10 3t10 -3v-413q0 -116 -68.5 -184t-183.5 -68t-183.5 68t-68.5 184v413q3 3 10 3t10 -3v-413q0 -109 63 -171.5t169 -62.5t169 62.5t63 171.5z" />
    <glyph glyph-name="ucaron" unicode="&#x1d4;" 
d="M256 467l119 120q4 0 9.5 -4.5t5.5 -8.5l-114 -115q-20 -16 -40 0l-114 115q0 4 5.5 8.5t9.5 4.5zM414 96v304q3 3 10 3t10 -3v-400q-3 -3 -10 -3t-10 3v71q-80 -86 -173 -86q-81 0 -122.5 45.5t-41.5 121.5v248q3 3 10 3t10 -3v-248q0 -69 35.5 -109t108.5 -40
q52 0 99.5 31t73.5 62z" />
    <glyph glyph-name="Udieresismacron" unicode="&#x1d5;" horiz-adv-x="699" 
d="M220 900h259q3 -3 3 -9t-3 -9h-259q-3 3 -3 9t3 9zM233 803q8 0 14 -6t6 -14q0 -9 -6 -15t-14 -6q-9 0 -15 6t-6 15q0 8 6 14t15 6zM467 803q8 0 14 -6t6 -14q0 -9 -6 -15t-14 -6q-9 0 -15 6t-6 15q0 8 6 14t15 6zM584 237v413q3 3 10 3t10 -3v-413q0 -116 -68.5 -184
t-183.5 -68t-183.5 68t-68.5 184v413q3 3 10 3t10 -3v-413q0 -109 63 -171.5t169 -62.5t169 62.5t63 171.5z" />
    <glyph glyph-name="udieresismacron" unicode="&#x1d6;" 
d="M126 650h259q3 -3 3 -9t-3 -9h-259q-3 3 -3 9t3 9zM139 553q8 0 14 -6t6 -14q0 -9 -6 -15t-14 -6q-9 0 -15 6t-6 15q0 8 6 14t15 6zM373 553q8 0 14 -6t6 -14q0 -9 -6 -15t-14 -6q-9 0 -15 6t-6 15q0 8 6 14t15 6zM414 96v304q3 3 10 3t10 -3v-400q-3 -3 -10 -3t-10 3v71
q-80 -86 -173 -86q-81 0 -122.5 45.5t-41.5 121.5v248q3 3 10 3t10 -3v-248q0 -69 35.5 -109t108.5 -40q52 0 99.5 31t73.5 62z" />
    <glyph glyph-name="Udieresisacute" unicode="&#x1d7;" horiz-adv-x="699" 
d="M284 878l118 121q4 0 9 -5t5 -9l-121 -118q-11 0 -11 11zM233 803q8 0 14 -6t6 -14q0 -9 -6 -15t-14 -6q-9 0 -15 6t-6 15q0 8 6 14t15 6zM467 803q8 0 14 -6t6 -14q0 -9 -6 -15t-14 -6q-9 0 -15 6t-6 15q0 8 6 14t15 6zM584 237v413q3 3 10 3t10 -3v-413
q0 -116 -68.5 -184t-183.5 -68t-183.5 68t-68.5 184v413q3 3 10 3t10 -3v-413q0 -109 63 -171.5t169 -62.5t169 62.5t63 171.5z" />
    <glyph glyph-name="udieresisacute" unicode="&#x1d8;" 
d="M190 628l118 121q4 0 9 -5t5 -9l-121 -118q-11 0 -11 11zM139 553q8 0 14 -6t6 -14q0 -9 -6 -15t-14 -6q-9 0 -15 6t-6 15q0 8 6 14t15 6zM373 553q8 0 14 -6t6 -14q0 -9 -6 -15t-14 -6q-9 0 -15 6t-6 15q0 8 6 14t15 6zM414 96v304q3 3 10 3t10 -3v-400q-3 -3 -10 -3
t-10 3v71q-80 -86 -173 -86q-81 0 -122.5 45.5t-41.5 121.5v248q3 3 10 3t10 -3v-248q0 -69 35.5 -109t108.5 -40q52 0 99.5 31t73.5 62z" />
    <glyph glyph-name="Udieresiscaron" unicode="&#x1d9;" horiz-adv-x="699" 
d="M350 875l119 120q4 0 9.5 -4.5t5.5 -8.5l-114 -115q-20 -16 -40 0l-114 115q0 4 5.5 8.5t9.5 4.5zM233 803q8 0 14 -6t6 -14q0 -9 -6 -15t-14 -6q-9 0 -15 6t-6 15q0 8 6 14t15 6zM467 803q8 0 14 -6t6 -14q0 -9 -6 -15t-14 -6q-9 0 -15 6t-6 15q0 8 6 14t15 6zM584 237
v413q3 3 10 3t10 -3v-413q0 -116 -68.5 -184t-183.5 -68t-183.5 68t-68.5 184v413q3 3 10 3t10 -3v-413q0 -109 63 -171.5t169 -62.5t169 62.5t63 171.5z" />
    <glyph glyph-name="udieresiscaron" unicode="&#x1da;" 
d="M256 625l119 120q4 0 9.5 -4.5t5.5 -8.5l-114 -115q-20 -16 -40 0l-114 115q0 4 5.5 8.5t9.5 4.5zM139 553q8 0 14 -6t6 -14q0 -9 -6 -15t-14 -6q-9 0 -15 6t-6 15q0 8 6 14t15 6zM373 553q8 0 14 -6t6 -14q0 -9 -6 -15t-14 -6q-9 0 -15 6t-6 15q0 8 6 14t15 6zM414 96
v304q3 3 10 3t10 -3v-400q-3 -3 -10 -3t-10 3v71q-80 -86 -173 -86q-81 0 -122.5 45.5t-41.5 121.5v248q3 3 10 3t10 -3v-248q0 -69 35.5 -109t108.5 -40q52 0 99.5 31t73.5 62z" />
    <glyph glyph-name="Udieresisgrave" unicode="&#x1db;" horiz-adv-x="699" 
d="M298 999l118 -121q0 -11 -11 -11l-121 118q0 4 5 9t9 5zM233 803q8 0 14 -6t6 -14q0 -9 -6 -15t-14 -6q-9 0 -15 6t-6 15q0 8 6 14t15 6zM467 803q8 0 14 -6t6 -14q0 -9 -6 -15t-14 -6q-9 0 -15 6t-6 15q0 8 6 14t15 6zM584 237v413q3 3 10 3t10 -3v-413
q0 -116 -68.5 -184t-183.5 -68t-183.5 68t-68.5 184v413q3 3 10 3t10 -3v-413q0 -109 63 -171.5t169 -62.5t169 62.5t63 171.5z" />
    <glyph glyph-name="udieresisgrave" unicode="&#x1dc;" 
d="M204 749l118 -121q0 -11 -11 -11l-121 118q0 4 5 9t9 5zM139 553q8 0 14 -6t6 -14q0 -9 -6 -15t-14 -6q-9 0 -15 6t-6 15q0 8 6 14t15 6zM373 553q8 0 14 -6t6 -14q0 -9 -6 -15t-14 -6q-9 0 -15 6t-6 15q0 8 6 14t15 6zM414 96v304q3 3 10 3t10 -3v-400q-3 -3 -10 -3
t-10 3v71q-80 -86 -173 -86q-81 0 -122.5 45.5t-41.5 121.5v248q3 3 10 3t10 -3v-248q0 -69 35.5 -109t108.5 -40q52 0 99.5 31t73.5 62z" />
    <glyph glyph-name="Scommaaccent" unicode="&#x218;" horiz-adv-x="573" 
d="M277 665q116 0 191 -67q3 -3 3 -12t-3 -12q-71 73 -191 73q-84 0 -133 -42t-49 -101q0 -63 42 -93t160 -68q40 -13 64 -22t53.5 -25t45.5 -33.5t27 -44.5t11 -61q0 -75 -59 -123.5t-151 -48.5q-116 0 -204 70q-3 3 -3 12t3 12q40 -36 95.5 -56t108.5 -20q83 0 136.5 43.5
t53.5 110.5q0 39 -13 66t-44.5 47t-60 31t-83.5 28q-52 16 -83 29t-61.5 33t-44 47.5t-13.5 65.5q0 66 54.5 113.5t147.5 47.5zM287 -59q18 0 23 -24q5 -27 -3 -74.5t-23 -63.5q-3 -3 -10 -3t-10 3q13 17 22.5 56.5t5.5 65.5q-4 -1 -7 -1q-8 0 -13.5 5.5t-5.5 14.5
q0 21 21 21z" />
    <glyph glyph-name="scommaaccent" unicode="&#x219;" horiz-adv-x="403" 
d="M206 213q40 -13 61.5 -22.5t44 -23.5t32 -31.5t9.5 -41.5q0 -54 -44.5 -81.5t-103.5 -27.5q-41 0 -81.5 13.5t-64.5 33.5q-3 3 -3 11t3 11q67 -51 145 -51q51 0 90 22t39 67q0 38 -29.5 57.5t-103.5 44.5q-33 11 -50 17.5t-40 17.5t-33.5 21.5t-18.5 25.5t-8 34
q0 49 43 77t100 28q40 0 80.5 -13.5t64.5 -33.5q3 -3 3 -11t-3 -11q-67 51 -143 51q-50 0 -87.5 -22t-37.5 -63q0 -36 30.5 -55t105.5 -44zM193 -59q18 0 23 -24q5 -27 -3 -74.5t-23 -63.5q-3 -3 -10 -3t-10 3q13 17 22.5 56.5t5.5 65.5q-4 -1 -7 -1q-8 0 -13.5 5.5
t-5.5 14.5q0 21 21 21z" />
    <glyph glyph-name="uni021A" unicode="&#x21a;" horiz-adv-x="584" 
d="M43 650h498q3 -3 3 -9t-3 -9h-239v-632q-3 -3 -10 -3t-10 3v632h-239q-3 3 -3 9t3 9zM292 -59q18 0 23 -24q5 -27 -3 -74.5t-23 -63.5q-3 -3 -10 -3t-10 3q13 17 22.5 56.5t5.5 65.5q-4 -1 -7 -1q-8 0 -13.5 5.5t-5.5 14.5q0 21 21 21z" />
    <glyph glyph-name="uni021B" unicode="&#x21b;" horiz-adv-x="348" 
d="M295 46q3 -3 3 -12t-3 -12q-49 -37 -99 -37q-37 0 -60.5 22.5t-23.5 66.5v308h-69q-3 3 -3 9t3 9h69v130q3 3 10 3t10 -3v-130h151q3 -3 3 -9t-3 -9h-151v-308q0 -37 18 -54t46 -17q43 0 99 43zM194 -59q18 0 23 -24q5 -27 -3 -74.5t-23 -63.5q-3 -3 -10 -3t-10 3
q13 17 22.5 56.5t5.5 65.5q-4 -1 -7 -1q-8 0 -13.5 5.5t-5.5 14.5q0 21 21 21z" />
    <glyph glyph-name="circumflex" unicode="&#x2c6;" horiz-adv-x="368" 
d="M204 830l114 -115q0 -4 -5.5 -8.5t-9.5 -4.5l-119 120l-119 -120q-4 0 -9.5 4.5t-5.5 8.5l114 115q20 16 40 0z" />
    <glyph glyph-name="caron" unicode="&#x2c7;" horiz-adv-x="368" 
d="M184 717l119 120q4 0 9.5 -4.5t5.5 -8.5l-114 -115q-20 -16 -40 0l-114 115q0 4 5.5 8.5t9.5 4.5z" />
    <glyph glyph-name="breve" unicode="&#x2d8;" horiz-adv-x="402" 
d="M349 816q3 -3 3 -11t-3 -11q-57 -47 -148 -47t-148 47q-3 3 -3 11t3 11q69 -51 148 -51t148 51z" />
    <glyph glyph-name="dotaccent" unicode="&#x2d9;" horiz-adv-x="141" 
d="M71 762q-9 0 -15 6t-6 15q0 8 6 14t15 6q8 0 14 -6t6 -14q0 -9 -6 -15t-14 -6z" />
    <glyph glyph-name="ring" unicode="&#x2da;" horiz-adv-x="248" 
d="M124 852q31 0 52.5 -21t21.5 -49q0 -31 -21.5 -52t-52.5 -21q-32 0 -53 21t-21 52q0 28 21 49t53 21zM124 834q-24 0 -38.5 -15.5t-14.5 -36.5q0 -23 14 -38.5t39 -15.5q24 0 39 16t15 38q0 21 -15 36.5t-39 15.5z" />
    <glyph glyph-name="ogonek" unicode="&#x2db;" horiz-adv-x="235" 
d="M139 0h20q-42 -14 -65.5 -47t-23.5 -68t22.5 -58.5t59.5 -23.5q18 0 30 4q3 -3 3 -9t-3 -9q-12 -4 -30 -4q-45 0 -73.5 28.5t-28.5 70.5q0 40 26 72t63 44z" />
    <glyph glyph-name="tilde" unicode="&#x2dc;" horiz-adv-x="405" 
d="M139 799q27 0 75 -22q27 -12 52 -12q28 0 86 30q3 -3 3 -9t-3 -9q-3 -1 -13 -6.5t-14 -7.5t-13 -6t-15 -5.5t-14.5 -3t-16.5 -1.5q-27 0 -75 22q-27 12 -52 12q-28 0 -86 -30q-3 3 -3 9t3 9q3 1 13 6.5t14 7.5t13 6t15 5.5t14.5 3t16.5 1.5z" />
    <glyph glyph-name="hungarumlaut" unicode="&#x2dd;" horiz-adv-x="337" 
d="M50 720l118 121q4 0 9 -5t5 -9l-121 -118q-11 0 -11 11zM155 720l118 121q4 0 9 -5t5 -9l-121 -118q-11 0 -11 11z" />
    <glyph glyph-name="uni0326" unicode="&#x326;" horiz-adv-x="0" 
d="M73 -59q18 0 23 -24q5 -27 -3 -74.5t-23 -63.5q-3 -3 -10 -3t-10 3q13 17 22.5 56.5t5.5 65.5q-4 -1 -7 -1q-8 0 -13.5 5.5t-5.5 14.5q0 21 21 21z" />
    <glyph glyph-name="uni0401" unicode="&#x401;" horiz-adv-x="580" 
d="M192 803q8 0 14 -6t6 -14q0 -9 -6 -15t-14 -6q-9 0 -15 6t-6 15q0 8 6 14t15 6zM426 803q8 0 14 -6t6 -14q0 -9 -6 -15t-14 -6q-9 0 -15 6t-6 15q0 8 6 14t15 6zM100 650h427q3 -3 3 -9t-3 -9h-407v-288h379q3 -3 3 -9t-3 -9h-379v-308h407q3 -3 3 -9t-3 -9h-427v650z
" />
    <glyph glyph-name="uni0410" unicode="&#x410;" horiz-adv-x="657" 
d="M339 650l278 -650q-3 -3 -10.5 -3t-10.5 3l-94 219h-347l-94 -219q-3 -3 -10.5 -3t-10.5 3l278 650q3 3 10.5 3t10.5 -3zM162 237h333l-167 388z" />
    <glyph glyph-name="uni0411" unicode="&#x411;" horiz-adv-x="621" 
d="M120 388h202q115 0 172 -58t57 -136t-57 -136t-172 -58h-222v650h391q3 -3 3 -9t-3 -9h-371v-244zM120 18h202q106 0 157.5 52.5t51.5 123.5t-51.5 123.5t-157.5 52.5h-202v-352z" />
    <glyph glyph-name="uni0412" unicode="&#x412;" horiz-adv-x="611" 
d="M100 650h240q84 0 139 -44.5t55 -117.5q0 -54 -28 -93.5t-79 -55.5q67 -16 100.5 -59.5t33.5 -103.5q0 -77 -57.5 -126.5t-161.5 -49.5h-242v650zM120 632v-286h236q73 0 115.5 39t42.5 103q0 66 -49 105t-125 39h-220zM120 328v-310h222q95 0 147 44t52 114
q0 68 -45.5 110t-140.5 42h-235z" />
    <glyph glyph-name="uni0413" unicode="&#x413;" horiz-adv-x="559" 
d="M100 650h416q3 -3 3 -9t-3 -9h-396v-632q-3 -3 -10 -3t-10 3v650z" />
    <glyph glyph-name="uni0414" unicode="&#x414;" horiz-adv-x="744" 
d="M704 18v-139q-3 -3 -10 -3t-10 3v121h-624v-121q-3 -3 -10 -3t-10 3v139h65q78 56 94 205l43 427h382v-632h80zM604 632h-344l-41 -409q-6 -63 -28.5 -120t-57.5 -85h471v614z" />
    <glyph glyph-name="uni0415" unicode="&#x415;" horiz-adv-x="580" 
d="M120 18h407q3 -3 3 -9t-3 -9h-427v650h427q3 -3 3 -9t-3 -9h-407v-288h379q3 -3 3 -9t-3 -9h-379v-308z" />
    <glyph glyph-name="uni0416" unicode="&#x416;" horiz-adv-x="830" 
d="M442 335l348 -335q-3 -3 -14 -3t-14 3l-337 324v-324q-3 -3 -10 -3t-10 3v326l-337 -324q-3 -3 -14 -3t-14 3l348 335l-325 315q3 3 14 3t14 -3l314 -304v304q3 3 10 3t10 -3v-306l314 304q3 3 14 3t14 -3z" />
    <glyph glyph-name="uni0417" unicode="&#x417;" horiz-adv-x="595" 
d="M406 339q68 -16 103.5 -62.5t35.5 -105.5q0 -83 -61 -134.5t-160 -51.5q-134 0 -226 67q-3 3 -3 12t3 12q89 -73 226 -73q90 0 145.5 46t55.5 122q0 66 -47 111.5t-139 45.5h-121q-3 3 -3 9t3 9h122q70 0 114 43t44 106q0 62 -47 107t-132 45q-55 0 -112.5 -19.5
t-98.5 -53.5q-3 3 -3 12t3 12q92 67 211 67q94 0 146.5 -50.5t52.5 -119.5q0 -54 -30 -96t-82 -60z" />
    <glyph glyph-name="uni0418" unicode="&#x418;" horiz-adv-x="711" 
d="M616 650v-650q-3 -3 -10 -3t-10 3v618l-481 -618q-3 -3 -10 -3t-10 3v650q3 3 10 3t10 -3v-618l481 618q3 3 10 3t10 -3z" />
    <glyph glyph-name="uni0419" unicode="&#x419;" horiz-adv-x="711" 
d="M499 816q3 -3 3 -11t-3 -11q-57 -47 -148 -47t-148 47q-3 3 -3 11t3 11q69 -51 148 -51t148 51zM616 650v-650q-3 -3 -10 -3t-10 3v618l-481 -618q-3 -3 -10 -3t-10 3v650q3 3 10 3t10 -3v-618l481 618q3 3 10 3t10 -3z" />
    <glyph glyph-name="uni041A" unicode="&#x41a;" horiz-adv-x="593" 
d="M140 335l413 -335q-3 -3 -15.5 -3t-15.5 3l-402 326v-326q-3 -3 -10 -3t-10 3v650q3 3 10 3t10 -3v-306l379 306q3 3 15.5 3t15.5 -3z" />
    <glyph glyph-name="uni041B" unicode="&#x41b;" horiz-adv-x="727" 
d="M632 650v-650q-3 -3 -10 -3t-10 3v632h-344l-46 -453q-10 -102 -49 -148t-110 -46q-13 0 -20 1q-3 3 -3 9t3 9q7 -1 20 -1q63 0 96 41t43 135l48 471h382z" />
    <glyph glyph-name="uni041C" unicode="&#x41c;" horiz-adv-x="862" 
d="M673 650l149 -650q-3 -3 -10 -3t-10 3l-141 616l-220 -616q-3 -3 -10 -3t-10 3l-220 616l-141 -616q-3 -3 -10 -3t-10 3l149 650q3 3 10 3t10 -3l222 -622l222 622q3 3 10 3t10 -3z" />
    <glyph glyph-name="uni041D" unicode="&#x41d;" horiz-adv-x="721" 
d="M601 344v306q3 3 10 3t10 -3v-650q-3 -3 -10 -3t-10 3v326h-481v-326q-3 -3 -10 -3t-10 3v650q3 3 10 3t10 -3v-306h481z" />
    <glyph glyph-name="uni041E" unicode="&#x41e;" horiz-adv-x="826" 
d="M413 665q147 0 242.5 -98.5t95.5 -241.5t-95.5 -241.5t-242.5 -98.5t-242.5 98.5t-95.5 241.5t95.5 241.5t242.5 98.5zM413 647q-138 0 -228 -93t-90 -229t90 -229t228 -93t228 93t90 229t-90 229t-228 93z" />
    <glyph glyph-name="uni041F" unicode="&#x41f;" horiz-adv-x="721" 
d="M621 650v-650q-3 -3 -10 -3t-10 3v632h-481v-632q-3 -3 -10 -3t-10 3v650h521z" />
    <glyph glyph-name="uni0420" unicode="&#x420;" horiz-adv-x="626" 
d="M100 650h217q116 0 175 -60t59 -145t-59 -145t-175 -60h-197v-240q-3 -3 -10 -3t-10 3v650zM120 258h197q107 0 160.5 54.5t53.5 132.5t-53.5 132.5t-160.5 54.5h-197v-374z" />
    <glyph glyph-name="uni0421" unicode="&#x421;" horiz-adv-x="737" 
d="M413 3q137 0 226 73q3 -3 3 -12t-3 -12q-92 -67 -226 -67q-147 0 -242.5 98.5t-95.5 241.5t95.5 241.5t242.5 98.5q134 0 226 -67q3 -3 3 -12t-3 -12q-89 73 -226 73q-138 0 -228 -93t-90 -229t90 -229t228 -93z" />
    <glyph glyph-name="uni0422" unicode="&#x422;" horiz-adv-x="584" 
d="M43 650h498q3 -3 3 -9t-3 -9h-239v-632q-3 -3 -10 -3t-10 3v632h-239q-3 3 -3 9t3 9z" />
    <glyph glyph-name="uni0423" unicode="&#x423;" horiz-adv-x="609" 
d="M305 277l241 373q3 3 11.5 3t11.5 -3l-420 -650q-3 -3 -11.5 -3t-11.5 3l167 259l-253 391q3 3 11.5 3t11.5 -3z" />
    <glyph glyph-name="uni0424" unicode="&#x424;" horiz-adv-x="910" 
d="M465 581h66q84 0 146 -23.5t95 -62.5t48 -81t15 -87t-15 -87t-48 -81t-95 -62.5t-146 -23.5h-66v-73q-3 -3 -10 -3t-10 3v73h-66q-84 0 -146 23.5t-95 62.5t-48 81t-15 87t15 87t48 81t95 62.5t146 23.5h66v69q3 3 10 3t10 -3v-69zM445 563h-66q-79 0 -137.5 -22
t-89 -58.5t-44 -75t-13.5 -80.5t13.5 -80.5t44 -75t89 -58.5t137.5 -22h66v472zM465 91h66q79 0 137.5 22t89 58.5t44 75t13.5 80.5t-13.5 80.5t-44 75t-89 58.5t-137.5 22h-66v-472z" />
    <glyph glyph-name="uni0425" unicode="&#x425;" horiz-adv-x="584" 
d="M306 335l238 -335q-3 -3 -12 -3t-12 3l-228 321l-228 -321q-3 -3 -12 -3t-12 3l238 335l-225 315q3 3 12 3t12 -3l215 -301l215 301q3 3 12 3t12 -3z" />
    <glyph glyph-name="uni0426" unicode="&#x426;" horiz-adv-x="730" 
d="M690 18v-139q-3 -3 -10 -3t-10 3v121h-570v650q3 3 10 3t10 -3v-632h470v632q3 3 10 3t10 -3v-632h80z" />
    <glyph glyph-name="uni0427" unicode="&#x427;" horiz-adv-x="631" 
d="M511 354v296q3 3 10 3t10 -3v-650q-3 -3 -10 -3t-10 3v329q-28 -30 -87.5 -58t-127.5 -28q-108 0 -162 57t-54 148v202q3 3 10 3t10 -3v-202q0 -84 48 -135.5t148 -51.5q67 0 129 32.5t86 60.5z" />
    <glyph glyph-name="uni0428" unicode="&#x428;" horiz-adv-x="988" 
d="M868 18v632q3 3 10 3t10 -3v-650h-788v650q3 3 10 3t10 -3v-632h364v632q3 3 10 3t10 -3v-632h364z" />
    <glyph glyph-name="uni0429" unicode="&#x429;" horiz-adv-x="1008" 
d="M968 18v-139q-3 -3 -10 -3t-10 3v121h-848v650q3 3 10 3t10 -3v-632h364v632q3 3 10 3t10 -3v-632h364v632q3 3 10 3t10 -3v-632h80z" />
    <glyph glyph-name="uni042A" unicode="&#x42a;" horiz-adv-x="700" 
d="M194 404h197q116 0 175 -59.5t59 -142.5t-59 -142.5t-175 -59.5h-217v632h-131q-3 3 -3 9t3 9h151v-246zM194 18h197q107 0 160.5 54t53.5 130t-53.5 130t-160.5 54h-197v-368z" />
    <glyph glyph-name="uni042B" unicode="&#x42b;" horiz-adv-x="774" 
d="M120 404h197q116 0 175 -59.5t59 -142.5t-59 -142.5t-175 -59.5h-217v650q3 3 10 3t10 -3v-246zM654 0v650q3 3 10 3t10 -3v-650q-3 -3 -10 -3t-10 3zM120 18h197q107 0 160.5 54t53.5 130t-53.5 130t-160.5 54h-197v-368z" />
    <glyph glyph-name="uni042C" unicode="&#x42c;" horiz-adv-x="626" 
d="M120 404h197q116 0 175 -59.5t59 -142.5t-59 -142.5t-175 -59.5h-217v650q3 3 10 3t10 -3v-246zM120 18h197q107 0 160.5 54t53.5 130t-53.5 130t-160.5 54h-197v-368z" />
    <glyph glyph-name="uni042D" unicode="&#x42d;" horiz-adv-x="737" 
d="M324 665q147 0 242.5 -98.5t95.5 -241.5t-95.5 -241.5t-242.5 -98.5q-134 0 -226 67q-3 3 -3 12t3 12q89 -73 226 -73t226.5 91.5t91.5 225.5h-358q-3 3 -3 9t3 9h358q-5 131 -94 220t-224 89q-137 0 -226 -73q-3 3 -3 12t3 12q92 67 226 67z" />
    <glyph glyph-name="uni042E" unicode="&#x42e;" horiz-adv-x="1014" 
d="M601 665q147 0 242.5 -98.5t95.5 -241.5t-95.5 -241.5t-242.5 -98.5q-146 0 -241 97t-97 238h-143v-320q-3 -3 -10 -3t-10 3v650q3 3 10 3t10 -3v-312h143q5 138 100 232.5t238 94.5zM601 3q138 0 228 93t90 229t-90 229t-228 93t-228 -93t-90 -229t90 -229t228 -93z" />
    <glyph glyph-name="uni042F" unicode="&#x42f;" horiz-adv-x="620" 
d="M520 650v-650q-3 -3 -10 -3t-10 3v250h-227l-198 -250q-3 -3 -12.5 -3t-12.5 3l200 252q-95 11 -143 66.5t-48 131.5q0 85 59 142.5t175 57.5h227zM500 632h-207q-108 0 -161 -52t-53 -130t53 -130t161 -52h207v364z" />
    <glyph glyph-name="uni0430" unicode="&#x430;" horiz-adv-x="492" 
d="M244 415q83 0 127 -46t44 -123v-246q-3 -3 -10 -3t-10 3v55q-29 -26 -78.5 -48t-105.5 -22q-71 0 -112.5 36.5t-41.5 93.5t41.5 93.5t112.5 36.5q56 0 105.5 -22t78.5 -48v71q0 70 -38.5 110.5t-112.5 40.5q-76 0 -145 -51q-3 3 -3 11t3 11q57 47 145 47zM211 227
q-62 0 -98 -31.5t-36 -80.5t36 -80.5t98 -31.5q57 0 109.5 26t74.5 51v70q-22 25 -74.5 51t-109.5 26z" />
    <glyph glyph-name="uni0431" unicode="&#x431;" horiz-adv-x="513" 
d="M256 415q93 0 146.5 -60.5t53.5 -154.5q0 -96 -58.5 -155.5t-142.5 -59.5q-85 0 -140 56.5t-55 159.5v84q0 143 52 208t172 88q57 11 80.5 22t51.5 47q3 -3 3 -13t-3 -13q-20 -28 -47 -39t-85 -22q-98 -19 -145.5 -70.5t-56.5 -154.5q28 30 73.5 53.5t100.5 23.5zM255 3
q75 0 128 54t53 143q0 87 -48 142t-132 55q-55 0 -103.5 -28t-72.5 -57v-111q0 -96 49.5 -147t125.5 -51z" />
    <glyph glyph-name="uni0432" unicode="&#x432;" horiz-adv-x="471" 
d="M80 400h189q123 0 123 -98q0 -67 -57 -88q76 -24 76 -103q0 -57 -38.5 -84t-98.5 -27h-194v400zM100 382v-160h172q100 0 100 80t-103 80h-169zM100 204v-186h174q117 0 117 93t-117 93h-174z" />
    <glyph glyph-name="uni0433" unicode="&#x433;" horiz-adv-x="430" 
d="M80 400h307q3 -3 3 -9t-3 -9h-287v-382q-3 -3 -10 -3t-10 3v400z" />
    <glyph glyph-name="uni0434" unicode="&#x434;" horiz-adv-x="618" 
d="M578 18v-126q-3 -3 -10 -3t-10 3v108h-498v-108q-3 -3 -10 -3t-10 3v126h69q55 46 67 160l23 222h285v-382h94zM464 382h-247l-21 -204q-13 -117 -60 -160h328v364z" />
    <glyph glyph-name="uni0435" unicode="&#x435;" horiz-adv-x="522" 
d="M270 415q92 0 148 -63t45 -152h-383q0 -90 55.5 -143.5t144.5 -53.5q79 0 148 51q3 -3 3 -11t-3 -11q-57 -47 -148 -47q-97 0 -158.5 59t-61.5 156q0 92 58 153.5t152 61.5zM270 397q-80 0 -132 -50t-57 -129h364q3 76 -47 127.5t-128 51.5z" />
    <glyph glyph-name="uni0436" unicode="&#x436;" horiz-adv-x="606" 
d="M327 205l239 -205q-3 -3 -15 -3t-15 3l-223 191v-191q-3 -3 -10 -3t-10 3v191l-223 -191q-3 -3 -15 -3t-15 3l239 205l-229 195q3 3 15 3t15 -3l213 -181v181q3 3 10 3t10 -3v-181l213 181q3 3 15 3t15 -3z" />
    <glyph glyph-name="uni0437" unicode="&#x437;" horiz-adv-x="413" 
d="M198 415q59 0 102.5 -30.5t43.5 -78.5q0 -68 -57 -92q34 -12 55 -40t21 -69q0 -57 -47 -88.5t-115 -31.5q-91 0 -148 47q-3 3 -3 11t3 11q69 -51 148 -51q59 0 100.5 26t41.5 76t-33.5 74.5t-83.5 24.5h-102q-3 3 -3 9t3 9h100q100 0 100 84q0 41 -38 66t-88 25
q-72 0 -141 -51q-3 3 -3 11t3 11q57 47 141 47z" />
    <glyph glyph-name="uni0438" unicode="&#x438;" horiz-adv-x="530" 
d="M100 28l330 372q3 3 10 3t10 -3v-400q-3 -3 -10 -3t-10 3v372l-330 -372q-3 -3 -10 -3t-10 3v400q3 3 10 3t10 -3v-372z" />
    <glyph glyph-name="uni0439" unicode="&#x439;" horiz-adv-x="530" 
d="M265 497q-91 0 -148 47q-3 3 -3 11t3 11q69 -51 148 -51t148 51q3 -3 3 -11t-3 -11q-57 -47 -148 -47zM100 28l330 372q3 3 10 3t10 -3v-400q-3 -3 -10 -3t-10 3v372l-330 -372q-3 -3 -10 -3t-10 3v400q3 3 10 3t10 -3v-372z" />
    <glyph glyph-name="uni043A" unicode="&#x43a;" horiz-adv-x="438" 
d="M117 205l281 -205q-3 -3 -16.5 -3t-16.5 3l-265 193v-193q-3 -3 -10 -3t-10 3v400q3 3 10 3t10 -3v-183l255 183q3 3 16.5 3t16.5 -3z" />
    <glyph glyph-name="uni043B" unicode="&#x43b;" horiz-adv-x="556" 
d="M476 400v-400q-3 -3 -10 -3t-10 3v382h-257l-28 -274q-13 -123 -113 -123q-10 0 -15 1q-3 3 -3 9t3 9q5 -1 15 -1q82 0 93 105l30 292h295z" />
    <glyph glyph-name="uni043C" unicode="&#x43c;" horiz-adv-x="693" 
d="M531 400l122 -400q-3 -3 -10.5 -3t-10.5 3l-113 372l-162 -372q-3 -3 -10.5 -3t-10.5 3l-162 372l-113 -372q-3 -3 -10.5 -3t-10.5 3l122 400q3 3 10.5 3t10.5 -3l164 -376l163 376q3 3 10.5 3t10.5 -3z" />
    <glyph glyph-name="uni043D" unicode="&#x43d;" horiz-adv-x="530" 
d="M430 213v187q3 3 10 3t10 -3v-400q-3 -3 -10 -3t-10 3v195h-330v-195q-3 -3 -10 -3t-10 3v400q3 3 10 3t10 -3v-187h330z" />
    <glyph glyph-name="uni043E" unicode="&#x43e;" horiz-adv-x="546" 
d="M273 415q92 0 152.5 -62t60.5 -153t-60.5 -153t-152.5 -62t-152.5 62t-60.5 153t60.5 153t152.5 62zM273 397q-83 0 -138 -56.5t-55 -140.5t55 -140.5t138 -56.5t138 56.5t55 140.5t-55 140.5t-138 56.5z" />
    <glyph glyph-name="uni043F" unicode="&#x43f;" horiz-adv-x="530" 
d="M450 400v-400q-3 -3 -10 -3t-10 3v382h-330v-382q-3 -3 -10 -3t-10 3v400h370z" />
    <glyph glyph-name="uni0440" unicode="&#x440;" horiz-adv-x="538" 
d="M271 415q93 0 150 -61t57 -154t-57 -154t-150 -61q-100 0 -169 76v-224q-3 -3 -10 -3t-10 3v563q3 3 10 3t10 -3v-61q69 76 169 76zM271 3q85 0 136 55.5t51 141.5t-51 141.5t-136 55.5q-56 0 -101 -27t-68 -56v-228q23 -29 68 -56t101 -27z" />
    <glyph glyph-name="uni0441" unicode="&#x441;" 
d="M283 3q79 0 148 51q3 -3 3 -11t-3 -11q-57 -47 -148 -47q-98 0 -160.5 61.5t-62.5 153.5t62.5 153.5t160.5 61.5q91 0 148 -47q3 -3 3 -11t-3 -11q-69 51 -148 51q-89 0 -146 -56t-57 -141t57 -141t146 -56z" />
    <glyph glyph-name="uni0442" unicode="&#x442;" horiz-adv-x="462" 
d="M43 400h376q3 -3 3 -9t-3 -9h-178v-382q-3 -3 -10 -3t-10 3v382h-178q-3 3 -3 9t3 9z" />
    <glyph glyph-name="uni0443" unicode="&#x443;" horiz-adv-x="486" 
d="M244 52l180 348q3 3 11 3t11 -3l-292 -563q-3 -3 -11 -3t-11 3l101 194l-193 369q3 3 11 3t11 -3z" />
    <glyph glyph-name="uni0444" unicode="&#x444;" horiz-adv-x="664" 
d="M342 415h49q92 0 152.5 -62t60.5 -153t-60.5 -153t-152.5 -62h-49v-148q-3 -3 -10 -3t-10 3v148h-49q-92 0 -152.5 62t-60.5 153t60.5 153t152.5 62h49v235q3 3 10 3t10 -3v-235zM322 397h-49q-83 0 -138 -56.5t-55 -140.5t55 -140.5t138 -56.5h49v394zM342 397v-394h49
q83 0 138 56.5t55 140.5t-55 140.5t-138 56.5h-49z" />
    <glyph glyph-name="uni0445" unicode="&#x445;" horiz-adv-x="465" 
d="M247 205l178 -205q-3 -3 -13 -3t-13 3l-166 192l-167 -192q-3 -3 -13 -3t-13 3l178 205l-169 195q3 3 13 3t13 -3l158 -182l157 182q3 3 13 3t13 -3z" />
    <glyph glyph-name="uni0446" unicode="&#x446;" horiz-adv-x="571" 
d="M531 18v-134q-3 -3 -10 -3t-10 3v116h-431v400q3 3 10 3t10 -3v-382h317v382q3 3 10 3t10 -3v-382h94z" />
    <glyph glyph-name="uni0447" unicode="&#x447;" horiz-adv-x="490" 
d="M390 206v194q3 3 10 3t10 -3v-400q-3 -3 -10 -3t-10 3v183q-75 -72 -176 -72q-77 0 -117 39t-40 112v138q3 3 10 3t10 -3v-138q0 -133 136 -133q100 0 177 77z" />
    <glyph glyph-name="uni0448" unicode="&#x448;" horiz-adv-x="760" 
d="M660 18v382q3 3 10 3t10 -3v-400h-600v400q3 3 10 3t10 -3v-382h270v382q3 3 10 3t10 -3v-382h270z" />
    <glyph glyph-name="uni0449" unicode="&#x449;" horiz-adv-x="814" 
d="M774 18v-126q-3 -3 -10 -3t-10 3v108h-674v400q3 3 10 3t10 -3v-382h270v382q3 3 10 3t10 -3v-382h270v382q3 3 10 3t10 -3v-382h94z" />
    <glyph glyph-name="uni044A" unicode="&#x44a;" horiz-adv-x="503" 
d="M153 256h158q62 0 105.5 -31t43.5 -97t-43.5 -97t-105.5 -31h-178v382h-90q-3 3 -3 9t3 9h110v-144zM153 18h158q54 0 91.5 25.5t37.5 84.5t-37.5 84.5t-91.5 25.5h-158v-220z" />
    <glyph glyph-name="uni044B" unicode="&#x44b;" horiz-adv-x="587" 
d="M100 256h158q62 0 105.5 -31t43.5 -97t-43.5 -97t-105.5 -31h-178v400q3 3 10 3t10 -3v-144zM487 0v400q3 3 10 3t10 -3v-400q-3 -3 -10 -3t-10 3zM100 18h158q54 0 91.5 25.5t37.5 84.5t-37.5 84.5t-91.5 25.5h-158v-220z" />
    <glyph glyph-name="uni044C" unicode="&#x44c;" horiz-adv-x="450" 
d="M100 256h158q62 0 105.5 -31t43.5 -97t-43.5 -97t-105.5 -31h-178v400q3 3 10 3t10 -3v-144zM100 18h158q54 0 91.5 25.5t37.5 84.5t-37.5 84.5t-91.5 25.5h-158v-220z" />
    <glyph glyph-name="uni044D" unicode="&#x44d;" 
d="M228 415q98 0 160.5 -61.5t62.5 -153.5t-62.5 -153.5t-160.5 -61.5q-91 0 -148 47q-3 3 -3 11t3 11q69 -51 148 -51q88 0 144.5 54t58.5 137h-231q-3 3 -3 9t3 9h231q-5 80 -61 132.5t-142 52.5q-79 0 -148 -51q-3 3 -3 11t3 11q57 47 148 47z" />
    <glyph glyph-name="uni044E" unicode="&#x44e;" horiz-adv-x="693" 
d="M420 415q92 0 152.5 -62t60.5 -153t-60.5 -153t-152.5 -62q-90 0 -150.5 60t-62.5 149h-107v-194q-3 -3 -10 -3t-10 3v400q3 3 10 3t10 -3v-188h107q5 87 65 145t148 58zM420 3q83 0 138 56.5t55 140.5t-55 140.5t-138 56.5t-138 -56.5t-55 -140.5t55 -140.5t138 -56.5z
" />
    <glyph glyph-name="uni044F" unicode="&#x44f;" horiz-adv-x="467" 
d="M387 400v-400q-3 -3 -10 -3t-10 3v172h-170l-133 -172q-3 -3 -12 -3t-12 3l134 173q-111 13 -111 113q0 59 38.5 86.5t98.5 27.5h187zM367 382h-167q-117 0 -117 -96t117 -96h167v192z" />
    <glyph glyph-name="uni0451" unicode="&#x451;" horiz-adv-x="522" 
d="M146 553q8 0 14 -6t6 -14q0 -9 -6 -15t-14 -6q-9 0 -15 6t-6 15q0 8 6 14t15 6zM380 553q8 0 14 -6t6 -14q0 -9 -6 -15t-14 -6q-9 0 -15 6t-6 15q0 8 6 14t15 6zM270 415q92 0 148 -63t45 -152h-383q0 -90 55.5 -143.5t144.5 -53.5q79 0 148 51q3 -3 3 -11t-3 -11
q-57 -47 -148 -47q-97 0 -158.5 59t-61.5 156q0 92 58 153.5t152 61.5zM270 397q-80 0 -132 -50t-57 -129h364q3 76 -47 127.5t-128 51.5z" />
    <glyph glyph-name="Wgrave" unicode="&#x1e80;" horiz-adv-x="996" 
d="M446 841l118 -121q0 -11 -11 -11l-121 118q0 4 5 9t9 5zM956 650l-224 -650q-3 -3 -10 -3t-10 3l-214 621l-214 -621q-3 -3 -10 -3t-10 3l-224 650q3 3 10 3t10 -3l214 -621l214 621q3 3 10 3t10 -3l214 -621l214 621q3 3 10 3t10 -3z" />
    <glyph glyph-name="wgrave" unicode="&#x1e81;" horiz-adv-x="669" 
d="M283 591l118 -121q0 -11 -11 -11l-121 118q0 4 5 9t9 5zM182 0l-142 400q3 3 10.5 3t10.5 -3l132 -370l131 370q3 3 10.5 3t10.5 -3l132 -370l131 370q3 3 10.5 3t10.5 -3l-142 -400q-3 -3 -10.5 -3t-10.5 3l-131 370l-132 -370q-3 -3 -10.5 -3t-10.5 3z" />
    <glyph glyph-name="Wacute" unicode="&#x1e82;" horiz-adv-x="996" 
d="M432 720l118 121q4 0 9 -5t5 -9l-121 -118q-11 0 -11 11zM956 650l-224 -650q-3 -3 -10 -3t-10 3l-214 621l-214 -621q-3 -3 -10 -3t-10 3l-224 650q3 3 10 3t10 -3l214 -621l214 621q3 3 10 3t10 -3l214 -621l214 621q3 3 10 3t10 -3z" />
    <glyph glyph-name="wacute" unicode="&#x1e83;" horiz-adv-x="669" 
d="M269 470l118 121q4 0 9 -5t5 -9l-121 -118q-11 0 -11 11zM182 0l-142 400q3 3 10.5 3t10.5 -3l132 -370l131 370q3 3 10.5 3t10.5 -3l132 -370l131 370q3 3 10.5 3t10.5 -3l-142 -400q-3 -3 -10.5 -3t-10.5 3l-131 370l-132 -370q-3 -3 -10.5 -3t-10.5 3z" />
    <glyph glyph-name="Wdieresis" unicode="&#x1e84;" horiz-adv-x="996" 
d="M381 803q8 0 14 -6t6 -14q0 -9 -6 -15t-14 -6q-9 0 -15 6t-6 15q0 8 6 14t15 6zM615 803q8 0 14 -6t6 -14q0 -9 -6 -15t-14 -6q-9 0 -15 6t-6 15q0 8 6 14t15 6zM956 650l-224 -650q-3 -3 -10 -3t-10 3l-214 621l-214 -621q-3 -3 -10 -3t-10 3l-224 650q3 3 10 3t10 -3
l214 -621l214 621q3 3 10 3t10 -3l214 -621l214 621q3 3 10 3t10 -3z" />
    <glyph glyph-name="wdieresis" unicode="&#x1e85;" horiz-adv-x="669" 
d="M218 553q8 0 14 -6t6 -14q0 -9 -6 -15t-14 -6q-9 0 -15 6t-6 15q0 8 6 14t15 6zM452 553q8 0 14 -6t6 -14q0 -9 -6 -15t-14 -6q-9 0 -15 6t-6 15q0 8 6 14t15 6zM182 0l-142 400q3 3 10.5 3t10.5 -3l132 -370l131 370q3 3 10.5 3t10.5 -3l132 -370l131 370q3 3 10.5 3
t10.5 -3l-142 -400q-3 -3 -10.5 -3t-10.5 3l-131 370l-132 -370q-3 -3 -10.5 -3t-10.5 3z" />
    <glyph glyph-name="Ygrave" unicode="&#x1ef2;" horiz-adv-x="609" 
d="M253 841l118 -121q0 -11 -11 -11l-121 118q0 4 5 9t9 5zM315 257v-257q-3 -3 -10 -3t-10 3v256l-255 394q3 3 11.5 3t11.5 -3l242 -373l241 373q3 3 11.5 3t11.5 -3z" />
    <glyph glyph-name="ygrave" unicode="&#x1ef3;" horiz-adv-x="486" 
d="M191 591l118 -121q0 -11 -11 -11l-121 118q0 4 5 9t9 5zM244 52l180 348q3 3 11 3t11 -3l-292 -563q-3 -3 -11 -3t-11 3l101 194l-193 369q3 3 11 3t11 -3z" />
    <glyph glyph-name="endash" unicode="&#x2013;" horiz-adv-x="524" 
d="M53 297h418q3 -3 3 -9t-3 -9h-418q-3 3 -3 9t3 9z" />
    <glyph glyph-name="emdash" unicode="&#x2014;" horiz-adv-x="636" 
d="M53 297h530q3 -3 3 -9t-3 -9h-530q-3 3 -3 9t3 9z" />
    <glyph glyph-name="quoteleft" unicode="&#x2018;" horiz-adv-x="148" 
d="M98 650q-13 -17 -22.5 -56.5t-5.5 -65.5q4 1 7 1q8 0 13.5 -5.5t5.5 -14.5q0 -21 -21 -21q-18 0 -23 24q-5 27 3 74.5t23 63.5q3 3 10 3t10 -3z" />
    <glyph glyph-name="quoteright" unicode="&#x2019;" horiz-adv-x="148" 
d="M73 665q18 0 23 -24q5 -27 -3 -74.5t-23 -63.5q-3 -3 -10 -3t-10 3q13 17 22.5 56.5t5.5 65.5q-4 -1 -7 -1q-8 0 -13.5 5.5t-5.5 14.5q0 21 21 21z" />
    <glyph glyph-name="quotesinglbase" unicode="&#x201a;" horiz-adv-x="148" 
d="M73 26q18 0 23 -24q5 -27 -3 -74.5t-23 -63.5q-3 -3 -10 -3t-10 3q13 17 22.5 56.5t5.5 65.5q-4 -1 -7 -1q-8 0 -13.5 5.5t-5.5 14.5q0 21 21 21z" />
    <glyph glyph-name="quotedblleft" unicode="&#x201c;" horiz-adv-x="244" 
d="M98 650q-13 -17 -22.5 -56.5t-5.5 -65.5q4 1 7 1q8 0 13.5 -5.5t5.5 -14.5q0 -21 -21 -21q-18 0 -23 24q-5 27 3 74.5t23 63.5q3 3 10 3t10 -3zM194 650q-13 -17 -22.5 -56.5t-5.5 -65.5q4 1 7 1q8 0 13.5 -5.5t5.5 -14.5q0 -21 -21 -21q-18 0 -23 24q-5 27 3 74.5
t23 63.5q3 3 10 3t10 -3z" />
    <glyph glyph-name="quotedblright" unicode="&#x201d;" horiz-adv-x="244" 
d="M73 665q18 0 23 -24q5 -27 -3 -74.5t-23 -63.5q-3 -3 -10 -3t-10 3q13 17 22.5 56.5t5.5 65.5q-4 -1 -7 -1q-8 0 -13.5 5.5t-5.5 14.5q0 21 21 21zM169 665q18 0 23 -24q5 -27 -3 -74.5t-23 -63.5q-3 -3 -10 -3t-10 3q13 17 22.5 56.5t5.5 65.5q-4 -1 -7 -1
q-8 0 -13.5 5.5t-5.5 14.5q0 21 21 21z" />
    <glyph glyph-name="quotedblbase" unicode="&#x201e;" horiz-adv-x="244" 
d="M73 26q18 0 23 -24q5 -27 -3 -74.5t-23 -63.5q-3 -3 -10 -3t-10 3q13 17 22.5 56.5t5.5 65.5q-4 -1 -7 -1q-8 0 -13.5 5.5t-5.5 14.5q0 21 21 21zM169 26q18 0 23 -24q5 -27 -3 -74.5t-23 -63.5q-3 -3 -10 -3t-10 3q13 17 22.5 56.5t5.5 65.5q-4 -1 -7 -1q-8 0 -13.5 5.5
t-5.5 14.5q0 21 21 21z" />
    <glyph glyph-name="dagger" unicode="&#x2020;" horiz-adv-x="450" 
d="M235 400h162q3 -3 3 -9t-3 -9h-162v-465q-3 -3 -10 -3t-10 3v465h-162q-3 3 -3 9t3 9h162v250q3 3 10 3t10 -3v-250z" />
    <glyph glyph-name="daggerdbl" unicode="&#x2021;" horiz-adv-x="450" 
d="M235 185h162q3 -3 3 -9t-3 -9h-162v-250q-3 -3 -10 -3t-10 3v250h-162q-3 3 -3 9t3 9h162v197h-162q-3 3 -3 9t3 9h162v250q3 3 10 3t10 -3v-250h162q3 -3 3 -9t-3 -9h-162v-197z" />
    <glyph glyph-name="bullet" unicode="&#x2022;" horiz-adv-x="172" 
d="M86 322q15 0 25.5 -10.5t10.5 -25.5t-10.5 -25.5t-25.5 -10.5t-25.5 10.5t-10.5 25.5t10.5 25.5t25.5 10.5z" />
    <glyph glyph-name="ellipsis" unicode="&#x2026;" horiz-adv-x="441" 
d="M71 -15q-9 0 -15 6t-6 15q0 8 6 14t15 6q8 0 14 -6t6 -14q0 -9 -6 -15t-14 -6zM221 -15q-9 0 -15 6t-6 15q0 8 6 14t15 6q8 0 14 -6t6 -14q0 -9 -6 -15t-14 -6zM371 -15q-9 0 -15 6t-6 15q0 8 6 14t15 6q8 0 14 -6t6 -14q0 -9 -6 -15t-14 -6z" />
    <glyph glyph-name="perthousand" unicode="&#x2030;" horiz-adv-x="1082" 
d="M182 665q61 0 96.5 -47t35.5 -123t-35.5 -123t-96.5 -47t-96.5 47t-35.5 123t35.5 123t96.5 47zM549 650l-308 -650q-3 -3 -10.5 -3t-10.5 3l308 650q3 3 10.5 3t10.5 -3zM182 647q-51 0 -81.5 -41.5t-30.5 -110.5t30.5 -110.5t81.5 -41.5t81.5 41.5t30.5 110.5
t-30.5 110.5t-81.5 41.5zM587 325q61 0 96.5 -47t35.5 -123t-35.5 -123t-96.5 -47t-96.5 47t-35.5 123t35.5 123t96.5 47zM900 325q61 0 96.5 -47t35.5 -123t-35.5 -123t-96.5 -47t-96.5 47t-35.5 123t35.5 123t96.5 47zM587 307q-51 0 -81.5 -41.5t-30.5 -110.5
t30.5 -110.5t81.5 -41.5t81.5 41.5t30.5 110.5t-30.5 110.5t-81.5 41.5zM900 307q-51 0 -81.5 -41.5t-30.5 -110.5t30.5 -110.5t81.5 -41.5t81.5 41.5t30.5 110.5t-30.5 110.5t-81.5 41.5z" />
    <glyph glyph-name="guilsinglleft" unicode="&#x2039;" horiz-adv-x="255" 
d="M77 217l128 -156q-3 -3 -9.5 -3t-9.5 3l-136 156l136 156q3 3 9.5 3t9.5 -3z" />
    <glyph glyph-name="guilsinglright" unicode="&#x203a;" horiz-adv-x="255" 
d="M205 217l-136 -156q-3 -3 -9.5 -3t-9.5 3l128 156l-128 156q3 3 9.5 3t9.5 -3z" />
    <glyph glyph-name="fraction" unicode="&#x2044;" horiz-adv-x="429" 
d="M379 650l-308 -650q-3 -3 -10.5 -3t-10.5 3l308 650q3 3 10.5 3t10.5 -3z" />
    <glyph glyph-name="Euro" unicode="&#x20ac;" horiz-adv-x="793" 
d="M469 3q137 0 226 73q3 -3 3 -12t-3 -12q-92 -67 -226 -67q-128 0 -218.5 76.5t-113.5 194.5h-84q-3 3 -3 9t3 9h82q-4 23 -4 51t4 51h-82q-3 3 -3 9t3 9h84q23 118 113.5 194.5t218.5 76.5q134 0 226 -67q3 -3 3 -12t-3 -12q-89 73 -226 73q-119 0 -204 -71t-107 -182
h310q3 -3 3 -9t-3 -9h-313q-4 -23 -4 -51t4 -51h273q3 -3 3 -9t-3 -9h-270q22 -111 107 -182t204 -71z" />
    <glyph glyph-name="uni2116" unicode="&#x2116;" horiz-adv-x="1147" 
d="M894 665q92 0 152.5 -62t60.5 -153t-60.5 -153t-152.5 -62t-152.5 62t-60.5 153t60.5 153t152.5 62zM616 650v-650q-3 -3 -10 -3t-10 3l-481 618v-618q-3 -3 -10 -3t-10 3v650q3 3 10 3t10 -3l481 -618v618q3 3 10 3t10 -3zM894 647q-83 0 -138 -56.5t-55 -140.5
t55 -140.5t138 -56.5t138 56.5t55 140.5t-55 140.5t-138 56.5zM701 173h386q3 -3 3 -9t-3 -9h-386q-3 3 -3 9t3 9z" />
    <glyph glyph-name="trademark" unicode="&#x2122;" horiz-adv-x="639" 
d="M53 650h212q3 -3 3 -9t-3 -9h-96v-184q-3 -3 -10 -3t-10 3v184h-96q-3 3 -3 9t3 9zM529 646l60 -198q-3 -3 -10.5 -3t-10.5 3l-51 170l-74 -170q-3 -3 -10.5 -3t-10.5 3l-74 170l-51 -170q-3 -3 -10.5 -3t-10.5 3l60 198q3 3 10.5 3t10.5 -3l76 -174l75 174q3 3 10.5 3
t10.5 -3z" />
    <glyph glyph-name="estimated" unicode="&#x212e;" horiz-adv-x="826" 
d="M413 665q147 0 242.5 -98.5t95.5 -241.5h-579v-215q92 -107 241 -107q137 0 226 73q3 -3 3 -12t-3 -12q-92 -67 -226 -67q-147 0 -242.5 98.5t-95.5 241.5t95.5 241.5t242.5 98.5zM413 647q-149 0 -241 -107v-197h482v197q-92 107 -241 107z" />
    <glyph glyph-name="oneeighth" unicode="&#x215b;" horiz-adv-x="643" 
d="M167 650v-310q-3 -3 -10 -3t-10 3v289l-94 -67q-3 3 -3 10.5t3 10.5l94 67q3 3 10 3t10 -3zM455 650l-308 -650q-3 -3 -10.5 -3t-10.5 3l308 650q3 3 10.5 3t10.5 -3zM477 325q47 0 74.5 -25.5t27.5 -60.5q0 -49 -48 -72q29 -11 45.5 -34.5t16.5 -52.5q0 -42 -33 -68.5
t-83 -26.5t-83 26.5t-33 68.5q0 29 16.5 52.5t45.5 34.5q-48 23 -48 72q0 35 27.5 60.5t74.5 25.5zM477 307q-40 0 -61 -20.5t-21 -46.5t19.5 -45.5t53.5 -19.5h18q34 0 53.5 19.5t19.5 45.5t-21 46.5t-61 20.5zM485 157h-16q-43 0 -65.5 -22.5t-22.5 -54.5q0 -33 27 -55
t69 -22t69 22t27 55q0 32 -22.5 54.5t-65.5 22.5z" />
    <glyph glyph-name="threeeighths" unicode="&#x215c;" horiz-adv-x="702" 
d="M147 665q47 0 74.5 -25.5t27.5 -60.5q0 -49 -48 -72q29 -11 45.5 -34.5t16.5 -52.5q0 -42 -32 -68.5t-82 -26.5q-58 0 -97 34q-2 1 -2 10.5t2 10.5q37 -37 98 -37q42 0 67.5 21.5t25.5 55.5q0 32 -22.5 54.5t-65.5 22.5h-45q-2 1 -2 9t2 9h46q34 0 53.5 19.5t19.5 45.5
t-21 46.5t-61 20.5q-55 0 -92 -37q-1 1 -1 10.5t1 10.5q37 34 92 34zM513 650l-308 -650q-3 -3 -10.5 -3t-10.5 3l308 650q3 3 10.5 3t10.5 -3zM535 325q47 0 74.5 -25.5t27.5 -60.5q0 -49 -47 -72q61 -23 61 -87q0 -42 -33 -68.5t-83 -26.5t-83 26.5t-33 68.5
q0 29 16.5 52.5t45.5 34.5q-48 23 -48 72q0 35 27.5 60.5t74.5 25.5zM535 307q-40 0 -61 -20.5t-21 -46.5t19.5 -45.5t53.5 -19.5h18q34 0 53.5 19.5t19.5 45.5t-21 46.5t-61 20.5zM543 157h-16q-43 0 -65.5 -22.5t-22.5 -54.5q0 -33 27 -55t69 -22t69 22t27 55
q0 32 -22.5 54.5t-65.5 22.5z" />
    <glyph glyph-name="fiveeighths" unicode="&#x215d;" horiz-adv-x="698" 
d="M510 650l-308 -650q-3 -3 -10.5 -3t-10.5 3l308 650q3 3 10.5 3t10.5 -3zM95 650h141q2 -2 2 -9t-2 -9h-125l-18 -119q26 11 52 11q52 0 83 -27.5t31 -71.5t-31.5 -72t-83.5 -28q-56 0 -93 32q-1 2 -1 11.5t1 10.5q36 -36 93 -36q44 0 69.5 23t25.5 58q0 36 -25.5 59
t-69.5 23q-38 0 -74 -22zM532 325q47 0 74.5 -25.5t27.5 -60.5q0 -49 -48 -72q29 -11 45.5 -34.5t16.5 -52.5q0 -42 -33 -68.5t-83 -26.5t-83 26.5t-33 68.5q0 29 16.5 52.5t45.5 34.5q-48 23 -48 72q0 35 27.5 60.5t74.5 25.5zM532 307q-40 0 -61 -20.5t-21 -46.5
t19.5 -45.5t53.5 -19.5h18q34 0 53.5 19.5t19.5 45.5t-21 46.5t-61 20.5zM540 157h-16q-43 0 -65.5 -22.5t-22.5 -54.5q0 -33 27 -55t69 -22t69 22t27 55q0 32 -22.5 54.5t-65.5 22.5z" />
    <glyph glyph-name="seveneighths" unicode="&#x215e;" horiz-adv-x="624" 
d="M436 650l-308 -650q-3 -3 -10.5 -3t-10.5 3l308 650q3 3 10.5 3t10.5 -3zM258 641l-158 -301q-3 -3 -11 -3t-11 3l153 292h-178q-3 3 -3 9t3 9h205v-9zM458 325q47 0 74.5 -25.5t27.5 -60.5q0 -49 -48 -72q29 -11 45.5 -34.5t16.5 -52.5q0 -42 -33 -68.5t-83 -26.5
t-83 26.5t-33 68.5q0 29 16.5 52.5t45.5 34.5q-48 23 -48 72q0 35 27.5 60.5t74.5 25.5zM458 307q-40 0 -61 -20.5t-21 -46.5t19.5 -45.5t53.5 -19.5h18q34 0 53.5 19.5t19.5 45.5t-21 46.5t-61 20.5zM466 157h-16q-43 0 -65.5 -22.5t-22.5 -54.5q0 -33 27 -55t69 -22t69 22
t27 55q0 32 -22.5 54.5t-65.5 22.5z" />
    <glyph glyph-name="partialdiff" unicode="&#x2202;" horiz-adv-x="513" 
d="M126 650q60 -11 116.5 -43t104.5 -80.5t77 -120.5t29 -155v-50q0 -103 -55 -159.5t-140 -56.5q-84 0 -142.5 59.5t-58.5 155.5q0 94 53.5 154.5t146.5 60.5t164 -67q-28 112 -112.5 187.5t-182.5 94.5q-3 3 -3 10t3 10zM257 397q-84 0 -132 -55t-48 -142q0 -89 53 -143
t128 -54q76 0 125.5 51t49.5 147v50q0 31 -5 66q-26 29 -72.5 54.5t-98.5 25.5z" />
    <glyph glyph-name="emptyset" unicode="&#x2205;" horiz-adv-x="546" 
d="M449 387l-27 -31q64 -62 64 -156q0 -91 -60.5 -153t-152.5 -62q-77 0 -134 46l-27 -31q-4 -1 -9 3.5t-6 9.5l27 31q-64 62 -64 156q0 91 60.5 153t152.5 62q77 0 134 -46l27 31q4 1 9 -3.5t6 -9.5zM80 200q0 -86 56 -142l259 297q-51 42 -122 42q-83 0 -138 -56.5
t-55 -140.5zM273 3q83 0 138 56.5t55 140.5q0 86 -56 142l-259 -297q51 -42 122 -42z" />
    <glyph glyph-name="product" unicode="&#x220f;" horiz-adv-x="675" 
d="M53 650h569q3 -3 3 -9t-3 -9h-78v-632q-3 -3 -10 -3t-10 3v632h-373v-632q-3 -3 -10 -3t-10 3v632h-78q-3 3 -3 9t3 9z" />
    <glyph glyph-name="summation" unicode="&#x2211;" horiz-adv-x="475" 
d="M79 18h343q3 -3 3 -9t-3 -9h-372v10l238 315l-238 315v10h372q3 -3 3 -9t-3 -9h-343l220 -288q6 -7 6 -19.5t-6 -19.5z" />
    <glyph glyph-name="minus" unicode="&#x2212;" horiz-adv-x="450" 
d="M53 297h344q3 -3 3 -9t-3 -9h-344q-3 3 -3 9t3 9z" />
    <glyph glyph-name="radical" unicode="&#x221a;" horiz-adv-x="753" 
d="M554 650h146q3 -3 3 -9t-3 -9h-133l-303 -632q-3 -3 -11 -3t-11 3l-192 400q3 3 11 3t11 -3l181 -377z" />
    <glyph glyph-name="infinity" unicode="&#x221e;" horiz-adv-x="704" 
d="M498 422q64 0 110 -46t46 -110t-46 -110t-110 -46q-49 0 -89 28.5t-57 72.5q-17 -44 -57 -72.5t-89 -28.5q-64 0 -110 46t-46 110t46 110t110 46q50 0 89.5 -28t56.5 -73q17 45 56.5 73t89.5 28zM206 128q55 0 95.5 41t40.5 97q0 57 -40 97.5t-96 40.5t-96 -40.5
t-40 -97.5q0 -56 40.5 -97t95.5 -41zM498 128q55 0 95.5 41t40.5 97q0 57 -40 97.5t-96 40.5t-96 -40.5t-40 -97.5q0 -56 40.5 -97t95.5 -41z" />
    <glyph glyph-name="integral" unicode="&#x222b;" horiz-adv-x="524" 
d="M471 631q3 -3 3 -12t-3 -12q-50 40 -106 40q-41 0 -67 -25t-26 -80v-669q0 -62 -31.5 -92.5t-81.5 -30.5q-53 0 -106 34q-3 3 -3 12t3 12q50 -40 106 -40q41 0 67 25t26 80v669q0 62 31.5 92.5t81.5 30.5q53 0 106 -34z" />
    <glyph glyph-name="approxequal" unicode="&#x2248;" horiz-adv-x="488" 
d="M167 345q34 0 80 -24.5t75 -24.5q13 0 25.5 2.5t26.5 8.5t21.5 9.5t22.5 11.5t17 9q3 -3 3 -9t-3 -9q-2 -1 -22 -12t-29 -15t-27.5 -9t-35.5 -5q-34 0 -80 24.5t-75 24.5q-13 0 -25.5 -2.5t-26.5 -8.5t-21.5 -9.5t-22.5 -11.5t-17 -9q-3 3 -3 9t3 9q2 1 22 12t29 15
t27.5 9t35.5 5zM167 226q34 0 80 -24.5t75 -24.5q13 0 25.5 2.5t26.5 8.5t21.5 9.5t22.5 11.5t17 9q3 -3 3 -9t-3 -9q-2 -1 -22 -12t-29 -15t-27.5 -9t-35.5 -5q-34 0 -80 24.5t-75 24.5q-13 0 -25.5 -2.5t-26.5 -8.5t-21.5 -9.5t-22.5 -11.5t-17 -9q-3 3 -3 9t3 9
q2 1 22 12t29 15t27.5 9t35.5 5z" />
    <glyph glyph-name="notequal" unicode="&#x2260;" horiz-adv-x="450" 
d="M253 345h144q3 -3 3 -9t-3 -9h-149l-26 -101h175q3 -3 3 -9t-3 -9h-180l-23 -88q-3 -3 -10 -3t-10 3l23 88h-144q-3 3 -3 9t3 9h149l26 101h-175q-3 3 -3 9t3 9h180l23 88q3 3 10 3t10 -3z" />
    <glyph glyph-name="lessequal" unicode="&#x2264;" horiz-adv-x="463" 
d="M53 317l357 128q3 -3 3 -10t-3 -10l-329 -118l329 -118q3 -3 3 -10t-3 -10l-357 128q-3 3 -3 10t3 10zM53 104h357q3 -3 3 -9t-3 -9h-357q-3 3 -3 9t3 9z" />
    <glyph glyph-name="greaterequal" unicode="&#x2265;" horiz-adv-x="463" 
d="M53 445l357 -128q3 -3 3 -10t-3 -10l-357 -128q-3 3 -3 10t3 10l329 118l-329 118q-3 3 -3 10t3 10zM53 104h357q3 -3 3 -9t-3 -9h-357q-3 3 -3 9t3 9z" />
    <glyph glyph-name="lozenge" unicode="&#x25ca;" horiz-adv-x="430" 
d="M215 318l-165 166l165 166l165 -166zM353 484l-138 140l-138 -140l138 -140z" />
    <glyph glyph-name="i.loclTRK" horiz-adv-x="182" 
d="M92 512q-9 0 -15 6t-6 15q0 8 6 14t15 6q8 0 14 -6t6 -14q0 -9 -6 -15t-14 -6zM102 400v-400q-3 -3 -10 -3t-10 3v400q3 3 10 3t10 -3z" />
    <glyph glyph-name="a.ss01" horiz-adv-x="536" 
d="M267 415q100 0 169 -76v61q3 3 10 3t10 -3v-400q-3 -3 -10 -3t-10 3v61q-69 -76 -169 -76q-93 0 -150 61t-57 154t57 154t150 61zM267 397q-85 0 -136 -55.5t-51 -141.5t51 -141.5t136 -55.5q56 0 101 27t68 56v228q-23 29 -68 56t-101 27z" />
    <glyph glyph-name="aacute.ss01" horiz-adv-x="536" 
d="M210 470l118 121q4 0 9 -5t5 -9l-121 -118q-11 0 -11 11zM267 415q100 0 169 -76v61q3 3 10 3t10 -3v-400q-3 -3 -10 -3t-10 3v61q-69 -76 -169 -76q-93 0 -150 61t-57 154t57 154t150 61zM267 397q-85 0 -136 -55.5t-51 -141.5t51 -141.5t136 -55.5q56 0 101 27t68 56
v228q-23 29 -68 56t-101 27z" />
    <glyph glyph-name="abreve.ss01" horiz-adv-x="536" 
d="M424 566q3 -3 3 -11t-3 -11q-57 -47 -148 -47t-148 47q-3 3 -3 11t3 11q69 -51 148 -51t148 51zM267 415q100 0 169 -76v61q3 3 10 3t10 -3v-400q-3 -3 -10 -3t-10 3v61q-69 -76 -169 -76q-93 0 -150 61t-57 154t57 154t150 61zM267 397q-85 0 -136 -55.5t-51 -141.5
t51 -141.5t136 -55.5q56 0 101 27t68 56v228q-23 29 -68 56t-101 27z" />
    <glyph glyph-name="acaron.ss01" horiz-adv-x="536" 
d="M276 467l119 120q4 0 9.5 -4.5t5.5 -8.5l-114 -115q-20 -16 -40 0l-114 115q0 4 5.5 8.5t9.5 4.5zM267 415q100 0 169 -76v61q3 3 10 3t10 -3v-400q-3 -3 -10 -3t-10 3v61q-69 -76 -169 -76q-93 0 -150 61t-57 154t57 154t150 61zM267 397q-85 0 -136 -55.5t-51 -141.5
t51 -141.5t136 -55.5q56 0 101 27t68 56v228q-23 29 -68 56t-101 27z" />
    <glyph glyph-name="acircumflex.ss01" horiz-adv-x="536" 
d="M296 580l114 -115q0 -4 -5.5 -8.5t-9.5 -4.5l-119 120l-119 -120q-4 0 -9.5 4.5t-5.5 8.5l114 115q20 16 40 0zM267 415q100 0 169 -76v61q3 3 10 3t10 -3v-400q-3 -3 -10 -3t-10 3v61q-69 -76 -169 -76q-93 0 -150 61t-57 154t57 154t150 61zM267 397q-85 0 -136 -55.5
t-51 -141.5t51 -141.5t136 -55.5q56 0 101 27t68 56v228q-23 29 -68 56t-101 27z" />
    <glyph glyph-name="adieresis.ss01" horiz-adv-x="536" 
d="M159 553q8 0 14 -6t6 -14q0 -9 -6 -15t-14 -6q-9 0 -15 6t-6 15q0 8 6 14t15 6zM393 553q8 0 14 -6t6 -14q0 -9 -6 -15t-14 -6q-9 0 -15 6t-6 15q0 8 6 14t15 6zM267 415q100 0 169 -76v61q3 3 10 3t10 -3v-400q-3 -3 -10 -3t-10 3v61q-69 -76 -169 -76q-93 0 -150 61
t-57 154t57 154t150 61zM267 397q-85 0 -136 -55.5t-51 -141.5t51 -141.5t136 -55.5q56 0 101 27t68 56v228q-23 29 -68 56t-101 27z" />
    <glyph glyph-name="agrave.ss01" horiz-adv-x="536" 
d="M224 591l118 -121q0 -11 -11 -11l-121 118q0 4 5 9t9 5zM267 415q100 0 169 -76v61q3 3 10 3t10 -3v-400q-3 -3 -10 -3t-10 3v61q-69 -76 -169 -76q-93 0 -150 61t-57 154t57 154t150 61zM267 397q-85 0 -136 -55.5t-51 -141.5t51 -141.5t136 -55.5q56 0 101 27t68 56
v228q-23 29 -68 56t-101 27z" />
    <glyph glyph-name="amacron.ss01" horiz-adv-x="536" 
d="M146 530h259q3 -3 3 -9t-3 -9h-259q-3 3 -3 9t3 9zM267 415q100 0 169 -76v61q3 3 10 3t10 -3v-400q-3 -3 -10 -3t-10 3v61q-69 -76 -169 -76q-93 0 -150 61t-57 154t57 154t150 61zM267 397q-85 0 -136 -55.5t-51 -141.5t51 -141.5t136 -55.5q56 0 101 27t68 56v228
q-23 29 -68 56t-101 27z" />
    <glyph glyph-name="aogonek.ss01" horiz-adv-x="536" 
d="M479 -193q3 -3 3 -9t-3 -9q-12 -4 -30 -4q-45 0 -73.5 28.5t-28.5 70.5q0 40 26 72t63 44v61q-69 -76 -169 -76q-93 0 -150 61t-57 154t57 154t150 61q100 0 169 -76v61q3 3 10 3t10 -3v-400q-3 -3 -8 -3q-38 -16 -59.5 -47.5t-21.5 -64.5q0 -35 22.5 -58.5t59.5 -23.5
q18 0 30 4zM267 3q56 0 101 27t68 56v228q-23 29 -68 56t-101 27q-85 0 -136 -55.5t-51 -141.5t51 -141.5t136 -55.5z" />
    <glyph glyph-name="aring.ss01" horiz-adv-x="536" 
d="M276 602q31 0 52.5 -21t21.5 -49q0 -31 -21.5 -52t-52.5 -21q-32 0 -53 21t-21 52q0 28 21 49t53 21zM276 584q-24 0 -38.5 -15.5t-14.5 -36.5q0 -23 14 -38.5t39 -15.5q24 0 39 16t15 38q0 21 -15 36.5t-39 15.5zM267 415q100 0 169 -76v61q3 3 10 3t10 -3v-400
q-3 -3 -10 -3t-10 3v61q-69 -76 -169 -76q-93 0 -150 61t-57 154t57 154t150 61zM267 397q-85 0 -136 -55.5t-51 -141.5t51 -141.5t136 -55.5q56 0 101 27t68 56v228q-23 29 -68 56t-101 27z" />
    <glyph glyph-name="atilde.ss01" horiz-adv-x="536" 
d="M212 549q27 0 75 -22q27 -12 52 -12q28 0 86 30q3 -3 3 -9t-3 -9q-3 -1 -13 -6.5t-14 -7.5t-13 -6t-15 -5.5t-14.5 -3t-16.5 -1.5q-27 0 -75 22q-27 12 -52 12q-28 0 -86 -30q-3 3 -3 9t3 9q3 1 13 6.5t14 7.5t13 6t15 5.5t14.5 3t16.5 1.5zM267 415q100 0 169 -76v61
q3 3 10 3t10 -3v-400q-3 -3 -10 -3t-10 3v61q-69 -76 -169 -76q-93 0 -150 61t-57 154t57 154t150 61zM267 397q-85 0 -136 -55.5t-51 -141.5t51 -141.5t136 -55.5q56 0 101 27t68 56v228q-23 29 -68 56t-101 27z" />
    <glyph glyph-name="ae.ss01" horiz-adv-x="898" 
d="M646 415q92 0 148 -63t45 -152h-383q0 -90 55.5 -143.5t144.5 -53.5q79 0 148 51q3 -3 3 -11t-3 -11q-57 -47 -148 -47q-69 0 -121.5 31t-78.5 87v-103q-3 -3 -10 -3t-10 3v61q-69 -76 -169 -76q-93 0 -150 61t-57 154t57 154t150 61q100 0 169 -76v61q3 3 10 3t10 -3
v-103q25 54 74.5 86t115.5 32zM267 397q-85 0 -136 -55.5t-51 -141.5t51 -141.5t136 -55.5q56 0 101 27t68 56v228q-23 29 -68 56t-101 27zM646 397q-80 0 -132 -50t-57 -129h364q3 76 -47 127.5t-128 51.5z" />
    <glyph glyph-name="uni0430.ss01" horiz-adv-x="536" 
d="M267 415q100 0 169 -76v61q3 3 10 3t10 -3v-400q-3 -3 -10 -3t-10 3v61q-69 -76 -169 -76q-93 0 -150 61t-57 154t57 154t150 61zM267 397q-85 0 -136 -55.5t-51 -141.5t51 -141.5t136 -55.5q56 0 101 27t68 56v228q-23 29 -68 56t-101 27z" />
    <glyph glyph-name="zero.tf" horiz-adv-x="600" 
d="M300 665q117 0 186.5 -93.5t69.5 -246.5t-69.5 -246.5t-186.5 -93.5t-186.5 93.5t-69.5 246.5t69.5 246.5t186.5 93.5zM300 647q-108 0 -172 -88t-64 -234t64 -234t172 -88t172 88t64 234t-64 234t-172 88z" />
    <glyph glyph-name="one.tf" horiz-adv-x="600" 
d="M156 534l162 116q3 3 10 3t10 -3v-650q-3 -3 -10 -3t-10 3v629l-162 -116q-3 3 -3 10.5t3 10.5z" />
    <glyph glyph-name="two.tf" horiz-adv-x="600" 
d="M126 18h375q3 -3 3 -9t-3 -9h-413v9q169 156 250 244t106.5 136.5t25.5 100.5q0 62 -47 109.5t-132 47.5q-110 0 -181 -73q-3 3 -3 12t3 12q75 67 181 67q93 0 146 -52.5t53 -122.5q0 -83 -70 -173t-294 -299z" />
    <glyph glyph-name="three.tf" horiz-adv-x="600" 
d="M287 665q94 0 146.5 -50.5t52.5 -119.5q0 -54 -30 -96t-81 -60q68 -16 103 -62.5t35 -105.5q0 -83 -61 -134.5t-160 -51.5q-52 0 -104 18t-87 49q-3 3 -3 12t3 12q33 -34 85.5 -53.5t105.5 -19.5q90 0 145.5 46t55.5 122q0 66 -47 111.5t-139 45.5h-90q-3 3 -3 9t3 9h91
q70 0 114 43t44 106q0 62 -47 107t-132 45q-110 0 -181 -73q-3 3 -3 12t3 12q75 67 181 67z" />
    <glyph glyph-name="four.tf" horiz-adv-x="600" 
d="M439 174h104q3 -3 3 -9t-3 -9h-104v-156q-3 -3 -10 -3t-10 3v156h-360q-3 3 -3 9t3 9l360 476q3 3 10 3t10 -3v-476zM419 617l-336 -443h336v443z" />
    <glyph glyph-name="five.tf" horiz-adv-x="600" 
d="M278 379q102 0 163 -54.5t61 -139.5q0 -86 -61.5 -143t-159.5 -57q-116 0 -191 67q-3 3 -3 12t3 12q33 -34 84.5 -53.5t106.5 -19.5q89 0 145 51.5t56 130.5q0 78 -55.5 127t-148.5 49q-73 0 -146 -44l51 333h288q3 -3 3 -9t-3 -9h-271l-43 -283q58 30 121 30z" />
    <glyph glyph-name="six.tf" horiz-adv-x="600" 
d="M303 415q99 0 156.5 -60.5t57.5 -154.5q0 -92 -61 -153.5t-156 -61.5q-96 0 -156.5 62t-60.5 167q0 72 24 139t58.5 114t78.5 87t77.5 62t61.5 34q3 3 22 3t22 -3q-30 -10 -68.5 -33.5t-84.5 -60t-87 -92t-62 -118.5q73 69 178 69zM300 3q86 0 141.5 56t55.5 141
q0 87 -51.5 142t-142.5 55q-64 0 -114 -27.5t-74 -57.5q-12 -45 -12 -98q0 -97 54.5 -154t142.5 -57z" />
    <glyph glyph-name="seven.tf" horiz-adv-x="600" 
d="M514 641l-339 -641q-3 -3 -11 -3t-11 3l334 632h-394q-3 3 -3 9t3 9h421v-9z" />
    <glyph glyph-name="eight.tf" horiz-adv-x="600" 
d="M300 665q90 0 142 -50.5t52 -119.5q0 -52 -31 -95t-83 -62q66 -17 103.5 -65t37.5 -106q0 -82 -62.5 -132t-158.5 -50t-158.5 50t-62.5 132q0 58 37.5 106t103.5 65q-52 19 -83 62t-31 95q0 69 52 119.5t142 50.5zM300 647q-82 0 -128 -45t-46 -107q0 -61 44.5 -105
t111.5 -44h36q67 0 111.5 44t44.5 105q0 62 -46 107t-128 45zM317 328h-34q-85 0 -134.5 -48t-49.5 -113q0 -74 56.5 -119t144.5 -45t144.5 45t56.5 119q0 65 -49.5 113t-134.5 48z" />
    <glyph glyph-name="nine.tf" horiz-adv-x="600" 
d="M300 665q96 0 156.5 -62t60.5 -167q0 -72 -24 -139t-58.5 -114t-78.5 -87t-77.5 -62t-61.5 -34q-3 -3 -22 -3t-22 3q30 10 68.5 33.5t84.5 60t87 92t62 118.5q-73 -69 -178 -69q-99 0 -156.5 60.5t-57.5 154.5q0 92 61 153.5t156 61.5zM300 647q-86 0 -141.5 -56
t-55.5 -141q0 -87 51.5 -142t142.5 -55q64 0 114 27.5t74 57.5q12 45 12 98q0 97 -54.5 154t-142.5 57z" />
    <glyph glyph-name="zero.dnom" horiz-adv-x="364" 
d="M182 325q61 0 96.5 -47t35.5 -123t-35.5 -123t-96.5 -47t-96.5 47t-35.5 123t35.5 123t96.5 47zM182 307q-51 0 -81.5 -41.5t-30.5 -110.5t30.5 -110.5t81.5 -41.5t81.5 41.5t30.5 110.5t-30.5 110.5t-81.5 41.5z" />
    <glyph glyph-name="one.dnom" horiz-adv-x="217" 
d="M53 243l94 67q3 3 10 3t10 -3v-310q-3 -3 -10 -3t-10 3v289l-94 -67q-3 3 -3 10.5t3 10.5z" />
    <glyph glyph-name="two.dnom" horiz-adv-x="321" 
d="M88 18h180q3 -3 3 -9t-3 -9h-218v9q123 110 156 151t33 80q0 25 -22.5 46t-64.5 21q-52 0 -91 -37q-1 2 -1 11t1 11q38 33 91 33q51 0 79 -25.5t28 -59.5q0 -42 -33 -83.5t-138 -138.5z" />
    <glyph glyph-name="three.dnom" horiz-adv-x="313" 
d="M147 325q47 0 74.5 -25.5t27.5 -60.5q0 -49 -48 -72q29 -11 45.5 -34.5t16.5 -52.5q0 -42 -32 -68.5t-82 -26.5q-58 0 -97 34q-2 1 -2 10.5t2 10.5q37 -37 98 -37q42 0 67.5 21.5t25.5 55.5q0 32 -22.5 54.5t-65.5 22.5h-45q-2 1 -2 9t2 9h46q34 0 53.5 19.5t19.5 45.5
t-21 46.5t-61 20.5q-55 0 -92 -37q-1 1 -1 10.5t1 10.5q37 34 92 34z" />
    <glyph glyph-name="four.dnom" horiz-adv-x="344" 
d="M237 93h54q3 -3 3 -9t-3 -9h-54v-75q-3 -3 -10 -3t-10 3v75h-164q-3 3 -3 9t3 9l164 217q3 3 10 3t10 -3v-217zM217 278l-140 -185h140v185z" />
    <glyph glyph-name="five.dnom" horiz-adv-x="309" 
d="M145 184q52 0 83 -27.5t31 -71.5t-31.5 -72t-83.5 -28q-56 0 -93 32q-1 2 -1 11.5t1 10.5q36 -36 93 -36q44 0 69.5 23t25.5 58q0 36 -25.5 59t-69.5 23q-38 0 -74 -22l25 166h141q2 -2 2 -9t-2 -9h-125l-19 -119q28 11 53 11z" />
    <glyph glyph-name="six.dnom" horiz-adv-x="318" 
d="M162 192q47 0 76.5 -30t29.5 -73t-31.5 -73.5t-77.5 -30.5q-47 0 -78 33t-31 87q0 71 48.5 129.5t87.5 75.5q1 2 19.5 2t20.5 -2q-32 -10 -78 -50.5t-67 -95.5q34 28 81 28zM159 3q37 0 63 24t26 62q0 35 -23.5 60t-62.5 25q-54 0 -89 -38q-3 -16 -3 -33
q0 -47 25.5 -73.5t63.5 -26.5z" />
    <glyph glyph-name="seven.dnom" horiz-adv-x="308" 
d="M258 301l-158 -301q-3 -3 -11 -3t-11 3l153 292h-178q-3 3 -3 9t3 9h205v-9z" />
    <glyph glyph-name="eight.dnom" horiz-adv-x="332" 
d="M166 325q47 0 74.5 -25.5t27.5 -60.5q0 -49 -48 -72q29 -11 45.5 -34.5t16.5 -52.5q0 -42 -33 -68.5t-83 -26.5t-83 26.5t-33 68.5q0 29 16.5 52.5t45.5 34.5q-48 23 -48 72q0 35 27.5 60.5t74.5 25.5zM166 307q-40 0 -61 -20.5t-21 -46.5t19.5 -45.5t53.5 -19.5h18
q34 0 53.5 19.5t19.5 45.5t-21 46.5t-61 20.5zM174 157h-16q-43 0 -65.5 -22.5t-22.5 -54.5q0 -33 27 -55t69 -22t69 22t27 55q0 32 -22.5 54.5t-65.5 22.5z" />
    <glyph glyph-name="nine.dnom" horiz-adv-x="318" 
d="M159 326q47 0 78 -33t31 -87q0 -71 -48 -129.5t-88 -76.5q-1 -2 -19.5 -2t-20.5 2q32 10 78.5 51t66.5 96q-34 -28 -81 -28t-76.5 30t-29.5 73t31.5 73.5t77.5 30.5zM156 137q54 0 89 38q3 17 3 33q0 47 -25.5 73.5t-63.5 26.5q-37 0 -63 -24t-26 -62q0 -35 23.5 -60
t62.5 -25z" />
    <glyph glyph-name="zero.numr" horiz-adv-x="364" 
d="M182 665q61 0 96.5 -47t35.5 -123t-35.5 -123t-96.5 -47t-96.5 47t-35.5 123t35.5 123t96.5 47zM182 647q-51 0 -81.5 -41.5t-30.5 -110.5t30.5 -110.5t81.5 -41.5t81.5 41.5t30.5 110.5t-30.5 110.5t-81.5 41.5z" />
    <glyph glyph-name="one.numr" horiz-adv-x="217" 
d="M53 583l94 67q3 3 10 3t10 -3v-310q-3 -3 -10 -3t-10 3v289l-94 -67q-3 3 -3 10.5t3 10.5z" />
    <glyph glyph-name="two.numr" horiz-adv-x="321" 
d="M88 358h180q3 -3 3 -9t-3 -9h-218v9q123 110 156 151t33 80q0 25 -22.5 46t-64.5 21q-52 0 -91 -37q-1 2 -1 11t1 11q38 33 91 33q51 0 79 -25.5t28 -59.5q0 -42 -33 -83.5t-138 -138.5z" />
    <glyph glyph-name="three.numr" horiz-adv-x="313" 
d="M147 665q47 0 74.5 -25.5t27.5 -60.5q0 -49 -48 -72q29 -11 45.5 -34.5t16.5 -52.5q0 -42 -32 -68.5t-82 -26.5q-58 0 -97 34q-2 1 -2 10.5t2 10.5q37 -37 98 -37q42 0 67.5 21.5t25.5 55.5q0 32 -22.5 54.5t-65.5 22.5h-45q-2 1 -2 9t2 9h46q34 0 53.5 19.5t19.5 45.5
t-21 46.5t-61 20.5q-55 0 -92 -37q-1 1 -1 10.5t1 10.5q37 34 92 34z" />
    <glyph glyph-name="four.numr" horiz-adv-x="344" 
d="M237 433h54q3 -3 3 -9t-3 -9h-54v-75q-3 -3 -10 -3t-10 3v75h-164q-3 3 -3 9t3 9l164 217q3 3 10 3t10 -3v-217zM217 618l-140 -185h140v185z" />
    <glyph glyph-name="five.numr" horiz-adv-x="309" 
d="M145 524q52 0 83 -27.5t31 -71.5t-31.5 -72t-83.5 -28q-56 0 -93 32q-1 2 -1 11.5t1 10.5q36 -36 93 -36q44 0 69.5 23t25.5 58q0 36 -25.5 59t-69.5 23q-38 0 -74 -22l25 166h141q2 -2 2 -9t-2 -9h-125l-19 -119q28 11 53 11z" />
    <glyph glyph-name="six.numr" horiz-adv-x="318" 
d="M162 532q47 0 76.5 -30t29.5 -73t-31.5 -73.5t-77.5 -30.5q-47 0 -78 33t-31 87q0 71 48.5 129.5t87.5 75.5q1 2 19.5 2t20.5 -2q-32 -10 -78 -50.5t-67 -95.5q34 28 81 28zM159 343q37 0 63 24t26 62q0 35 -23.5 60t-62.5 25q-54 0 -89 -38q-3 -16 -3 -33
q0 -47 25.5 -73.5t63.5 -26.5z" />
    <glyph glyph-name="seven.numr" horiz-adv-x="308" 
d="M258 641l-158 -301q-3 -3 -11 -3t-11 3l153 292h-178q-3 3 -3 9t3 9h205v-9z" />
    <glyph glyph-name="eight.numr" horiz-adv-x="332" 
d="M166 665q47 0 74.5 -25.5t27.5 -60.5q0 -49 -48 -72q29 -11 45.5 -34.5t16.5 -52.5q0 -42 -33 -68.5t-83 -26.5t-83 26.5t-33 68.5q0 29 16.5 52.5t45.5 34.5q-48 23 -48 72q0 35 27.5 60.5t74.5 25.5zM166 647q-40 0 -61 -20.5t-21 -46.5t19.5 -45.5t53.5 -19.5h18
q34 0 53.5 19.5t19.5 45.5t-21 46.5t-61 20.5zM174 497h-16q-43 0 -65.5 -22.5t-22.5 -54.5q0 -33 27 -55t69 -22t69 22t27 55q0 32 -22.5 54.5t-65.5 22.5z" />
    <glyph glyph-name="nine.numr" horiz-adv-x="318" 
d="M159 665q47 0 78 -33t31 -87q0 -71 -48 -129.5t-88 -76.5q-1 -1 -19.5 -1t-20.5 1q32 10 78.5 51t66.5 96q-34 -28 -81 -28t-76.5 30t-29.5 73t31.5 73.5t77.5 30.5zM156 476q54 0 89 38q3 16 3 33q0 47 -25.5 73.5t-63.5 26.5q-37 0 -63 -24t-26 -62q0 -35 23.5 -60
t62.5 -25z" />
    <glyph glyph-name="ampersand.ss01" horiz-adv-x="623" 
d="M462 346h118q3 -3 3 -9t-3 -9h-101q3 -44 3 -157q0 -83 -61 -134.5t-160 -51.5t-160 51.5t-61 134.5q0 59 35.5 105.5t103.5 62.5q-52 18 -82 60t-30 96q0 69 52.5 119.5t146.5 50.5q106 0 181 -67q3 -3 3 -12t-3 -12q-71 73 -181 73q-85 0 -132 -45t-47 -107
q0 -63 44 -106t114 -43h90q3 -3 3 -9t-3 -9h-89q-92 0 -139 -45.5t-47 -111.5q0 -76 55.5 -122t145.5 -46t145.5 46t55.5 122v175z" />
    </font>
</defs>
</svg>
