<?xml version="1.0" standalone="no"?>
<!DOCTYPE svg PUBLIC "-//W3C//DTD SVG 1.1//EN" "http://www.w3.org/Graphics/SVG/1.1/DTD/svg11.dtd" >
<svg xmlns="http://www.w3.org/2000/svg" xmlns:xlink="http://www.w3.org/1999/xlink" version="1.1">
<metadata>
Created by FontForge 20190801 at Tue Sep 30 12:30:54 2014
 By root
Copyright (c) 2013 by Mariya Pigoulevskaya. All rights reserved.
</metadata>
<defs>
<font id="Merel-Bold" horiz-adv-x="538" >
  <font-face 
    font-family="Merel-Bold"
    font-weight="400"
    font-stretch="normal"
    units-per-em="1000"
    panose-1="0 0 8 0 0 0 0 0 0 0"
    ascent="789"
    descent="-211"
    x-height="400"
    cap-height="650"
    bbox="-74 -335.5 1144 1133"
    underline-thickness="50"
    underline-position="-100"
    unicode-range="U+0020-25CA"
  />
<missing-glyph horiz-adv-x="500" 
d="M0 0v700h500v-700h-500zM250 395l170 255h-340zM280 350l170 -255v510zM80 50h340l-170 255zM50 605v-510l170 255z" />
    <glyph glyph-name=".notdef" horiz-adv-x="500" 
d="M0 0v700h500v-700h-500zM250 395l170 255h-340zM280 350l170 -255v510zM80 50h340l-170 255zM50 605v-510l170 255z" />
    <glyph glyph-name=".null" horiz-adv-x="0" 
 />
    <glyph glyph-name="nonmarkingreturn" horiz-adv-x="333" 
 />
    <glyph glyph-name="space" unicode=" " horiz-adv-x="239" 
 />
    <glyph glyph-name="exclam" unicode="!" horiz-adv-x="219" 
d="M174 537l-28 -308q-37 -10 -75 0l-27 308v113q65 12 130 0v-113zM109 126q32 0 53.5 -20t21.5 -51q0 -30 -21.5 -50t-53.5 -20t-53.5 20t-21.5 50q0 31 21.5 51t53.5 20z" />
    <glyph glyph-name="quotedbl" unicode="&#x22;" horiz-adv-x="384" 
d="M163 650l-38 -197q-46 -9 -91 0v197q64 12 129 0zM350 650l-38 -197q-46 -9 -91 0v197q65 12 129 0z" />
    <glyph glyph-name="numbersign" unicode="#" horiz-adv-x="565" 
d="M390 284h97q1 -13 -5.5 -36.5t-14.5 -31.5h-96l-62 -216q-37 -10 -75 0l62 216h-90l-62 -216q-38 -10 -75 0l62 216h-96q-1 12 5.5 36t13.5 32h97l23 82h-96q-1 12 5.5 36t13.5 32h97l62 216q38 10 75 0l-62 -216h90l62 216q37 10 75 0l-62 -216h96q1 -12 -5.5 -36
t-13.5 -32h-97zM249 366l-24 -82h90l24 82h-90z" />
    <glyph glyph-name="dollar" unicode="$" horiz-adv-x="557" 
d="M506 184q0 -87 -58 -139.5t-150 -58.5v-94q-21 -11 -42 0v93q-102 5 -181 54q-6 14 -6 64.5t6 60.5q109 -71 193 -71q50 0 78 22.5t28 58.5q0 38 -28 56t-109 43q-39 13 -67 26.5t-57.5 35.5t-45 55t-15.5 76q0 79 54 135t150 63v94q21 11 42 0v-94q92 -4 164 -53
q6 -15 6.5 -64.5t-6.5 -59.5q-107 70 -181 70q-45 0 -71.5 -21.5t-26.5 -56.5q0 -36 28.5 -54t106.5 -42q40 -12 67.5 -24.5t58 -35t46.5 -57.5t16 -82z" />
    <glyph glyph-name="percent" unicode="%" horiz-adv-x="756" 
d="M177 665q66 0 104.5 -46.5t38.5 -123.5t-38.5 -123.5t-104.5 -46.5t-104.5 46.5t-38.5 123.5t38.5 123.5t104.5 46.5zM569 650l-308 -650q-37 -10 -75 0l308 650q38 10 75 0zM177 593q-55 0 -55 -98t55 -98t55 98t-55 98zM578 325q66 0 104.5 -46.5t38.5 -123.5
t-38.5 -123.5t-104.5 -46.5t-104.5 46.5t-38.5 123.5t38.5 123.5t104.5 46.5zM579 253q-55 0 -55 -98t55 -98t55 98t-55 98z" />
    <glyph glyph-name="ampersand" unicode="&#x26;" horiz-adv-x="699" 
d="M279 665q81 0 137.5 -41.5t56.5 -116.5q0 -55 -36 -94.5t-104 -79.5l112 -113q35 54 47 130q65 12 130 0q-25 -128 -90 -216l133 -133q-28 -5 -79 -5t-79 5l-54 53q-89 -70 -195 -70q-93 0 -158.5 49.5t-65.5 136.5q0 58 31 101.5t92 83.5q-70 79 -70 146q0 71 55 117.5
t137 46.5zM280 557q-28 0 -46 -16.5t-18 -42.5q0 -36 41 -86q48 25 67 44t19 44t-16.5 41t-46.5 16zM372 136l-136 136q-36 -24 -53 -45.5t-17 -51.5q0 -40 28.5 -61.5t68.5 -21.5q57 0 109 44z" />
    <glyph glyph-name="quotesingle" unicode="'" horiz-adv-x="198" 
d="M163 650l-38 -197q-46 -9 -91 0v197q64 12 129 0z" />
    <glyph glyph-name="parenleft" unicode="(" horiz-adv-x="275" 
d="M240 650q-41 -79 -64.5 -183t-23.5 -198t23.5 -198t64.5 -183q-57 -11 -114 0q-43 75 -67.5 176t-24.5 205t24.5 205t67.5 176q57 11 114 0z" />
    <glyph glyph-name="parenright" unicode=")" horiz-adv-x="275" 
d="M148 650q43 -75 67.5 -176t24.5 -205t-24.5 -205t-67.5 -176q-57 -11 -114 0q41 79 64.5 183t23.5 198t-23.5 198t-64.5 183q57 11 114 0z" />
    <glyph glyph-name="asterisk" unicode="*" horiz-adv-x="429" 
d="M244 515l123 57q25 -40 28 -85l-129 -28l94 -98q-32 -39 -69 -54l-76 122l-75 -122q-38 15 -70 54l94 98l-129 28q4 48 28 85l123 -57l-15 135q43 10 88 0z" />
    <glyph glyph-name="plus" unicode="+" horiz-adv-x="423" 
d="M255 307h129q11 -44 0 -90h-129v-127q-43 -10 -86 0v128h-129q-11 44 0 89h129v127q43 10 87 0z" />
    <glyph glyph-name="comma" unicode="," horiz-adv-x="226" 
d="M110 126q32 0 56.5 -22.5t25.5 -67.5q1 -53 -27.5 -109.5t-53.5 -73.5q-32 -7 -65 0q54 50 81 134q-14 -2 -18 -2q-31 0 -52.5 20t-21.5 50q0 31 21.5 51t53.5 20z" />
    <glyph glyph-name="hyphen" unicode="-" horiz-adv-x="354" 
d="M40 307h275q11 -44 0 -90l-275 1q-11 44 0 89z" />
    <glyph glyph-name="period" unicode="." horiz-adv-x="219" 
d="M109 -15q-32 0 -53.5 20t-21.5 50q0 31 21.5 51t53.5 20t53.5 -20t21.5 -51q0 -30 -21.5 -50t-53.5 -20z" />
    <glyph glyph-name="slash" unicode="/" horiz-adv-x="350" 
d="M315 650l-171 -650q-55 -10 -110 0l171 650q55 10 110 0z" />
    <glyph glyph-name="zero" unicode="0" horiz-adv-x="651" 
d="M326 665q126 0 200 -92.5t74 -247.5t-74 -247.5t-200 -92.5t-200 92.5t-74 247.5t74 247.5t200 92.5zM326 557q-65 0 -103.5 -56t-38.5 -176t38.5 -176t103.5 -56t103.5 56t38.5 176t-38.5 176t-103.5 56z" />
    <glyph glyph-name="one" unicode="1" horiz-adv-x="386" 
d="M39 530l168 120q51 10 102 0v-650q-65 -12 -129 0v506l-141 -101q-6 10 -6 61t6 64z" />
    <glyph glyph-name="two" unicode="2" horiz-adv-x="530" 
d="M252 108h228q10 -54 0 -108h-444v10q190 217 247.5 304.5t57.5 141.5q0 47 -29 74t-76 27q-75 0 -166 -70q-7 10 -6.5 59.5t6.5 64.5q27 23 74.5 38.5t101.5 15.5q108 0 167 -58t59 -145q0 -75 -49 -151t-171 -203z" />
    <glyph glyph-name="three" unicode="3" horiz-adv-x="548" 
d="M269 665q103 0 164 -49t61 -127q0 -52 -25.5 -92.5t-68.5 -61.5q53 -21 81.5 -63.5t28.5 -98.5q0 -86 -67 -137.5t-168 -51.5q-56 0 -109 15.5t-87 38.5q-6 16 -6 65t6 59q106 -70 185 -70q49 0 81.5 25t32.5 72q0 40 -25 64t-75 24h-81q-10 52 0 103h79q39 0 64 24
t25 64q0 41 -27.5 65t-74.5 24q-76 0 -179 -70q-6 10 -6 59.5t6 64.5q78 54 185 54z" />
    <glyph glyph-name="four" unicode="4" horiz-adv-x="580" 
d="M460 235h81q10 -54 0 -106h-81v-129q-65 -12 -130 0v129h-291q-10 52 0 106l319 415q51 10 102 0v-415zM331 468l-179 -233h179v233z" />
    <glyph glyph-name="five" unicode="5" horiz-adv-x="534" 
d="M149 650h314q10 -54 0 -108h-215l-22 -148q26 8 55 8q94 0 154.5 -54.5t60.5 -149.5q0 -98 -67.5 -156t-172.5 -58q-54 0 -107 15.5t-87 38.5q-6 16 -6 65t6 59q106 -70 185 -70q52 0 84.5 29t32.5 77q0 51 -38 79t-99 28q-58 0 -132 -33z" />
    <glyph glyph-name="six" unicode="6" horiz-adv-x="581" 
d="M339 416q86 -2 138.5 -61t52.5 -145q0 -95 -65.5 -160t-172.5 -65q-110 0 -175 67t-65 172q0 72 32 147t78.5 130t89 93.5t73.5 55.5q27 5 78.5 5t79.5 -5q-193 -152 -250 -265q46 32 106 31zM291 93q47 0 77 31.5t30 83.5q0 49 -29 78.5t-77 29.5q-58 0 -101 -43
q-7 -31 -7 -67q0 -49 29 -81t78 -32z" />
    <glyph glyph-name="seven" unicode="7" horiz-adv-x="550" 
d="M515 640l-297 -640q-70 -13 -140 0l254 542h-280q-10 54 0 108h463v-10z" />
    <glyph glyph-name="eight" unicode="8" horiz-adv-x="547" 
d="M273 665q100 0 159.5 -50t59.5 -126q0 -52 -25.5 -92.5t-68.5 -61.5q52 -21 81 -64t29 -99q0 -87 -66 -137.5t-169 -50.5t-169 50.5t-66 137.5q0 56 29 99t81 64q-43 21 -68.5 61.5t-25.5 92.5q0 76 59.5 126t159.5 50zM273 557q-41 0 -66 -25.5t-25 -63.5t24.5 -63.5
t61.5 -25.5h10q38 0 62 25.5t24 63.5t-25 63.5t-66 25.5zM278 278h-10q-43 0 -70.5 -25t-27.5 -67q0 -44 29 -69t74 -25t74 25t29 69q0 42 -27 67t-71 25z" />
    <glyph glyph-name="nine" unicode="9" horiz-adv-x="581" 
d="M290 665q110 0 175 -67t65 -172q0 -72 -32 -147t-78.5 -130t-89 -93.5t-73.5 -55.5q-28 -5 -79 -5t-79 5q92 72 154 135t95 130q-44 -32 -105 -31q-86 2 -138.5 61t-52.5 145q0 95 65.5 160t172.5 65zM291 557q-47 0 -77 -31.5t-30 -83.5q0 -49 29 -78.5t77 -29.5
q58 0 101 43q7 39 7 67q0 48 -29.5 80.5t-77.5 32.5z" />
    <glyph glyph-name="colon" unicode=":" horiz-adv-x="219" 
d="M109 274q-32 0 -53.5 20t-21.5 50q0 31 21.5 51t53.5 20t53.5 -20t21.5 -51q0 -30 -21.5 -50t-53.5 -20zM109 -15q-32 0 -53.5 20t-21.5 50q0 31 21.5 51t53.5 20t53.5 -20t21.5 -51q0 -30 -21.5 -50t-53.5 -20z" />
    <glyph glyph-name="semicolon" unicode=";" horiz-adv-x="226" 
d="M110 415q32 0 53.5 -20t21.5 -51q0 -30 -21.5 -50t-53.5 -20t-53.5 20t-21.5 50q0 31 21.5 51t53.5 20zM110 126q32 0 56.5 -22.5t25.5 -67.5q1 -53 -27.5 -109.5t-53.5 -73.5q-32 -7 -65 0q54 50 81 134q-14 -2 -18 -2q-31 0 -52.5 20t-21.5 50q0 31 21.5 51t53.5 20z
" />
    <glyph glyph-name="less" unicode="&#x3c;" horiz-adv-x="436" 
d="M40 287l357 188q12 -51 0 -103l-209 -106l209 -107q12 -52 0 -103l-357 189q-12 21 0 42z" />
    <glyph glyph-name="equal" unicode="=" horiz-adv-x="423" 
d="M40 388h344q11 -44 0 -90l-344 1q-11 45 0 89zM40 231h344q11 -44 0 -90l-344 1q-11 44 0 89z" />
    <glyph glyph-name="greater" unicode="&#x3e;" horiz-adv-x="436" 
d="M40 475l357 -188q12 -21 0 -42l-357 -189q-12 51 0 103l209 107l-209 106q-12 52 0 103z" />
    <glyph glyph-name="question" unicode="?" horiz-adv-x="485" 
d="M275 229q-65 -12 -130 0q0 49 16 74.5t65 64.5q43 32 56.5 43t25 29t11.5 39q0 35 -26 56.5t-71 21.5q-75 0 -182 -70q-6 10 -6 59.5t6 64.5q81 54 195 54q103 0 159.5 -51t56.5 -123q0 -28 -7 -49.5t-26.5 -44t-35.5 -36.5t-51 -42q-35 -26 -45.5 -41t-10.5 -49z
M210 -15q-32 0 -53.5 20t-21.5 50q0 31 21.5 51t53.5 20t53.5 -20t21.5 -51q0 -30 -21.5 -50t-53.5 -20z" />
    <glyph glyph-name="at" unicode="@" horiz-adv-x="914" 
d="M472 605q183 0 287 -104t104 -261q0 -71 -16.5 -123t-44 -79.5t-57.5 -40t-62 -12.5q-40 0 -76 17.5t-55 53.5q-28 -35 -59.5 -53t-79.5 -18q-85 0 -137 61.5t-52 153.5t52 153.5t137 61.5q83 0 134 -65l9 50q51 10 102 0v-259q0 -65 37 -65q34 0 56 40.5t22 123.5
q0 134 -81.5 208t-219.5 74q-142 0 -236 -85.5t-94 -232.5q0 -125 66.5 -198t153.5 -93q7 -11 7 -40t-6 -43q-129 17 -220 121.5t-91 253.5q0 171 118 285.5t302 114.5zM444 313q-45 0 -73.5 -31t-28.5 -82t28.5 -82t73.5 -31q53 0 96 43v140q-43 43 -96 43z" />
    <glyph glyph-name="A" unicode="A" horiz-adv-x="709" 
d="M409 650l267 -650q-67 -13 -134 0l-56 144h-262l-56 -144q-67 -13 -134 0l267 650q54 10 108 0zM265 253h180l-90 230z" />
    <glyph glyph-name="B" unicode="B" horiz-adv-x="610" 
d="M77 650h271q92 0 150 -47t58 -121q0 -102 -92 -145q51 -20 79.5 -60.5t28.5 -94.5q0 -84 -60 -133t-162 -49h-273v650zM206 542v-167h131q41 0 65 22t24 61q0 40 -24.5 62t-67.5 22h-128zM206 283v-175h136q47 0 72.5 23.5t25.5 65.5q0 41 -25.5 63.5t-74.5 22.5h-134z
" />
    <glyph glyph-name="C" unicode="C" horiz-adv-x="696" 
d="M420 93q97 0 197 64q6 -10 6 -57.5t-6 -60.5q-85 -54 -204 -54q-162 0 -261.5 98t-99.5 242t99.5 242t261.5 98q119 0 204 -54q6 -13 6 -60.5t-6 -57.5q-100 64 -197 64q-101 0 -168.5 -64.5t-67.5 -167.5t67.5 -167.5t168.5 -64.5z" />
    <glyph glyph-name="D" unicode="D" horiz-adv-x="709" 
d="M77 650h236q156 0 250.5 -92t94.5 -233t-94.5 -233t-250.5 -92h-236v650zM206 108h107q95 0 153.5 58t58.5 159t-58.5 159t-153.5 58h-107v-434z" />
    <glyph glyph-name="E" unicode="E" horiz-adv-x="567" 
d="M207 108h317q10 -54 0 -108h-447v650h447q10 -54 0 -108h-317v-158h285q10 -54 0 -108h-285v-168z" />
    <glyph glyph-name="F" unicode="F" horiz-adv-x="567" 
d="M207 377h285q10 -54 0 -108h-285v-269q-65 -12 -130 0v650h447q10 -54 0 -108h-317v-165z" />
    <glyph glyph-name="G" unicode="G" horiz-adv-x="708" 
d="M508 107v208q64 12 127 0v-276q-34 -23 -95 -38.5t-127 -15.5q-162 0 -261.5 98t-99.5 242t99.5 242t261.5 98q119 0 204 -54q6 -13 6 -60.5t-6 -57.5q-100 64 -197 64q-101 0 -168.5 -64.5t-67.5 -167.5q0 -105 67.5 -169.5t168.5 -64.5q46 0 88 16z" />
    <glyph glyph-name="H" unicode="H" horiz-adv-x="727" 
d="M522 384v266q65 12 129 0v-650q-65 -12 -129 0v276h-315v-276q-65 -12 -130 0v650q65 12 130 0v-266h315z" />
    <glyph glyph-name="I" unicode="I" horiz-adv-x="283" 
d="M207 650v-650q-65 -12 -130 0v650q65 12 130 0z" />
    <glyph glyph-name="J" unicode="J" horiz-adv-x="409" 
d="M332 650v-467q0 -95 -46.5 -146.5t-128.5 -51.5q-67 0 -118 32q-6 13 -6 54.5t6 51.5q44 -22 82 -22q82 0 82 94v455q64 12 129 0z" />
    <glyph glyph-name="K" unicode="K" horiz-adv-x="657" 
d="M345 334l279 -334q-28 -5 -77.5 -5t-77.5 5l-262 315v-315q-65 -12 -130 0v650q65 12 130 0v-297l251 297q28 5 77.5 5t77.5 -5z" />
    <glyph glyph-name="L" unicode="L" horiz-adv-x="541" 
d="M207 108h295q12 -54 0 -108h-425v650q65 12 130 0v-542z" />
    <glyph glyph-name="M" unicode="M" horiz-adv-x="914" 
d="M727 650l153 -650q-63 -12 -126 0l-94 419l-151 -419q-51 -10 -104 0l-151 419l-93 -419q-63 -12 -127 0l153 650q54 10 109 0l161 -447l161 447q55 10 109 0z" />
    <glyph glyph-name="N" unicode="N" horiz-adv-x="720" 
d="M646 650v-650q-50 -10 -102 0l-341 432v-432q-65 -12 -130 0v650q51 10 102 0l342 -432v432q65 12 129 0z" />
    <glyph glyph-name="O" unicode="O" horiz-adv-x="790" 
d="M395 665q151 0 247.5 -98.5t96.5 -241.5t-96.5 -241.5t-247.5 -98.5q-150 0 -246.5 98.5t-96.5 241.5t96.5 241.5t246.5 98.5zM395 557q-90 0 -150.5 -64.5t-60.5 -167.5t60.5 -167.5t150.5 -64.5t151 64.5t61 167.5t-61 167.5t-151 64.5z" />
    <glyph glyph-name="P" unicode="P" horiz-adv-x="617" 
d="M77 650h247q110 0 176 -60t66 -155t-66 -155t-176 -60h-117v-220q-65 -12 -130 0v650zM206 328h117q51 0 81 28.5t30 78.5q0 49 -30 78t-81 29h-117v-214z" />
    <glyph glyph-name="Q" unicode="Q" horiz-adv-x="790" 
d="M395 665q151 0 247.5 -98.5t96.5 -241.5q0 -108 -58.5 -194.5t-157.5 -121.5l122 -174q-67 -13 -135 0l-106 150h-16q-148 2 -242 100.5t-94 239.5q0 143 96.5 241.5t246.5 98.5zM395 557q-90 0 -150.5 -64.5t-60.5 -167.5t60.5 -167.5t150.5 -64.5t151 64.5t61 167.5
t-61 167.5t-151 64.5z" />
    <glyph glyph-name="R" unicode="R" horiz-adv-x="636" 
d="M77 650h253q110 0 176 -59t66 -153q0 -68 -36 -119t-102 -73l167 -246q-71 -13 -142 0l-155 227h-97v-227q-65 -12 -130 0v650zM206 542v-207h123q51 0 81 27.5t30 75.5t-30 76t-81 28h-123z" />
    <glyph glyph-name="S" unicode="S" horiz-adv-x="557" 
d="M280 665q101 0 182 -54q6 -15 6.5 -64.5t-6.5 -59.5q-107 70 -181 70q-45 0 -71.5 -21.5t-26.5 -56.5q0 -36 28.5 -54t106.5 -42q40 -12 67.5 -24.5t58 -35t46.5 -57.5t16 -82q0 -94 -66 -146.5t-167 -52.5q-113 0 -198 54q-6 14 -6 64.5t6 60.5q109 -71 193 -71
q50 0 78 22.5t28 58.5q0 38 -28 56t-109 43q-39 13 -67 26.5t-57.5 35.5t-45 55t-15.5 76q0 84 61 141.5t167 57.5z" />
    <glyph glyph-name="T" unicode="T" horiz-adv-x="587" 
d="M39 650h509q10 -54 0 -108h-190v-542q-64 -12 -129 0v542h-190q-10 54 0 108z" />
    <glyph glyph-name="U" unicode="U" horiz-adv-x="693" 
d="M488 246v404q66 12 132 0v-385q0 -140 -70.5 -210t-200.5 -70t-201 70t-71 210v385q66 12 132 0v-404q0 -70 37 -111.5t103 -41.5t102.5 41.5t36.5 111.5z" />
    <glyph glyph-name="V" unicode="V" horiz-adv-x="699" 
d="M350 193l182 457q67 13 134 0l-262 -650q-54 -10 -108 0l-262 650q67 13 134 0z" />
    <glyph glyph-name="W" unicode="W" horiz-adv-x="1019" 
d="M986 650l-224 -650q-54 -10 -108 0l-144 435l-144 -435q-54 -10 -108 0l-224 650q67 13 134 0l144 -457l144 457q54 10 108 0l144 -457l144 457q67 13 134 0z" />
    <glyph glyph-name="X" unicode="X" horiz-adv-x="662" 
d="M418 334l210 -334q-28 -5 -74.5 -5t-73.5 5l-153 243l-144 -243q-28 -5 -74.5 -5t-74.5 5l210 334l-201 316q28 5 74.5 5t74.5 -5l143 -227l135 227q28 5 74.5 5t74.5 -5z" />
    <glyph glyph-name="Y" unicode="Y" horiz-adv-x="679" 
d="M405 232v-232q-65 -12 -130 0v232l-241 418q69 13 139 0l167 -297l166 297q70 13 139 0z" />
    <glyph glyph-name="Z" unicode="Z" horiz-adv-x="559" 
d="M229 108h286q10 -54 0 -108h-477v10l292 532h-276q-10 54 0 108h466v-10z" />
    <glyph glyph-name="bracketleft" unicode="[" horiz-adv-x="290" 
d="M152 -10l98 1q10 -51 0 -103h-216v761l216 1q10 -51 0 -103h-98v-557z" />
    <glyph glyph-name="backslash" unicode="\" horiz-adv-x="350" 
d="M205 0l-171 650q55 10 110 0l171 -650q-55 -10 -110 0z" />
    <glyph glyph-name="bracketright" unicode="]" horiz-adv-x="290" 
d="M256 -112h-216q-10 52 0 103l98 -1v557h-98q-10 52 0 103l216 -1v-761z" />
    <glyph glyph-name="asciicircum" unicode="^" horiz-adv-x="411" 
d="M205 650l165 -166q6 -16 6.5 -66.5t-6.5 -60.5l-165 167l-165 -167q-6 10 -6 60.5t6 66.5z" />
    <glyph glyph-name="underscore" unicode="_" horiz-adv-x="472" 
d="M40 -32h393q11 -44 0 -90l-393 1q-11 45 0 89z" />
    <glyph glyph-name="grave" unicode="`" horiz-adv-x="259" 
d="M111 919l113 -163q-7 -14 -26.5 -29t-35.5 -18l-128 150q7 15 34 36t43 24z" />
    <glyph glyph-name="a" unicode="a" horiz-adv-x="478" 
d="M231 415q188 0 188 -188v-227q-51 -10 -102 0l-7 43q-51 -58 -128 -58q-60 0 -100.5 34.5t-40.5 94.5q0 59 40.5 94t104.5 35q71 0 115 -38v32q0 83 -94 83q-61 0 -127 -38q-7 10 -6.5 45.5t6.5 49.5q57 38 151 38zM217 170q-29 0 -44 -13.5t-15 -34.5t15 -35t43 -14
q48 0 85 30v38q-13 11 -37 20t-47 9z" />
    <glyph glyph-name="b" unicode="b" 
d="M305 415q85 0 137 -61.5t52 -153.5t-52 -153.5t-137 -61.5q-83 0 -134 65l-9 -50q-51 -10 -102 0v650q59 11 118 0v-291q48 56 127 56zM273 87q46 0 74.5 31t28.5 82t-28.5 82t-74.5 31q-54 0 -95 -43v-140q41 -43 95 -43z" />
    <glyph glyph-name="c" unicode="c" horiz-adv-x="471" 
d="M281 84q56 0 125 41q7 -10 6.5 -47t-6.5 -50q-55 -43 -137 -43q-100 0 -162.5 60t-62.5 155t62.5 155t162.5 60q82 0 137 -43q6 -13 6.5 -50t-6.5 -47q-69 41 -125 41q-51 0 -85 -31.5t-34 -84.5t34 -84.5t85 -31.5z" />
    <glyph glyph-name="d" unicode="d" 
d="M360 359v291q59 11 118 0v-650q-52 -10 -103 0l-8 50q-51 -65 -134 -65q-85 0 -137 61.5t-52 153.5t52 153.5t137 61.5q79 0 127 -56zM360 130v140q-43 43 -96 43q-45 0 -73.5 -31t-28.5 -82t28.5 -82t73.5 -31q53 0 96 43z" />
    <glyph glyph-name="e" unicode="e" horiz-adv-x="496" 
d="M260 415q57 0 100 -23t63 -58t28.5 -75.5t-3.5 -74.5h-285q5 -47 37.5 -73.5t81.5 -26.5q63 0 132 41q6 -10 6 -47t-6 -50q-57 -43 -145 -43q-102 0 -163.5 60t-61.5 156q0 94 60.5 154t155.5 60zM261 326q-36 0 -60 -21t-31 -59h171q-1 37 -23 58.5t-57 21.5z" />
    <glyph glyph-name="f" unicode="f" horiz-adv-x="380" 
d="M270 566q-56 0 -56 -64v-102h109q11 -50 0 -99h-109v-301q-59 -11 -118 0v301h-59q-11 49 0 99h59v126q0 66 41.5 102.5t101.5 36.5q54 0 102 -21q6 -14 6 -53.5t-6 -49.5q-46 25 -71 25z" />
    <glyph glyph-name="g" unicode="g" 
d="M233 415q83 0 134 -65l8 50q51 10 103 0v-383q0 -90 -56.5 -142.5t-154.5 -52.5q-101 0 -156 41q-6 13 -6 49t6 46q63 -39 132 -39q52 0 84.5 22.5t32.5 69.5v37q-49 -55 -127 -55q-85 0 -137 61t-52 150t52 150t137 61zM264 313q-45 0 -73.5 -30t-28.5 -79t28.5 -79
t73.5 -30q53 0 96 43v132q-43 43 -96 43z" />
    <glyph glyph-name="h" unicode="h" horiz-adv-x="511" 
d="M302 415q77 0 113.5 -45.5t36.5 -111.5v-258q-59 -11 -118 0v232q0 81 -72 81q-46 0 -82 -38v-275q-59 -11 -118 0v650q59 11 118 0v-290q59 55 122 55z" />
    <glyph glyph-name="i" unicode="i" horiz-adv-x="273" 
d="M137 641q32 0 53.5 -20t21.5 -51t-21.5 -51t-53.5 -20t-53.5 20t-21.5 51t21.5 51t53.5 20zM196 400v-400q-59 -11 -118 0v400q59 11 118 0z" />
    <glyph glyph-name="j" unicode="j" horiz-adv-x="300" 
d="M165 639q32 0 53.5 -20t21.5 -50t-21.5 -50t-53.5 -20q-31 0 -52.5 20t-21.5 50t21.5 50t52.5 20zM224 400v-446q0 -65 -31 -98.5t-86 -33.5t-97 20q-6 13 -6 50.5t6 47.5q41 -19 65 -19q18 0 24.5 11.5t6.5 38.5v429q59 11 118 0z" />
    <glyph glyph-name="k" unicode="k" horiz-adv-x="496" 
d="M297 209l166 -209q-67 -13 -134 0l-149 191v-191q-59 -11 -118 0v650q59 11 118 0v-424l144 174q67 13 134 0z" />
    <glyph glyph-name="l" unicode="l" horiz-adv-x="239" 
d="M180 650v-650q-59 -11 -118 0v650q59 11 118 0z" />
    <glyph glyph-name="m" unicode="m" horiz-adv-x="783" 
d="M576 415q76 0 112 -45.5t36 -111.5v-258q-59 -11 -118 0v232q0 81 -70 81q-44 0 -85 -41v-272q-59 -11 -118 0v232q0 81 -70 81q-46 0 -85 -41v-272q-59 -11 -118 0v400q51 10 102 0l9 -52q59 67 132 67q97 0 132 -77q64 77 141 77z" />
    <glyph glyph-name="n" unicode="n" horiz-adv-x="512" 
d="M304 415q77 0 113.5 -45.5t36.5 -111.5v-258q-59 -11 -118 0v232q0 81 -72 81q-47 0 -86 -41v-272q-59 -11 -118 0v400q51 10 102 0l9 -52q59 67 133 67z" />
    <glyph glyph-name="o" unicode="o" horiz-adv-x="529" 
d="M264 415q96 0 158 -62.5t62 -152.5t-62 -152.5t-158 -62.5t-158 62.5t-62 152.5t62 152.5t158 62.5zM264 313q-44 0 -73 -31t-29 -82t29 -82t73 -31t73 31t29 82t-29 82t-73 31z" />
    <glyph glyph-name="p" unicode="p" horiz-adv-x="540" 
d="M307 415q85 0 137 -61.5t52 -153.5t-52 -153.5t-137 -61.5q-79 0 -127 56v-204q-59 -11 -118 0v563q51 10 102 0l9 -50q51 65 134 65zM275 87q46 0 74.5 31t28.5 82t-28.5 82t-74.5 31q-54 0 -95 -43v-140q41 -43 95 -43z" />
    <glyph glyph-name="q" unicode="q" 
d="M367 350l8 50q51 10 103 0v-563q-59 -11 -118 0v204q-48 -56 -127 -56q-85 0 -137 61.5t-52 153.5t52 153.5t137 61.5q83 0 134 -65zM360 130v140q-43 43 -96 43q-45 0 -73.5 -31t-28.5 -82t28.5 -82t73.5 -31q53 0 96 43z" />
    <glyph glyph-name="r" unicode="r" horiz-adv-x="408" 
d="M370 397q6 -10 6 -58.5t-6 -62.5q-47 31 -87 31q-30 0 -59 -21.5t-46 -53.5v-232q-59 -11 -118 0v400q51 10 102 0l13 -73q50 88 126 88q43 0 69 -18z" />
    <glyph glyph-name="s" unicode="s" horiz-adv-x="405" 
d="M237 247q64 -21 97 -50.5t33 -80.5q0 -63 -49 -97t-120 -34q-39 0 -80 9.5t-62 24.5q-6 14 -6.5 47t6.5 43q74 -47 136 -47q25 0 41 10t16 29q0 17 -14.5 25.5t-51.5 20.5q-3 1 -5 1.5t-5 1.5l-6 2q-62 21 -95.5 49t-33.5 82q0 61 45 96.5t118 35.5q39 0 78.5 -9.5
t61.5 -24.5q6 -14 6 -47t-6 -43q-76 47 -130 47q-24 0 -40 -11t-16 -29q0 -5 1 -9t4 -7.5t5.5 -6t7.5 -5.5t9.5 -5t12 -4.5t12.5 -4t14.5 -4.5t15.5 -5z" />
    <glyph glyph-name="t" unicode="t" horiz-adv-x="383" 
d="M328 124q7 -10 6.5 -47t-6.5 -51q-37 -41 -110 -41q-57 0 -89.5 33.5t-32.5 98.5v184h-59q-11 49 0 99h59v130q59 11 118 0v-130h112q11 -50 0 -99h-112v-167q0 -50 35 -50q33 0 79 40z" />
    <glyph glyph-name="u" unicode="u" horiz-adv-x="510" 
d="M334 128v272q59 11 118 0v-400q-52 -10 -102 0l-9 52q-59 -67 -133 -67q-78 0 -114 45.5t-36 111.5v258q59 11 118 0v-232q0 -81 72 -81q45 0 86 41z" />
    <glyph glyph-name="v" unicode="v" horiz-adv-x="518" 
d="M259 155l103 245q62 12 124 0l-179 -400q-48 -12 -96 0l-179 400q62 12 124 0z" />
    <glyph glyph-name="w" unicode="w" horiz-adv-x="751" 
d="M187 0l-155 400q63 12 125 0l79 -244l91 244q49 12 97 0l91 -244l79 244q62 12 125 0l-155 -400q-48 -12 -96 0l-92 252l-93 -252q-48 -12 -96 0z" />
    <glyph glyph-name="x" unicode="x" horiz-adv-x="507" 
d="M333 209l141 -209q-66 -12 -132 0l-92 132l-88 -132q-65 -12 -130 0l142 209l-134 191q66 13 133 0l84 -120l80 120q64 12 130 0z" />
    <glyph glyph-name="y" unicode="y" horiz-adv-x="518" 
d="M259 161l103 239q62 12 124 0l-256 -563q-60 -11 -120 0l89 196l-167 367q62 12 124 0z" />
    <glyph glyph-name="z" unicode="z" horiz-adv-x="432" 
d="M212 102l178 1q10 -51 0 -103h-353v9l183 289h-167q-10 51 0 102h342v-9z" />
    <glyph glyph-name="braceleft" unicode="{" horiz-adv-x="335" 
d="M141 269q35 -19 53 -39.5t22 -52.5q8 -61 12 -86.5t22.5 -82.5t49.5 -120q-57 -11 -114 0q-80 138 -91 308q-1 22 -12.5 35t-48.5 30v16q37 17 48.5 30t12.5 35q11 170 91 308q57 11 114 0q-31 -63 -49.5 -120t-22.5 -82.5t-12 -86.5q-4 -32 -22 -52.5t-53 -39.5z" />
    <glyph glyph-name="bar" unicode="|" horiz-adv-x="144" 
d="M110 650v-710q-38 -9 -76 0v710q38 9 76 0z" />
    <glyph glyph-name="braceright" unicode="}" horiz-adv-x="335" 
d="M239 342q1 -22 12.5 -35t48.5 -30v-16q-37 -17 -48.5 -30t-12.5 -35q-11 -170 -91 -308q-57 -11 -114 0q31 63 49.5 120t22.5 82.5t12 86.5q4 32 22 52.5t53 39.5q-35 19 -53 39.5t-22 52.5q-8 61 -12 86.5t-22.5 82.5t-49.5 120q57 11 114 0q80 -138 91 -308z" />
    <glyph glyph-name="asciitilde" unicode="~" horiz-adv-x="461" 
d="M154 307q34 0 80 -24.5t75 -24.5q13 0 25.5 2.5t26.5 8.5t21.5 9.5t22.5 11.5t17 9q11 -46 0 -90q-2 -1 -22 -12t-29 -15t-27.5 -9t-35.5 -5q-34 0 -80 24.5t-75 24.5q-13 0 -25.5 -2.5t-26.5 -8.5t-21.5 -9.5t-22.5 -11.5t-17 -9q-11 46 0 90q2 1 22 12t29 15t27.5 9
t35.5 5z" />
    <glyph glyph-name="exclamdown" unicode="&#xa1;" horiz-adv-x="219" 
d="M109 494q32 0 53.5 -20t21.5 -50q0 -31 -21.5 -51t-53.5 -20t-53.5 20t-21.5 51q0 30 21.5 50t53.5 20zM174 -58v-113q-65 -12 -130 0v113l27 308q38 10 75 0z" />
    <glyph glyph-name="cent" unicode="&#xa2;" horiz-adv-x="470" 
d="M281 84q56 0 125 41q7 -10 6.5 -47t-6.5 -50q-47 -37 -115 -42v-94q-21 -11 -43 0v94q-92 7 -148 65.5t-56 148.5t56 148.5t148 65.5v94q22 11 43 0v-94q68 -5 115 -42q6 -13 6.5 -50t-6.5 -47q-69 41 -125 41q-51 0 -85 -31.5t-34 -84.5t34 -84.5t85 -31.5z" />
    <glyph glyph-name="sterling" unicode="&#xa3;" horiz-adv-x="575" 
d="M221 108h275q10 -54 0 -108h-427v10q29 44 41 96.5t11 92.5t-9 96h-73q-11 21 0 43h66q-12 82 -12 124q0 87 59 145t167 58q112 0 177 -54q6 -15 6 -64.5t-6 -59.5q-92 70 -167 70q-47 0 -76 -27t-29 -74q0 -43 15 -118h176q11 -22 0 -43h-167q15 -122 -27 -187z" />
    <glyph glyph-name="currency" unicode="&#xa4;" horiz-adv-x="370" 
d="M335 427l-43 -43q26 -34 26 -77.5t-26 -78.5l43 -42q-6 -23 -30 -31l-43 43q-34 -25 -77.5 -24.5t-77.5 25.5l-43 -44q-22 8 -30 31l43 43q-25 35 -25 78t25 77l-43 43q8 22 30 30l43 -43q35 26 78 26t77 -26l43 43q24 -8 30 -30zM139 261q20 -20 46 -20t46 19
q19 19 18.5 45.5t-19.5 46.5q-20 19 -46.5 19.5t-45.5 -18.5t-18.5 -45.5t19.5 -46.5z" />
    <glyph glyph-name="yen" unicode="&#xa5;" horiz-adv-x="679" 
d="M405 155h131q11 -21 0 -43h-131v-112q-65 -12 -130 0v112h-131q-11 22 0 43h131v64h-131q-11 21 0 42h115l-225 389q69 13 139 0l167 -297l166 297q70 13 139 0l-224 -389h115q11 -21 0 -42h-131v-64z" />
    <glyph glyph-name="brokenbar" unicode="&#xa6;" horiz-adv-x="144" 
d="M110 650v-312q-38 -9 -76 0v312q38 9 76 0zM110 252v-312q-38 -9 -76 0v312q38 9 76 0z" />
    <glyph glyph-name="section" unicode="&#xa7;" horiz-adv-x="398" 
d="M197 549q39 0 78.5 -9.5t61.5 -24.5q6 -14 6 -47t-6 -43q-76 47 -130 47q-24 0 -40 -11t-16 -29q0 -5 1 -9t4 -7.5t5.5 -6t7.5 -5.5t9.5 -5t12 -4.5t12.5 -4t14.5 -4.5t15.5 -5q66 -22 98 -52t32 -79q0 -61 -51 -96q51 -35 51 -95q0 -62 -45.5 -97.5t-119.5 -35.5
q-38 0 -78 9.5t-61 24.5q-6 15 -6.5 47.5t6.5 42.5q74 -47 130 -47q24 0 40.5 11t16.5 30q0 18 -16 27.5t-52 20.5q-9 2 -14 4q-66 21 -98 51t-32 79q0 60 53 96q-53 35 -53 95q0 61 45 96.5t118 35.5zM163 286l-24 8q-23 -8 -23 -25q0 -10 3 -18t11.5 -14.5t14.5 -11.5
t20.5 -10.5t21.5 -8t25 -8t23 -7.5l26 -10q20 9 20 26q0 10 -3 18t-11.5 15t-14 12t-20.5 10.5t-21 8t-25 8.5t-23 7z" />
    <glyph glyph-name="dieresis" unicode="&#xa8;" horiz-adv-x="461" 
d="M109 877q32 0 53.5 -20t21.5 -51t-21.5 -51t-53.5 -20t-53.5 20t-21.5 51t21.5 51t53.5 20zM352 877q32 0 53.5 -20t21.5 -51t-21.5 -51t-53.5 -20t-53.5 20t-21.5 51t21.5 51t53.5 20z" />
    <glyph glyph-name="copyright" unicode="&#xa9;" horiz-adv-x="611" 
d="M305 700q113 0 192 -79t79 -191t-79 -191t-192 -79t-192 79t-79 191t79 191t192 79zM305 647q-91 0 -154 -63.5t-63 -153.5t63 -154t154 -64q92 0 155 63.5t63 154.5q0 90 -63 153.5t-155 63.5zM314 566q52 0 87 -27q4 -9 4.5 -32t-4.5 -29q-42 26 -79 26
q-33 0 -55 -20.5t-22 -54.5t22 -54t55 -20q39 0 79 26q5 -6 4.5 -29.5t-4.5 -31.5q-34 -28 -87 -28q-64 0 -104 38.5t-40 98.5q0 61 40 99t104 38z" />
    <glyph glyph-name="guillemotleft" unicode="&#xab;" horiz-adv-x="461" 
d="M151 217l94 -156q-46 -9 -91 0l-120 156l120 156q45 9 91 0zM332 217l94 -156q-46 -9 -91 0l-120 156l120 156q45 9 91 0z" />
    <glyph glyph-name="logicalnot" unicode="&#xac;" horiz-adv-x="418" 
d="M384 307l-1 -189q-47 -11 -94 0v99l-249 1q-11 44 0 89h344z" />
    <glyph glyph-name="registered" unicode="&#xae;" horiz-adv-x="611" 
d="M305 700q113 0 192 -79t79 -191t-79 -191t-192 -79t-192 79t-79 191t79 191t192 79zM305 647q-91 0 -154 -63.5t-63 -153.5t63 -154t154 -64q92 0 155 63.5t63 154.5q0 90 -63 153.5t-155 63.5zM190 560h145q43 0 67.5 -22.5t24.5 -66.5q0 -55 -51 -72l71 -96
q-41 -11 -82 0l-64 85h-36v-85q-38 -10 -75 0v257zM265 506v-64h50q38 0 38 32t-38 32h-50z" />
    <glyph glyph-name="macron" unicode="&#xaf;" horiz-adv-x="338" 
d="M40 825h259q11 -44 0 -90l-259 1q-11 44 0 89z" />
    <glyph glyph-name="degree" unicode="&#xb0;" horiz-adv-x="322" 
d="M160 733q53 0 90 -36.5t37 -89.5q0 -52 -37 -89t-90 -37q-52 0 -89 37t-37 89q0 53 37 89.5t89 36.5zM160 658q-21 0 -36 -14.5t-15 -36.5t15 -36.5t36 -14.5q22 0 37 14.5t15 36.5t-15 36.5t-37 14.5z" />
    <glyph glyph-name="plusminus" unicode="&#xb1;" horiz-adv-x="423" 
d="M169 285h-129q-11 45 0 89h129v78q43 10 87 0l-1 -78h129q11 -44 0 -90h-129v-77q-43 -10 -86 0v78zM40 168h344q11 -44 0 -90l-344 1q-11 45 0 89z" />
    <glyph glyph-name="acute" unicode="&#xb4;" horiz-adv-x="259" 
d="M34 756l113 163q16 -3 43 -24t34 -36l-128 -150q-16 3 -35.5 18t-26.5 29z" />
    <glyph glyph-name="paragraph" unicode="&#xb6;" horiz-adv-x="609" 
d="M241 650h328q9 -38 0 -75h-62v-738q-38 -9 -75 0v738h-115v-738q-38 -9 -76 0v421q-53 0 -97.5 17.5t-77 62.5t-32.5 112q0 99 62 149.5t145 50.5z" />
    <glyph glyph-name="periodcentered" unicode="&#xb7;" horiz-adv-x="219" 
d="M109 177q-32 0 -53.5 20t-21.5 50q0 31 21.5 51t53.5 20t53.5 -20t21.5 -51q0 -30 -21.5 -50t-53.5 -20z" />
    <glyph glyph-name="cedilla" unicode="&#xb8;" horiz-adv-x="243" 
d="M128 0v-52q30 2 55.5 -19t25.5 -58q0 -38 -27 -62t-69 -24q-41 0 -74 21q-5 11 -5 31t5 30q38 -26 66 -26q44 2 44 37q0 24 -23.5 33t-54.5 -4v93h57z" />
    <glyph glyph-name="guillemotright" unicode="&#xbb;" horiz-adv-x="461" 
d="M245 217l-119 -156q-46 -9 -92 0l94 156l-94 156q46 9 92 0zM426 217l-119 -156q-46 -9 -92 0l94 156l-94 156q46 9 92 0z" />
    <glyph glyph-name="onequarter" unicode="&#xbc;" horiz-adv-x="657" 
d="M196 650v-310q-45 -10 -88 0v224l-68 -49q-5 7 -5 34.5t5 36.5l89 64q33 10 67 0zM512 650l-308 -650q-38 -10 -75 0l308 650q37 10 75 0zM578 121h39q9 -34 0 -67h-39v-54q-45 -10 -88 0v54h-127q-9 34 0 67l148 189q33 10 67 0v-189zM423 121h67v86z" />
    <glyph glyph-name="onehalf" unicode="&#xbd;" horiz-adv-x="688" 
d="M190 650v-310q-45 -10 -88 0v224l-68 -49q-5 7 -5 34.5t5 36.5l89 64q33 10 67 0zM507 650l-308 -650q-37 -10 -75 0l308 650q38 10 75 0zM519 325q59 0 91.5 -31.5t32.5 -75.5q0 -36 -22.5 -69t-77.5 -77h105q12 -36 0 -72h-241v7q91 92 120 133.5t29 70.5
q0 17 -13.5 29.5t-37.5 12.5q-34 0 -80 -35q-3 4 -3 38.5t3 41.5q35 27 94 27z" />
    <glyph glyph-name="threequarters" unicode="&#xbe;" horiz-adv-x="695" 
d="M262 422q0 -45 -33.5 -71t-87.5 -26q-66 0 -103 28q-3 8 -3.5 38.5t3.5 35.5q55 -35 91 -35q21 0 36.5 10t15.5 29q0 37 -50 37h-35q-5 30 0 61h34q19 0 31 9.5t12 24.5q0 16 -12.5 25.5t-32.5 9.5q-33 0 -88 -35q-3 5 -2.5 35.5t2.5 38.5q40 28 98 28q54 0 85.5 -26
t31.5 -64q0 -48 -45 -74q52 -21 52 -79zM168 0l308 650q38 10 75 0l-308 -650q-37 -10 -75 0zM617 121h39q9 -34 0 -67h-39v-54q-45 -10 -88 0v54h-127q-9 34 0 67l148 189q34 10 67 0v-189zM529 207l-67 -86h67v86z" />
    <glyph glyph-name="questiondown" unicode="&#xbf;" horiz-adv-x="485" 
d="M275 496q32 0 53.5 -20t21.5 -50q0 -31 -21.5 -51t-53.5 -20t-53.5 20t-21.5 51q0 30 21.5 50t53.5 20zM210 252q65 12 130 0q0 -49 -16 -74.5t-66 -64.5q-65 -50 -78 -65q-15 -20 -15 -46q0 -35 26.5 -56.5t71.5 -21.5q74 0 181 70q7 -10 6.5 -59.5t-6.5 -64.5
q-81 -54 -195 -54q-103 0 -159 51t-56 123q0 28 7 49.5t26.5 44t35.5 36.5t51 42q35 27 45.5 41.5t10.5 48.5z" />
    <glyph glyph-name="Agrave" unicode="&#xc0;" horiz-adv-x="709" 
d="M337 919l113 -163q-7 -14 -26.5 -29t-35.5 -18l-128 150q7 15 34 36t43 24zM409 650l267 -650q-67 -13 -134 0l-56 144h-262l-56 -144q-67 -13 -134 0l267 650q54 10 108 0zM265 253h180l-90 230z" />
    <glyph glyph-name="Aacute" unicode="&#xc1;" horiz-adv-x="709" 
d="M260 756l113 163q16 -3 43 -24t34 -36l-128 -150q-16 3 -35.5 18t-26.5 29zM409 650l267 -650q-67 -13 -134 0l-56 144h-262l-56 -144q-67 -13 -134 0l267 650q54 10 108 0zM265 253h180l-90 230z" />
    <glyph glyph-name="Acircumflex" unicode="&#xc2;" horiz-adv-x="709" 
d="M375 908l139 -139q-6 -16 -28 -37t-38 -25l-93 95l-93 -95q-15 5 -37 25.5t-28 36.5l138 139q8 7 20.5 7t19.5 -7zM409 650l267 -650q-67 -13 -134 0l-56 144h-262l-56 -144q-67 -13 -134 0l267 650q54 10 108 0zM265 253h180l-90 230z" />
    <glyph glyph-name="Atilde" unicode="&#xc3;" horiz-adv-x="709" 
d="M291 856q27 0 75 -22q27 -12 52 -12q28 0 86 30q11 -46 0 -90q-3 -1 -13 -6.5t-14 -7.5t-13 -6t-15 -5.5t-14.5 -3t-16.5 -1.5q-27 0 -75 22q-27 12 -52 12q-28 0 -86 -30q-11 46 0 90q3 1 13 6.5t14 7.5t13 6t15 5.5t14.5 3t16.5 1.5zM409 650l267 -650q-67 -13 -134 0
l-56 144h-262l-56 -144q-67 -13 -134 0l267 650q54 10 108 0zM265 253h180l-90 230z" />
    <glyph glyph-name="Adieresis" unicode="&#xc4;" horiz-adv-x="709" 
d="M234 877q32 0 53.5 -20t21.5 -51t-21.5 -51t-53.5 -20t-53.5 20t-21.5 51t21.5 51t53.5 20zM477 877q32 0 53.5 -20t21.5 -51t-21.5 -51t-53.5 -20t-53.5 20t-21.5 51t21.5 51t53.5 20zM409 650l267 -650q-67 -13 -134 0l-56 144h-262l-56 -144q-67 -13 -134 0l267 650
q54 10 108 0zM265 253h180l-90 230z" />
    <glyph glyph-name="Aring" unicode="&#xc5;" horiz-adv-x="709" 
d="M355 915q40 0 68 -28t28 -67q0 -40 -28 -68t-68 -28t-68.5 28t-28.5 68q0 39 28.5 67t68.5 28zM355 851q-13 0 -22.5 -9t-9.5 -22t9.5 -22.5t22.5 -9.5t22 9.5t9 22.5t-9 22t-22 9zM409 650l267 -650q-67 -13 -134 0l-56 144h-262l-56 -144q-67 -13 -134 0l267 650
q54 10 108 0zM265 253h180l-90 230z" />
    <glyph glyph-name="AE" unicode="&#xc6;" horiz-adv-x="843" 
d="M482 108h318q10 -54 0 -108h-447v144h-129l-56 -144q-67 -13 -134 0l267 650h499q10 -54 0 -108h-317l-1 -158h285q12 -54 0 -108h-285v-168zM353 478l-88 -225h88v225z" />
    <glyph glyph-name="Ccedilla" unicode="&#xc7;" horiz-adv-x="695" 
d="M420 93q97 0 197 64q6 -10 6 -57.5t-6 -60.5q-76 -48 -179 -53v-38q30 2 55.5 -19t25.5 -58q0 -38 -27 -62t-69 -24q-41 0 -74 21q-5 11 -5 31t5 30q38 -26 66 -26q44 2 44 37q0 24 -23.5 33t-54.5 -4v79q-149 10 -239 106.5t-90 232.5q0 144 99.5 242t261.5 98
q119 0 204 -54q6 -13 6 -60.5t-6 -57.5q-100 64 -197 64q-101 0 -168.5 -64.5t-67.5 -167.5t67.5 -167.5t168.5 -64.5z" />
    <glyph glyph-name="Egrave" unicode="&#xc8;" horiz-adv-x="567" 
d="M277 919l113 -163q-7 -14 -26.5 -29t-35.5 -18l-128 150q7 15 34 36t43 24zM207 108h317q10 -54 0 -108h-447v650h447q10 -54 0 -108h-317v-158h285q10 -54 0 -108h-285v-168z" />
    <glyph glyph-name="Eacute" unicode="&#xc9;" horiz-adv-x="567" 
d="M200 756l113 163q16 -3 43 -24t34 -36l-128 -150q-16 3 -35.5 18t-26.5 29zM207 108h317q10 -54 0 -108h-447v650h447q10 -54 0 -108h-317v-158h285q10 -54 0 -108h-285v-168z" />
    <glyph glyph-name="Ecircumflex" unicode="&#xca;" horiz-adv-x="567" 
d="M314 908l139 -139q-6 -16 -28 -37t-38 -25l-93 95l-93 -95q-15 5 -37 25.5t-28 36.5l138 139q8 7 20 7t20 -7zM207 108h317q10 -54 0 -108h-447v650h447q10 -54 0 -108h-317v-158h285q10 -54 0 -108h-285v-168z" />
    <glyph glyph-name="Edieresis" unicode="&#xcb;" horiz-adv-x="567" 
d="M178 877q32 0 53.5 -20t21.5 -51t-21.5 -51t-53.5 -20t-53.5 20t-21.5 51t21.5 51t53.5 20zM420 877q32 0 53.5 -20t21.5 -51t-21.5 -51t-53.5 -20t-53.5 20t-21.5 51t21.5 51t53.5 20zM207 108h317q10 -54 0 -108h-447v650h447q10 -54 0 -108h-317v-158h285
q10 -54 0 -108h-285v-168z" />
    <glyph glyph-name="Igrave" unicode="&#xcc;" horiz-adv-x="283" 
d="M123 919l113 -163q-7 -14 -26.5 -29t-35.5 -18l-128 150q7 15 34 36t43 24zM207 650v-650q-65 -12 -130 0v650q65 12 130 0z" />
    <glyph glyph-name="Iacute" unicode="&#xcd;" horiz-adv-x="283" 
d="M46 756l113 163q16 -3 43 -24t34 -36l-128 -150q-16 3 -35.5 18t-26.5 29zM207 650v-650q-65 -12 -130 0v650q65 12 130 0z" />
    <glyph glyph-name="Icircumflex" unicode="&#xce;" horiz-adv-x="283" 
d="M161 908l139 -139q-6 -16 -28 -36.5t-37 -25.5l-94 95l-93 -95q-15 5 -37 25.5t-28 36.5l138 139q8 7 20.5 7t19.5 -7zM207 650v-650q-65 -12 -130 0v650q65 12 130 0z" />
    <glyph glyph-name="Idieresis" unicode="&#xcf;" horiz-adv-x="283" 
d="M21 877q31 0 53 -20.5t22 -50.5t-22 -50.5t-53 -20.5q-32 0 -53.5 20t-21.5 51t21.5 51t53.5 20zM263 877q32 0 53.5 -20t21.5 -51t-21.5 -51t-53.5 -20t-53.5 20t-21.5 51t21.5 51t53.5 20zM207 650v-650q-65 -12 -130 0v650q65 12 130 0z" />
    <glyph glyph-name="Eth" unicode="&#xd0;" horiz-adv-x="709" 
d="M77 650h236q156 0 250.5 -92t94.5 -233t-94.5 -233t-250.5 -92h-236v282h-47q-11 44 0 89h47v279zM206 108h107q95 0 153.5 58t58.5 159t-58.5 159t-153.5 58h-107v-171h99q11 -44 0 -90h-99v-173z" />
    <glyph glyph-name="Ntilde" unicode="&#xd1;" horiz-adv-x="720" 
d="M296 856q27 0 75 -22q27 -12 52 -12q28 0 86 30q11 -46 0 -90q-3 -1 -13 -6.5t-14 -7.5t-13 -6t-15 -5.5t-14.5 -3t-16.5 -1.5q-27 0 -75 22q-27 12 -52 12q-28 0 -86 -30q-11 46 0 90q3 1 13 6.5t14 7.5t13 6t15 5.5t14.5 3t16.5 1.5zM646 650v-650q-50 -10 -102 0
l-341 432v-432q-65 -12 -130 0v650q51 10 102 0l342 -432v432q65 12 129 0z" />
    <glyph glyph-name="Ograve" unicode="&#xd2;" horiz-adv-x="790" 
d="M377 919l113 -163q-7 -14 -26.5 -29t-35.5 -18l-128 150q7 15 34 36t43 24zM395 665q151 0 247.5 -98.5t96.5 -241.5t-96.5 -241.5t-247.5 -98.5q-150 0 -246.5 98.5t-96.5 241.5t96.5 241.5t246.5 98.5zM395 557q-90 0 -150.5 -64.5t-60.5 -167.5t60.5 -167.5
t150.5 -64.5t151 64.5t61 167.5t-61 167.5t-151 64.5z" />
    <glyph glyph-name="Oacute" unicode="&#xd3;" horiz-adv-x="790" 
d="M300 756l113 163q16 -3 43 -24t34 -36l-128 -150q-16 3 -35.5 18t-26.5 29zM395 665q151 0 247.5 -98.5t96.5 -241.5t-96.5 -241.5t-247.5 -98.5q-150 0 -246.5 98.5t-96.5 241.5t96.5 241.5t246.5 98.5zM395 557q-90 0 -150.5 -64.5t-60.5 -167.5t60.5 -167.5
t150.5 -64.5t151 64.5t61 167.5t-61 167.5t-151 64.5z" />
    <glyph glyph-name="Ocircumflex" unicode="&#xd4;" horiz-adv-x="790" 
d="M415 908l139 -139q-6 -16 -28 -37t-38 -25l-93 95l-93 -95q-15 5 -37 25.5t-28 36.5l138 139q8 7 20.5 7t19.5 -7zM395 665q151 0 247.5 -98.5t96.5 -241.5t-96.5 -241.5t-247.5 -98.5q-150 0 -246.5 98.5t-96.5 241.5t96.5 241.5t246.5 98.5zM395 557
q-90 0 -150.5 -64.5t-60.5 -167.5t60.5 -167.5t150.5 -64.5t151 64.5t61 167.5t-61 167.5t-151 64.5z" />
    <glyph glyph-name="Otilde" unicode="&#xd5;" horiz-adv-x="790" 
d="M331 856q27 0 75 -22q27 -12 52 -12q28 0 86 30q11 -46 0 -90q-3 -1 -13 -6.5t-14 -7.5t-13 -6t-15 -5.5t-14.5 -3t-16.5 -1.5q-27 0 -75 22q-27 12 -52 12q-28 0 -86 -30q-11 46 0 90q3 1 13 6.5t14 7.5t13 6t15 5.5t14.5 3t16.5 1.5zM395 665q151 0 247.5 -98.5
t96.5 -241.5t-96.5 -241.5t-247.5 -98.5q-150 0 -246.5 98.5t-96.5 241.5t96.5 241.5t246.5 98.5zM395 557q-90 0 -150.5 -64.5t-60.5 -167.5t60.5 -167.5t150.5 -64.5t151 64.5t61 167.5t-61 167.5t-151 64.5z" />
    <glyph glyph-name="Odieresis" unicode="&#xd6;" horiz-adv-x="790" 
d="M274 877q32 0 53.5 -20t21.5 -51t-21.5 -51t-53.5 -20t-53.5 20t-21.5 51t21.5 51t53.5 20zM517 877q32 0 53.5 -20t21.5 -51t-21.5 -51t-53.5 -20t-53.5 20t-21.5 51t21.5 51t53.5 20zM395 665q151 0 247.5 -98.5t96.5 -241.5t-96.5 -241.5t-247.5 -98.5
q-150 0 -246.5 98.5t-96.5 241.5t96.5 241.5t246.5 98.5zM395 557q-90 0 -150.5 -64.5t-60.5 -167.5t60.5 -167.5t150.5 -64.5t151 64.5t61 167.5t-61 167.5t-151 64.5z" />
    <glyph glyph-name="multiply" unicode="&#xd7;" horiz-adv-x="376" 
d="M251 262l90 -90q-24 -39 -63 -64l-90 91l-90 -90q-39 24 -64 63l90 90l-90 90q24 40 64 64l90 -90l90 90q38 -24 64 -64z" />
    <glyph glyph-name="Oslash" unicode="&#xd8;" horiz-adv-x="790" 
d="M739 650l-86 -94q86 -95 86 -231q0 -143 -96.5 -241.5t-247.5 -98.5q-118 0 -206 64l-45 -49q-46 -13 -92 0l86 94q-86 95 -86 231q0 143 96.5 241.5t246.5 98.5q117 0 207 -64l45 49q46 13 92 0zM184 325q0 -80 38 -139l301 328q-55 43 -128 43q-90 0 -150.5 -64.5
t-60.5 -167.5zM607 325q0 81 -39 139l-300 -328q54 -43 127 -43q90 0 151 64.5t61 167.5z" />
    <glyph glyph-name="Ugrave" unicode="&#xd9;" horiz-adv-x="693" 
d="M329 919l113 -163q-7 -14 -26.5 -29t-35.5 -18l-128 150q7 15 34 36t43 24zM488 246v404q66 12 132 0v-385q0 -140 -70.5 -210t-200.5 -70t-201 70t-71 210v385q66 12 132 0v-404q0 -70 37 -111.5t103 -41.5t102.5 41.5t36.5 111.5z" />
    <glyph glyph-name="Uacute" unicode="&#xda;" horiz-adv-x="693" 
d="M252 756l113 163q16 -3 43 -24t34 -36l-128 -150q-16 3 -35.5 18t-26.5 29zM488 246v404q66 12 132 0v-385q0 -140 -70.5 -210t-200.5 -70t-201 70t-71 210v385q66 12 132 0v-404q0 -70 37 -111.5t103 -41.5t102.5 41.5t36.5 111.5z" />
    <glyph glyph-name="Ucircumflex" unicode="&#xdb;" horiz-adv-x="693" 
d="M367 908l139 -139q-6 -16 -28 -37t-38 -25l-93 95l-93 -95q-15 5 -37 25.5t-28 36.5l138 139q8 7 20 7t20 -7zM488 246v404q66 12 132 0v-385q0 -140 -70.5 -210t-200.5 -70t-201 70t-71 210v385q66 12 132 0v-404q0 -70 37 -111.5t103 -41.5t102.5 41.5t36.5 111.5z" />
    <glyph glyph-name="Udieresis" unicode="&#xdc;" horiz-adv-x="693" 
d="M226 877q32 0 53.5 -20t21.5 -51t-21.5 -51t-53.5 -20t-53.5 20t-21.5 51t21.5 51t53.5 20zM469 877q32 0 53.5 -20t21.5 -51t-21.5 -51t-53.5 -20t-53.5 20t-21.5 51t21.5 51t53.5 20zM488 246v404q66 12 132 0v-385q0 -140 -70.5 -210t-200.5 -70t-201 70t-71 210v385
q66 12 132 0v-404q0 -70 37 -111.5t103 -41.5t102.5 41.5t36.5 111.5z" />
    <glyph glyph-name="Yacute" unicode="&#xdd;" horiz-adv-x="679" 
d="M244 756l113 163q16 -3 43 -24t34 -36l-128 -150q-16 3 -35.5 18t-26.5 29zM405 232v-232q-65 -12 -130 0v232l-241 418q69 13 139 0l167 -297l166 297q70 13 139 0z" />
    <glyph glyph-name="Thorn" unicode="&#xde;" horiz-adv-x="617" 
d="M207 561h117q110 0 176 -60t66 -155t-66 -155t-176 -60h-117v-131q-65 -12 -130 0v650q65 12 130 0v-89zM206 239h117q51 0 81 29t30 78q0 50 -30 78.5t-81 28.5h-117v-214z" />
    <glyph glyph-name="germandbls" unicode="&#xdf;" horiz-adv-x="576" 
d="M427 335q110 -44 110 -165q0 -82 -54.5 -134t-148.5 -52q-69 0 -120 27q-6 16 -6 56t6 50q40 -31 98 -31q47 0 77 25.5t30 71.5q0 45 -31 69.5t-83 24.5h-51q-11 51 0 103h48q42 0 69.5 24t27.5 67q0 42 -27 67t-73 25q-58 0 -90.5 -39.5t-32.5 -111.5v-412
q-59 -11 -118 0v416q0 117 68 183t175 66q97 0 156.5 -53t59.5 -132q0 -49 -23.5 -87.5t-66.5 -57.5z" />
    <glyph glyph-name="agrave" unicode="&#xe0;" horiz-adv-x="478" 
d="M221 669l113 -163q-7 -14 -26.5 -29t-35.5 -18l-128 150q7 15 34 36t43 24zM231 415q188 0 188 -188v-227q-51 -10 -102 0l-7 43q-51 -58 -128 -58q-60 0 -100.5 34.5t-40.5 94.5q0 59 40.5 94t104.5 35q71 0 115 -38v32q0 83 -94 83q-61 0 -127 -38q-7 10 -6.5 45.5
t6.5 49.5q57 38 151 38zM217 170q-29 0 -44 -13.5t-15 -34.5t15 -35t43 -14q48 0 85 30v38q-13 11 -37 20t-47 9z" />
    <glyph glyph-name="aacute" unicode="&#xe1;" horiz-adv-x="478" 
d="M144 506l113 163q16 -3 43 -24t34 -36l-128 -150q-16 3 -35.5 18t-26.5 29zM231 415q188 0 188 -188v-227q-51 -10 -102 0l-7 43q-51 -58 -128 -58q-60 0 -100.5 34.5t-40.5 94.5q0 59 40.5 94t104.5 35q71 0 115 -38v32q0 83 -94 83q-61 0 -127 -38q-7 10 -6.5 45.5
t6.5 49.5q57 38 151 38zM217 170q-29 0 -44 -13.5t-15 -34.5t15 -35t43 -14q48 0 85 30v38q-13 11 -37 20t-47 9z" />
    <glyph glyph-name="acircumflex" unicode="&#xe2;" horiz-adv-x="478" 
d="M258 658l139 -139q-6 -16 -28 -37t-38 -25l-93 95l-93 -95q-15 5 -37 25.5t-28 36.5l138 139q8 7 20.5 7t19.5 -7zM231 415q188 0 188 -188v-227q-51 -10 -102 0l-7 43q-51 -58 -128 -58q-60 0 -100.5 34.5t-40.5 94.5q0 59 40.5 94t104.5 35q71 0 115 -38v32
q0 83 -94 83q-61 0 -127 -38q-7 10 -6.5 45.5t6.5 49.5q57 38 151 38zM217 170q-29 0 -44 -13.5t-15 -34.5t15 -35t43 -14q48 0 85 30v38q-13 11 -37 20t-47 9z" />
    <glyph glyph-name="atilde" unicode="&#xe3;" horiz-adv-x="478" 
d="M175 606q27 0 75 -22q27 -12 52 -12q28 0 86 30q11 -46 0 -90q-3 -1 -13 -6.5t-14 -7.5t-13 -6t-15 -5.5t-14.5 -3t-16.5 -1.5q-27 0 -75 22q-27 12 -52 12q-28 0 -86 -30q-11 46 0 90q3 1 13 6.5t14 7.5t13 6t15 5.5t14.5 3t16.5 1.5zM231 415q188 0 188 -188v-227
q-51 -10 -102 0l-7 43q-51 -58 -128 -58q-60 0 -100.5 34.5t-40.5 94.5q0 59 40.5 94t104.5 35q71 0 115 -38v32q0 83 -94 83q-61 0 -127 -38q-7 10 -6.5 45.5t6.5 49.5q57 38 151 38zM217 170q-29 0 -44 -13.5t-15 -34.5t15 -35t43 -14q48 0 85 30v38q-13 11 -37 20t-47 9z
" />
    <glyph glyph-name="adieresis" unicode="&#xe4;" horiz-adv-x="478" 
d="M118 627q32 0 53.5 -20t21.5 -51t-21.5 -51t-53.5 -20t-53.5 20t-21.5 51t21.5 51t53.5 20zM360 627q32 0 53.5 -20t21.5 -51t-21.5 -51t-53.5 -20t-53.5 20t-21.5 51t21.5 51t53.5 20zM231 415q188 0 188 -188v-227q-51 -10 -102 0l-7 43q-51 -58 -128 -58
q-60 0 -100.5 34.5t-40.5 94.5q0 59 40.5 94t104.5 35q71 0 115 -38v32q0 83 -94 83q-61 0 -127 -38q-7 10 -6.5 45.5t6.5 49.5q57 38 151 38zM217 170q-29 0 -44 -13.5t-15 -34.5t15 -35t43 -14q48 0 85 30v38q-13 11 -37 20t-47 9z" />
    <glyph glyph-name="aring" unicode="&#xe5;" horiz-adv-x="478" 
d="M239 665q40 0 68 -28t28 -67q0 -40 -28 -68t-68 -28t-68.5 28t-28.5 68q0 39 28.5 67t68.5 28zM239 601q-13 0 -22.5 -9t-9.5 -22t9.5 -22.5t22.5 -9.5t22 9.5t9 22.5t-9 22t-22 9zM231 415q188 0 188 -188v-227q-51 -10 -102 0l-7 43q-51 -58 -128 -58
q-60 0 -100.5 34.5t-40.5 94.5q0 59 40.5 94t104.5 35q71 0 115 -38v32q0 83 -94 83q-61 0 -127 -38q-7 10 -6.5 45.5t6.5 49.5q57 38 151 38zM217 170q-29 0 -44 -13.5t-15 -34.5t15 -35t43 -14q48 0 85 30v38q-13 11 -37 20t-47 9z" />
    <glyph glyph-name="ae" unicode="&#xe6;" horiz-adv-x="752" 
d="M516 415q74 0 123 -39t63.5 -91t1.5 -101h-285q5 -47 37.5 -73.5t81.5 -26.5q64 0 131 41q7 -10 6.5 -47t-6.5 -50q-55 -43 -144 -43q-83 0 -135 46l-4 -31q-34 -12 -69 0l-7 43q-51 -58 -128 -58q-60 0 -100.5 34.5t-40.5 94.5q0 59 40.5 94t104.5 35q71 0 114 -37l1 31
q0 83 -94 83q-61 0 -127 -38q-7 10 -6.5 45.5t6.5 49.5q57 38 151 38q99 0 142 -57q55 57 143 57zM426 246h171q-1 37 -23 58.5t-57 21.5q-36 0 -60 -21t-31 -59zM301 103v38q-13 11 -37 20t-47 9q-29 0 -44 -13.5t-15 -34.5t15 -35t43 -14q48 0 85 30z" />
    <glyph glyph-name="ccedilla" unicode="&#xe7;" horiz-adv-x="471" 
d="M281 84q56 0 125 41q7 -10 6.5 -47t-6.5 -50q-51 -39 -122 -43v-37q30 2 55.5 -19t25.5 -58q0 -38 -27 -62t-69 -24q-41 0 -74 21q-5 11 -5 31t5 30q38 -26 66 -26q44 2 44 37q0 24 -23.5 33t-54.5 -4v81q-83 13 -133 70.5t-50 141.5q0 95 62.5 155t162.5 60
q82 0 137 -43q6 -13 6.5 -50t-6.5 -47q-69 41 -125 41q-51 0 -85 -31.5t-34 -84.5t34 -84.5t85 -31.5z" />
    <glyph glyph-name="egrave" unicode="&#xe8;" horiz-adv-x="496" 
d="M240 669l113 -163q-7 -14 -26.5 -29t-35.5 -18l-128 150q7 15 34 36t43 24zM260 415q57 0 100 -23t63 -58t28.5 -75.5t-3.5 -74.5h-285q5 -47 37.5 -73.5t81.5 -26.5q63 0 132 41q6 -10 6 -47t-6 -50q-57 -43 -145 -43q-102 0 -163.5 60t-61.5 156q0 94 60.5 154
t155.5 60zM261 326q-36 0 -60 -21t-31 -59h171q-1 37 -23 58.5t-57 21.5z" />
    <glyph glyph-name="eacute" unicode="&#xe9;" horiz-adv-x="496" 
d="M163 506l113 163q16 -3 43 -24t34 -36l-128 -150q-16 3 -35.5 18t-26.5 29zM260 415q57 0 100 -23t63 -58t28.5 -75.5t-3.5 -74.5h-285q5 -47 37.5 -73.5t81.5 -26.5q63 0 132 41q6 -10 6 -47t-6 -50q-57 -43 -145 -43q-102 0 -163.5 60t-61.5 156q0 94 60.5 154
t155.5 60zM261 326q-36 0 -60 -21t-31 -59h171q-1 37 -23 58.5t-57 21.5z" />
    <glyph glyph-name="ecircumflex" unicode="&#xea;" horiz-adv-x="496" 
d="M278 658l139 -139q-6 -16 -28 -37t-38 -25l-93 95l-93 -95q-15 5 -37 25.5t-28 36.5l138 139q8 7 20.5 7t19.5 -7zM260 415q57 0 100 -23t63 -58t28.5 -75.5t-3.5 -74.5h-285q5 -47 37.5 -73.5t81.5 -26.5q63 0 132 41q6 -10 6 -47t-6 -50q-57 -43 -145 -43
q-102 0 -163.5 60t-61.5 156q0 94 60.5 154t155.5 60zM261 326q-36 0 -60 -21t-31 -59h171q-1 37 -23 58.5t-57 21.5z" />
    <glyph glyph-name="edieresis" unicode="&#xeb;" horiz-adv-x="496" 
d="M137 627q32 0 53.5 -20t21.5 -51t-21.5 -51t-53.5 -20t-53.5 20t-21.5 51t21.5 51t53.5 20zM380 627q32 0 53.5 -20t21.5 -51t-21.5 -51t-53.5 -20t-53.5 20t-21.5 51t21.5 51t53.5 20zM260 415q57 0 100 -23t63 -58t28.5 -75.5t-3.5 -74.5h-285q5 -47 37.5 -73.5
t81.5 -26.5q63 0 132 41q6 -10 6 -47t-6 -50q-57 -43 -145 -43q-102 0 -163.5 60t-61.5 156q0 94 60.5 154t155.5 60zM261 326q-36 0 -60 -21t-31 -59h171q-1 37 -23 58.5t-57 21.5z" />
    <glyph glyph-name="igrave" unicode="&#xec;" horiz-adv-x="241" 
d="M104 669l113 -163q-7 -14 -26.5 -29t-35.5 -18l-128 150q7 15 34 36t43 24zM180 400v-400q-59 -11 -118 0v400q59 11 118 0z" />
    <glyph glyph-name="iacute" unicode="&#xed;" horiz-adv-x="241" 
d="M27 506l113 163q16 -3 43 -24t34 -36l-128 -150q-16 3 -35.5 18t-26.5 29zM180 400v-400q-59 -11 -118 0v400q59 11 118 0z" />
    <glyph glyph-name="icircumflex" unicode="&#xee;" horiz-adv-x="241" 
d="M142 658l139 -139q-6 -16 -28.5 -36.5t-37.5 -25.5l-93 95l-93 -95q-15 5 -37 25.5t-28 36.5l138 139q8 7 20 7t20 -7zM180 400v-400q-59 -11 -118 0v400q59 11 118 0z" />
    <glyph glyph-name="idieresis" unicode="&#xef;" horiz-adv-x="241" 
d="M1 627q31 0 52.5 -20.5t21.5 -50.5t-21.5 -50.5t-52.5 -20.5q-32 0 -53.5 20t-21.5 51t21.5 51t53.5 20zM243 627q32 0 53.5 -20t21.5 -51t-21.5 -51t-53.5 -20t-53.5 20t-21.5 51t21.5 51t53.5 20zM180 400v-400q-59 -11 -118 0v400q59 11 118 0z" />
    <glyph glyph-name="eth" unicode="&#xf0;" horiz-adv-x="519" 
d="M405 566l-48 -28q118 -113 118 -289v-22q0 -111 -59.5 -176.5t-156.5 -65.5q-95 0 -156.5 62t-61.5 155q0 86 51.5 145.5t136.5 59.5q73 0 125 -54q-22 76 -93 128l-113 -67q-11 34 0 68l53 32q-47 20 -99 29q-6 13 -6 55t6 52q118 -14 206 -73l97 58q11 -34 0 -69z
M358 203v22q0 18 -2 38q-44 42 -98 42q-41 0 -70 -28.5t-29 -78.5t29 -80.5t71 -30.5q44 0 71.5 29t27.5 87z" />
    <glyph glyph-name="ntilde" unicode="&#xf1;" horiz-adv-x="512" 
d="M192 606q27 0 75 -22q27 -12 52 -12q28 0 86 30q11 -46 0 -90q-3 -1 -13 -6.5t-14 -7.5t-13 -6t-15 -5.5t-14.5 -3t-16.5 -1.5q-27 0 -75 22q-27 12 -52 12q-28 0 -86 -30q-11 46 0 90q3 1 13 6.5t14 7.5t13 6t15 5.5t14.5 3t16.5 1.5zM304 415q77 0 113.5 -45.5
t36.5 -111.5v-258q-59 -11 -118 0v232q0 81 -72 81q-47 0 -86 -41v-272q-59 -11 -118 0v400q51 10 102 0l9 -52q59 67 133 67z" />
    <glyph glyph-name="ograve" unicode="&#xf2;" horiz-adv-x="529" 
d="M246 669l113 -163q-7 -14 -26.5 -29t-35.5 -18l-128 150q7 15 34 36t43 24zM264 415q96 0 158 -62.5t62 -152.5t-62 -152.5t-158 -62.5t-158 62.5t-62 152.5t62 152.5t158 62.5zM264 313q-44 0 -73 -31t-29 -82t29 -82t73 -31t73 31t29 82t-29 82t-73 31z" />
    <glyph glyph-name="oacute" unicode="&#xf3;" horiz-adv-x="529" 
d="M169 506l113 163q16 -3 43 -24t34 -36l-128 -150q-16 3 -35.5 18t-26.5 29zM264 415q96 0 158 -62.5t62 -152.5t-62 -152.5t-158 -62.5t-158 62.5t-62 152.5t62 152.5t158 62.5zM264 313q-44 0 -73 -31t-29 -82t29 -82t73 -31t73 31t29 82t-29 82t-73 31z" />
    <glyph glyph-name="ocircumflex" unicode="&#xf4;" horiz-adv-x="529" 
d="M284 658l139 -139q-6 -16 -28 -37t-38 -25l-93 95l-93 -95q-15 5 -37 25.5t-28 36.5l138 139q8 7 20 7t20 -7zM264 415q96 0 158 -62.5t62 -152.5t-62 -152.5t-158 -62.5t-158 62.5t-62 152.5t62 152.5t158 62.5zM264 313q-44 0 -73 -31t-29 -82t29 -82t73 -31t73 31
t29 82t-29 82t-73 31z" />
    <glyph glyph-name="otilde" unicode="&#xf5;" horiz-adv-x="529" 
d="M200 606q27 0 75 -22q27 -12 52 -12q28 0 86 30q11 -46 0 -90q-3 -1 -13 -6.5t-14 -7.5t-13 -6t-15 -5.5t-14.5 -3t-16.5 -1.5q-27 0 -75 22q-27 12 -52 12q-28 0 -86 -30q-11 46 0 90q3 1 13 6.5t14 7.5t13 6t15 5.5t14.5 3t16.5 1.5zM264 415q96 0 158 -62.5t62 -152.5
t-62 -152.5t-158 -62.5t-158 62.5t-62 152.5t62 152.5t158 62.5zM264 313q-44 0 -73 -31t-29 -82t29 -82t73 -31t73 31t29 82t-29 82t-73 31z" />
    <glyph glyph-name="odieresis" unicode="&#xf6;" horiz-adv-x="529" 
d="M143 627q32 0 53.5 -20t21.5 -51t-21.5 -51t-53.5 -20t-53.5 20t-21.5 51t21.5 51t53.5 20zM386 627q32 0 53.5 -20t21.5 -51t-21.5 -51t-53.5 -20t-53.5 20t-21.5 51t21.5 51t53.5 20zM264 415q96 0 158 -62.5t62 -152.5t-62 -152.5t-158 -62.5t-158 62.5t-62 152.5
t62 152.5t158 62.5zM264 313q-44 0 -73 -31t-29 -82t29 -82t73 -31t73 31t29 82t-29 82t-73 31z" />
    <glyph glyph-name="divide" unicode="&#xf7;" horiz-adv-x="423" 
d="M212 486q32 0 53.5 -20t21.5 -51q0 -30 -21.5 -50t-53.5 -20t-53.5 20t-21.5 50q0 31 21.5 51t53.5 20zM40 307h344q11 -44 0 -90l-344 1q-11 44 0 89zM212 179q32 0 53.5 -20t21.5 -51q0 -30 -21.5 -50t-53.5 -20t-53.5 20t-21.5 50q0 31 21.5 51t53.5 20z" />
    <glyph glyph-name="oslash" unicode="&#xf8;" horiz-adv-x="529" 
d="M484 400l-52 -59q52 -58 52 -141q0 -90 -62 -152.5t-158 -62.5q-66 0 -117 31l-14 -16q-45 -12 -89 0l52 59q-52 58 -52 141q0 90 62 152.5t158 62.5q66 0 117 -31l14 16q45 12 89 0zM162 200q0 -29 11 -54l137 157q-23 10 -46 10q-44 0 -73 -31t-29 -82zM366 200
q0 29 -11 54l-137 -157q23 -10 46 -10q44 0 73 31t29 82z" />
    <glyph glyph-name="ugrave" unicode="&#xf9;" horiz-adv-x="510" 
d="M237 669l113 -163q-7 -14 -26.5 -29t-35.5 -18l-128 150q7 15 34 36t43 24zM334 128v272q59 11 118 0v-400q-52 -10 -102 0l-9 52q-59 -67 -133 -67q-78 0 -114 45.5t-36 111.5v258q59 11 118 0v-232q0 -81 72 -81q45 0 86 41z" />
    <glyph glyph-name="uacute" unicode="&#xfa;" horiz-adv-x="510" 
d="M160 506l113 163q16 -3 43 -24t34 -36l-128 -150q-16 3 -35.5 18t-26.5 29zM334 128v272q59 11 118 0v-400q-52 -10 -102 0l-9 52q-59 -67 -133 -67q-78 0 -114 45.5t-36 111.5v258q59 11 118 0v-232q0 -81 72 -81q45 0 86 41z" />
    <glyph glyph-name="ucircumflex" unicode="&#xfb;" horiz-adv-x="510" 
d="M275 658l139 -139q-6 -16 -28 -37t-38 -25l-93 95l-93 -95q-15 5 -37 25.5t-28 36.5l138 139q8 7 20.5 7t19.5 -7zM334 128v272q59 11 118 0v-400q-52 -10 -102 0l-9 52q-59 -67 -133 -67q-78 0 -114 45.5t-36 111.5v258q59 11 118 0v-232q0 -81 72 -81q45 0 86 41z" />
    <glyph glyph-name="udieresis" unicode="&#xfc;" horiz-adv-x="510" 
d="M134 627q32 0 53.5 -20t21.5 -51t-21.5 -51t-53.5 -20t-53.5 20t-21.5 51t21.5 51t53.5 20zM377 627q32 0 53.5 -20t21.5 -51t-21.5 -51t-53.5 -20t-53.5 20t-21.5 51t21.5 51t53.5 20zM334 128v272q59 11 118 0v-400q-52 -10 -102 0l-9 52q-59 -67 -133 -67
q-78 0 -114 45.5t-36 111.5v258q59 11 118 0v-232q0 -81 72 -81q45 0 86 41z" />
    <glyph glyph-name="yacute" unicode="&#xfd;" horiz-adv-x="518" 
d="M164 506l113 163q16 -3 43 -24t34 -36l-128 -150q-16 3 -35.5 18t-26.5 29zM259 161l103 239q62 12 124 0l-256 -563q-60 -11 -120 0l89 196l-167 367q62 12 124 0z" />
    <glyph glyph-name="thorn" unicode="&#xfe;" horiz-adv-x="540" 
d="M307 415q85 0 137 -61.5t52 -153.5t-52 -153.5t-137 -61.5q-79 0 -127 56v-204q-59 -11 -118 0v813q59 11 118 0v-291q49 56 127 56zM275 87q46 0 74.5 31t28.5 82t-28.5 82t-74.5 31q-54 0 -95 -43v-140q41 -43 95 -43z" />
    <glyph glyph-name="ydieresis" unicode="&#xff;" horiz-adv-x="518" 
d="M138 627q32 0 53.5 -20t21.5 -51t-21.5 -51t-53.5 -20t-53.5 20t-21.5 51t21.5 51t53.5 20zM381 627q32 0 53.5 -20t21.5 -51t-21.5 -51t-53.5 -20t-53.5 20t-21.5 51t21.5 51t53.5 20zM259 161l103 239q62 12 124 0l-256 -563q-60 -11 -120 0l89 196l-167 367
q62 12 124 0z" />
    <glyph glyph-name="Amacron" unicode="&#x100;" horiz-adv-x="709" 
d="M223 825h259q11 -44 0 -90l-259 1q-11 45 0 89zM409 650l267 -650q-67 -13 -134 0l-56 144h-262l-56 -144q-67 -13 -134 0l267 650q54 10 108 0zM265 253h180l-90 230z" />
    <glyph glyph-name="amacron" unicode="&#x101;" horiz-adv-x="478" 
d="M107 575h259q11 -44 0 -90l-259 1q-11 44 0 89zM231 415q188 0 188 -188v-227q-51 -10 -102 0l-7 43q-51 -58 -128 -58q-60 0 -100.5 34.5t-40.5 94.5q0 59 40.5 94t104.5 35q71 0 115 -38v32q0 83 -94 83q-61 0 -127 -38q-7 10 -6.5 45.5t6.5 49.5q57 38 151 38z
M217 170q-29 0 -44 -13.5t-15 -34.5t15 -35t43 -14q48 0 85 30v38q-13 11 -37 20t-47 9z" />
    <glyph glyph-name="Abreve" unicode="&#x102;" horiz-adv-x="709" 
d="M499 872q6 -9 6 -46t-6 -51q-59 -43 -144 -43q-86 0 -145 43q-6 14 -6 51t6 46q67 -40 145 -40q77 0 144 40zM409 650l267 -650q-67 -13 -134 0l-56 144h-262l-56 -144q-67 -13 -134 0l267 650q54 10 108 0zM265 253h180l-90 230z" />
    <glyph glyph-name="abreve" unicode="&#x103;" horiz-adv-x="478" 
d="M383 622q6 -9 6 -46t-6 -51q-59 -43 -144 -43q-86 0 -145 43q-6 14 -6 51t6 46q67 -40 145 -40q77 0 144 40zM231 415q188 0 188 -188v-227q-51 -10 -102 0l-7 43q-51 -58 -128 -58q-60 0 -100.5 34.5t-40.5 94.5q0 59 40.5 94t104.5 35q71 0 115 -38v32q0 83 -94 83
q-61 0 -127 -38q-7 10 -6.5 45.5t6.5 49.5q57 38 151 38zM217 170q-29 0 -44 -13.5t-15 -34.5t15 -35t43 -14q48 0 85 30v38q-13 11 -37 20t-47 9z" />
    <glyph glyph-name="Aogonek" unicode="&#x104;" horiz-adv-x="709" 
d="M702 -137q12 -37 0 -73q-17 -5 -44 -5q-45 0 -75 26t-30 71q0 63 63 113q-41 -2 -74 5l-56 144h-262l-56 -144q-67 -13 -134 0l267 650q54 10 108 0l267 -650h-1q-59 -48 -59 -88q0 -23 15.5 -38.5t43.5 -15.5q17 0 27 5zM445 253l-90 230l-90 -230h180z" />
    <glyph glyph-name="aogonek" unicode="&#x105;" horiz-adv-x="478" 
d="M446 -137q12 -37 0 -73q-17 -5 -44 -5q-45 0 -75 26t-30 71q0 63 63 113q-16 0 -43 5l-7 43q-51 -58 -128 -58q-60 0 -100.5 34.5t-40.5 94.5q0 59 40.5 94t104.5 35q71 0 115 -38v32q0 83 -94 83q-61 0 -127 -38q-7 10 -6.5 45.5t6.5 49.5q57 38 151 38q188 0 188 -188
v-227q-59 -48 -59 -88q0 -23 15.5 -38.5t43.5 -15.5q17 0 27 5zM301 103v38q-13 11 -37 20t-47 9q-29 0 -44 -13.5t-15 -34.5t15 -35t43 -14q48 0 85 30z" />
    <glyph glyph-name="Cacute" unicode="&#x106;" horiz-adv-x="695" 
d="M316 755l113 163q17 -3 43.5 -23.5t33.5 -36.5l-128 -150q-16 3 -35.5 18t-26.5 29zM420 93q97 0 197 64q6 -10 6 -57.5t-6 -60.5q-85 -54 -204 -54q-162 0 -261.5 98t-99.5 242t99.5 242t261.5 98q119 0 204 -54q6 -13 6 -60.5t-6 -57.5q-100 64 -197 64
q-101 0 -168.5 -64.5t-67.5 -167.5t67.5 -167.5t168.5 -64.5z" />
    <glyph glyph-name="cacute" unicode="&#x107;" horiz-adv-x="471" 
d="M164 506l113 163q16 -3 43 -24t34 -36l-128 -150q-16 3 -35.5 18t-26.5 29zM281 84q56 0 125 41q7 -10 6.5 -47t-6.5 -50q-55 -43 -137 -43q-100 0 -162.5 60t-62.5 155t62.5 155t162.5 60q82 0 137 -43q6 -13 6.5 -50t-6.5 -47q-69 41 -125 41q-51 0 -85 -31.5
t-34 -84.5t34 -84.5t85 -31.5z" />
    <glyph glyph-name="Cdotaccent" unicode="&#x10a;" horiz-adv-x="695" 
d="M411 735q-32 0 -53.5 20t-21.5 50q0 31 21.5 51t53.5 20t53.5 -20t21.5 -51q0 -30 -21.5 -50t-53.5 -20zM420 93q97 0 197 64q6 -10 6 -57.5t-6 -60.5q-85 -54 -204 -54q-162 0 -261.5 98t-99.5 242t99.5 242t261.5 98q119 0 204 -54q6 -13 6 -60.5t-6 -57.5
q-100 64 -197 64q-101 0 -168.5 -64.5t-67.5 -167.5t67.5 -167.5t168.5 -64.5z" />
    <glyph glyph-name="cdotaccent" unicode="&#x10b;" horiz-adv-x="471" 
d="M259 485q-32 0 -53.5 20t-21.5 51t21.5 51t53.5 20t53.5 -20t21.5 -51t-21.5 -51t-53.5 -20zM281 84q56 0 125 41q7 -10 6.5 -47t-6.5 -50q-55 -43 -137 -43q-100 0 -162.5 60t-62.5 155t62.5 155t162.5 60q82 0 137 -43q6 -13 6.5 -50t-6.5 -47q-69 41 -125 41
q-51 0 -85 -31.5t-34 -84.5t34 -84.5t85 -31.5z" />
    <glyph glyph-name="Ccaron" unicode="&#x10c;" horiz-adv-x="695" 
d="M411 815l93 94q15 -4 37.5 -25t28.5 -36l-139 -140q-7 -6 -19.5 -6t-20.5 6l-138 140q6 15 28 36t37 25zM420 93q97 0 197 64q6 -10 6 -57.5t-6 -60.5q-85 -54 -204 -54q-162 0 -261.5 98t-99.5 242t99.5 242t261.5 98q119 0 204 -54q6 -13 6 -60.5t-6 -57.5
q-100 64 -197 64q-101 0 -168.5 -64.5t-67.5 -167.5t67.5 -167.5t168.5 -64.5z" />
    <glyph glyph-name="ccaron" unicode="&#x10d;" horiz-adv-x="471" 
d="M259 566l93 94q16 -4 38 -25t28 -37l-139 -139q-7 -6 -19.5 -6t-20.5 6l-138 139q6 16 28 36.5t37 25.5zM281 84q56 0 125 41q7 -10 6.5 -47t-6.5 -50q-55 -43 -137 -43q-100 0 -162.5 60t-62.5 155t62.5 155t162.5 60q82 0 137 -43q6 -13 6.5 -50t-6.5 -47
q-69 41 -125 41q-51 0 -85 -31.5t-34 -84.5t34 -84.5t85 -31.5z" />
    <glyph glyph-name="Dcaron" unicode="&#x10e;" horiz-adv-x="709" 
d="M312 816l93 94q16 -4 38 -25t28 -37l-139 -139q-8 -6 -20 -6t-20 6l-138 139q6 16 28 36.5t37 25.5zM77 650h236q156 0 250.5 -92t94.5 -233t-94.5 -233t-250.5 -92h-236v650zM206 108h107q95 0 153.5 58t58.5 159t-58.5 159t-153.5 58h-107v-434z" />
    <glyph glyph-name="dcaron" unicode="&#x10f;" horiz-adv-x="665" 
d="M586 665q32 0 56.5 -22.5t25.5 -68.5q1 -52 -27.5 -108.5t-53.5 -73.5q-32 -7 -65 0q54 50 81 134q-14 -2 -18 -2q-31 0 -52.5 20t-21.5 50q0 31 21.5 51t53.5 20zM360 359v291q59 11 118 0v-650q-52 -10 -103 0l-8 50q-51 -65 -134 -65q-85 0 -137 61.5t-52 153.5
t52 153.5t137 61.5q79 0 127 -56zM360 130v140q-43 43 -96 43q-45 0 -73.5 -31t-28.5 -82t28.5 -82t73.5 -31q53 0 96 43z" />
    <glyph glyph-name="Dcroat" unicode="&#x110;" horiz-adv-x="709" 
d="M77 650h236q156 0 250.5 -92t94.5 -233t-94.5 -233t-250.5 -92h-236v282h-47q-11 44 0 89h47v279zM206 108h107q95 0 153.5 58t58.5 159t-58.5 159t-153.5 58h-107v-171h99q11 -44 0 -90h-99v-173z" />
    <glyph glyph-name="dcroat" unicode="&#x111;" 
d="M478 561h45q11 -44 0 -90h-45v-471q-52 -10 -103 0l-8 50q-51 -65 -134 -65q-85 0 -137 61.5t-52 153.5t52 153.5t137 61.5q79 0 127 -56v112h-96q-11 46 0 90h96v89q59 11 118 0v-89zM360 130v140q-43 43 -96 43q-45 0 -73.5 -31t-28.5 -82t28.5 -82t73.5 -31
q53 0 96 43z" />
    <glyph glyph-name="Emacron" unicode="&#x112;" horiz-adv-x="567" 
d="M163 825h259q11 -44 0 -90l-259 1q-11 45 0 89zM207 108h317q10 -54 0 -108h-447v650h447q10 -54 0 -108h-317v-158h285q10 -54 0 -108h-285v-168z" />
    <glyph glyph-name="emacron" unicode="&#x113;" horiz-adv-x="496" 
d="M126 575h259q11 -44 0 -90l-259 1q-11 44 0 89zM260 415q57 0 100 -23t63 -58t28.5 -75.5t-3.5 -74.5h-285q5 -47 37.5 -73.5t81.5 -26.5q63 0 132 41q6 -10 6 -47t-6 -50q-57 -43 -145 -43q-102 0 -163.5 60t-61.5 156q0 94 60.5 154t155.5 60zM261 326q-36 0 -60 -21
t-31 -59h171q-1 37 -23 58.5t-57 21.5z" />
    <glyph glyph-name="Edotaccent" unicode="&#x116;" horiz-adv-x="567" 
d="M295 735q-32 0 -53.5 20t-21.5 51t21.5 51t53.5 20t53.5 -20t21.5 -51t-21.5 -51t-53.5 -20zM207 108h317q10 -54 0 -108h-447v650h447q10 -54 0 -108h-317v-158h285q10 -54 0 -108h-285v-168z" />
    <glyph glyph-name="edotaccent" unicode="&#x117;" horiz-adv-x="496" 
d="M258 485q-32 0 -53.5 20t-21.5 51t21.5 51t53.5 20t53.5 -20t21.5 -51t-21.5 -51t-53.5 -20zM260 415q57 0 100 -23t63 -58t28.5 -75.5t-3.5 -74.5h-285q5 -47 37.5 -73.5t81.5 -26.5q63 0 132 41q6 -10 6 -47t-6 -50q-57 -43 -145 -43q-102 0 -163.5 60t-61.5 156
q0 94 60.5 154t155.5 60zM261 326q-36 0 -60 -21t-31 -59h171q-1 37 -23 58.5t-57 21.5z" />
    <glyph glyph-name="Eogonek" unicode="&#x118;" horiz-adv-x="567" 
d="M551 -137q12 -37 0 -73q-17 -5 -44 -5q-45 0 -75 26t-30 71q0 67 70 118h-395v650h447q10 -54 0 -108h-317v-158h285q10 -54 0 -108h-285v-168h317q10 -54 0 -108q-59 -48 -59 -88q0 -23 15.5 -38.5t43.5 -15.5q17 0 27 5z" />
    <glyph glyph-name="eogonek" unicode="&#x119;" horiz-adv-x="496" 
d="M260 415q57 0 100 -23t63 -58t28.5 -75.5t-3.5 -74.5h-285q5 -47 37.5 -73.5t81.5 -26.5q63 0 132 41q6 -10 6 -47t-6 -50q-27 -19 -55 -29q-58 -47 -58 -87q0 -23 15.5 -38.5t43.5 -15.5q17 0 27 5q12 -37 0 -73q-17 -5 -44 -5q-45 0 -75 26t-30 71q0 56 52 104l-21 -1
q-102 0 -163.5 60t-61.5 156q0 94 60.5 154t155.5 60zM170 246h171q-1 37 -23 58.5t-57 21.5q-36 0 -60 -21t-31 -59z" />
    <glyph glyph-name="Ecaron" unicode="&#x11a;" horiz-adv-x="567" 
d="M294 816l93 94q16 -4 38 -25t28 -37l-139 -139q-7 -6 -19.5 -6t-20.5 6l-138 139q6 16 28 36.5t37 25.5zM207 108h317q10 -54 0 -108h-447v650h447q10 -54 0 -108h-317v-158h285q10 -54 0 -108h-285v-168z" />
    <glyph glyph-name="ecaron" unicode="&#x11b;" horiz-adv-x="496" 
d="M258 566l93 94q16 -4 38 -25t28 -37l-139 -139q-8 -6 -20 -6t-20 6l-138 139q6 16 28 36.5t37 25.5zM260 415q57 0 100 -23t63 -58t28.5 -75.5t-3.5 -74.5h-285q5 -47 37.5 -73.5t81.5 -26.5q63 0 132 41q6 -10 6 -47t-6 -50q-57 -43 -145 -43q-102 0 -163.5 60
t-61.5 156q0 94 60.5 154t155.5 60zM261 326q-36 0 -60 -21t-31 -59h171q-1 37 -23 58.5t-57 21.5z" />
    <glyph glyph-name="Gbreve" unicode="&#x11e;" horiz-adv-x="708" 
d="M557 872q6 -9 6 -46t-6 -51q-59 -43 -144 -43q-86 0 -145 43q-6 14 -6 51t6 46q67 -40 145 -40q77 0 144 40zM508 107v208q64 12 127 0v-276q-34 -23 -95 -38.5t-127 -15.5q-162 0 -261.5 98t-99.5 242t99.5 242t261.5 98q119 0 204 -54q6 -13 6 -60.5t-6 -57.5
q-100 64 -197 64q-101 0 -168.5 -64.5t-67.5 -167.5q0 -105 67.5 -169.5t168.5 -64.5q46 0 88 16z" />
    <glyph glyph-name="gbreve" unicode="&#x11f;" 
d="M414 622q6 -9 6 -46t-6 -51q-59 -43 -144 -43q-86 0 -145 43q-6 14 -6 51t6 46q67 -40 145 -40q77 0 144 40zM233 415q83 0 134 -65l8 50q51 10 103 0v-383q0 -90 -56.5 -142.5t-154.5 -52.5q-101 0 -156 41q-6 13 -6 49t6 46q63 -39 132 -39q52 0 84.5 22.5t32.5 69.5
v37q-49 -55 -127 -55q-85 0 -137 61t-52 150t52 150t137 61zM264 313q-45 0 -73.5 -30t-28.5 -79t28.5 -79t73.5 -30q53 0 96 43v132q-43 43 -96 43z" />
    <glyph glyph-name="Gdotaccent" unicode="&#x120;" horiz-adv-x="708" 
d="M412 735q-32 0 -53.5 20t-21.5 51t21.5 51t53.5 20t53.5 -20t21.5 -51t-21.5 -51t-53.5 -20zM508 107v208q64 12 127 0v-276q-34 -23 -95 -38.5t-127 -15.5q-162 0 -261.5 98t-99.5 242t99.5 242t261.5 98q119 0 204 -54q6 -13 6 -60.5t-6 -57.5q-100 64 -197 64
q-101 0 -168.5 -64.5t-67.5 -167.5q0 -105 67.5 -169.5t168.5 -64.5q46 0 88 16z" />
    <glyph glyph-name="gdotaccent" unicode="&#x121;" 
d="M269 485q-32 0 -53.5 20t-21.5 51t21.5 51t53.5 20t53.5 -20t21.5 -51t-21.5 -51t-53.5 -20zM233 415q83 0 134 -65l8 50q51 10 103 0v-383q0 -90 -56.5 -142.5t-154.5 -52.5q-101 0 -156 41q-6 13 -6 49t6 46q63 -39 132 -39q52 0 84.5 22.5t32.5 69.5v37
q-49 -55 -127 -55q-85 0 -137 61t-52 150t52 150t137 61zM264 313q-45 0 -73.5 -30t-28.5 -79t28.5 -79t73.5 -30q53 0 96 43v132q-43 43 -96 43z" />
    <glyph glyph-name="Gcommaaccent" unicode="&#x122;" horiz-adv-x="708" 
d="M508 107v208q64 12 127 0v-276q-34 -23 -95 -38.5t-127 -15.5q-162 0 -261.5 98t-99.5 242t99.5 242t261.5 98q119 0 204 -54q6 -13 6 -60.5t-6 -57.5q-100 64 -197 64q-101 0 -168.5 -64.5t-67.5 -167.5q0 -105 67.5 -169.5t168.5 -64.5q46 0 88 16zM412 -59
q32 0 56.5 -22.5t25.5 -68.5q1 -52 -27.5 -108.5t-53.5 -73.5q-32 -7 -65 0q54 50 81 134q-14 -2 -18 -2q-31 0 -52.5 20t-21.5 50q0 31 21.5 51t53.5 20z" />
    <glyph glyph-name="gcommaaccent" unicode="&#x123;" 
d="M340 759q-56 -55 -80 -134q12 2 17 2q31 0 52.5 -20.5t21.5 -50.5q0 -31 -21.5 -51t-53.5 -20t-56.5 22.5t-24.5 68.5q-1 52 27 109t53 74q32 7 65 0zM233 415q83 0 134 -65l8 50q51 10 103 0v-383q0 -90 -56.5 -142.5t-154.5 -52.5q-101 0 -156 41q-6 13 -6 49t6 46
q63 -39 132 -39q52 0 84.5 22.5t32.5 69.5v37q-49 -55 -127 -55q-85 0 -137 61t-52 150t52 150t137 61zM264 313q-45 0 -73.5 -30t-28.5 -79t28.5 -79t73.5 -30q53 0 96 43v132q-43 43 -96 43z" />
    <glyph glyph-name="Hbar" unicode="&#x126;" horiz-adv-x="727" 
d="M651 553h48q11 -44 0 -90h-48v-463q-65 -12 -129 0v276h-315v-276q-65 -12 -130 0v464h-49q-11 44 0 89h49v97q65 12 130 0v-97h315v97q65 12 129 0v-97zM522 463l-315 1v-80h315v79z" />
    <glyph glyph-name="hbar" unicode="&#x127;" horiz-adv-x="511" 
d="M302 415q77 0 113.5 -45.5t36.5 -111.5v-258q-59 -11 -118 0v232q0 81 -72 81q-46 0 -82 -38v-275q-59 -11 -118 0v471h-44q-11 46 0 90h44v89q59 11 118 0v-89h97q11 -44 0 -90h-97v-111q59 55 122 55z" />
    <glyph glyph-name="Imacron" unicode="&#x12a;" horiz-adv-x="283" 
d="M10 825h259q11 -44 0 -90l-259 1q-11 44 0 89zM207 650v-650q-65 -12 -130 0v650q65 12 130 0z" />
    <glyph glyph-name="imacron" unicode="&#x12b;" horiz-adv-x="241" 
d="M-10 575h259q11 -44 0 -90l-259 1q-11 44 0 89zM180 400v-400q-59 -11 -118 0v400q59 11 118 0z" />
    <glyph glyph-name="Iogonek" unicode="&#x12e;" horiz-adv-x="283" 
d="M233 -137q12 -37 0 -73q-17 -5 -44 -5q-45 0 -75 26t-30 71q0 63 63 113q-45 0 -70 5v650q65 12 130 0v-650h-1q-59 -48 -59 -88q0 -23 15.5 -38.5t43.5 -15.5q17 0 27 5z" />
    <glyph glyph-name="iogonek" unicode="&#x12f;" horiz-adv-x="241" 
d="M122 485q-32 0 -53.5 20t-21.5 51t21.5 51t53.5 20t53.5 -20t21.5 -51t-21.5 -51t-53.5 -20zM207 -137q12 -37 0 -73q-17 -5 -44 -5q-45 0 -75 26t-30 71q0 63 63 113q-35 0 -59 5v400q59 11 118 0v-400q-59 -48 -59 -88q0 -23 15.5 -38.5t43.5 -15.5q17 0 27 5z" />
    <glyph glyph-name="Idotaccent" unicode="&#x130;" horiz-adv-x="283" 
d="M141 735q-32 0 -53.5 20t-21.5 51t21.5 51t53.5 20t53.5 -20t21.5 -51t-21.5 -51t-53.5 -20zM207 650v-650q-65 -12 -130 0v650q65 12 130 0z" />
    <glyph glyph-name="dotlessi" unicode="&#x131;" horiz-adv-x="241" 
d="M180 400v-400q-59 -11 -118 0v400q59 11 118 0z" />
    <glyph glyph-name="IJ" unicode="&#x132;" horiz-adv-x="692" 
d="M207 650v-650q-65 -12 -130 0v650q65 12 130 0zM615 650v-467q0 -95 -46.5 -146.5t-128.5 -51.5q-67 0 -118 32q-6 13 -6 54.5t6 51.5q44 -22 82 -22q82 0 82 94v455q64 12 129 0z" />
    <glyph glyph-name="ij" unicode="&#x133;" horiz-adv-x="573" 
d="M137 641q32 0 53.5 -20t21.5 -51t-21.5 -51t-53.5 -20t-53.5 20t-21.5 51t21.5 51t53.5 20zM438 639q32 0 53.5 -20t21.5 -50t-21.5 -50t-53.5 -20q-31 0 -52.5 20t-21.5 50t21.5 50t52.5 20zM196 400v-400q-59 -11 -118 0v400q59 11 118 0zM497 400v-446
q0 -65 -31 -98.5t-86 -33.5t-97 20q-6 13 -6 50.5t6 47.5q41 -19 65 -19q18 0 24.5 11.5t6.5 38.5v429q59 11 118 0z" />
    <glyph glyph-name="Kcommaaccent" unicode="&#x136;" horiz-adv-x="657" 
d="M345 334l279 -334q-28 -5 -77.5 -5t-77.5 5l-262 315v-315q-65 -12 -130 0v650q65 12 130 0v-297l251 297q28 5 77.5 5t77.5 -5zM329 -59q32 0 56.5 -22.5t25.5 -68.5q1 -52 -27.5 -108.5t-53.5 -73.5q-32 -7 -65 0q54 50 81 134q-14 -2 -18 -2q-31 0 -52.5 20t-21.5 50
q0 31 21.5 51t53.5 20z" />
    <glyph glyph-name="kcommaaccent" unicode="&#x137;" horiz-adv-x="496" 
d="M297 209l166 -209q-67 -13 -134 0l-149 191v-191q-59 -11 -118 0v650q59 11 118 0v-424l144 174q67 13 134 0zM248 -59q32 0 56.5 -22.5t25.5 -68.5q1 -52 -27.5 -108.5t-53.5 -73.5q-32 -7 -65 0q54 50 81 134q-14 -2 -18 -2q-31 0 -52.5 20t-21.5 50q0 31 21.5 51
t53.5 20z" />
    <glyph glyph-name="Lacute" unicode="&#x139;" horiz-adv-x="541" 
d="M187 756l113 163q16 -3 43 -24t34 -36l-128 -150q-16 3 -35.5 18t-26.5 29zM207 108h295q12 -54 0 -108h-425v650q65 12 130 0v-542z" />
    <glyph glyph-name="lacute" unicode="&#x13a;" horiz-adv-x="239" 
d="M27 756l113 163q16 -3 43 -24t34 -36l-128 -150q-16 3 -35.5 18t-26.5 29zM180 650v-650q-59 -11 -118 0v650q59 11 118 0z" />
    <glyph glyph-name="Lcommaaccent" unicode="&#x13b;" horiz-adv-x="541" 
d="M207 108h295q12 -54 0 -108h-425v650q65 12 130 0v-542zM287 -59q32 0 56.5 -22.5t25.5 -68.5q1 -52 -27.5 -108.5t-53.5 -73.5q-32 -7 -65 0q54 50 81 134q-14 -2 -18 -2q-31 0 -52.5 20t-21.5 50q0 31 21.5 51t53.5 20z" />
    <glyph glyph-name="lcommaaccent" unicode="&#x13c;" horiz-adv-x="239" 
d="M180 650v-650q-59 -11 -118 0v650q59 11 118 0zM120 -59q32 0 56.5 -22.5t25.5 -68.5q1 -52 -27.5 -108.5t-53.5 -73.5q-32 -7 -65 0q54 50 81 134q-14 -2 -18 -2q-31 0 -52.5 20t-21.5 50q0 31 21.5 51t53.5 20z" />
    <glyph glyph-name="Lcaron" unicode="&#x13d;" horiz-adv-x="541" 
d="M420 665q32 0 56.5 -22.5t25.5 -68.5q1 -52 -27.5 -108.5t-53.5 -73.5q-32 -7 -65 0q54 50 81 134q-14 -2 -18 -2q-31 0 -52.5 20t-21.5 50q0 31 21.5 51t53.5 20zM207 108h295q12 -54 0 -108h-425v650q65 12 130 0v-542z" />
    <glyph glyph-name="lcaron" unicode="&#x13e;" horiz-adv-x="375" 
d="M288 665q32 0 56.5 -22.5t25.5 -68.5q1 -52 -27.5 -108.5t-53.5 -73.5q-32 -7 -65 0q54 50 81 134q-14 -2 -18 -2q-31 0 -52.5 20t-21.5 50q0 31 21.5 51t53.5 20zM180 650v-650q-59 -11 -118 0v650q59 11 118 0z" />
    <glyph glyph-name="Ldot" unicode="&#x13f;" horiz-adv-x="541" 
d="M207 108h295q12 -54 0 -108h-425v650q65 12 130 0v-542zM427 244q-32 0 -53.5 20t-21.5 51t21.5 51t53.5 20t53.5 -20t21.5 -51t-21.5 -51t-53.5 -20z" />
    <glyph glyph-name="ldot" unicode="&#x140;" horiz-adv-x="368" 
d="M180 650v-650q-59 -11 -118 0v650q59 11 118 0zM288 242q-32 0 -53.5 20t-21.5 51t21.5 51t53.5 20t53.5 -20t21.5 -51t-21.5 -51t-53.5 -20z" />
    <glyph glyph-name="Lslash" unicode="&#x141;" horiz-adv-x="541" 
d="M207 108h295q12 -54 0 -108h-425v299l-50 -17q-11 44 0 89l50 17v262q65 12 130 0v-218l93 32q11 -45 0 -91l-93 -31v-234z" />
    <glyph glyph-name="lslash" unicode="&#x142;" horiz-adv-x="239" 
d="M180 405l42 12q11 -45 0 -90l-42 -12v-315q-59 -11 -118 0v282l-41 -11q-11 46 0 90l41 11v278q59 11 118 0v-245z" />
    <glyph glyph-name="Nacute" unicode="&#x143;" horiz-adv-x="720" 
d="M265 756l113 163q16 -3 43 -24t34 -36l-128 -150q-16 3 -35.5 18t-26.5 29zM646 650v-650q-50 -10 -102 0l-341 432v-432q-65 -12 -130 0v650q51 10 102 0l342 -432v432q65 12 129 0z" />
    <glyph glyph-name="nacute" unicode="&#x144;" horiz-adv-x="512" 
d="M161 506l113 163q16 -3 43 -24t34 -36l-128 -150q-16 3 -35.5 18t-26.5 29zM304 415q77 0 113.5 -45.5t36.5 -111.5v-258q-59 -11 -118 0v232q0 81 -72 81q-47 0 -86 -41v-272q-59 -11 -118 0v400q51 10 102 0l9 -52q59 67 133 67z" />
    <glyph glyph-name="Ncommaaccent" unicode="&#x145;" horiz-adv-x="720" 
d="M646 650v-650q-50 -10 -102 0l-341 432v-432q-65 -12 -130 0v650q51 10 102 0l342 -432v432q65 12 129 0zM360 -59q32 0 56.5 -22.5t25.5 -68.5q1 -52 -27.5 -108.5t-53.5 -73.5q-32 -7 -65 0q54 50 81 134q-14 -2 -18 -2q-31 0 -52.5 20t-21.5 50q0 31 21.5 51t53.5 20z
" />
    <glyph glyph-name="ncommaaccent" unicode="&#x146;" horiz-adv-x="512" 
d="M304 415q77 0 113.5 -45.5t36.5 -111.5v-258q-59 -11 -118 0v232q0 81 -72 81q-47 0 -86 -41v-272q-59 -11 -118 0v400q51 10 102 0l9 -52q59 67 133 67zM256 -59q32 0 56.5 -22.5t25.5 -68.5q1 -52 -27.5 -108.5t-53.5 -73.5q-32 -7 -65 0q54 50 81 134q-14 -2 -18 -2
q-31 0 -52.5 20t-21.5 50q0 31 21.5 51t53.5 20z" />
    <glyph glyph-name="Ncaron" unicode="&#x147;" horiz-adv-x="720" 
d="M360 816l93 94q16 -4 38 -25t28 -37l-139 -139q-8 -6 -20 -6t-20 6l-138 139q6 16 28 36.5t37 25.5zM646 650v-650q-50 -10 -102 0l-341 432v-432q-65 -12 -130 0v650q51 10 102 0l342 -432v432q65 12 129 0z" />
    <glyph glyph-name="ncaron" unicode="&#x148;" horiz-adv-x="512" 
d="M256 566l93 94q16 -4 38 -25t28 -37l-139 -139q-8 -6 -20 -6t-20 6l-138 139q6 16 28 36.5t37 25.5zM304 415q77 0 113.5 -45.5t36.5 -111.5v-258q-59 -11 -118 0v232q0 81 -72 81q-47 0 -86 -41v-272q-59 -11 -118 0v400q51 10 102 0l9 -52q59 67 133 67z" />
    <glyph glyph-name="Eng" unicode="&#x14a;" horiz-adv-x="720" 
d="M517 218v432q65 12 129 0v-696q0 -65 -31 -98.5t-86 -33.5q-56 0 -96 20q-6 13 -6 50.5t6 47.5q41 -19 65 -19q18 0 24.5 11.5t6.5 38.5v49l-326 412v-432q-65 -12 -130 0v650q51 10 102 0z" />
    <glyph glyph-name="eng" unicode="&#x14b;" horiz-adv-x="512" 
d="M304 415q77 0 113.5 -45.5t36.5 -111.5v-304q0 -65 -31 -98.5t-86 -33.5t-97 20q-6 13 -6 50.5t6 47.5q41 -19 65 -19q18 0 24.5 11.5t6.5 38.5v261q0 81 -72 81q-47 0 -86 -41v-272q-59 -11 -118 0v400q51 10 102 0l9 -52q59 67 133 67z" />
    <glyph glyph-name="Omacron" unicode="&#x14c;" horiz-adv-x="790" 
d="M263 825h259q11 -44 0 -90l-259 1q-11 45 0 89zM395 665q151 0 247.5 -98.5t96.5 -241.5t-96.5 -241.5t-247.5 -98.5q-150 0 -246.5 98.5t-96.5 241.5t96.5 241.5t246.5 98.5zM395 557q-90 0 -150.5 -64.5t-60.5 -167.5t60.5 -167.5t150.5 -64.5t151 64.5t61 167.5
t-61 167.5t-151 64.5z" />
    <glyph glyph-name="omacron" unicode="&#x14d;" horiz-adv-x="529" 
d="M133 575h259q11 -44 0 -90l-259 1q-11 44 0 89zM264 415q96 0 158 -62.5t62 -152.5t-62 -152.5t-158 -62.5t-158 62.5t-62 152.5t62 152.5t158 62.5zM264 313q-44 0 -73 -31t-29 -82t29 -82t73 -31t73 31t29 82t-29 82t-73 31z" />
    <glyph glyph-name="Ohungarumlaut" unicode="&#x150;" horiz-adv-x="790" 
d="M247 756l113 163q16 -3 43 -24t34 -36l-128 -150q-16 3 -35.5 18t-26.5 29zM403 756l113 163q16 -3 43 -24t34 -36l-128 -150q-16 3 -35.5 18t-26.5 29zM395 665q151 0 247.5 -98.5t96.5 -241.5t-96.5 -241.5t-247.5 -98.5q-150 0 -246.5 98.5t-96.5 241.5t96.5 241.5
t246.5 98.5zM395 557q-90 0 -150.5 -64.5t-60.5 -167.5t60.5 -167.5t150.5 -64.5t151 64.5t61 167.5t-61 167.5t-151 64.5z" />
    <glyph glyph-name="ohungarumlaut" unicode="&#x151;" horiz-adv-x="529" 
d="M117 506l113 163q16 -3 43 -24t34 -36l-128 -150q-16 3 -35.5 18t-26.5 29zM272 506l113 163q16 -3 43 -24t34 -36l-128 -150q-16 3 -35.5 18t-26.5 29zM264 415q96 0 158 -62.5t62 -152.5t-62 -152.5t-158 -62.5t-158 62.5t-62 152.5t62 152.5t158 62.5zM264 313
q-44 0 -73 -31t-29 -82t29 -82t73 -31t73 31t29 82t-29 82t-73 31z" />
    <glyph glyph-name="OE" unicode="&#x152;" horiz-adv-x="1100" 
d="M739 108h318q10 -54 0 -108h-448v72q-82 -87 -214 -87q-150 0 -246.5 98.5t-96.5 241.5t96.5 241.5t246.5 98.5q131 0 214 -86v71h448q10 -54 0 -108h-318v-158h285q10 -54 0 -108h-285v-168zM395 93q90 0 151 64.5t61 167.5q0 104 -61 168t-151 64t-150.5 -64
t-60.5 -168q0 -103 60.5 -167.5t150.5 -64.5z" />
    <glyph glyph-name="oe" unicode="&#x153;" horiz-adv-x="818" 
d="M582 415q57 0 100 -23t63 -58t28.5 -75.5t-3.5 -74.5h-284q4 -47 36.5 -73.5t81.5 -26.5q63 0 132 41q6 -10 6 -47t-6 -50q-55 -43 -144 -43q-110 0 -168 72q-59 -72 -160 -72q-96 0 -158 62.5t-62 152.5t62 152.5t158 62.5q101 0 160 -72q57 72 158 72zM583 326
q-36 0 -60 -21t-31 -59h171q-1 37 -23 58.5t-57 21.5zM264 313q-44 0 -73 -31t-29 -82t29 -82t73 -31t73 31t29 82t-29 82t-73 31z" />
    <glyph glyph-name="Racute" unicode="&#x154;" horiz-adv-x="636" 
d="M199 756l113 163q16 -3 43 -24t34 -36l-128 -150q-16 3 -35.5 18t-26.5 29zM77 650h253q110 0 176 -59t66 -153q0 -68 -36 -119t-102 -73l167 -246q-71 -13 -142 0l-155 227h-97v-227q-65 -12 -130 0v650zM206 542v-207h123q51 0 81 27.5t30 75.5t-30 76t-81 28h-123z
" />
    <glyph glyph-name="racute" unicode="&#x155;" horiz-adv-x="408" 
d="M110 506l113 163q16 -3 43 -24t34 -36l-128 -150q-16 3 -35.5 18t-26.5 29zM370 397q6 -10 6 -58.5t-6 -62.5q-47 31 -87 31q-30 0 -59 -21.5t-46 -53.5v-232q-59 -11 -118 0v400q51 10 102 0l13 -73q50 88 126 88q43 0 69 -18z" />
    <glyph glyph-name="Rcommaaccent" unicode="&#x156;" horiz-adv-x="636" 
d="M77 650h253q110 0 176 -59t66 -153q0 -68 -36 -119t-102 -73l167 -246q-71 -13 -142 0l-155 227h-97v-227q-65 -12 -130 0v650zM206 542v-207h123q51 0 81 27.5t30 75.5t-30 76t-81 28h-123zM319 -59q32 0 56.5 -22.5t25.5 -68.5q1 -52 -27.5 -108.5t-53.5 -73.5
q-32 -7 -65 0q54 50 81 134q-14 -2 -18 -2q-31 0 -52.5 20t-21.5 50q0 31 21.5 51t53.5 20z" />
    <glyph glyph-name="rcommaaccent" unicode="&#x157;" horiz-adv-x="408" 
d="M370 397q6 -10 6 -58.5t-6 -62.5q-47 31 -87 31q-30 0 -59 -21.5t-46 -53.5v-232q-59 -11 -118 0v400q51 10 102 0l13 -73q50 88 126 88q43 0 69 -18zM205 -59q32 0 56.5 -22.5t25.5 -68.5q1 -52 -27.5 -108.5t-53.5 -73.5q-32 -7 -65 0q54 50 81 134q-14 -2 -18 -2
q-31 0 -52.5 20t-21.5 50q0 31 21.5 51t53.5 20z" />
    <glyph glyph-name="Rcaron" unicode="&#x158;" horiz-adv-x="636" 
d="M294 816l93 94q16 -4 38 -25t28 -37l-139 -139q-7 -6 -19.5 -6t-20.5 6l-138 139q6 16 28 36.5t37 25.5zM77 650h253q110 0 176 -59t66 -153q0 -68 -36 -119t-102 -73l167 -246q-71 -13 -142 0l-155 227h-97v-227q-65 -12 -130 0v650zM206 542v-207h123q51 0 81 27.5
t30 75.5t-30 76t-81 28h-123z" />
    <glyph glyph-name="rcaron" unicode="&#x159;" horiz-adv-x="408" 
d="M204 566l93 94q16 -4 38 -25t28 -37l-139 -139q-7 -6 -19.5 -6t-20.5 6l-138 139q6 16 28 36.5t37 25.5zM370 397q6 -10 6 -58.5t-6 -62.5q-47 31 -87 31q-30 0 -59 -21.5t-46 -53.5v-232q-59 -11 -118 0v400q51 10 102 0l13 -73q50 88 126 88q43 0 69 -18z" />
    <glyph glyph-name="Sacute" unicode="&#x15a;" horiz-adv-x="557" 
d="M183 756l113 163q16 -3 43 -24t34 -36l-128 -150q-16 3 -35.5 18t-26.5 29zM280 665q101 0 182 -54q6 -15 6.5 -64.5t-6.5 -59.5q-107 70 -181 70q-45 0 -71.5 -21.5t-26.5 -56.5q0 -36 28.5 -54t106.5 -42q40 -12 67.5 -24.5t58 -35t46.5 -57.5t16 -82q0 -94 -66 -146.5
t-167 -52.5q-113 0 -198 54q-6 14 -6 64.5t6 60.5q109 -71 193 -71q50 0 78 22.5t28 58.5q0 38 -28 56t-109 43q-39 13 -67 26.5t-57.5 35.5t-45 55t-15.5 76q0 84 61 141.5t167 57.5z" />
    <glyph glyph-name="sacute" unicode="&#x15b;" horiz-adv-x="405" 
d="M108 506l113 163q16 -3 43 -24t34 -36l-128 -150q-16 3 -35.5 18t-26.5 29zM237 247q64 -21 97 -50.5t33 -80.5q0 -63 -49 -97t-120 -34q-39 0 -80 9.5t-62 24.5q-6 14 -6.5 47t6.5 43q74 -47 136 -47q25 0 41 10t16 29q0 17 -14.5 25.5t-51.5 20.5q-3 1 -5 1.5t-5 1.5
l-6 2q-62 21 -95.5 49t-33.5 82q0 61 45 96.5t118 35.5q39 0 78.5 -9.5t61.5 -24.5q6 -14 6 -47t-6 -43q-76 47 -130 47q-24 0 -40 -11t-16 -29q0 -5 1 -9t4 -7.5t5.5 -6t7.5 -5.5t9.5 -5t12 -4.5t12.5 -4t14.5 -4.5t15.5 -5z" />
    <glyph glyph-name="Scedilla" unicode="&#x15e;" horiz-adv-x="557" 
d="M506 184q0 -88 -58 -140t-150 -58v-38q30 2 55.5 -19t25.5 -58q0 -38 -27 -62t-69 -24q-41 0 -74 21q-5 11 -5 31t5 30q38 -26 66 -26q44 2 44 37q0 24 -23.5 33t-54.5 -4v79q-98 10 -166 53q-6 14 -6 64.5t6 60.5q109 -71 193 -71q50 0 78 22.5t28 58.5q0 38 -28 56
t-109 43q-39 13 -67 26.5t-57.5 35.5t-45 55t-15.5 76q0 84 61 141.5t167 57.5q101 0 182 -54q6 -15 6.5 -64.5t-6.5 -59.5q-107 70 -181 70q-45 0 -71.5 -21.5t-26.5 -56.5q0 -36 28.5 -54t106.5 -42q40 -12 67.5 -24.5t58 -35t46.5 -57.5t16 -82z" />
    <glyph glyph-name="scedilla" unicode="&#x15f;" horiz-adv-x="405" 
d="M367 116q0 -58 -42.5 -91.5t-106.5 -38.5v-38q30 2 55.5 -19t25.5 -58q0 -38 -27 -62t-69 -24q-41 0 -74 21q-5 11 -5 31t5 30q38 -26 66 -26q44 2 44 37q0 24 -23.5 33t-54.5 -4v80q-73 9 -105 32q-6 14 -6.5 47t6.5 43q74 -47 136 -47q25 0 41 10t16 29
q0 17 -14.5 25.5t-51.5 20.5q-3 1 -5 1.5t-5 1.5l-6 2q-62 21 -95.5 49t-33.5 82q0 61 45 96.5t118 35.5q39 0 78.5 -9.5t61.5 -24.5q6 -14 6 -47t-6 -43q-76 47 -130 47q-24 0 -40 -11t-16 -29q0 -5 1 -9t4 -7.5t5.5 -6t7.5 -5.5t9.5 -5t12 -4.5t12.5 -4t14.5 -4.5t15.5 -5
q64 -21 97 -50.5t33 -80.5z" />
    <glyph glyph-name="Scaron" unicode="&#x160;" horiz-adv-x="557" 
d="M278 816l93 94q16 -4 38 -25t28 -37l-139 -139q-8 -6 -20 -6t-20 6l-138 139q6 16 28 36.5t37 25.5zM280 665q101 0 182 -54q6 -15 6.5 -64.5t-6.5 -59.5q-107 70 -181 70q-45 0 -71.5 -21.5t-26.5 -56.5q0 -36 28.5 -54t106.5 -42q40 -12 67.5 -24.5t58 -35t46.5 -57.5
t16 -82q0 -94 -66 -146.5t-167 -52.5q-113 0 -198 54q-6 14 -6 64.5t6 60.5q109 -71 193 -71q50 0 78 22.5t28 58.5q0 38 -28 56t-109 43q-39 13 -67 26.5t-57.5 35.5t-45 55t-15.5 76q0 84 61 141.5t167 57.5z" />
    <glyph glyph-name="scaron" unicode="&#x161;" horiz-adv-x="405" 
d="M203 566l93 94q16 -4 38 -25t28 -37l-139 -139q-8 -6 -20 -6t-20 6l-138 139q6 16 28 36.5t37 25.5zM237 247q64 -21 97 -50.5t33 -80.5q0 -63 -49 -97t-120 -34q-39 0 -80 9.5t-62 24.5q-6 14 -6.5 47t6.5 43q74 -47 136 -47q25 0 41 10t16 29q0 17 -14.5 25.5
t-51.5 20.5q-3 1 -5 1.5t-5 1.5l-6 2q-62 21 -95.5 49t-33.5 82q0 61 45 96.5t118 35.5q39 0 78.5 -9.5t61.5 -24.5q6 -14 6 -47t-6 -43q-76 47 -130 47q-24 0 -40 -11t-16 -29q0 -5 1 -9t4 -7.5t5.5 -6t7.5 -5.5t9.5 -5t12 -4.5t12.5 -4t14.5 -4.5t15.5 -5z" />
    <glyph glyph-name="Tcedilla" unicode="&#x162;" horiz-adv-x="587" 
d="M358 542v-542q-22 -4 -38 -4v-48q30 2 55.5 -19t25.5 -58q0 -38 -27 -62t-69 -24q-41 0 -74 21q-5 11 -5 31t5 30q38 -26 66 -26q44 2 44 37q0 24 -23.5 33t-54.5 -4v89q-24 2 -34 4v542h-190q-10 54 0 108h509q10 -54 0 -108h-190z" />
    <glyph glyph-name="tcedilla" unicode="&#x163;" horiz-adv-x="383" 
d="M328 124q7 -10 6.5 -47t-6.5 -51q-31 -33 -90 -40v-38q30 2 55.5 -19t25.5 -58q0 -38 -27 -62t-69 -24q-41 0 -74 21q-5 11 -5 31t5 30q38 -26 66 -26q44 2 44 37q0 24 -23.5 33t-54.5 -4v82q-85 21 -85 128v184h-59q-11 49 0 99h59v130q59 11 118 0v-130h112
q11 -50 0 -99h-112v-167q0 -50 35 -50q33 0 79 40z" />
    <glyph glyph-name="Tcaron" unicode="&#x164;" horiz-adv-x="587" 
d="M293 816l93 94q16 -4 38 -25t28 -37l-139 -139q-8 -6 -20 -6t-20 6l-138 139q6 16 28 36.5t37 25.5zM39 650h509q10 -54 0 -108h-190v-542q-64 -12 -129 0v542h-190q-10 54 0 108z" />
    <glyph glyph-name="tcaron" unicode="&#x165;" horiz-adv-x="383" 
d="M343 665q33 0 57.5 -22.5t25.5 -64.5q1 -48 -26 -85.5t-55 -52.5q-32 -7 -65 0q64 42 81 86q-14 -2 -18 -2q-31 0 -52.5 20t-21.5 50t21.5 50.5t52.5 20.5zM328 124q7 -10 6.5 -47t-6.5 -51q-37 -41 -110 -41q-57 0 -89.5 33.5t-32.5 98.5v184h-59q-11 49 0 99h59v130
q59 11 118 0v-130h112q11 -50 0 -99h-112v-167q0 -50 35 -50q33 0 79 40z" />
    <glyph glyph-name="Tbar" unicode="&#x166;" horiz-adv-x="587" 
d="M358 542v-142h83q11 -44 0 -90h-83v-310q-64 -12 -129 0v311h-83q-11 45 0 89h83v142h-190q-10 54 0 108h509q10 -54 0 -108h-190z" />
    <glyph glyph-name="tbar" unicode="&#x167;" horiz-adv-x="383" 
d="M328 124q7 -10 6.5 -47t-6.5 -51q-37 -41 -110 -41q-57 0 -89.5 33.5t-32.5 98.5v63h-59q-10 40 0 81h59v40h-59q-11 49 0 99h59v130q59 11 118 0v-130h112q11 -50 0 -99h-112v-40h112q10 -40 0 -82h-112v-45q0 -50 35 -50q33 0 79 40z" />
    <glyph glyph-name="Umacron" unicode="&#x16a;" horiz-adv-x="693" 
d="M215 825h259q11 -44 0 -90l-259 1q-11 45 0 89zM488 246v404q66 12 132 0v-385q0 -140 -70.5 -210t-200.5 -70t-201 70t-71 210v385q66 12 132 0v-404q0 -70 37 -111.5t103 -41.5t102.5 41.5t36.5 111.5z" />
    <glyph glyph-name="umacron" unicode="&#x16b;" horiz-adv-x="510" 
d="M124 575h259q11 -44 0 -90l-259 1q-11 44 0 89zM334 128v272q59 11 118 0v-400q-52 -10 -102 0l-9 52q-59 -67 -133 -67q-78 0 -114 45.5t-36 111.5v258q59 11 118 0v-232q0 -81 72 -81q45 0 86 41z" />
    <glyph glyph-name="Uring" unicode="&#x16e;" horiz-adv-x="693" 
d="M347 915q40 0 68 -28t28 -67q0 -40 -28 -68t-68 -28t-68.5 28t-28.5 68q0 39 28.5 67t68.5 28zM347 851q-13 0 -22.5 -9t-9.5 -22t9.5 -22.5t22.5 -9.5t22 9.5t9 22.5t-9 22t-22 9zM488 246v404q66 12 132 0v-385q0 -140 -70.5 -210t-200.5 -70t-201 70t-71 210v385
q66 12 132 0v-404q0 -70 37 -111.5t103 -41.5t102.5 41.5t36.5 111.5z" />
    <glyph glyph-name="uring" unicode="&#x16f;" horiz-adv-x="510" 
d="M256 665q40 0 68 -28t28 -67q0 -40 -28 -68t-68 -28t-68.5 28t-28.5 68q0 39 28.5 67t68.5 28zM255 601q-13 0 -22.5 -9t-9.5 -22t9.5 -22.5t22.5 -9.5t22 9.5t9 22.5t-9 22t-22 9zM334 128v272q59 11 118 0v-400q-52 -10 -102 0l-9 52q-59 -67 -133 -67q-78 0 -114 45.5
t-36 111.5v258q59 11 118 0v-232q0 -81 72 -81q45 0 86 41z" />
    <glyph glyph-name="Uhungarumlaut" unicode="&#x170;" horiz-adv-x="693" 
d="M199 756l113 163q16 -3 43 -24t34 -36l-128 -150q-16 3 -35.5 18t-26.5 29zM354 756l113 163q16 -3 43 -24t34 -36l-128 -150q-16 3 -35.5 18t-26.5 29zM488 246v404q66 12 132 0v-385q0 -140 -70.5 -210t-200.5 -70t-201 70t-71 210v385q66 12 132 0v-404
q0 -70 37 -111.5t103 -41.5t102.5 41.5t36.5 111.5z" />
    <glyph glyph-name="uhungarumlaut" unicode="&#x171;" horiz-adv-x="510" 
d="M108 506l113 163q16 -3 43 -24t34 -36l-128 -150q-16 3 -35.5 18t-26.5 29zM263 506l113 163q16 -3 43 -24t34 -36l-128 -150q-16 3 -35.5 18t-26.5 29zM334 128v272q59 11 118 0v-400q-52 -10 -102 0l-9 52q-59 -67 -133 -67q-78 0 -114 45.5t-36 111.5v258q59 11 118 0
v-232q0 -81 72 -81q45 0 86 41z" />
    <glyph glyph-name="Uogonek" unicode="&#x172;" horiz-adv-x="693" 
d="M488 246v404q66 12 132 0v-385q0 -201 -145 -259q-57 -46 -57 -87q0 -23 15.5 -38t43.5 -15q19 0 27 4q12 -35 0 -72q-17 -5 -44 -5q-45 0 -75 26t-30 71q0 54 47 98q-26 -3 -53 -3q-130 0 -201 70t-71 210v385q66 12 132 0v-404q0 -70 37 -111.5t103 -41.5t102.5 41.5
t36.5 111.5z" />
    <glyph glyph-name="uogonek" unicode="&#x173;" horiz-adv-x="510" 
d="M479 -137q12 -37 0 -73q-17 -5 -44 -5q-45 0 -75 26t-30 71q0 63 63 113q-18 0 -43 5l-9 52q-59 -67 -133 -67q-78 0 -114 45.5t-36 111.5v258q59 11 118 0v-232q0 -81 72 -81q45 0 86 41v272q59 11 118 0v-400q-59 -48 -59 -88q0 -23 15.5 -38.5t43.5 -15.5q17 0 27 5z
" />
    <glyph glyph-name="Wcircumflex" unicode="&#x174;" horiz-adv-x="1019" 
d="M529 908l139 -139q-6 -16 -28 -37t-38 -25l-93 95l-93 -95q-15 5 -37 25.5t-28 36.5l138 139q8 7 20 7t20 -7zM986 650l-224 -650q-54 -10 -108 0l-144 435l-144 -435q-54 -10 -108 0l-224 650q67 13 134 0l144 -457l144 457q54 10 108 0l144 -457l144 457q67 13 134 0z
" />
    <glyph glyph-name="wcircumflex" unicode="&#x175;" horiz-adv-x="751" 
d="M395 658l139 -139q-6 -16 -28 -37t-38 -25l-93 95l-93 -95q-15 5 -37 25.5t-28 36.5l138 139q8 7 20.5 7t19.5 -7zM187 0l-155 400q63 12 125 0l79 -244l91 244q49 12 97 0l91 -244l79 244q62 12 125 0l-155 -400q-48 -12 -96 0l-92 252l-93 -252q-48 -12 -96 0z" />
    <glyph glyph-name="Ycircumflex" unicode="&#x176;" horiz-adv-x="679" 
d="M359 908l139 -139q-6 -16 -28 -37t-38 -25l-93 95l-93 -95q-15 5 -37 25.5t-28 36.5l138 139q8 7 20 7t20 -7zM405 232v-232q-65 -12 -130 0v232l-241 418q69 13 139 0l167 -297l166 297q70 13 139 0z" />
    <glyph glyph-name="ycircumflex" unicode="&#x177;" horiz-adv-x="518" 
d="M279 658l139 -139q-6 -16 -28 -37t-38 -25l-93 95l-93 -95q-15 5 -37 25.5t-28 36.5l138 139q8 7 20.5 7t19.5 -7zM259 161l103 239q62 12 124 0l-256 -563q-60 -11 -120 0l89 196l-167 367q62 12 124 0z" />
    <glyph glyph-name="Ydieresis" unicode="&#x178;" horiz-adv-x="679" 
d="M219 877q32 0 53.5 -20t21.5 -51t-21.5 -51t-53.5 -20t-53.5 20t-21.5 51t21.5 51t53.5 20zM461 877q32 0 53.5 -20t21.5 -51t-21.5 -51t-53.5 -20t-53.5 20t-21.5 51t21.5 51t53.5 20zM405 232v-232q-65 -12 -130 0v232l-241 418q69 13 139 0l167 -297l166 297
q70 13 139 0z" />
    <glyph glyph-name="Zacute" unicode="&#x179;" horiz-adv-x="559" 
d="M185 756l113 163q16 -3 43 -24t34 -36l-128 -150q-16 3 -35.5 18t-26.5 29zM229 108h286q10 -54 0 -108h-477v10l292 532h-276q-10 54 0 108h466v-10z" />
    <glyph glyph-name="zacute" unicode="&#x17a;" horiz-adv-x="432" 
d="M122 506l113 163q16 -3 43 -24t34 -36l-128 -150q-16 3 -35.5 18t-26.5 29zM212 102l178 1q10 -51 0 -103h-353v9l183 289h-167q-10 51 0 102h342v-9z" />
    <glyph glyph-name="Zdotaccent" unicode="&#x17b;" horiz-adv-x="559" 
d="M280 735q-32 0 -53.5 20t-21.5 51t21.5 51t53.5 20t53.5 -20t21.5 -51t-21.5 -51t-53.5 -20zM229 108h286q10 -54 0 -108h-477v10l292 532h-276q-10 54 0 108h466v-10z" />
    <glyph glyph-name="zdotaccent" unicode="&#x17c;" horiz-adv-x="432" 
d="M217 485q-32 0 -53.5 20t-21.5 51t21.5 51t53.5 20t53.5 -20t21.5 -51t-21.5 -51t-53.5 -20zM212 102l178 1q10 -51 0 -103h-353v9l183 289h-167q-10 51 0 102h342v-9z" />
    <glyph glyph-name="Zcaron" unicode="&#x17d;" horiz-adv-x="559" 
d="M280 816l93 94q16 -4 38 -25t28 -37l-139 -139q-8 -6 -20 -6t-20 6l-138 139q6 16 28 36.5t37 25.5zM229 108h286q10 -54 0 -108h-477v10l292 532h-276q-10 54 0 108h466v-10z" />
    <glyph glyph-name="zcaron" unicode="&#x17e;" horiz-adv-x="432" 
d="M216 566l93 94q16 -4 38 -25t28 -37l-139 -139q-8 -6 -20 -6t-20 6l-138 139q6 16 28 36.5t37 25.5zM212 102l178 1q10 -51 0 -103h-353v9l183 289h-167q-10 51 0 102h342v-9z" />
    <glyph glyph-name="Acaron" unicode="&#x1cd;" horiz-adv-x="709" 
d="M355 816l93 94q16 -4 38 -25t28 -37l-139 -139q-7 -6 -19.5 -6t-20.5 6l-138 139q6 16 28 36.5t37 25.5zM409 650l267 -650q-67 -13 -134 0l-56 144h-262l-56 -144q-67 -13 -134 0l267 650q54 10 108 0zM265 253h180l-90 230z" />
    <glyph glyph-name="acaron" unicode="&#x1ce;" horiz-adv-x="478" 
d="M238 566l93 94q16 -4 38 -25t28 -37l-139 -139q-8 -6 -20 -6t-20 6l-138 139q6 16 28 36.5t37 25.5zM231 415q188 0 188 -188v-227q-51 -10 -102 0l-7 43q-51 -58 -128 -58q-60 0 -100.5 34.5t-40.5 94.5q0 59 40.5 94t104.5 35q71 0 115 -38v32q0 83 -94 83
q-61 0 -127 -38q-7 10 -6.5 45.5t6.5 49.5q57 38 151 38zM217 170q-29 0 -44 -13.5t-15 -34.5t15 -35t43 -14q48 0 85 30v38q-13 11 -37 20t-47 9z" />
    <glyph glyph-name="Icaron" unicode="&#x1cf;" horiz-adv-x="283" 
d="M141 816l94 94q15 -5 37 -25.5t28 -36.5l-139 -139q-8 -6 -20 -6t-20 6l-138 139q6 16 28 36.5t37 25.5zM207 650v-650q-65 -12 -130 0v650q65 12 130 0z" />
    <glyph glyph-name="icaron" unicode="&#x1d0;" horiz-adv-x="241" 
d="M122 566l93 94q15 -5 37.5 -25.5t28.5 -36.5l-139 -139q-7 -6 -19.5 -6t-20.5 6l-138 139q6 16 28 36.5t37 25.5zM180 400v-400q-59 -11 -118 0v400q59 11 118 0z" />
    <glyph glyph-name="Ocaron" unicode="&#x1d1;" horiz-adv-x="790" 
d="M395 816l93 94q16 -4 38 -25t28 -37l-139 -139q-7 -6 -19.5 -6t-20.5 6l-138 139q6 16 28 36.5t37 25.5zM395 665q151 0 247.5 -98.5t96.5 -241.5t-96.5 -241.5t-247.5 -98.5q-150 0 -246.5 98.5t-96.5 241.5t96.5 241.5t246.5 98.5zM395 557q-90 0 -150.5 -64.5
t-60.5 -167.5t60.5 -167.5t150.5 -64.5t151 64.5t61 167.5t-61 167.5t-151 64.5z" />
    <glyph glyph-name="ocaron" unicode="&#x1d2;" horiz-adv-x="529" 
d="M264 566l93 94q16 -4 38 -25t28 -37l-139 -139q-8 -6 -20 -6t-20 6l-138 139q6 16 28 36.5t37 25.5zM264 415q96 0 158 -62.5t62 -152.5t-62 -152.5t-158 -62.5t-158 62.5t-62 152.5t62 152.5t158 62.5zM264 313q-44 0 -73 -31t-29 -82t29 -82t73 -31t73 31t29 82t-29 82
t-73 31z" />
    <glyph glyph-name="Ucaron" unicode="&#x1d3;" horiz-adv-x="693" 
d="M347 816l93 94q16 -4 38 -25t28 -37l-139 -139q-7 -6 -19.5 -6t-20.5 6l-138 139q6 16 28 36.5t37 25.5zM488 246v404q66 12 132 0v-385q0 -140 -70.5 -210t-200.5 -70t-201 70t-71 210v385q66 12 132 0v-404q0 -70 37 -111.5t103 -41.5t102.5 41.5t36.5 111.5z" />
    <glyph glyph-name="ucaron" unicode="&#x1d4;" horiz-adv-x="510" 
d="M255 566l93 94q16 -4 38 -25t28 -37l-139 -139q-7 -6 -19.5 -6t-20.5 6l-138 139q6 16 28 36.5t37 25.5zM334 128v272q59 11 118 0v-400q-52 -10 -102 0l-9 52q-59 -67 -133 -67q-78 0 -114 45.5t-36 111.5v258q59 11 118 0v-232q0 -81 72 -81q45 0 86 41z" />
    <glyph glyph-name="Udieresismacron" unicode="&#x1d5;" horiz-adv-x="693" 
d="M215 1024h259q11 -44 0 -90h-259q-11 46 0 90zM226 877q32 0 53.5 -20t21.5 -51t-21.5 -51t-53.5 -20t-53.5 20t-21.5 51t21.5 51t53.5 20zM469 877q32 0 53.5 -20t21.5 -51t-21.5 -51t-53.5 -20t-53.5 20t-21.5 51t21.5 51t53.5 20zM488 246v404q66 12 132 0v-385
q0 -140 -70.5 -210t-200.5 -70t-201 70t-71 210v385q66 12 132 0v-404q0 -70 37 -111.5t103 -41.5t102.5 41.5t36.5 111.5z" />
    <glyph glyph-name="udieresismacron" unicode="&#x1d6;" horiz-adv-x="510" 
d="M124 773h259q11 -44 0 -90l-259 1q-11 45 0 89zM134 627q32 0 53.5 -20t21.5 -51t-21.5 -51t-53.5 -20t-53.5 20t-21.5 51t21.5 51t53.5 20zM377 627q32 0 53.5 -20t21.5 -51t-21.5 -51t-53.5 -20t-53.5 20t-21.5 51t21.5 51t53.5 20zM334 128v272q59 11 118 0v-400
q-52 -10 -102 0l-9 52q-59 -67 -133 -67q-78 0 -114 45.5t-36 111.5v258q59 11 118 0v-232q0 -81 72 -81q45 0 86 41z" />
    <glyph glyph-name="Udieresisacute" unicode="&#x1d7;" horiz-adv-x="693" 
d="M252 970l113 163q17 -3 43.5 -23.5t33.5 -35.5l-128 -151q-16 3 -35.5 18t-26.5 29zM226 877q32 0 53.5 -20t21.5 -51t-21.5 -51t-53.5 -20t-53.5 20t-21.5 51t21.5 51t53.5 20zM469 877q32 0 53.5 -20t21.5 -51t-21.5 -51t-53.5 -20t-53.5 20t-21.5 51t21.5 51t53.5 20z
M488 246v404q66 12 132 0v-385q0 -140 -70.5 -210t-200.5 -70t-201 70t-71 210v385q66 12 132 0v-404q0 -70 37 -111.5t103 -41.5t102.5 41.5t36.5 111.5z" />
    <glyph glyph-name="udieresisacute" unicode="&#x1d8;" horiz-adv-x="510" 
d="M160 720l113 162q17 -3 43.5 -23.5t33.5 -35.5l-128 -150q-16 3 -35.5 18t-26.5 29zM134 627q32 0 53.5 -20t21.5 -51t-21.5 -51t-53.5 -20t-53.5 20t-21.5 51t21.5 51t53.5 20zM377 627q32 0 53.5 -20t21.5 -51t-21.5 -51t-53.5 -20t-53.5 20t-21.5 51t21.5 51t53.5 20z
M334 128v272q59 11 118 0v-400q-52 -10 -102 0l-9 52q-59 -67 -133 -67q-78 0 -114 45.5t-36 111.5v258q59 11 118 0v-232q0 -81 72 -81q45 0 86 41z" />
    <glyph glyph-name="Udieresiscaron" unicode="&#x1d9;" horiz-adv-x="693" 
d="M347 1030l93 94q15 -4 37.5 -25t28.5 -36l-139 -140q-7 -6 -19.5 -6t-20.5 6l-138 140q6 15 28 36t37 25zM226 877q32 0 53.5 -20t21.5 -51t-21.5 -51t-53.5 -20t-53.5 20t-21.5 51t21.5 51t53.5 20zM469 877q32 0 53.5 -20t21.5 -51t-21.5 -51t-53.5 -20t-53.5 20
t-21.5 51t21.5 51t53.5 20zM488 246v404q66 12 132 0v-385q0 -140 -70.5 -210t-200.5 -70t-201 70t-71 210v385q66 12 132 0v-404q0 -70 37 -111.5t103 -41.5t102.5 41.5t36.5 111.5z" />
    <glyph glyph-name="udieresiscaron" unicode="&#x1da;" horiz-adv-x="510" 
d="M255 780l93 94q15 -4 37.5 -25t28.5 -36l-139 -140q-7 -6 -19.5 -6t-20.5 6l-138 140q6 15 28 36t37 25zM134 627q32 0 53.5 -20t21.5 -51t-21.5 -51t-53.5 -20t-53.5 20t-21.5 51t21.5 51t53.5 20zM377 627q32 0 53.5 -20t21.5 -51t-21.5 -51t-53.5 -20t-53.5 20
t-21.5 51t21.5 51t53.5 20zM334 128v272q59 11 118 0v-400q-52 -10 -102 0l-9 52q-59 -67 -133 -67q-78 0 -114 45.5t-36 111.5v258q59 11 118 0v-232q0 -81 72 -81q45 0 86 41z" />
    <glyph glyph-name="Udieresisgrave" unicode="&#x1db;" horiz-adv-x="693" 
d="M329 1133l113 -163q-7 -14 -26.5 -29t-35.5 -18l-128 151q7 15 33.5 35.5t43.5 23.5zM226 877q32 0 53.5 -20t21.5 -51t-21.5 -51t-53.5 -20t-53.5 20t-21.5 51t21.5 51t53.5 20zM469 877q32 0 53.5 -20t21.5 -51t-21.5 -51t-53.5 -20t-53.5 20t-21.5 51t21.5 51t53.5 20
zM488 246v404q66 12 132 0v-385q0 -140 -70.5 -210t-200.5 -70t-201 70t-71 210v385q66 12 132 0v-404q0 -70 37 -111.5t103 -41.5t102.5 41.5t36.5 111.5z" />
    <glyph glyph-name="udieresisgrave" unicode="&#x1dc;" horiz-adv-x="510" 
d="M237 883l113 -163q-7 -14 -26.5 -29t-35.5 -18l-128 151q7 15 33.5 35.5t43.5 23.5zM134 627q32 0 53.5 -20t21.5 -51t-21.5 -51t-53.5 -20t-53.5 20t-21.5 51t21.5 51t53.5 20zM377 627q32 0 53.5 -20t21.5 -51t-21.5 -51t-53.5 -20t-53.5 20t-21.5 51t21.5 51t53.5 20z
M334 128v272q59 11 118 0v-400q-52 -10 -102 0l-9 52q-59 -67 -133 -67q-78 0 -114 45.5t-36 111.5v258q59 11 118 0v-232q0 -81 72 -81q45 0 86 41z" />
    <glyph glyph-name="Scommaaccent" unicode="&#x218;" horiz-adv-x="557" 
d="M280 665q101 0 182 -54q6 -15 6.5 -64.5t-6.5 -59.5q-107 70 -181 70q-45 0 -71.5 -21.5t-26.5 -56.5q0 -36 28.5 -54t106.5 -42q40 -12 67.5 -24.5t58 -35t46.5 -57.5t16 -82q0 -94 -66 -146.5t-167 -52.5q-113 0 -198 54q-6 14 -6 64.5t6 60.5q109 -71 193 -71
q50 0 78 22.5t28 58.5q0 38 -28 56t-109 43q-39 13 -67 26.5t-57.5 35.5t-45 55t-15.5 76q0 84 61 141.5t167 57.5zM271 -59q32 0 56.5 -22.5t25.5 -68.5q1 -52 -27.5 -108.5t-53.5 -73.5q-32 -7 -65 0q54 50 81 134q-14 -2 -18 -2q-31 0 -52.5 20t-21.5 50q0 31 21.5 51
t53.5 20z" />
    <glyph glyph-name="scommaaccent" unicode="&#x219;" horiz-adv-x="405" 
d="M237 247q64 -21 97 -50.5t33 -80.5q0 -63 -49 -97t-120 -34q-39 0 -80 9.5t-62 24.5q-6 14 -6.5 47t6.5 43q74 -47 136 -47q25 0 41 10t16 29q0 17 -14.5 25.5t-51.5 20.5q-3 1 -5 1.5t-5 1.5l-6 2q-62 21 -95.5 49t-33.5 82q0 61 45 96.5t118 35.5q39 0 78.5 -9.5
t61.5 -24.5q6 -14 6 -47t-6 -43q-76 47 -130 47q-24 0 -40 -11t-16 -29q0 -5 1 -9t4 -7.5t5.5 -6t7.5 -5.5t9.5 -5t12 -4.5t12.5 -4t14.5 -4.5t15.5 -5zM191 -59q32 0 56.5 -22.5t25.5 -68.5q1 -52 -27.5 -108.5t-53.5 -73.5q-32 -7 -65 0q54 50 81 134q-14 -2 -18 -2
q-31 0 -52.5 20t-21.5 50q0 31 21.5 51t53.5 20z" />
    <glyph glyph-name="uni021A" unicode="&#x21a;" horiz-adv-x="587" 
d="M39 650h509q10 -54 0 -108h-190v-542q-64 -12 -129 0v542h-190q-10 54 0 108zM294 -59q32 0 56.5 -22.5t25.5 -68.5q1 -52 -27.5 -108.5t-53.5 -73.5q-32 -7 -65 0q54 50 81 134q-14 -2 -18 -2q-31 0 -52.5 20t-21.5 50q0 31 21.5 51t53.5 20z" />
    <glyph glyph-name="uni021B" unicode="&#x21b;" horiz-adv-x="383" 
d="M328 124q7 -10 6.5 -47t-6.5 -51q-37 -41 -110 -41q-57 0 -89.5 33.5t-32.5 98.5v184h-59q-11 49 0 99h59v130q59 11 118 0v-130h112q11 -50 0 -99h-112v-167q0 -50 35 -50q33 0 79 40zM211 -59q32 0 56.5 -22.5t25.5 -68.5q1 -52 -27.5 -108.5t-53.5 -73.5q-32 -7 -65 0
q54 50 81 134q-14 -2 -18 -2q-31 0 -52.5 20t-21.5 50q0 31 21.5 51t53.5 20z" />
    <glyph glyph-name="circumflex" unicode="&#x2c6;" horiz-adv-x="385" 
d="M212 908l139 -139q-6 -16 -28 -37t-38 -25l-93 95l-93 -95q-15 5 -37 25.5t-28 36.5l138 139q8 7 20 7t20 -7z" />
    <glyph glyph-name="caron" unicode="&#x2c7;" horiz-adv-x="385" 
d="M192 816l93 94q16 -4 38 -25t28 -37l-139 -139q-7 -6 -19.5 -6t-20.5 6l-138 139q6 16 28 36.5t37 25.5z" />
    <glyph glyph-name="breve" unicode="&#x2d8;" horiz-adv-x="369" 
d="M329 872q6 -9 6 -46t-6 -51q-59 -43 -144 -43q-86 0 -145 43q-6 14 -6 51t6 46q67 -40 145 -40q77 0 144 40z" />
    <glyph glyph-name="dotaccent" unicode="&#x2d9;" horiz-adv-x="219" 
d="M109 735q-32 0 -53.5 20t-21.5 51t21.5 51t53.5 20t53.5 -20t21.5 -51t-21.5 -51t-53.5 -20z" />
    <glyph glyph-name="ring" unicode="&#x2da;" horiz-adv-x="261" 
d="M131 915q40 0 68 -28t28 -67q0 -40 -28 -68t-68 -28t-68.5 28t-28.5 68q0 39 28.5 67t68.5 28zM131 851q-13 0 -22.5 -9t-9.5 -22t9.5 -22.5t22.5 -9.5t22 9.5t9 22.5t-9 22t-22 9z" />
    <glyph glyph-name="ogonek" unicode="&#x2db;" horiz-adv-x="223" 
d="M104 0h52q-59 -48 -59 -88q0 -23 15.5 -38.5t43.5 -15.5q17 0 27 5q12 -37 0 -73q-17 -5 -44 -5q-45 0 -75 26t-30 71q0 67 70 118z" />
    <glyph glyph-name="tilde" unicode="&#x2dc;" horiz-adv-x="378" 
d="M126 856q27 0 75 -22q27 -12 52 -12q28 0 86 30q11 -46 0 -90q-3 -1 -13 -6.5t-14 -7.5t-13 -6t-15 -5.5t-14.5 -3t-16.5 -1.5q-27 0 -75 22q-27 12 -52 12q-28 0 -86 -30q-11 46 0 90q3 1 13 6.5t14 7.5t13 6t15 5.5t14.5 3t16.5 1.5z" />
    <glyph glyph-name="hungarumlaut" unicode="&#x2dd;" horiz-adv-x="414" 
d="M34 756l113 163q16 -3 43 -24t34 -36l-128 -150q-16 3 -35.5 18t-26.5 29zM189 756l113 163q16 -3 43 -24t34 -36l-128 -150q-16 3 -35.5 18t-26.5 29z" />
    <glyph glyph-name="uni0326" unicode="&#x326;" horiz-adv-x="0" 
d="M110 -59q32 0 56.5 -22.5t25.5 -68.5q1 -52 -27.5 -108.5t-53.5 -73.5q-32 -7 -65 0q54 50 81 134q-14 -2 -18 -2q-31 0 -52.5 20t-21.5 50q0 31 21.5 51t53.5 20z" />
    <glyph glyph-name="uni0401" unicode="&#x401;" horiz-adv-x="567" 
d="M185 877q32 0 53.5 -20t21.5 -51t-21.5 -51t-53.5 -20t-53.5 20t-21.5 51t21.5 51t53.5 20zM412 877q32 0 53.5 -20t21.5 -51t-21.5 -51t-53.5 -20t-53.5 20t-21.5 51t21.5 51t53.5 20zM77 650h447q10 -54 0 -108h-317v-158h285q10 -54 0 -108h-285v-168h317
q10 -54 0 -108h-447v650z" />
    <glyph glyph-name="uni0410" unicode="&#x410;" horiz-adv-x="709" 
d="M409 650l267 -650q-67 -13 -134 0l-56 144h-262l-56 -144q-67 -13 -134 0l267 650q54 10 108 0zM265 253h180l-90 230z" />
    <glyph glyph-name="uni0411" unicode="&#x411;" horiz-adv-x="612" 
d="M207 411h118q110 0 175.5 -57.5t65.5 -146.5q0 -90 -65.5 -148.5t-175.5 -58.5h-248v650h427q10 -54 0 -108h-297v-131zM206 108h118q50 0 80 27.5t30 71.5q0 43 -30 70.5t-80 27.5h-118v-197z" />
    <glyph glyph-name="uni0412" unicode="&#x412;" horiz-adv-x="610" 
d="M77 650h271q92 0 150 -47t58 -121q0 -102 -92 -145q51 -20 79.5 -60.5t28.5 -94.5q0 -84 -60 -133t-162 -49h-273v650zM206 542v-167h131q41 0 65 22t24 61q0 40 -24.5 62t-67.5 22h-128zM206 283v-175h136q47 0 72.5 23.5t25.5 65.5q0 41 -25.5 63.5t-74.5 22.5h-134z
" />
    <glyph glyph-name="uni0413" unicode="&#x413;" horiz-adv-x="541" 
d="M77 650h425q12 -54 0 -108h-295v-542q-65 -12 -130 0v650z" />
    <glyph glyph-name="uni0414" unicode="&#x414;" horiz-adv-x="778" 
d="M745 108v-213q-65 -12 -130 0v105h-451v-105q-65 -12 -130 0v213h60q66 35 79 160l40 382h450v-542h82zM533 542h-203l-28 -274q-12 -115 -58 -160h289v434z" />
    <glyph glyph-name="uni0415" unicode="&#x415;" horiz-adv-x="567" 
d="M207 108h317q10 -54 0 -108h-447v650h447q10 -54 0 -108h-317v-158h285q10 -54 0 -108h-285v-168z" />
    <glyph glyph-name="uni0416" unicode="&#x416;" horiz-adv-x="922" 
d="M656 334l233 -334q-28 -5 -73 -5t-73 5l-217 311v-311q-65 -12 -129 0v311l-217 -311q-28 -5 -73 -5t-73 5l233 335l-222 315q28 6 73.5 6t73.5 -6l205 -293v293q64 14 129 0v-293l205 293q28 5 73.5 5t73.5 -5z" />
    <glyph glyph-name="uni0417" unicode="&#x417;" horiz-adv-x="570" 
d="M422 335q53 -21 81.5 -63.5t28.5 -98.5q0 -87 -68.5 -138t-177.5 -51q-122 0 -207 54q-6 13 -6 61t6 58q99 -65 200 -65q50 0 85.5 25t35.5 72q0 40 -25 64t-75 24h-104q-10 52 0 103h101q40 0 64.5 24t24.5 64q0 41 -27.5 65t-75.5 24q-94 0 -194 -64q-6 10 -6 57.5
t6 60.5q85 54 201 54q104 0 165 -49t61 -127q0 -52 -25.5 -92.5t-68.5 -61.5z" />
    <glyph glyph-name="uni0418" unicode="&#x418;" horiz-adv-x="720" 
d="M646 650v-650q-64 -12 -129 0v432l-342 -432q-51 -10 -102 0v650q65 12 130 0v-432l341 432q52 10 102 0z" />
    <glyph glyph-name="uni0419" unicode="&#x419;" horiz-adv-x="720" 
d="M503 872q6 -9 6 -46t-6 -51q-59 -43 -144 -43q-86 0 -145 43q-6 14 -6 51t6 46q67 -40 145 -40q77 0 144 40zM646 650v-650q-64 -12 -129 0v432l-342 -432q-51 -10 -102 0v650q65 12 130 0v-432l341 432q52 10 102 0z" />
    <glyph glyph-name="uni041A" unicode="&#x41a;" horiz-adv-x="657" 
d="M345 334l279 -334q-28 -5 -77.5 -5t-77.5 5l-262 315v-315q-65 -12 -130 0v650q65 12 130 0v-297l251 297q28 5 77.5 5t77.5 -5z" />
    <glyph glyph-name="uni041B" unicode="&#x41b;" horiz-adv-x="723" 
d="M648 650v-650q-65 -12 -130 0v542h-205l-36 -359q-20 -198 -176 -198q-33 0 -62 9q-10 55 0 109q18 -2 26 -2q73 0 82 94l47 455h454z" />
    <glyph glyph-name="uni041C" unicode="&#x41c;" horiz-adv-x="914" 
d="M727 650l153 -650q-63 -12 -126 0l-94 419l-151 -419q-51 -10 -104 0l-151 419l-93 -419q-63 -12 -127 0l153 650q54 10 109 0l161 -447l161 447q55 10 109 0z" />
    <glyph glyph-name="uni041D" unicode="&#x41d;" horiz-adv-x="727" 
d="M522 384v266q65 12 129 0v-650q-65 -12 -129 0v276h-315v-276q-65 -12 -130 0v650q65 12 130 0v-266h315z" />
    <glyph glyph-name="uni041E" unicode="&#x41e;" horiz-adv-x="790" 
d="M395 665q151 0 247.5 -98.5t96.5 -241.5t-96.5 -241.5t-247.5 -98.5q-150 0 -246.5 98.5t-96.5 241.5t96.5 241.5t246.5 98.5zM395 557q-90 0 -150.5 -64.5t-60.5 -167.5t60.5 -167.5t150.5 -64.5t151 64.5t61 167.5t-61 167.5t-151 64.5z" />
    <glyph glyph-name="uni041F" unicode="&#x41f;" horiz-adv-x="727" 
d="M651 650v-650q-65 -12 -129 0v542h-315v-542q-65 -12 -130 0v650h574z" />
    <glyph glyph-name="uni0420" unicode="&#x420;" horiz-adv-x="617" 
d="M77 650h247q110 0 176 -60t66 -155t-66 -155t-176 -60h-117v-220q-65 -12 -130 0v650zM206 328h117q51 0 81 28.5t30 78.5q0 49 -30 78t-81 29h-117v-214z" />
    <glyph glyph-name="uni0421" unicode="&#x421;" horiz-adv-x="695" 
d="M420 93q97 0 197 64q6 -10 6 -57.5t-6 -60.5q-85 -54 -204 -54q-162 0 -261.5 98t-99.5 242t99.5 242t261.5 98q119 0 204 -54q6 -13 6 -60.5t-6 -57.5q-100 64 -197 64q-101 0 -168.5 -64.5t-67.5 -167.5t67.5 -167.5t168.5 -64.5z" />
    <glyph glyph-name="uni0422" unicode="&#x422;" horiz-adv-x="587" 
d="M39 650h509q10 -54 0 -108h-190v-542q-64 -12 -129 0v542h-190q-10 54 0 108z" />
    <glyph glyph-name="uni0423" unicode="&#x423;" horiz-adv-x="679" 
d="M340 353l166 297q70 13 139 0l-374 -650q-69 -13 -139 0l139 239l-237 411q69 13 139 0z" />
    <glyph glyph-name="uni0424" unicode="&#x424;" horiz-adv-x="907" 
d="M519 586h40q73 0 131.5 -22.5t93.5 -60t53.5 -83.5t18.5 -95t-18.5 -94.5t-53.5 -83t-93.5 -60t-131.5 -22.5h-40v-65q-65 -12 -130 0v65h-40q-73 0 -131.5 22.5t-93.5 60t-53.5 83t-18.5 94.5t18.5 95t53.5 83.5t93.5 60t131.5 22.5h40v64q65 12 130 0v-64zM389 478h-42
q-77 0 -120 -44t-43 -109q0 -64 43 -108t120 -44h42v305zM518 173h43q77 0 119.5 44t42.5 108t-42.5 108.5t-119.5 44.5h-43v-305z" />
    <glyph glyph-name="uni0425" unicode="&#x425;" horiz-adv-x="662" 
d="M418 334l210 -334q-28 -5 -74.5 -5t-73.5 5l-153 243l-144 -243q-28 -5 -74.5 -5t-74.5 5l210 334l-201 316q28 5 74.5 5t74.5 -5l143 -227l135 227q28 5 74.5 5t74.5 -5z" />
    <glyph glyph-name="uni0426" unicode="&#x426;" horiz-adv-x="749" 
d="M716 108v-213q-65 -12 -130 0v105h-509v650q65 12 130 0v-542h297v542q65 12 130 0v-542h82z" />
    <glyph glyph-name="uni0427" unicode="&#x427;" horiz-adv-x="653" 
d="M447 381v269q65 12 130 0v-650q-65 -12 -130 0v283q-28 -29 -78 -50t-108 -21q-95 0 -149.5 59.5t-54.5 156.5v222q65 12 130 0v-203q0 -126 118 -126q87 0 142 60z" />
    <glyph glyph-name="uni0428" unicode="&#x428;" horiz-adv-x="983" 
d="M778 108v542q64 12 129 0v-650h-830v650q65 12 130 0v-542h220v542q65 12 130 0v-542h221z" />
    <glyph glyph-name="uni0429" unicode="&#x429;" horiz-adv-x="1022" 
d="M989 108v-213q-65 -12 -130 0v105h-782v650q65 12 130 0v-542h220v542q65 12 130 0v-542h221v542q64 12 129 0v-542h82z" />
    <glyph glyph-name="uni042A" unicode="&#x42a;" horiz-adv-x="695" 
d="M283 429h117q111 0 177 -60t66 -154q0 -95 -66 -155t-177 -60h-246v542h-115q-10 54 0 108h244v-221zM283 108h117q51 0 81 29t30 78t-30 77.5t-81 28.5h-117v-213z" />
    <glyph glyph-name="uni042B" unicode="&#x42b;" horiz-adv-x="839" 
d="M207 429h117q110 0 176 -60t66 -154q0 -95 -66 -155t-176 -60h-247v650q65 12 130 0v-221zM633 0v650q65 12 130 0v-650q-65 -12 -130 0zM206 108h117q51 0 81 29t30 78t-30 77.5t-81 28.5h-117v-213z" />
    <glyph glyph-name="uni042C" unicode="&#x42c;" horiz-adv-x="617" 
d="M207 429h117q110 0 176 -60t66 -154q0 -95 -66 -155t-176 -60h-247v650q65 12 130 0v-221zM206 108h117q51 0 81 29t30 78t-30 77.5t-81 28.5h-117v-213z" />
    <glyph glyph-name="uni042D" unicode="&#x42d;" horiz-adv-x="695" 
d="M284 665q168 0 264 -97t96 -243t-96 -243t-264 -97q-120 0 -205 54q-6 13 -6 60.5t6 57.5q100 -64 198 -64q92 0 153.5 49t75.5 131h-266q-10 54 0 108h266q-16 81 -77 128.5t-152 47.5q-98 0 -198 -64q-6 10 -6 57.5t6 60.5q85 54 205 54z" />
    <glyph glyph-name="uni042E" unicode="&#x42e;" horiz-adv-x="1037" 
d="M642 665q151 0 247.5 -98.5t96.5 -241.5t-96.5 -241.5t-247.5 -98.5q-136 0 -228.5 81.5t-110.5 206.5h-96v-273q-65 -12 -130 0v650q65 12 130 0v-269h96q19 124 112 204t227 80zM641 93q90 0 151 64.5t61 167.5t-61 167.5t-151 64.5t-150.5 -64.5t-60.5 -167.5
t60.5 -167.5t150.5 -64.5z" />
    <glyph glyph-name="uni042F" unicode="&#x42f;" horiz-adv-x="636" 
d="M560 650v-650q-65 -12 -130 0v227h-97l-155 -227q-71 -13 -142 0l167 246q-66 22 -102 73t-36 119q0 94 65 153t175 59h255zM430 542h-123q-51 0 -81 -28t-30 -76t30 -75.5t81 -27.5h123v207z" />
    <glyph glyph-name="uni0430" unicode="&#x430;" horiz-adv-x="478" 
d="M231 415q188 0 188 -188v-227q-51 -10 -102 0l-7 43q-51 -58 -128 -58q-60 0 -100.5 34.5t-40.5 94.5q0 59 40.5 94t104.5 35q71 0 115 -38v32q0 83 -94 83q-61 0 -127 -38q-7 10 -6.5 45.5t6.5 49.5q57 38 151 38zM217 170q-29 0 -44 -13.5t-15 -34.5t15 -35t43 -14
q48 0 85 30v38q-13 11 -37 20t-47 9z" />
    <glyph glyph-name="uni0431" unicode="&#x431;" horiz-adv-x="519" 
d="M289 407q85 0 137 -59.5t52 -145.5q0 -93 -62 -155t-157 -62q-96 0 -155.5 64.5t-59.5 177.5v60q0 146 61 218.5t199 95.5q52 9 78.5 18t59.5 31q6 -10 6 -55t-6 -58q-31 -23 -59 -31.5t-94 -18.5q-68 -11 -96.5 -41.5t-30.5 -94.5q54 56 127 56zM260 87q42 0 71 30.5
t29 80.5t-29 78.5t-71 28.5q-27 0 -54.5 -13.5t-43.5 -29.5v-59q0 -58 27.5 -87t70.5 -29z" />
    <glyph glyph-name="uni0432" unicode="&#x432;" horiz-adv-x="477" 
d="M60 400h205q153 0 153 -105q0 -61 -58 -84q73 -26 73 -98q0 -113 -157 -113h-216v400zM178 316v-78h77q48 0 48 39t-48 39h-77zM178 170v-86h84q53 0 53 42q0 44 -53 44h-84z" />
    <glyph glyph-name="uni0433" unicode="&#x433;" horiz-adv-x="417" 
d="M60 400h319q10 -51 0 -103l-201 1v-298q-59 -11 -118 0v400z" />
    <glyph glyph-name="uni0434" unicode="&#x434;" horiz-adv-x="609" 
d="M576 99v-202q-58 -11 -115 0v103h-313v-103q-58 -11 -116 0v202h58q40 25 51 122l18 179h344v-301h73zM386 301l-119 1l-8 -81q-11 -93 -46 -122h173v202z" />
    <glyph glyph-name="uni0435" unicode="&#x435;" horiz-adv-x="496" 
d="M260 415q57 0 100 -23t63 -58t28.5 -75.5t-3.5 -74.5h-285q5 -47 37.5 -73.5t81.5 -26.5q63 0 132 41q6 -10 6 -47t-6 -50q-57 -43 -145 -43q-102 0 -163.5 60t-61.5 156q0 94 60.5 154t155.5 60zM261 326q-36 0 -60 -21t-31 -59h171q-1 37 -23 58.5t-57 21.5z" />
    <glyph glyph-name="uni0436" unicode="&#x436;" horiz-adv-x="713" 
d="M530 209l151 -209q-66 -12 -132 0l-134 190v-190q-59 -11 -117 0v190l-134 -190q-66 -12 -132 0l150 209l-145 191q66 12 132 0l129 -173v173q59 11 117 0v-173l129 173q66 12 132 0z" />
    <glyph glyph-name="uni0437" unicode="&#x437;" horiz-adv-x="411" 
d="M191 415q66 0 115 -32t49 -87q0 -62 -58 -85q35 -13 53.5 -39t18.5 -60q0 -60 -50.5 -93.5t-122.5 -33.5q-91 0 -148 43q-6 14 -6 46t6 42q66 -41 128 -41q36 0 56 14t20 37q0 44 -53 44h-77q-8 34 0 68h69q49 0 49 41q0 21 -19 33.5t-49 12.5q-54 0 -120 -41
q-7 10 -6.5 42t6.5 46q55 43 139 43z" />
    <glyph glyph-name="uni0438" unicode="&#x438;" horiz-adv-x="543" 
d="M178 166l216 234q44 9 89 0v-400q-59 -11 -118 0v234l-215 -234q-45 -9 -90 0v400q59 11 118 0v-234z" />
    <glyph glyph-name="uni0439" unicode="&#x439;" horiz-adv-x="543" 
d="M272 482q-86 0 -145 43q-6 14 -6 51t6 46q67 -40 145 -40q77 0 144 40q6 -9 6 -46t-6 -51q-59 -43 -144 -43zM178 166l216 234q44 9 89 0v-400q-59 -11 -118 0v234l-215 -234q-45 -9 -90 0v400q59 11 118 0v-234z" />
    <glyph glyph-name="uni043A" unicode="&#x43a;" horiz-adv-x="494" 
d="M295 209l166 -209q-67 -13 -134 0l-149 191v-191q-59 -11 -118 0v400q59 11 118 0v-174l144 174q67 13 134 0z" />
    <glyph glyph-name="uni043B" unicode="&#x43b;" horiz-adv-x="544" 
d="M485 400v-400q-59 -11 -118 0v301l-121 1l-16 -156q-8 -79 -46.5 -120t-97.5 -41q-21 0 -48 5q-6 13 -6 50t6 47q9 -3 18 -3q49 0 56 64l26 252h347z" />
    <glyph glyph-name="uni043C" unicode="&#x43c;" horiz-adv-x="679" 
d="M533 400l114 -400q-57 -11 -114 0l-57 225l-92 -225q-45 -9 -90 0l-91 225l-58 -225q-56 -11 -113 0l113 400q45 9 90 0l105 -247l103 247q45 9 90 0z" />
    <glyph glyph-name="uni043D" unicode="&#x43d;" horiz-adv-x="544" 
d="M366 256v144q59 11 118 0v-400q-59 -11 -118 0v153l-188 1v-154q-59 -11 -118 0v400q59 11 118 0v-144h188z" />
    <glyph glyph-name="uni043E" unicode="&#x43e;" horiz-adv-x="529" 
d="M264 415q96 0 158 -62.5t62 -152.5t-62 -152.5t-158 -62.5t-158 62.5t-62 152.5t62 152.5t158 62.5zM264 313q-44 0 -73 -31t-29 -82t29 -82t73 -31t73 31t29 82t-29 82t-73 31z" />
    <glyph glyph-name="uni043F" unicode="&#x43f;" horiz-adv-x="540" 
d="M480 400v-400q-59 -11 -118 0v301l-184 1v-302q-59 -11 -118 0v400h420z" />
    <glyph glyph-name="uni0440" unicode="&#x440;" horiz-adv-x="540" 
d="M307 415q85 0 137 -61.5t52 -153.5t-52 -153.5t-137 -61.5q-79 0 -127 56v-204q-59 -11 -118 0v563q51 10 102 0l9 -50q51 65 134 65zM275 87q46 0 74.5 31t28.5 82t-28.5 82t-74.5 31q-54 0 -95 -43v-140q41 -43 95 -43z" />
    <glyph glyph-name="uni0441" unicode="&#x441;" horiz-adv-x="471" 
d="M281 84q56 0 125 41q7 -10 6.5 -47t-6.5 -50q-55 -43 -137 -43q-100 0 -162.5 60t-62.5 155t62.5 155t162.5 60q82 0 137 -43q6 -13 6.5 -50t-6.5 -47q-69 41 -125 41q-51 0 -85 -31.5t-34 -84.5t34 -84.5t85 -31.5z" />
    <glyph glyph-name="uni0442" unicode="&#x442;" horiz-adv-x="464" 
d="M37 400h389q11 -51 0 -103l-135 1v-298q-59 -11 -118 0v298h-136q-10 51 0 102z" />
    <glyph glyph-name="uni0443" unicode="&#x443;" horiz-adv-x="518" 
d="M259 161l103 239q62 12 124 0l-256 -563q-60 -11 -120 0l89 196l-167 367q62 12 124 0z" />
    <glyph glyph-name="uni0444" unicode="&#x444;" horiz-adv-x="702" 
d="M414 415h28q98 0 161 -62t63 -153t-63 -153t-161 -62h-28v-148q-59 -11 -118 0v148h-28q-98 0 -161 62t-63 153t63 153t161 62h28v235q59 11 118 0v-235zM296 316h-28q-47 0 -76.5 -31.5t-29.5 -84.5t29.5 -84.5t76.5 -31.5h28v232zM414 316v-232h28q47 0 76.5 31.5
t29.5 84.5t-29.5 84.5t-76.5 31.5h-28z" />
    <glyph glyph-name="uni0445" unicode="&#x445;" horiz-adv-x="507" 
d="M333 209l141 -209q-66 -12 -132 0l-92 132l-88 -132q-65 -12 -130 0l142 209l-134 191q66 13 133 0l84 -120l80 120q64 12 130 0z" />
    <glyph glyph-name="uni0446" unicode="&#x446;" horiz-adv-x="569" 
d="M537 99v-203q-58 -11 -116 0v104h-361v400q59 11 118 0v-302h168v302q59 11 118 0v-301h73z" />
    <glyph glyph-name="uni0447" unicode="&#x447;" horiz-adv-x="498" 
d="M320 236v164q59 11 118 0v-400q-59 -11 -118 0v142q-57 -46 -127 -46q-76 0 -114 44.5t-38 108.5v151q59 11 118 0v-127q0 -75 74 -75q49 0 87 38z" />
    <glyph glyph-name="uni0448" unicode="&#x448;" horiz-adv-x="763" 
d="M585 99v301q59 11 118 0v-400h-643v400q59 11 118 0v-301h145v301q58 11 117 0v-301h145z" />
    <glyph glyph-name="uni0449" unicode="&#x449;" horiz-adv-x="809" 
d="M776 99v-202q-58 -11 -116 0v103h-600v400q59 11 118 0v-302l145 1v301q58 11 117 0v-302h145v302q59 11 118 0v-301h73z" />
    <glyph glyph-name="uni044A" unicode="&#x44a;" horiz-adv-x="530" 
d="M241 281h95q69 0 114 -35.5t45 -104.5q0 -70 -40 -105.5t-108 -35.5h-224v302h-86q-9 49 0 98h204v-119zM242 88h74q62 0 62 53q0 52 -62 52h-74v-105z" />
    <glyph glyph-name="uni044B" unicode="&#x44b;" horiz-adv-x="654" 
d="M178 281h94q70 0 115 -35.5t45 -104.5q0 -70 -40.5 -105.5t-107.5 -35.5h-224v400q59 11 118 0v-119zM476 0v400q59 11 118 0v-400q-59 -11 -118 0zM178 88h74q62 0 62 53q0 52 -62 52h-74v-105z" />
    <glyph glyph-name="uni044C" unicode="&#x44c;" horiz-adv-x="467" 
d="M178 281h94q70 0 115 -35.5t45 -104.5q0 -70 -40.5 -105.5t-107.5 -35.5h-224v400q59 11 118 0v-119zM178 88h74q62 0 62 53q0 52 -62 52h-74v-105z" />
    <glyph glyph-name="uni044D" unicode="&#x44d;" horiz-adv-x="471" 
d="M202 415q105 0 165 -59.5t60 -155.5t-60 -155.5t-165 -59.5q-81 0 -138 43q-6 13 -6 49.5t6 46.5q66 -41 126 -41q48 0 78.5 22t38.5 60l-146 1q-9 37 0 73h145q-20 78 -116 78q-60 0 -126 -41q-6 10 -6 46.5t6 49.5q57 43 138 43z" />
    <glyph glyph-name="uni044E" unicode="&#x44e;" horiz-adv-x="723" 
d="M458 415q96 0 158 -62.5t62 -152.5t-62 -152.5t-158 -62.5q-81 0 -139 46t-74 118l-67 1v-150q-59 -11 -118 0v400q59 11 118 0v-148h67q17 72 74.5 117.5t138.5 45.5zM458 87q44 0 73 31t29 82t-29 82t-73 31t-73 -31t-29 -82t29 -82t73 -31z" />
    <glyph glyph-name="uni044F" unicode="&#x44f;" horiz-adv-x="494" 
d="M434 400v-400q-59 -11 -118 0v133h-57l-98 -133q-65 -12 -129 0l110 149q-79 30 -79 114q0 68 39 102.5t106 34.5h226zM316 312h-76q-59 0 -59 -49q0 -50 59 -50h76v99z" />
    <glyph glyph-name="uni0451" unicode="&#x451;" horiz-adv-x="510" 
d="M137 627q32 0 53.5 -20t21.5 -51t-21.5 -51t-53.5 -20t-53.5 20t-21.5 51t21.5 51t53.5 20zM380 627q32 0 53.5 -20t21.5 -51t-21.5 -51t-53.5 -20t-53.5 20t-21.5 51t21.5 51t53.5 20zM260 415q57 0 100 -23t63 -58t28.5 -75.5t-3.5 -74.5h-285q5 -47 37.5 -73.5
t81.5 -26.5q63 0 132 41q6 -10 6 -47t-6 -50q-57 -43 -145 -43q-102 0 -163.5 60t-61.5 156q0 94 60.5 154t155.5 60zM261 326q-36 0 -60 -21t-31 -59h171q-1 37 -23 58.5t-57 21.5z" />
    <glyph glyph-name="Wgrave" unicode="&#x1e80;" horiz-adv-x="1019" 
d="M492 919l113 -163q-7 -14 -26.5 -29t-35.5 -18l-128 150q7 15 34 36t43 24zM986 650l-224 -650q-54 -10 -108 0l-144 435l-144 -435q-54 -10 -108 0l-224 650q67 13 134 0l144 -457l144 457q54 10 108 0l144 -457l144 457q67 13 134 0z" />
    <glyph glyph-name="wgrave" unicode="&#x1e81;" horiz-adv-x="751" 
d="M358 669l113 -163q-7 -14 -26.5 -29t-35.5 -18l-128 150q7 15 34 36t43 24zM187 0l-155 400q63 12 125 0l79 -244l91 244q49 12 97 0l91 -244l79 244q62 12 125 0l-155 -400q-48 -12 -96 0l-92 252l-93 -252q-48 -12 -96 0z" />
    <glyph glyph-name="Wacute" unicode="&#x1e82;" horiz-adv-x="1019" 
d="M415 756l113 163q16 -3 43 -24t34 -36l-128 -150q-16 3 -35.5 18t-26.5 29zM986 650l-224 -650q-54 -10 -108 0l-144 435l-144 -435q-54 -10 -108 0l-224 650q67 13 134 0l144 -457l144 457q54 10 108 0l144 -457l144 457q67 13 134 0z" />
    <glyph glyph-name="wacute" unicode="&#x1e83;" horiz-adv-x="751" 
d="M281 506l113 163q16 -3 43 -24t34 -36l-128 -150q-16 3 -35.5 18t-26.5 29zM187 0l-155 400q63 12 125 0l79 -244l91 244q49 12 97 0l91 -244l79 244q62 12 125 0l-155 -400q-48 -12 -96 0l-92 252l-93 -252q-48 -12 -96 0z" />
    <glyph glyph-name="Wdieresis" unicode="&#x1e84;" horiz-adv-x="1019" 
d="M389 877q32 0 53.5 -20t21.5 -51t-21.5 -51t-53.5 -20t-53.5 20t-21.5 51t21.5 51t53.5 20zM631 877q32 0 53.5 -20t21.5 -51t-21.5 -51t-53.5 -20t-53.5 20t-21.5 51t21.5 51t53.5 20zM986 650l-224 -650q-54 -10 -108 0l-144 435l-144 -435q-54 -10 -108 0l-224 650
q67 13 134 0l144 -457l144 457q54 10 108 0l144 -457l144 457q67 13 134 0z" />
    <glyph glyph-name="wdieresis" unicode="&#x1e85;" horiz-adv-x="751" 
d="M255 627q32 0 53.5 -20t21.5 -51t-21.5 -51t-53.5 -20t-53.5 20t-21.5 51t21.5 51t53.5 20zM497 627q32 0 53.5 -20t21.5 -51t-21.5 -51t-53.5 -20t-53.5 20t-21.5 51t21.5 51t53.5 20zM187 0l-155 400q63 12 125 0l79 -244l91 244q49 12 97 0l91 -244l79 244
q62 12 125 0l-155 -400q-48 -12 -96 0l-92 252l-93 -252q-48 -12 -96 0z" />
    <glyph glyph-name="Ygrave" unicode="&#x1ef2;" horiz-adv-x="679" 
d="M321 919l113 -163q-7 -14 -26.5 -29t-35.5 -18l-128 150q7 15 34 36t43 24zM405 232v-232q-65 -12 -130 0v232l-241 418q69 13 139 0l167 -297l166 297q70 13 139 0z" />
    <glyph glyph-name="ygrave" unicode="&#x1ef3;" horiz-adv-x="518" 
d="M241 669l113 -163q-7 -14 -26.5 -29t-35.5 -18l-128 150q7 15 34 36t43 24zM259 161l103 239q62 12 124 0l-256 -563q-60 -11 -120 0l89 196l-167 367q62 12 124 0z" />
    <glyph glyph-name="endash" unicode="&#x2013;" horiz-adv-x="497" 
d="M40 307h418q11 -44 0 -90l-418 1q-11 44 0 89z" />
    <glyph glyph-name="emdash" unicode="&#x2014;" horiz-adv-x="609" 
d="M40 307h530q11 -44 0 -90l-530 1q-11 44 0 89z" />
    <glyph glyph-name="quoteleft" unicode="&#x2018;" horiz-adv-x="226" 
d="M180 650q-56 -54 -80 -134q12 2 17 2q31 0 52.5 -20t21.5 -50q0 -31 -21.5 -51t-53.5 -20t-56.5 22.5t-24.5 67.5q-1 53 27 109.5t53 73.5q32 7 65 0z" />
    <glyph glyph-name="quoteright" unicode="&#x2019;" horiz-adv-x="226" 
d="M110 665q32 0 56.5 -22.5t25.5 -68.5q1 -52 -27.5 -108.5t-53.5 -73.5q-32 -7 -65 0q54 50 81 134q-14 -2 -18 -2q-31 0 -52.5 20t-21.5 50q0 31 21.5 51t53.5 20z" />
    <glyph glyph-name="quotesinglbase" unicode="&#x201a;" horiz-adv-x="226" 
d="M110 126q32 0 56.5 -22.5t25.5 -67.5q1 -53 -27.5 -109.5t-53.5 -73.5q-32 -7 -65 0q54 50 81 134q-14 -2 -18 -2q-31 0 -52.5 20t-21.5 50q0 31 21.5 51t53.5 20z" />
    <glyph glyph-name="quotedblleft" unicode="&#x201c;" horiz-adv-x="417" 
d="M180 650q-56 -54 -80 -134q12 2 17 2q31 0 52.5 -20t21.5 -50q0 -31 -21.5 -51t-53.5 -20t-56.5 22.5t-24.5 67.5q-1 53 27 109.5t53 73.5q32 7 65 0zM371 650q-56 -54 -80 -134q12 2 17 2q31 0 52.5 -20t21.5 -50q0 -31 -21.5 -51t-53.5 -20t-56.5 22.5t-24.5 67.5
q-1 53 27 109.5t53 73.5q32 7 65 0z" />
    <glyph glyph-name="quotedblright" unicode="&#x201d;" horiz-adv-x="417" 
d="M110 665q32 0 56.5 -22.5t25.5 -68.5q1 -52 -27.5 -108.5t-53.5 -73.5q-32 -7 -65 0q54 50 81 134q-14 -2 -18 -2q-31 0 -52.5 20t-21.5 50q0 31 21.5 51t53.5 20zM301 665q32 0 56.5 -22.5t25.5 -68.5q1 -52 -27.5 -108.5t-53.5 -73.5q-32 -7 -65 0q54 50 81 134
q-14 -2 -18 -2q-31 0 -52.5 20t-21.5 50q0 31 21.5 51t53.5 20z" />
    <glyph glyph-name="quotedblbase" unicode="&#x201e;" horiz-adv-x="417" 
d="M110 126q32 0 56.5 -22.5t25.5 -67.5q1 -53 -27.5 -109.5t-53.5 -73.5q-32 -7 -65 0q54 50 81 134q-14 -2 -18 -2q-31 0 -52.5 20t-21.5 50q0 31 21.5 51t53.5 20zM301 126q32 0 56.5 -22.5t25.5 -67.5q1 -53 -27.5 -109.5t-53.5 -73.5q-32 -7 -65 0q54 50 81 134
q-14 -2 -18 -2q-31 0 -52.5 20t-21.5 50q0 31 21.5 51t53.5 20z" />
    <glyph glyph-name="dagger" unicode="&#x2020;" horiz-adv-x="473" 
d="M302 400h132q10 -54 0 -108h-132v-375q-65 -12 -130 0v375h-132q-10 54 0 108h132v250q65 12 130 0v-250z" />
    <glyph glyph-name="daggerdbl" unicode="&#x2021;" horiz-adv-x="473" 
d="M302 227h132q10 -55 0 -109h-132v-201q-65 -12 -130 0v201h-132q-10 54 0 109h132v121h-132q-10 54 0 108h132v194q65 12 130 0v-194h132q10 -54 0 -108h-132v-121z" />
    <glyph glyph-name="bullet" unicode="&#x2022;" horiz-adv-x="354" 
d="M177 429q59 0 100.5 -42t41.5 -101t-41.5 -101t-100.5 -42t-101 42t-42 101t42 101t101 42z" />
    <glyph glyph-name="ellipsis" unicode="&#x2026;" horiz-adv-x="660" 
d="M109 -15q-32 0 -53.5 20t-21.5 50q0 31 21.5 51t53.5 20t53.5 -20t21.5 -51q0 -30 -21.5 -50t-53.5 -20zM330 -15q-32 0 -53.5 20t-21.5 50q0 31 21.5 51t53.5 20t53.5 -20t21.5 -51q0 -30 -21.5 -50t-53.5 -20zM550 -15q-32 0 -53.5 20t-21.5 50q0 31 21.5 51t53.5 20
t53.5 -20t21.5 -51q0 -30 -21.5 -50t-53.5 -20z" />
    <glyph glyph-name="perthousand" unicode="&#x2030;" horiz-adv-x="1084" 
d="M177 665q66 0 104.5 -46.5t38.5 -123.5t-38.5 -123.5t-104.5 -46.5t-104.5 46.5t-38.5 123.5t38.5 123.5t104.5 46.5zM569 650l-308 -650q-37 -10 -75 0l308 650q38 10 75 0zM177 593q-55 0 -55 -98t55 -98t55 98t-55 98zM578 325q66 0 104.5 -46.5t38.5 -123.5
t-38.5 -123.5t-104.5 -46.5t-104.5 46.5t-38.5 123.5t38.5 123.5t104.5 46.5zM906 325q66 0 104.5 -46.5t38.5 -123.5t-38.5 -123.5t-104.5 -46.5t-104.5 46.5t-38.5 123.5t38.5 123.5t104.5 46.5zM579 253q-55 0 -55 -98t55 -98t55 98t-55 98zM906 253q-55 0 -55 -98
t55 -98t55 98t-55 98z" />
    <glyph glyph-name="guilsinglleft" unicode="&#x2039;" horiz-adv-x="280" 
d="M151 217l94 -156q-46 -9 -91 0l-120 156l120 156q45 9 91 0z" />
    <glyph glyph-name="guilsinglright" unicode="&#x203a;" horiz-adv-x="280" 
d="M245 217l-119 -156q-46 -9 -92 0l94 156l-94 156q46 9 92 0z" />
    <glyph glyph-name="fraction" unicode="&#x2044;" horiz-adv-x="452" 
d="M417 650l-308 -650q-37 -10 -75 0l308 650q38 10 75 0z" />
    <glyph glyph-name="Euro" unicode="&#x20ac;" horiz-adv-x="762" 
d="M486 93q97 0 197 64q6 -10 6 -57.5t-6 -60.5q-83 -54 -204 -54q-139 0 -233.5 74t-119.5 191h-86q-11 21 0 42h80q-2 22 -2 33t2 33h-80q-11 21 0 42h86q25 117 119.5 191t233.5 74q121 0 204 -54q6 -13 6 -60.5t-6 -57.5q-100 64 -197 64q-80 0 -140.5 -42.5
t-83.5 -114.5h254q11 -21 0 -42h-264q-2 -22 -2 -33t2 -33h224q11 -21 0 -42h-214q23 -72 83.5 -114.5t140.5 -42.5z" />
    <glyph glyph-name="uni2116" unicode="&#x2116;" horiz-adv-x="1178" 
d="M924 665q96 0 158 -62.5t62 -152.5t-62 -152.5t-158 -62.5t-158 62.5t-62 152.5t62 152.5t158 62.5zM648 650v-650q-50 -10 -102 0l-341 432v-432q-65 -12 -130 0v650q51 10 102 0l342 -432v432q65 12 129 0zM924 563q-44 0 -73 -31t-29 -82t29 -82t73 -31t73 31t29 82
t-29 82t-73 31zM732 194h385q12 -52 0 -106h-385q-12 54 0 106z" />
    <glyph glyph-name="trademark" unicode="&#x2122;" horiz-adv-x="579" 
d="M488 649l56 -201q-29 -6 -60 0l-27 110l-44 -110q-24 -5 -48 0l-45 110l-28 -110q-30 -6 -59 0l57 201q24 5 47 0l52 -121l50 121q24 5 49 0zM37 650h201q6 -26 0 -54l-70 1v-149q-31 -7 -62 0v149h-69q-6 26 0 53z" />
    <glyph glyph-name="estimated" unicode="&#x212e;" horiz-adv-x="790" 
d="M395 665q151 0 247.5 -98.5t96.5 -241.5h-563v-212q86 -88 219 -88q166 0 264 115q15 -18 0 -57q-98 -98 -264 -98q-150 0 -246.5 98.5t-96.5 241.5t96.5 241.5t246.5 98.5zM395 625q-133 0 -219 -88v-177h438v177q-86 88 -219 88z" />
    <glyph glyph-name="oneeighth" unicode="&#x215b;" horiz-adv-x="703" 
d="M196 650v-310q-45 -10 -88 0v224l-68 -49q-5 7 -5 34.5t5 36.5l89 64q33 10 67 0zM512 650l-308 -650q-38 -10 -75 0l308 650q37 10 75 0zM541 325q54 0 87 -26t33 -64q0 -49 -45 -74q53 -22 53 -79q0 -44 -37 -70.5t-91 -26.5q-55 0 -92 26.5t-37 70.5q0 57 53 79
q-45 25 -45 74q0 38 33 64t88 26zM541 256q-18 0 -29 -10t-11 -24q0 -15 10 -24.5t27 -9.5h5q17 0 27 9.5t10 24.5q0 14 -10.5 24t-28.5 10zM543 134h-5q-22 0 -33.5 -12t-11.5 -29q0 -18 13 -28.5t34 -10.5t34.5 10.5t13.5 28.5q0 17 -11.5 29t-33.5 12z" />
    <glyph glyph-name="threeeighths" unicode="&#x215c;" horiz-adv-x="742" 
d="M138 665q54 0 85.5 -26t31.5 -64q0 -48 -45 -74q52 -21 52 -79q0 -45 -33.5 -71t-87.5 -26q-66 0 -103 28q-3 8 -3.5 38.5t3.5 35.5q55 -35 91 -35q21 0 36.5 10t15.5 29q0 37 -50 37h-35q-5 30 0 61h34q19 0 31 9.5t12 24.5q0 16 -12.5 25.5t-32.5 9.5q-33 0 -88 -35
q-3 5 -2.5 35.5t2.5 38.5q40 28 98 28zM551 650l-308 -650q-37 -10 -75 0l308 650q38 10 75 0zM579 325q54 0 87 -26t33 -64q0 -49 -44 -74q52 -22 52 -79q0 -44 -37 -70.5t-91 -26.5q-55 0 -92 26.5t-37 70.5q0 57 53 79q-45 25 -45 74q0 38 33 64t88 26zM579 256
q-18 0 -29 -10t-11 -24q0 -15 10 -24.5t27 -9.5h5q17 0 27 9.5t10 24.5q0 14 -10.5 24t-28.5 10zM581 134h-5q-22 0 -33.5 -12t-11.5 -29q0 -18 13 -28.5t34 -10.5t34.5 10.5t13.5 28.5q0 17 -11.5 29t-33.5 12z" />
    <glyph glyph-name="fiveeighths" unicode="&#x215d;" horiz-adv-x="736" 
d="M545 650l-308 -650q-37 -10 -75 0l308 650q38 10 75 0zM78 650h168q10 -34 -1 -72h-106l-7 -49q18 4 29 4q44 0 73 -27t29 -72q0 -50 -35.5 -79.5t-91.5 -29.5q-64 0 -99 27q-2 7 -2.5 39t2.5 37q45 -35 84 -35q25 0 38.5 12t13.5 31q0 18 -15 30t-47 12q-27 0 -60 -13z
M574 325q54 0 87 -26t33 -64q0 -49 -45 -74q53 -22 53 -79q0 -44 -37 -70.5t-91 -26.5q-55 0 -92 26.5t-37 70.5q0 57 53 79q-45 25 -45 74q0 38 33 64t88 26zM574 256q-18 0 -29 -10t-11 -24q0 -15 10 -24.5t27 -9.5h5q17 0 27 9.5t10 24.5q0 14 -10.5 24t-28.5 10z
M576 134h-5q-22 0 -33.5 -12t-11.5 -29q0 -18 13 -28.5t34 -10.5t34.5 10.5t13.5 28.5q0 17 -11.5 29t-33.5 12z" />
    <glyph glyph-name="seveneighths" unicode="&#x215e;" horiz-adv-x="695" 
d="M504 650l-308 -650q-38 -10 -75 0l308 650q37 10 75 0zM280 643l-141 -303q-45 -10 -90 0l112 238h-121q-10 36 0 72h240v-7zM533 325q54 0 87 -26t33 -64q0 -49 -44 -74q52 -22 52 -79q0 -44 -37 -70.5t-91 -26.5q-55 0 -92 26.5t-37 70.5q0 57 53 79q-45 25 -45 74
q0 38 33 64t88 26zM533 256q-18 0 -29 -10t-11 -24q0 -15 10 -24.5t27 -9.5h5q17 0 27 9.5t10 24.5q0 14 -10.5 24t-28.5 10zM535 134h-5q-22 0 -33.5 -12t-11.5 -29q0 -18 13 -28.5t34 -10.5t34.5 10.5t13.5 28.5q0 17 -11.5 29t-33.5 12z" />
    <glyph glyph-name="partialdiff" unicode="&#x2202;" horiz-adv-x="519" 
d="M102 650q166 -18 269.5 -127t103.5 -274v-22q0 -111 -59.5 -176.5t-156.5 -65.5q-95 0 -156.5 62t-61.5 155q0 86 51.5 145.5t136.5 59.5q73 0 125 -54q-21 75 -88 124t-164 66q-6 13 -6 55t6 52zM258 305q-41 0 -70 -28.5t-29 -78.5t29 -80.5t71 -30.5q44 0 71.5 29
t27.5 87v22q0 18 -2 38q-44 42 -98 42z" />
    <glyph glyph-name="emptyset" unicode="&#x2205;" horiz-adv-x="529" 
d="M460 370l-28 -29q52 -58 52 -141q0 -90 -62 -152.5t-158 -62.5q-79 0 -136 44l-27 -29q-23 6 -30 30l26 27q-53 59 -53 143q0 90 62 152.5t158 62.5q79 0 137 -44l29 29q21 -6 30 -30zM162 200q0 -35 17 -61l145 154q-25 20 -60 20q-44 0 -73 -31t-29 -82zM264 87
q44 0 73 31t29 82q0 33 -16 59l-145 -154q25 -18 59 -18z" />
    <glyph glyph-name="product" unicode="&#x220f;" horiz-adv-x="710" 
d="M40 650h631q10 -54 0 -108h-64v-542q-65 -12 -130 0v542h-243v-542q-65 -12 -130 0v542h-64q-10 54 0 108z" />
    <glyph glyph-name="summation" unicode="&#x2211;" horiz-adv-x="503" 
d="M241 108h222q10 -54 0 -108h-429v10l216 315l-216 315v10h429q10 -54 0 -108h-222l139 -198q6 -7 6 -19.5t-6 -19.5z" />
    <glyph glyph-name="minus" unicode="&#x2212;" horiz-adv-x="423" 
d="M40 307h344q11 -44 0 -90l-344 1q-11 44 0 89z" />
    <glyph glyph-name="radical" unicode="&#x221a;" horiz-adv-x="725" 
d="M475 650h210q10 -51 0 -103l-131 1l-245 -548q-48 -12 -96 0l-179 400q62 12 124 0l103 -248z" />
    <glyph glyph-name="infinity" unicode="&#x221e;" horiz-adv-x="637" 
d="M447 422q65 0 110.5 -46t45.5 -110t-46 -110t-110 -46q-82 0 -129 70q-45 -70 -128 -70q-64 0 -110 46t-46 110t46 110t110 46q83 0 128 -70q47 70 129 70zM190 198q29 0 49.5 20t20.5 48q0 29 -20.5 49.5t-49.5 20.5t-49 -20.5t-20 -49.5q0 -28 20 -48t49 -20zM447 197
q29 0 49.5 20t20.5 49t-20.5 49.5t-49.5 20.5t-49 -20.5t-20 -49.5t20 -49t49 -20z" />
    <glyph glyph-name="integral" unicode="&#x222b;" horiz-adv-x="453" 
d="M412 644q6 -15 6.5 -54t-6.5 -49q-46 25 -70 25q-57 0 -57 -64v-613q0 -66 -41.5 -102.5t-101.5 -36.5q-54 0 -102 21q-6 14 -6 53.5t6 49.5q48 -25 71 -25q56 0 56 64v613q0 66 42 102.5t102 36.5q53 0 101 -21z" />
    <glyph glyph-name="approxequal" unicode="&#x2248;" horiz-adv-x="461" 
d="M154 394q34 0 80 -24.5t75 -24.5q13 0 25.5 2.5t26.5 8.5t21.5 9.5t22.5 11.5t17 9q9 -37 0 -73q-2 -1 -22 -12t-29 -15t-27.5 -9t-35.5 -5q-34 0 -80 24.5t-75 24.5q-13 0 -25.5 -2.5t-26.5 -8.5t-21.5 -9.5t-22.5 -11.5t-17 -9q-9 37 0 73q2 1 22 12t29 15t27.5 9
t35.5 5zM154 254q34 0 80 -24.5t75 -24.5q13 0 25.5 2.5t26.5 8.5t21.5 9.5t22.5 11.5t17 9q9 -37 0 -73q-2 -1 -22 -12t-29 -15t-27.5 -9t-35.5 -5q-34 0 -80 24.5t-75 24.5q-13 0 -25.5 -2.5t-26.5 -8.5t-21.5 -9.5t-22.5 -11.5t-17 -9q-9 37 0 73q2 1 22 12t29 15t27.5 9
t35.5 5z" />
    <glyph glyph-name="notequal" unicode="&#x2260;" horiz-adv-x="423" 
d="M270 388h114q11 -44 0 -90h-138l-17 -67h155q11 -44 0 -90l-179 1l-16 -61q-10 -5 -26.5 -5t-26.5 5l16 61h-112q-11 44 0 89h136l17 67l-153 1q-11 45 0 89h177l16 61q10 5 26.5 5t26.5 -5z" />
    <glyph glyph-name="lessequal" unicode="&#x2264;" horiz-adv-x="436" 
d="M40 373l357 153q12 -50 0 -102l-195 -72l195 -73q12 -52 0 -102l-357 154q-12 21 0 42zM40 145h357q11 -44 0 -90h-357q-11 46 0 90z" />
    <glyph glyph-name="greaterequal" unicode="&#x2265;" horiz-adv-x="436" 
d="M40 526l357 -153q12 -21 0 -42l-357 -154q-12 50 0 102l195 73l-195 72q-12 52 0 102zM40 145h357q11 -44 0 -90h-357q-11 46 0 90z" />
    <glyph glyph-name="lozenge" unicode="&#x25ca;" horiz-adv-x="521" 
d="M260 196l-226 227l226 227l226 -227zM360 423l-99 100l-99 -100l99 -100z" />
    <glyph glyph-name="i.loclTRK" horiz-adv-x="241" 
d="M122 485q-32 0 -53.5 20t-21.5 51t21.5 51t53.5 20t53.5 -20t21.5 -51t-21.5 -51t-53.5 -20zM180 400v-400q-59 -11 -118 0v400q59 11 118 0z" />
    <glyph glyph-name="a.ss01" 
d="M233 415q83 0 134 -65l8 50q51 10 103 0v-400q-52 -10 -103 0l-8 50q-51 -65 -134 -65q-85 0 -137 61.5t-52 153.5t52 153.5t137 61.5zM264 313q-45 0 -73.5 -31t-28.5 -82t28.5 -82t73.5 -31q53 0 96 43v140q-43 43 -96 43z" />
    <glyph glyph-name="aacute.ss01" 
d="M181 506l113 163q16 -3 43 -24t34 -36l-128 -150q-16 3 -35.5 18t-26.5 29zM233 415q83 0 134 -65l8 50q51 10 103 0v-400q-52 -10 -103 0l-8 50q-51 -65 -134 -65q-85 0 -137 61.5t-52 153.5t52 153.5t137 61.5zM264 313q-45 0 -73.5 -31t-28.5 -82t28.5 -82t73.5 -31
q53 0 96 43v140q-43 43 -96 43z" />
    <glyph glyph-name="abreve.ss01" 
d="M420 622q6 -9 6 -46t-6 -51q-59 -43 -144 -43q-86 0 -145 43q-6 14 -6 51t6 46q67 -40 145 -40q77 0 144 40zM233 415q83 0 134 -65l8 50q51 10 103 0v-400q-52 -10 -103 0l-8 50q-51 -65 -134 -65q-85 0 -137 61.5t-52 153.5t52 153.5t137 61.5zM264 313
q-45 0 -73.5 -31t-28.5 -82t28.5 -82t73.5 -31q53 0 96 43v140q-43 43 -96 43z" />
    <glyph glyph-name="acaron.ss01" 
d="M276 566l93 94q16 -4 38 -25t28 -37l-139 -139q-8 -6 -20 -6t-20 6l-138 139q6 16 28 36.5t37 25.5zM233 415q83 0 134 -65l8 50q51 10 103 0v-400q-52 -10 -103 0l-8 50q-51 -65 -134 -65q-85 0 -137 61.5t-52 153.5t52 153.5t137 61.5zM264 313q-45 0 -73.5 -31
t-28.5 -82t28.5 -82t73.5 -31q53 0 96 43v140q-43 43 -96 43z" />
    <glyph glyph-name="acircumflex.ss01" 
d="M296 658l139 -139q-6 -16 -28 -37t-38 -25l-93 95l-93 -95q-15 5 -37 25.5t-28 36.5l138 139q8 7 20.5 7t19.5 -7zM233 415q83 0 134 -65l8 50q51 10 103 0v-400q-52 -10 -103 0l-8 50q-51 -65 -134 -65q-85 0 -137 61.5t-52 153.5t52 153.5t137 61.5zM264 313
q-45 0 -73.5 -31t-28.5 -82t28.5 -82t73.5 -31q53 0 96 43v140q-43 43 -96 43z" />
    <glyph glyph-name="adieresis.ss01" 
d="M155 627q32 0 53.5 -20t21.5 -51t-21.5 -51t-53.5 -20t-53.5 20t-21.5 51t21.5 51t53.5 20zM398 627q32 0 53.5 -20t21.5 -51t-21.5 -51t-53.5 -20t-53.5 20t-21.5 51t21.5 51t53.5 20zM233 415q83 0 134 -65l8 50q51 10 103 0v-400q-52 -10 -103 0l-8 50
q-51 -65 -134 -65q-85 0 -137 61.5t-52 153.5t52 153.5t137 61.5zM264 313q-45 0 -73.5 -31t-28.5 -82t28.5 -82t73.5 -31q53 0 96 43v140q-43 43 -96 43z" />
    <glyph glyph-name="agrave.ss01" 
d="M258 669l113 -163q-7 -14 -26.5 -29t-35.5 -18l-128 150q7 15 34 36t43 24zM233 415q83 0 134 -65l8 50q51 10 103 0v-400q-52 -10 -103 0l-8 50q-51 -65 -134 -65q-85 0 -137 61.5t-52 153.5t52 153.5t137 61.5zM264 313q-45 0 -73.5 -31t-28.5 -82t28.5 -82t73.5 -31
q53 0 96 43v140q-43 43 -96 43z" />
    <glyph glyph-name="amacron.ss01" 
d="M144 575h259q11 -44 0 -90l-259 1q-11 44 0 89zM233 415q83 0 134 -65l8 50q51 10 103 0v-400q-52 -10 -103 0l-8 50q-51 -65 -134 -65q-85 0 -137 61.5t-52 153.5t52 153.5t137 61.5zM264 313q-45 0 -73.5 -31t-28.5 -82t28.5 -82t73.5 -31q53 0 96 43v140
q-43 43 -96 43z" />
    <glyph glyph-name="aogonek.ss01" 
d="M505 -137q12 -37 0 -73q-17 -5 -44 -5q-45 0 -75 26t-30 71q0 63 63 113q-17 0 -44 5l-8 50q-51 -65 -134 -65q-85 0 -137 61.5t-52 153.5t52 153.5t137 61.5q83 0 134 -65l8 50q51 10 103 0v-400q-59 -48 -59 -88q0 -23 15.5 -38.5t43.5 -15.5q17 0 27 5zM360 130v140
q-43 43 -96 43q-45 0 -73.5 -31t-28.5 -82t28.5 -82t73.5 -31q53 0 96 43z" />
    <glyph glyph-name="aring.ss01" 
d="M276 665q40 0 68 -28t28 -67q0 -40 -28 -68t-68 -28t-68.5 28t-28.5 68q0 39 28.5 67t68.5 28zM276 601q-13 0 -22.5 -9t-9.5 -22t9.5 -22.5t22.5 -9.5t22 9.5t9 22.5t-9 22t-22 9zM233 415q83 0 134 -65l8 50q51 10 103 0v-400q-52 -10 -103 0l-8 50q-51 -65 -134 -65
q-85 0 -137 61.5t-52 153.5t52 153.5t137 61.5zM264 313q-45 0 -73.5 -31t-28.5 -82t28.5 -82t73.5 -31q53 0 96 43v140q-43 43 -96 43z" />
    <glyph glyph-name="atilde.ss01" 
d="M212 606q27 0 75 -22q27 -12 52 -12q28 0 86 30q11 -46 0 -90q-3 -1 -13 -6.5t-14 -7.5t-13 -6t-15 -5.5t-14.5 -3t-16.5 -1.5q-27 0 -75 22q-27 12 -52 12q-28 0 -86 -30q-11 46 0 90q3 1 13 6.5t14 7.5t13 6t15 5.5t14.5 3t16.5 1.5zM233 415q83 0 134 -65l8 50
q51 10 103 0v-400q-52 -10 -103 0l-8 50q-51 -65 -134 -65q-85 0 -137 61.5t-52 153.5t52 153.5t137 61.5zM264 313q-45 0 -73.5 -31t-28.5 -82t28.5 -82t73.5 -31q53 0 96 43v140q-43 43 -96 43z" />
    <glyph glyph-name="ae.ss01" horiz-adv-x="812" 
d="M576 415q74 0 123 -39t63.5 -91.5t0.5 -100.5h-284q4 -47 37 -73.5t82 -26.5q62 0 131 41q7 -10 6.5 -46.5t-6.5 -50.5q-55 -43 -144 -43q-85 0 -138 48v-33q-35 -12 -72 0l-8 50q-51 -65 -134 -65q-85 0 -137 61.5t-52 153.5t52 153.5t137 61.5q83 0 134 -65l8 50
q37 12 72 0v-32q52 47 129 47zM577 326q-36 0 -60 -21t-31 -59h171q-1 37 -23 58.5t-57 21.5zM264 313q-45 0 -73.5 -31t-28.5 -82t28.5 -82t73.5 -31q53 0 96 43v140q-43 43 -96 43z" />
    <glyph glyph-name="uni0430.ss01" 
d="M233 415q83 0 134 -65l8 50q51 10 103 0v-400q-52 -10 -103 0l-8 50q-51 -65 -134 -65q-85 0 -137 61.5t-52 153.5t52 153.5t137 61.5zM264 313q-45 0 -73.5 -31t-28.5 -82t28.5 -82t73.5 -31q53 0 96 43v140q-43 43 -96 43z" />
    <glyph glyph-name="zero.tf" horiz-adv-x="600" 
d="M300 665q126 0 200 -92.5t74 -247.5t-74 -247.5t-200 -92.5t-200 92.5t-74 247.5t74 247.5t200 92.5zM300 557q-65 0 -103.5 -56t-38.5 -176t38.5 -176t103.5 -56t103.5 56t38.5 176t-38.5 176t-103.5 56z" />
    <glyph glyph-name="one.tf" horiz-adv-x="600" 
d="M126 530l168 120q51 10 102 0v-650q-65 -12 -129 0v506l-141 -101q-6 10 -6 61t6 64z" />
    <glyph glyph-name="two.tf" horiz-adv-x="600" 
d="M287 108h228q10 -54 0 -108h-444v10q190 217 247.5 304.5t57.5 141.5q0 47 -29 74t-76 27q-75 0 -166 -70q-7 10 -6.5 59.5t6.5 64.5q27 23 74.5 38.5t101.5 15.5q108 0 167 -58t59 -145q0 -75 -49 -151.5t-171 -202.5z" />
    <glyph glyph-name="three.tf" horiz-adv-x="600" 
d="M276 665q103 0 164 -49t61 -127q0 -52 -25.5 -92.5t-68.5 -61.5q53 -21 81.5 -63.5t28.5 -98.5q0 -86 -67 -137.5t-168 -51.5q-56 0 -109 15.5t-87 38.5q-6 16 -6 65t6 59q106 -70 185 -70q49 0 81.5 25t32.5 72q0 40 -25 64t-75 24h-81q-10 52 0 103h79q39 0 64 24
t25 64q0 41 -27.5 65t-74.5 24q-76 0 -179 -70q-6 10 -6 59.5t6 64.5q78 54 185 54z" />
    <glyph glyph-name="four.tf" horiz-adv-x="600" 
d="M470 235h81q10 -54 0 -106h-81v-129q-65 -12 -130 0v129h-291q-10 52 0 106l319 415q51 10 102 0v-415zM339 468l-178 -233h178v233z" />
    <glyph glyph-name="five.tf" horiz-adv-x="600" 
d="M299 402q94 0 154.5 -54.5t60.5 -149.5q0 -98 -67.5 -156t-172.5 -58q-54 0 -107 15.5t-87 38.5q-6 16 -6 65t6 59q106 -70 185 -70q52 0 84.5 29t32.5 77q0 51 -38 79t-99 28q-58 0 -132 -33l54 378h314q10 -54 0 -108h-215l-22 -148q27 8 55 8z" />
    <glyph glyph-name="six.tf" horiz-adv-x="600" 
d="M347 416q86 -2 138.5 -61t52.5 -145q0 -95 -65.5 -160t-172.5 -65q-110 0 -175 67t-65 172q0 72 32 147t78.5 130t89 93.5t73.5 55.5q27 5 78.5 5t79.5 -5q-92 -72 -154 -135t-96 -130q45 31 106 31zM299 93q47 0 77 31.5t30 83.5q0 49 -29 78.5t-77 29.5q-57 0 -102 -43
q-6 -31 -6 -67q0 -49 29 -81t78 -32z" />
    <glyph glyph-name="seven.tf" horiz-adv-x="600" 
d="M541 640l-297 -640q-70 -13 -140 0l254 542h-280q-10 54 0 108h463v-10z" />
    <glyph glyph-name="eight.tf" horiz-adv-x="600" 
d="M300 665q100 0 159.5 -50t59.5 -126q0 -52 -25.5 -92.5t-68.5 -61.5q52 -21 81 -64t29 -99q0 -87 -66 -137.5t-169 -50.5t-169 50.5t-66 137.5q0 56 29 99t81 64q-43 21 -68.5 61.5t-25.5 92.5q0 76 59.5 126t159.5 50zM300 557q-41 0 -66 -25.5t-25 -63.5t24.5 -63.5
t61.5 -25.5h10q38 0 62 25.5t24 63.5t-25 63.5t-66 25.5zM305 278h-10q-43 0 -70.5 -25t-27.5 -67q0 -44 29 -69t74 -25t74 25t29 69q0 42 -27 67t-71 25z" />
    <glyph glyph-name="nine.tf" horiz-adv-x="600" 
d="M298 665q110 0 175 -67t65 -172q0 -72 -32 -147t-78.5 -130t-89 -93.5t-73.5 -55.5q-28 -5 -79 -5t-79 5q92 72 154 135t95 130q-43 -31 -105 -31q-86 2 -138.5 61t-52.5 145q0 95 65.5 160t172.5 65zM299 557q-47 0 -77 -31.5t-30 -83.5q0 -49 29 -78.5t77 -29.5
q56 0 101 43q7 29 7 67q0 48 -29.5 80.5t-77.5 32.5z" />
    <glyph glyph-name="zero.dnom" horiz-adv-x="355" 
d="M177 325q66 0 104.5 -46.5t38.5 -123.5t-38.5 -123.5t-104.5 -46.5t-104.5 46.5t-38.5 123.5t38.5 123.5t104.5 46.5zM177 253q-55 0 -55 -98t55 -98t55 98t-55 98z" />
    <glyph glyph-name="one.dnom" horiz-adv-x="230" 
d="M40 246l89 64q33 10 67 0v-310q-45 -10 -88 0v224l-68 -49q-5 7 -5 34.5t5 36.5z" />
    <glyph glyph-name="two.dnom" horiz-adv-x="316" 
d="M170 72h105q12 -36 0 -72h-241v7q91 92 120 133.5t29 70.5q0 17 -13.5 29.5t-37.5 12.5q-34 0 -80 -35q-3 4 -3 38.5t3 41.5q35 27 94 27t91.5 -31.5t32.5 -75.5q0 -36 -22.5 -69t-77.5 -77z" />
    <glyph glyph-name="three.dnom" horiz-adv-x="297" 
d="M138 325q54 0 85.5 -26t31.5 -64q0 -49 -45 -74q52 -21 52 -79q0 -45 -33.5 -71t-87.5 -26q-66 0 -103 28q-3 8 -3.5 38.5t3.5 35.5q55 -35 91 -35q21 0 36.5 10t15.5 29q0 37 -50 37h-35q-5 30 0 61h34q19 0 31 9.5t12 24.5q0 16 -12.5 25.5t-32.5 9.5q-33 0 -88 -35
q-3 5 -2.5 35.5t2.5 38.5q40 28 98 28z" />
    <glyph glyph-name="four.dnom" horiz-adv-x="333" 
d="M255 121h39q9 -34 0 -67h-39v-54q-45 -10 -88 0v54h-127q-9 34 0 67l148 189q34 10 67 0v-189zM166 207l-67 -86h67v86z" />
    <glyph glyph-name="five.dnom" horiz-adv-x="297" 
d="M161 193q44 0 73 -27t29 -72q0 -50 -35.5 -79.5t-91.5 -29.5q-64 0 -99 27q-2 7 -2.5 39t2.5 37q45 -35 84 -35q25 0 38.5 12t13.5 31q0 18 -15 30t-47 12q-27 0 -60 -13l27 185h168q10 -34 -1 -72h-106l-8 -49q20 4 30 4z" />
    <glyph glyph-name="six.dnom" horiz-adv-x="321" 
d="M183 194q49 0 76 -28.5t27 -73.5t-34.5 -76t-89.5 -31q-59 0 -93.5 35.5t-34.5 87.5q0 60 45 122t78 80q13 3 49.5 3t50.5 -3q-89 -75 -115 -126q17 10 41 10zM162 51q18 0 30 11.5t12 29.5q0 21 -11.5 33t-30.5 12q-20 0 -41 -15q-2 -8 -2 -24q0 -22 12 -34.5t31 -12.5z
" />
    <glyph glyph-name="seven.dnom" horiz-adv-x="313" 
d="M280 303l-141 -303q-45 -10 -90 0l112 238h-121q-10 36 0 72h240v-7z" />
    <glyph glyph-name="eight.dnom" horiz-adv-x="326" 
d="M163 325q54 0 87 -26t33 -64q0 -49 -44 -74q52 -22 52 -79q0 -44 -37 -70.5t-91 -26.5q-55 0 -92 26.5t-37 70.5q0 57 53 79q-45 25 -45 74q0 38 33 64t88 26zM163 256q-18 0 -29 -10t-11 -24q0 -15 10 -24.5t27 -9.5h5q17 0 27 9.5t10 24.5q0 14 -10.5 24t-28.5 10z
M165 134h-5q-22 0 -33.5 -12t-11.5 -29q0 -18 13 -28.5t34 -10.5t34.5 10.5t13.5 28.5q0 17 -11.5 29t-33.5 12z" />
    <glyph glyph-name="nine.dnom" horiz-adv-x="321" 
d="M159 325q59 0 93 -35.5t34 -87.5q0 -60 -44.5 -121.5t-77.5 -80.5q-14 -3 -50.5 -3t-50.5 3q89 75 116 126q-22 -10 -41 -10q-49 0 -76.5 28.5t-27.5 73.5t34.5 76t90.5 31zM158 173q21 0 42 15q2 16 2 24q0 22 -12 34.5t-31 12.5q-18 0 -30 -11.5t-12 -29.5
q0 -21 11.5 -33t29.5 -12z" />
    <glyph glyph-name="zero.numr" horiz-adv-x="355" 
d="M177 665q66 0 104.5 -46.5t38.5 -123.5t-38.5 -123.5t-104.5 -46.5t-104.5 46.5t-38.5 123.5t38.5 123.5t104.5 46.5zM177 593q-55 0 -55 -98t55 -98t55 98t-55 98z" />
    <glyph glyph-name="one.numr" horiz-adv-x="230" 
d="M40 586l89 64q33 10 67 0v-310q-45 -10 -88 0v224l-68 -49q-5 7 -5 34.5t5 36.5z" />
    <glyph glyph-name="two.numr" horiz-adv-x="316" 
d="M170 412h105q12 -36 0 -72h-241v7q91 92 120 133.5t29 70.5q0 17 -13.5 29.5t-37.5 12.5q-34 0 -80 -35q-3 4 -3 38.5t3 41.5q35 27 94 27t91.5 -31.5t32.5 -75.5q0 -36 -22.5 -69t-77.5 -77z" />
    <glyph glyph-name="three.numr" horiz-adv-x="297" 
d="M138 665q54 0 85.5 -26t31.5 -64q0 -49 -45 -74q52 -21 52 -79q0 -45 -33.5 -71t-87.5 -26q-66 0 -103 28q-3 8 -3.5 38.5t3.5 35.5q55 -35 91 -35q21 0 36.5 10t15.5 29q0 37 -50 37h-35q-5 30 0 61h34q19 0 31 9.5t12 24.5q0 16 -12.5 25.5t-32.5 9.5q-33 0 -88 -35
q-3 5 -2.5 35.5t2.5 38.5q40 28 98 28z" />
    <glyph glyph-name="four.numr" horiz-adv-x="333" 
d="M255 461h39q9 -33 0 -67h-39v-54q-45 -10 -88 0v54h-127q-9 33 0 67l148 189q34 10 67 0v-189zM166 547l-67 -86h67v86z" />
    <glyph glyph-name="five.numr" horiz-adv-x="297" 
d="M161 533q44 0 73 -27t29 -72q0 -50 -35.5 -79.5t-91.5 -29.5q-64 0 -99 27q-2 7 -2.5 39t2.5 37q45 -35 84 -35q25 0 38.5 12t13.5 31q0 18 -15 30t-47 12q-27 0 -60 -13l27 185h168q10 -34 -1 -72h-106l-8 -49q20 4 30 4z" />
    <glyph glyph-name="six.numr" horiz-adv-x="321" 
d="M183 534q49 0 76 -28.5t27 -73.5t-34.5 -76t-89.5 -31q-59 0 -93.5 35.5t-34.5 87.5q0 60 45 122t78 80q13 3 49.5 3t50.5 -3q-89 -75 -115 -126q17 10 41 10zM162 391q18 0 30 11.5t12 29.5q0 21 -11.5 33t-30.5 12q-20 0 -41 -15q-2 -8 -2 -24q0 -22 12 -34.5t31 -12.5
z" />
    <glyph glyph-name="seven.numr" horiz-adv-x="313" 
d="M280 643l-141 -303q-45 -10 -90 0l112 238h-121q-10 36 0 72h240v-7z" />
    <glyph glyph-name="eight.numr" horiz-adv-x="326" 
d="M163 665q54 0 87 -26t33 -64q0 -49 -44 -74q52 -22 52 -79q0 -44 -37 -70.5t-91 -26.5q-55 0 -92 26.5t-37 70.5q0 57 53 79q-45 25 -45 74q0 38 33 64t88 26zM163 596q-18 0 -29 -10t-11 -24q0 -15 10 -24.5t27 -9.5h5q17 0 27 9.5t10 24.5q0 14 -10.5 24t-28.5 10z
M165 474h-5q-22 0 -33.5 -12t-11.5 -29q0 -18 13 -28.5t34 -10.5t34.5 10.5t13.5 28.5q0 17 -11.5 29t-33.5 12z" />
    <glyph glyph-name="nine.numr" horiz-adv-x="321" 
d="M159 665q59 0 93 -35.5t34 -87.5q0 -60 -44.5 -122.5t-77.5 -79.5q-13 -3 -50 -3t-51 3q89 75 116 126q-18 -10 -41 -10q-49 0 -76.5 28.5t-27.5 73.5t34.5 76t90.5 31zM158 513q21 0 42 15q2 16 2 24q0 22 -12 34.5t-31 12.5q-18 0 -30 -11.5t-12 -29.5q0 -21 11.5 -33
t29.5 -12z" />
    <glyph glyph-name="ampersand.ss01" horiz-adv-x="642" 
d="M394 380h209q10 -52 0 -103h-93q16 -45 16 -104q0 -86 -72 -137.5t-174 -51.5t-174 51.5t-72 137.5q0 56 28.5 98.5t81.5 63.5q-43 21 -68.5 61.5t-25.5 92.5q0 78 61 127t165 49q107 0 184 -54q6 -15 6 -64.5t-6 -59.5q-103 70 -179 70q-47 0 -74 -24t-27 -65
q0 -40 24.5 -64t64.5 -24h53q10 -52 0 -103h-56q-50 0 -75 -24t-25 -64q0 -47 32.5 -72t81.5 -25t81.5 25t32.5 72v191z" />
    </font>
</defs>
</svg>
